<?xml version="1.0" encoding="utf-8"?>
<!-- Generator: Adobe Illustrator 24.0.1, SVG Export Plug-In . SVG Version: 6.00 Build 0)  -->
<svg
  version="1.1"
  id="图层_1"
  xmlns="http://www.w3.org/2000/svg"
  xmlns:xlink="http://www.w3.org/1999/xlink"
  x="0px"
  y="0px"
  viewBox="0 0 20 20"
  style="enable-background:new 0 0 20 20;"
  xml:space="preserve"
>
  <style type="text/css">
    .st0 {
      fill: none;
    }
    .st1 {
      fill: #333333;
    }
  </style>
  <title>玉衡</title>
  <rect id="矩形" y="0" class="st0" width="20" height="20" />
  <path
    id="矩形_1_"
    class="st1"
    d="M16.9,0.3c0.5-0.2,1.1,0.1,1.3,0.6S18.1,2,17.6,2.2L1.6,8C1.1,8.2,0.5,8,0.3,7.4
s0.1-1.1,0.6-1.3L16.9,0.3z"
  />
  <path
    id="矩形备份"
    class="st1"
    d="M16.2,5.3c0.5-0.2,1.1,0.1,1.3,0.6S17.4,7,16.9,7.2L5.6,11.3c-0.5,0.2-1.1-0.1-1.3-0.6
s0.1-1.1,0.6-1.3L16.2,5.3z"
  />
  <path
    id="路径-3"
    class="st1"
    d="M15.3,10.2c0.5-0.2,1.1,0.1,1.3,0.6s0,1-0.5,1.2H16l-5,1.9v5c0,0.5-0.4,0.9-0.9,1L10,20
c-0.5,0-0.9-0.4-1-0.9V19v-5.7c0-0.4,0.2-0.7,0.5-0.9l0.1-0.1L15.3,10.2z"
  />
</svg>
