<?xml version="1.0" encoding="utf-8"?>
<!-- Generator: Adobe Illustrator 24.0.1, SVG Export Plug-In . SVG Version: 6.00 Build 0)  -->
<svg
  version="1.1"
  id="图层_1"
  xmlns="http://www.w3.org/2000/svg"
  xmlns:xlink="http://www.w3.org/1999/xlink"
  x="0px"
  y="0px"
  viewBox="0 0 20 20"
  style="enable-background:new 0 0 20 20;"
  xml:space="preserve"
>
  <style type="text/css">
    .st0 {
      fill: #333333;
    }
  </style>
  <title>dashboard</title>
  <path
    id="形状结合"
    class="st0"
    d="M19,10c0.6,0,1,0.4,1,1v8c0,0.6-0.4,1-1,1h-7c-0.6,0-1-0.4-1-1v-8c0-0.6,0.4-1,1-1H19z M8,12
c0.6,0,1,0.4,1,1v6c0,0.6-0.4,1-1,1H1c-0.6,0-1-0.4-1-1v-6c0-0.6,0.4-1,1-1H8z M18,12h-5v6h5V12z M7,14H2v4h5V14z M8,0
c0.6,0,1,0.4,1,1v8c0,0.6-0.4,1-1,1H1c-0.6,0-1-0.4-1-1V1c0-0.6,0.4-1,1-1H8z M7,2H2v6h5V2z M19,0c0.6,0,1,0.4,1,1v6
c0,0.6-0.4,1-1,1h-7c-0.6,0-1-0.4-1-1V1c0-0.6,0.4-1,1-1H19z M18,2h-5v4h5V2z"
  />
</svg>
