<?xml version="1.0" encoding="utf-8"?>
<!-- Generator: Adobe Illustrator 24.0.1, SVG Export Plug-In . SVG Version: 6.00 Build 0)  -->
<svg version="1.1" id="图层_1" xmlns="http://www.w3.org/2000/svg" xmlns:xlink="http://www.w3.org/1999/xlink" x="0px" y="0px"
	 viewBox="0 0 20 20" style="enable-background:new 0 0 20 20;" xml:space="preserve">
<style type="text/css">
	.st0{fill:#333333;}
</style>
<title>电子看板</title>
<path class="st0" d="M18,0c1.1,0,2,0.9,2,2v11c0,1.1-0.9,2-2,2h-5v3h3.7c0.2,0,0.3,0.1,0.3,0.3v1.4c0,0.2-0.1,0.3-0.3,0.3H3.3
	C3.1,20,3,19.9,3,19.7v-1.4C3,18.1,3.1,18,3.3,18H7v-3H2c-1.1,0-2-0.9-2-2V2c0-1.1,0.9-2,2-2H18z M11,15H9v3h2V15z M18,2H2v11h16V2z
	 M3.3,4h8.4C11.9,4,12,4.1,12,4.3v1.4C12,5.9,11.9,6,11.7,6H3.3C3.1,6,3,5.9,3,5.7V4.3C3,4.1,3.1,4,3.3,4z M8.3,9h8.4
	C16.9,9,17,9.1,17,9.3v1.4c0,0.2-0.1,0.3-0.3,0.3H8.3C8.1,11,8,10.9,8,10.7V9.3C8,9.1,8.1,9,8.3,9z M14.3,4h2.4
	C16.9,4,17,4.1,17,4.3v1.4C17,5.9,16.9,6,16.7,6h-2.4C14.1,6,14,5.9,14,5.7V4.3C14,4.1,14.1,4,14.3,4z M3.3,9h2.4C5.9,9,6,9.1,6,9.3
	v1.4C6,10.9,5.9,11,5.7,11H3.3C3.1,11,3,10.9,3,10.7V9.3C3,9.1,3.1,9,3.3,9z"/>
</svg>
