<?xml version="1.0" encoding="utf-8"?>
<!-- Generator: Adobe Illustrator 24.0.1, SVG Export Plug-In . SVG Version: 6.00 Build 0)  -->
<svg
  version="1.1"
  id="图层_1"
  xmlns="http://www.w3.org/2000/svg"
  xmlns:xlink="http://www.w3.org/1999/xlink"
  x="0px"
  y="0px"
  viewBox="0 0 16 20"
  style="enable-background:new 0 0 16 20;"
  xml:space="preserve"
>
  <style type="text/css">
    .st0 {
      fill: none;
    }
    .st1 {
      fill: #333333;
    }
  </style>
  <title>需求管理</title>
  <rect id="矩形" x="-2" y="0" class="st0" width="20" height="20" />
  <path
    id="ticket-o-工单-线"
    class="st1"
    d="M11,0c0.6,0,1,0.4,1,1h3c0.6,0,1,0.4,1,1v17c0,0.6-0.4,1-1,1H1c-0.6,0-1-0.4-1-1V2
c0-0.6,0.4-1,1-1h3c0-0.6,0.4-1,1-1H11z M14,3h-2c0,0.6-0.4,1-1,1H5C4.4,4,4,3.6,4,3H2v15h12V3z M9,11.3v1.4C9,12.9,8.9,13,8.7,13
H4.3C4.1,13,4,12.9,4,12.7v-1.4C4,11.1,4.1,11,4.3,11h4.4C8.9,11,9,11.1,9,11.3z M12,7.3v1.4C12,8.9,11.9,9,11.7,9H4.3
C4.1,9,4,8.9,4,8.7V7.3C4,7.1,4.1,7,4.3,7h7.4C11.9,7,12,7.1,12,7.3z"
  />
</svg>
