<?xml version="1.0" encoding="UTF-8"?>
<svg width="20px" height="20px" viewBox="0 0 20 20" version="1.1" xmlns="http://www.w3.org/2000/svg" xmlns:xlink="http://www.w3.org/1999/xlink">
    <title>形状</title>
    <g id="组件库" stroke="none" stroke-width="1" fill="none" fill-rule="evenodd">
        <g id="1.4_Icon_场景图标" transform="translate(-690.000000, -1792.000000)" fill="#333333" fill-rule="nonzero">
            <g id="UI" transform="translate(690.000000, 1792.000000)">
                <path d="M19,0 C19.5522847,0 20,0.44771525 20,1 L20,19 C20,19.5522847 19.5522847,20 19,20 L1,20 C0.44771525,20 0,19.5522847 0,19 L0,1 C0,0.44771525 0.44771525,0 1,0 L19,0 Z M18,8 L2,8 L2,18 L18,18 L18,8 Z M18,2 L2,2 L2,6 L18,6 L18,2 Z M4,3 C4.55228475,3 5,3.44771525 5,4 C5,4.55228475 4.55228475,5 4,5 C3.44771525,5 3,4.55228475 3,4 C3,3.44771525 3.44771525,3 4,3 Z M7,3 C7.55228475,3 8,3.44771525 8,4 C8,4.55228475 7.55228475,5 7,5 C6.44771525,5 6,4.55228475 6,4 C6,3.44771525 6.44771525,3 7,3 Z M7.35546875,10.2734375 L7.35546875,13.7695312 C7.35546875,14.0820312 7.44205729,14.3261719 7.61523438,14.5019531 C7.78841146,14.6777344 8.02864583,14.765625 8.3359375,14.765625 C8.640625,14.765625 8.87955729,14.6790365 9.05273438,14.5058594 C9.22591146,14.3326823 9.3125,14.0872396 9.3125,13.7695312 L9.3125,10.2734375 L11.078125,10.2734375 L11.078125,13.6875 C11.078125,14.0260417 11.0253906,14.3457031 10.9199219,14.6464844 C10.8144531,14.9472656 10.6490885,15.2102865 10.4238281,15.4355469 C10.1985677,15.6608073 9.96223958,15.8190104 9.71484375,15.9101562 C9.37109375,16.0377604 8.95833333,16.1015625 8.4765625,16.1015625 C8.19791667,16.1015625 7.89388021,16.0820312 7.56445312,16.0429688 C7.23502604,16.0039062 6.95963542,15.9264323 6.73828125,15.8105469 C6.51692708,15.6946615 6.31445312,15.5299479 6.13085938,15.3164062 C5.94726562,15.1028646 5.82161458,14.8828125 5.75390625,14.65625 C5.64453125,14.2916667 5.58984375,13.96875 5.58984375,13.6875 L5.58984375,10.2734375 L7.35546875,10.2734375 Z M14.09375,10.2734375 L14.09375,16 L12.3203125,16 L12.3203125,10.2734375 L14.09375,10.2734375 Z M10,3 C10.5522847,3 11,3.44771525 11,4 C11,4.55228475 10.5522847,5 10,5 C9.44771525,5 9,4.55228475 9,4 C9,3.44771525 9.44771525,3 10,3 Z" id="形状"></path>
            </g>
        </g>
    </g>
</svg>