<?xml version="1.0" encoding="UTF-8"?>
<svg width="48px" height="48px" viewBox="0 0 48 48" version="1.1" xmlns="http://www.w3.org/2000/svg" xmlns:xlink="http://www.w3.org/1999/xlink">
    <title>已归档</title>
    <defs>
        <linearGradient x1="99.6148383%" y1="100%" x2="0%" y2="100%" id="linearGradient-1">
            <stop stop-color="#085AAD" offset="0%"></stop>
            <stop stop-color="#022140" offset="100%"></stop>
        </linearGradient>
    </defs>
    <g id="0702" stroke="none" stroke-width="1" fill="none" fill-rule="evenodd">
        <g id="已归档">
            <g id="编组-15" fill="#8FBAE6">
                <rect id="矩形" x="0" y="0" width="48" height="48" rx="8"></rect>
            </g>
            <g id="编组-9" transform="translate(11.142857, 11.142857)">
                <path d="M-7.46069873e-14,7.31745574 L2.55983247,1.6281172 C2.95398138,0.530159394 3.95584868,-0.0125463404 5.56543436,4.41551557e-14 C7.17502004,0.0128363883 12.072883,0.0192545824 20.2590232,0.0192545824 C21.6392177,-0.0111717455 22.5525505,0.525115795 22.9990218,1.6281172 C23.4454931,2.73111861 24.2996682,4.62756479 25.5615472,7.31745574 L25.5615472,23.7341672 C25.5784976,24.9587083 25.0438622,25.5709788 23.9576411,25.5709788 C22.87142,25.5709788 15.4570919,25.6188203 1.71465684,25.7145033 C0.578100881,25.8001241 0.0098229029,25.1400121 0.0098229029,23.7341672 C0.0098229029,22.3283223 0.00654860193,16.8560852 -7.46069873e-14,7.31745574 Z" id="路径-4" stroke="#FFFFFF" fill="url(#linearGradient-1)"></path>
                <path d="M18.9854591,4.78571429 L20.4722554,8.27548385 L5.85967015,8.92857143 L6.27405457,5.14873622 L18.9854591,4.78571429 Z" id="矩形" stroke="#FFFFFF" fill="#FFFFFF"></path>
                <g id="编组-8" transform="translate(6.000000, 11.142857)" fill="#FFFFFF">
                    <polygon id="路径-16" points="-2.2774448e-13 3.53306189 6.78128895 7.0539877 13.7142857 2.57142857 6.85714286 11.5467412"></polygon>
                    <rect id="矩形" x="5.14285714" y="0" width="3.42857143" height="7.71428571"></rect>
                </g>
            </g>
        </g>
    </g>
</svg>