<?xml version="1.0" encoding="UTF-8"?>
<svg width="48px" height="48px" viewBox="0 0 48 48" version="1.1" xmlns="http://www.w3.org/2000/svg" xmlns:xlink="http://www.w3.org/1999/xlink">
    <title>撤销</title>
    <defs>
        <linearGradient x1="100%" y1="54.8427768%" x2="0%" y2="54.8427768%" id="linearGradient-1">
            <stop stop-color="#D1DDE3" offset="0%"></stop>
            <stop stop-color="#B0BEC5" offset="100%"></stop>
        </linearGradient>
    </defs>
    <g id="0702" stroke="none" stroke-width="1" fill="none" fill-rule="evenodd">
        <g id="撤销">
            <g id="编组-15" fill="#E1E7EA">
                <rect id="矩形" x="0" y="0" width="48" height="48" rx="8"></rect>
            </g>
            <rect id="矩形" stroke="#FFFFFF" fill="url(#linearGradient-1)" x="11.5" y="10.5" width="25" height="27" rx="2"></rect>
            <g id="chexiao-2" transform="translate(17.000000, 17.000000)" fill="#FFFFFF" fill-rule="nonzero">
                <path d="M5.95866562,9.99563299 C3.90503671,8.26805051 1.97734516,6.64477197 0.00329630496,4.98208974 C1.96421059,3.3309968 3.89422001,1.71003614 5.91848929,0.00795017941 L5.91848929,2.3126812 C7.02024806,2.45098051 8.06174233,2.51201764 9.07001386,2.72139816 C11.1653644,3.15638427 12.8365454,4.17547251 13.5651279,6.3419042 C14.6174388,9.46947749 13.3696545,12.9346865 10.5658098,14.6591786 C10.5271787,14.6831298 10.4792761,14.6962644 10.3803805,14.7364407 C10.7551021,14.278276 11.1182344,13.8873293 11.4234201,13.4546611 C12.0268377,12.6032318 12.3783807,11.6559974 12.4193296,10.6021412 C12.4556429,9.65181627 12.0337913,8.9603197 11.2395361,8.47743103 C10.3100719,7.91187182 9.26857768,7.71099014 8.21240359,7.62291126 C7.48073069,7.56187413 6.74055894,7.61132193 5.95866562,7.61132193 L5.95866562,9.99563299 L5.95866562,9.99563299 Z" id="路径"></path>
            </g>
        </g>
    </g>
</svg>