<?xml version="1.0" encoding="utf-8"?>
<!-- Generator: Adobe Illustrator 24.0.1, SVG Export Plug-In . SVG Version: 6.00 Build 0)  -->
<svg version="1.1" id="图层_1" xmlns="http://www.w3.org/2000/svg" xmlns:xlink="http://www.w3.org/1999/xlink" x="0px" y="0px"
	 viewBox="0 0 100 66" style="enable-background:new 0 0 100 66;" xml:space="preserve">
<style type="text/css">
	.st0{fill:#B0BEC5;}
	.st1{fill:none;}
</style>
<title>tips</title>
<g id="tips" transform="translate(1142.000000, 389.000000)">
	<path id="形状" class="st0" d="M-1132-344h1.3c0.4,0,0.7,0.3,0.7,0.7c0,0.4-0.3,0.7-0.7,0.7h-1.3v1.4c0,0.4-0.3,0.7-0.7,0.7
		c-0.2,0-0.3-0.1-0.5-0.2s-0.2-0.3-0.2-0.5v-1.4h-1.3c-0.4,0-0.7-0.3-0.7-0.7c0-0.4,0.3-0.7,0.7-0.7h1.3v-1.4c0-0.4,0.3-0.7,0.7-0.7
		c0.4,0,0.7,0.3,0.7,0.7V-344L-1132-344z M-1044-349.4v-1.4c0-0.2-0.1-0.3-0.2-0.5c-0.1-0.1-0.3-0.2-0.5-0.2c-0.4,0-0.7,0.3-0.7,0.7
		v1.4h-1.3c-0.2,0-0.3,0.1-0.5,0.2c-0.1,0.1-0.2,0.3-0.2,0.5c0,0.4,0.3,0.7,0.7,0.7h1.3v1.4c0,0.4,0.3,0.7,0.7,0.7
		c0.4,0,0.7-0.3,0.7-0.7v-1.4h1.3c0.4,0,0.7-0.3,0.7-0.7c0-0.4-0.3-0.7-0.7-0.7H-1044z M-1125-386h2c0.6,0,1,0.4,1,1
		c0,0.6-0.5,1-1,1h-2v2c0,0.6-0.4,1-1,1c-0.3,0-0.5-0.1-0.7-0.3c-0.2-0.2-0.3-0.5-0.3-0.7v-2h-2c-0.3,0-0.5-0.1-0.7-0.3
		c-0.2-0.2-0.3-0.4-0.3-0.7c0-0.6,0.5-1,1-1h2v-2c0-0.6,0.4-1,1-1c0.6,0,1,0.5,1,1V-386z M-1138-363.5c-1.4,0-2.7-0.8-3.5-2
		c-0.7-1.2-0.7-2.8,0-4c0.7-1.2,2-2,3.5-2c2.2,0,4,1.8,4,4S-1135.8-363.5-1138-363.5L-1138-363.5z M-1138-365.5c0.7,0,1.4-0.4,1.7-1
		c0.4-0.6,0.4-1.4,0-2c-0.4-0.6-1-1-1.7-1c-1.1,0-2,0.9-2,2C-1140-366.4-1139.1-365.5-1138-365.5L-1138-365.5z M-1055.4-371.5
		c-2.2,0-4-1.8-4-4s1.8-4,4-4c2.2,0,4,1.8,4,4S-1053.1-371.5-1055.4-371.5L-1055.4-371.5z M-1055.4-373.6c0.7,0,1.4-0.4,1.7-1
		c0.4-0.6,0.4-1.4,0-2c-0.4-0.6-1-1-1.7-1c-1.1,0-2,0.9-2,2C-1057.4-374.5-1056.5-373.6-1055.4-373.6L-1055.4-373.6z"/>
	<g id="编组-6" transform="translate(18.000000, 0.000000)">
		<path id="形状_1_" class="st1" d="M-1097.1-369.7c-3.5-3.5-8.2-5.4-13.1-5.4h-0.3c-4.9,0-9.6,2-13.1,5.4
			c-3.5,3.5-5.4,8.2-5.4,13.1c0,3.5,0.8,7,2.3,10.2c1.3,2.8,3.1,5.3,5.3,7.6c0.9,0.9,1.8,1.7,2.8,2.4h16.7c1-0.8,1.9-1.6,2.8-2.4
			c2.3-2.3,4.1-4.8,5.3-7.6c1.5-3.2,2.3-6.7,2.3-10.2C-1091.6-361.6-1093.6-366.3-1097.1-369.7z M-1110.4-343.5
			c-1.6,0-2.9-1.3-2.9-2.9c0-1.6,1.3-2.9,2.9-2.9c1.6,0,2.9,1.3,2.9,2.9C-1107.5-344.8-1108.8-343.5-1110.4-343.5z M-1107.4-360.5
			c-0.3,4.5-2,7.4-3,7.3c-1.3-0.1-2.6-3-3-7.3c-0.3-4,0-7.3,3-7.3C-1107.2-367.8-1107.1-364.6-1107.4-360.5L-1107.4-360.5z"/>
		<path id="矩形" class="st0" d="M-1110-389c0.6,0,1,0.4,1,1v6c0,0.6-0.4,1-1,1s-1-0.4-1-1v-6C-1111-388.6-1110.6-389-1110-389z"
			/>
		<path id="矩形备份" class="st0" d="M-1088.2-379.8c0.4,0.4,0.4,1,0,1.4l-4.2,4.2c-0.4,0.4-1,0.4-1.4,0c-0.4-0.4-0.4-1,0-1.4
			l4.2-4.2C-1089.2-380.2-1088.6-380.2-1088.2-379.8z"/>
		<path id="矩形备份-5" class="st0" d="M-1131.8-379.8c-0.4,0.4-0.4,1,0,1.4l4.2,4.2c0.4,0.4,1,0.4,1.4,0c0.4-0.4,0.4-1,0-1.4
			l-4.2-4.2C-1130.8-380.2-1131.4-380.2-1131.8-379.8z"/>
		<path id="矩形备份-2" class="st0" d="M-1079-358c0,0.6-0.4,1-1,1h-6c-0.6,0-1-0.4-1-1s0.4-1,1-1h6
			C-1079.4-359-1079-358.6-1079-358z"/>
		<path id="矩形备份-4" class="st0" d="M-1134-358c0,0.6-0.4,1-1,1h-6c-0.6,0-1-0.4-1-1s0.4-1,1-1h6
			C-1134.4-359-1134-358.6-1134-358z"/>
		<path id="形状结合" class="st0" d="M-1110.2-376.1c10.8,0,19.5,8.7,19.5,19.5c0,9.2-4.8,16-9.8,20.2l-0.3,0.2v3.8
			c0,5.1-4.1,9.3-9.1,9.4l-0.3,0h-0.3c-5.1,0-9.3-4.1-9.4-9.1l0-0.3v-3.8c-5.1-4.2-10.1-11.1-10.1-20.5c0-10.7,8.5-19.3,19.2-19.5
			l0.3,0H-1110.2z M-1102.7-335.5h-15.3v3c0,4.1,3.2,7.3,7.2,7.5l0.2,0h0.3c4.1,0,7.3-3.2,7.5-7.2l0-0.2V-335.5z M-1110.2-374.2
			h-0.3c-4.7,0-9.1,1.8-12.4,5.1c-3.3,3.3-5.2,7.8-5.1,12.4c0,3.4,0.7,6.7,2.2,9.8c1.2,2.7,3,5.1,5.2,7.3c0.8,0.8,1.6,1.5,2.4,2.2
			l0,0h16c0.9-0.7,1.7-1.4,2.4-2.2c2.2-2.2,3.9-4.6,5.2-7.3c1.4-3.1,2.2-6.4,2.2-9.8l0,0c0-4.7-1.8-9.1-5.1-12.4
			S-1105.5-374.2-1110.2-374.2L-1110.2-374.2z"/>
		<path id="路径" class="st0" d="M-1114.6-330.1h8.4c0.5,0,1-0.4,1-1s-0.4-1-1-1h-8.4c-0.5,0-1,0.4-1,1
			S-1115.1-330.1-1114.6-330.1L-1114.6-330.1z"/>
		<path id="形状结合_1_" class="st0" d="M-1110.3-368.8c1.1,0,2.1,0.4,2.7,1.1c1.4,1.5,1.4,4.3,1.2,7.3c-0.2,4-1.5,6.7-2.7,7.7
			c-0.5,0.4-0.9,0.5-1.2,0.5c0,0-0.1,0-0.1,0c-0.7-0.1-1.7-0.6-2.6-2.7c-0.6-1.4-1-3.3-1.2-5.5c-0.3-3.7,0.1-6,1.2-7.2
			C-1112.4-368.4-1111.5-368.8-1110.3-368.8z M-1110.3-366.9c-0.8,0-1.1,0.3-1.3,0.5c-1.1,1.2-0.8,4.6-0.7,5.8
			c0.4,4.3,1.6,6.1,2,6.4c0.2-0.2,0.6-0.7,1-1.7c0.4-0.9,0.8-2.5,1-4.7c0.1-2.3,0.2-4.9-0.7-5.8
			C-1109.2-366.6-1109.5-366.9-1110.3-366.9z"/>
		<path id="形状结合_2_" class="st0" d="M-1110.4-350.3c2.1,0,3.8,1.7,3.8,3.8c0,2.1-1.7,3.8-3.8,3.8s-3.8-1.7-3.8-3.8
			C-1114.2-348.6-1112.5-350.3-1110.4-350.3z M-1110.4-348.4c-1.1,0-1.9,0.9-1.9,1.9c0,1.1,0.9,1.9,1.9,1.9c1.1,0,1.9-0.9,1.9-1.9
			C-1108.4-347.5-1109.3-348.4-1110.4-348.4z"/>
	</g>
</g>
</svg>
