<?xml version="1.0" encoding="UTF-8"?>
<svg width="29px" height="28px" viewBox="0 0 29 28" version="1.1" xmlns="http://www.w3.org/2000/svg" xmlns:xlink="http://www.w3.org/1999/xlink">
    <title>icon_use</title>
    <g id="菜单导航" stroke="none" stroke-width="1" fill="none" fill-rule="evenodd">
        <g id="菜单导航-悬浮1" transform="translate(-650.000000, -18.000000)">
            <g id="icon_use" transform="translate(650.500000, 18.000000)">
                <rect id="32x32框" x="0" y="0" width="28" height="28"></rect>
                <g id="应用" transform="translate(7.177855, 6.000000)" fill="#FFFFFF" fill-rule="nonzero">
                    <path d="M14.0440726,3.75856687 L7.60339322,0.0877657271 L7.60339323,0.0877657364 C7.39848206,-0.0292493998 7.14698489,-0.0292493998 6.94207371,0.0877657179 L0.506878725,3.75856686 L0.506878723,3.75856687 C0.300342545,3.87355184 0.171273645,4.09040788 0.168687698,4.32678159 L0.168687698,11.6697589 L0.168687698,11.6697573 C0.16966434,11.9054811 0.296552691,12.1227063 0.501400585,12.2393424 L6.93659557,15.9128779 L6.93659562,15.9128779 C7.14172398,16.0290693 7.39278677,16.0290693 7.59791514,15.9128779 L14.0331101,12.2407017 L14.0331101,12.2407017 C14.2370072,12.1239613 14.3632699,11.9074373 14.3644616,11.672487 L14.3644616,4.32677534 L14.3644616,4.32677426 C14.3655471,4.09406617 14.2437487,3.87805811 14.0440633,3.7585611 L14.0440726,3.75856687 Z M13.2484233,4.59438032 L13.2484233,11.4048977 L7.27204908,14.8122735 L1.29567481,11.4048977 L1.29567481,4.59438032 L7.27204908,1.18700449 L13.2484233,4.59438032 Z" id="形状"></path>
                    <path d="M2.75098132,5.61381903 L2.75098133,5.61381901 C2.56923112,5.92538188 2.67446562,6.32529015 2.98602848,6.50704037 C2.98890553,6.5087187 2.99179538,6.51037498 2.99469775,6.51200909 L6.60388945,8.56305835 L6.60388945,12.6309225 L6.60388945,12.6309226 C6.60388951,12.9969152 6.90058511,13.2936108 7.26657773,13.2936108 C7.63257034,13.2936108 7.929266,12.9969152 7.929266,12.6309226 L7.929266,8.56990221 L11.5507702,6.50379043 L11.5507702,6.50379043 C11.8650768,6.32682928 11.9764176,5.92857726 11.7994549,5.61427064 C11.7978208,5.61136825 11.7961645,5.60847842 11.7944862,5.60560137 L11.7944862,5.60560139 C11.6090047,5.29190571 11.2063652,5.18469777 10.8894507,5.36462298 L7.27204029,7.42800039 L3.65462983,5.36462298 L3.65462989,5.36462302 C3.33570921,5.18857907 2.93457905,5.29919294 2.75096321,5.6138155 L2.75098132,5.61381903 Z" id="路径"></path>
                </g>
            </g>
        </g>
    </g>
</svg>