<?xml version="1.0" encoding="UTF-8"?>
<svg width="29px" height="28px" viewBox="0 0 29 28" version="1.1" xmlns="http://www.w3.org/2000/svg" xmlns:xlink="http://www.w3.org/1999/xlink">
    <title>icon_continuous integration</title>
    <g id="菜单导航" stroke="none" stroke-width="1" fill="none" fill-rule="evenodd">
        <g id="菜单导航-悬浮1" transform="translate(-526.000000, -18.000000)">
            <g id="icon_continuous-integration" transform="translate(526.500000, 18.000000)">
                <rect id="32x32框" x="0" y="0" width="28" height="28"></rect>
                <g id="持续集成" transform="translate(5.000000, 5.500000)" fill="#FFFFFF">
                    <path d="M7.07822478,6.34881853 C7.24922498,6.64528977 7.56369624,6.82528998 7.90569664,6.82528998 L10.216045,6.82528998 C10.5580454,6.82528998 10.8725167,6.64528977 11.0435169,6.34881853 L12.2029292,4.34392557 C12.3739294,4.04745433 12.3739294,3.68745391 12.2029292,3.39098266 L11.0435169,1.38556236 C10.8725167,1.08909112 10.5580454,0.909090909 10.216045,0.909090909 L7.90569664,0.909090909 C7.56369624,0.909090909 7.24922498,1.08909112 7.07822478,1.38556236 L5.92728164,3.39098266 L5.92728172,3.39098253 C5.75650704,3.68567663 5.75650704,4.04923135 5.92728156,4.34392544 L7.0782247,6.3488184 L7.07822478,6.34881853 Z M7.06461091,3.86754611 L8.06005568,2.13147943 L10.0618449,2.13147943 L11.0566087,3.86754611 L10.0618449,5.60292958 L8.06005568,5.60292958 L7.06529185,3.86754611 L7.06461091,3.86754611 Z M5.24380292,11.0600603 C5.07333217,10.7635891 4.75833145,10.5835889 4.41686016,10.5835889 L2.10596684,10.5835889 C1.76449555,10.5835889 1.44949518,10.7635891 1.27902408,11.0600603 L0.128080947,13.0654806 L0.128081022,13.0654805 C-0.0426936489,13.3601746 -0.0426936489,13.7237293 0.128080871,14.0184234 L1.28749316,16.0233164 C1.45902281,16.3197876 1.77349372,16.4997878 2.11496502,16.4997878 L4.42585833,16.4997878 C4.76732963,16.4997878 5.08233,16.3197876 5.25333019,16.0233164 L6.41274248,14.0184234 C6.58374268,13.7219522 6.58374268,13.3619518 6.41274248,13.0654805 L5.24433018,11.0600602 L5.24380292,11.0600603 Z M5.27247391,13.5420311 L4.27465299,15.2827477 L2.26671192,15.2827477 L1.268891,13.5420311 L2.26671192,11.8006291 L4.27465299,11.8006291 L5.27247391,13.5420311 L5.27247391,13.5420311 Z M17.8586377,13.1914825 L16.6992254,11.1860622 C16.5282252,10.889591 16.2132249,10.7095908 15.8717536,10.7095908 L13.5608602,10.7095908 C13.219389,10.7095908 12.9043886,10.889591 12.7339175,11.1860622 L11.5829744,13.1914825 L11.5829744,13.1914824 C11.4121998,13.4861765 11.4121998,13.8497312 11.5829743,14.1444253 L12.7423866,16.1493183 C12.9133868,16.4457895 13.2283871,16.6257897 13.5698584,16.6257897 L15.8807517,16.6257897 C16.222223,16.6257897 16.5372234,16.4457895 16.7076945,16.1493183 L17.8676376,14.1444253 L17.8676377,14.1444253 C18.0311387,13.8469714 18.0277275,13.485795 17.8586376,13.1914824 L17.8586377,13.1914825 Z M16.7231895,13.6680319 L15.7284234,15.4034153 L13.7150513,15.4034153 L12.7196066,13.6680319 L13.7143704,11.9319652 L15.7168428,11.9319652 L16.7231895,13.6680319 L16.7231895,13.6680319 Z" id="形状" fill-rule="nonzero"></path>
                    <path d="M11.420997,14.9443559 L11.366997,14.8903558 L11.3669969,14.8903558 C11.0833384,14.6176027 10.676719,14.5149411 10.2975848,14.6203555 L10.2975848,14.6203555 C9.9085049,14.7320832 9.50591263,14.7897998 9.10111431,14.7918851 L9.10111417,14.7918851 C8.67526953,14.7913089 8.25163095,14.7307128 7.84270177,14.6118849 L7.84270177,14.6118849 C7.42859757,14.4853954 6.98187537,14.6603143 6.76375871,15.0343563 L6.76375869,15.0343563 C6.61960366,15.2830133 6.59322994,15.5828226 6.69175861,15.8528282 C6.79975874,16.1228285 7.01522989,16.3292996 7.29423021,16.4102997 C7.87870179,16.5902999 8.48117339,16.6803 9.10112294,16.6803 C9.73112367,16.6803 10.3510662,16.5902999 10.9445431,16.4012997 C11.2145434,16.3112996 11.4300145,16.1048285 11.5380146,15.8438282 L11.5380147,15.8438281 C11.6395209,15.578217 11.6163937,15.2810638 11.4750146,15.0343562 L11.4210145,14.9443561 L11.420997,14.9443559 Z" id="路径"></path>
                    <path d="M12.3739399,7.12229208 L12.3739401,7.1222923 C12.6840907,7.42329695 12.9477945,7.76871454 13.1564102,8.14723353 C13.3628813,8.51570486 13.5068815,8.92017623 13.5968816,9.33417671 C13.6868817,9.7566481 14.055353,10.0621194 14.4783535,10.0806485 L14.5138241,10.0806485 C14.7928244,10.0806485 15.0538247,9.95464833 15.233825,9.74711899 C15.4222961,9.52264783 15.4942962,9.23517659 15.4312961,8.95617627 L15.4312964,8.95617782 C15.3034307,8.3584699 15.0883029,7.78283309 14.7928265,7.24776489 L14.7928265,7.24776491 C14.4937326,6.70064162 14.1115363,6.20325041 13.6598834,5.77335226 L13.6598835,5.77335228 C13.4538518,5.57639971 13.169418,5.48386132 12.8869408,5.52188109 L12.8869407,5.52188109 C12.6040469,5.55728787 12.3525774,5.71935046 12.2034691,5.9623525 L12.2034691,5.9623525 C11.9884532,6.34233048 12.0586499,6.81975994 12.3739398,7.12176478 L12.3739399,7.12229208 Z" id="路径"></path>
                    <path d="M3.67940246,10.0531139 C3.7154025,10.0531139 3.75140255,10.0531139 3.78740259,10.0441138 L3.78740258,10.0441138 C4.22254605,9.99563279 4.56611442,9.65228468 4.61487444,9.21717109 L4.61487443,9.21717118 C4.6618536,8.7862781 4.77395348,8.36501082 4.94734571,7.96775879 L4.94734572,7.96775879 C5.11914062,7.5746429 5.34626239,7.20811044 5.62181564,6.87928838 C5.89181596,6.54681709 5.91828688,6.07934565 5.66681569,5.72834524 C5.49581549,5.49487407 5.23534429,5.3418739 4.94734396,5.33287388 L4.94734401,5.33287389 C4.6592593,5.31839428 4.38063339,5.4377771 4.19240134,5.65634516 L4.19240109,5.65634546 C3.79439847,6.12151241 3.46706352,6.64275012 3.22092906,7.20328905 L3.2209289,7.20328942 C2.9716163,7.768585 2.81090635,8.36892437 2.74445744,8.98316454 C2.7084574,9.27116487 2.80798697,9.54963609 3.00545775,9.75610723 C3.19392886,9.95463657 3.42792914,10.0531139 3.67940033,10.0531139 L3.67940246,10.0531139 Z" id="路径"></path>
                </g>
            </g>
        </g>
    </g>
</svg>