<?xml version="1.0" encoding="UTF-8"?>
<svg width="29px" height="28px" viewBox="0 0 29 28" version="1.1" xmlns="http://www.w3.org/2000/svg" xmlns:xlink="http://www.w3.org/1999/xlink">
    <title>icon_disposition</title>
    <g id="菜单导航" stroke="none" stroke-width="1" fill="none" fill-rule="evenodd">
        <g id="菜单导航-悬浮1" transform="translate(-746.000000, -18.000000)">
            <g id="icon_disposition" transform="translate(746.500000, 18.000000)">
                <rect id="32x32框" x="0" y="0" width="28" height="28"></rect>
                <g id="配置" transform="translate(6.000000, 6.000000)" fill="#FFFFFF">
                    <path d="M4.69217767,10.1002881 C4.99431135,10.1002881 5.2377783,10.3447329 5.2377783,10.6458888 L5.2377783,13.2917547 C5.2377783,13.5938884 4.99333357,13.8373553 4.69217767,13.8373553 L3.2528871,13.8373553 L3.2528871,15.2766459 L3.25288712,15.2766431 C3.25069491,15.5779613 3.00464968,15.8204524 2.70333145,15.8182748 C2.43899885,15.8163369 2.2140696,15.6252041 2.16950809,15.3646489 L2.16266363,15.2766488 L2.16168585,13.8373583 L0.724350848,13.8373583 L0.724350819,13.8373583 C0.423024948,13.8378985 0.178312858,13.5940632 0.177771529,13.2927373 C0.177771529,13.2924101 0.177771529,13.2920829 0.177771529,13.2917557 L0.177771529,10.6458898 C0.177771529,10.3447338 0.422216258,10.1002881 0.723372164,10.1002881 L4.69315456,10.1002881 L4.69217767,10.1002881 Z M10.5305032,4.0312144 L10.5305032,6.67708032 C10.5305032,6.97823623 10.2860585,7.22268096 9.98490258,7.22268096 L8.54561201,7.22268096 L8.54561201,15.2766382 C8.54664195,15.5779694 8.30320498,15.8230768 8.00187911,15.8241221 C7.73309494,15.8250248 7.50368356,15.6300495 7.4612533,15.3646341 L7.45440885,15.276634 L7.45343107,7.22267668 L6.01609607,7.22267668 C5.71477021,7.2232167 5.47005812,6.97938161 5.46951679,6.67805382 L5.46951679,4.03023528 C5.46951679,3.72907938 5.71396152,3.48463465 6.01511743,3.48463465 L9.98489983,3.48463465 C10.2860585,3.48561376 10.5305032,3.73005849 10.5305032,4.0312144 Z M15.2766344,10.1002881 C15.5777903,10.1002881 15.8222351,10.3447329 15.8222351,10.6458888 L15.8222351,13.2917547 C15.8222351,13.5938884 15.5777903,13.8373553 15.2766344,13.8373553 L13.8373439,13.8373553 L13.8373439,15.2766459 L13.8373439,15.2766512 C13.8383738,15.577977 13.5949368,15.8230844 13.293611,15.824117 C13.0248268,15.8250325 12.7954154,15.6300571 12.7529852,15.3646417 L12.7461407,15.2766416 L12.7461407,13.8373568 L11.3078279,13.8373568 L11.3078279,13.8373568 C11.0065001,13.8373568 10.7622273,13.5930839 10.7622273,13.2917561 C10.7622273,13.2917561 10.7622273,13.2917561 10.7622273,13.2917561 L10.7622273,10.6458902 C10.7622273,10.3447343 11.006672,10.1002881 11.3078279,10.1002881 L15.2766363,10.1002881 L15.2766344,10.1002881 Z M4.14656939,11.1914894 L1.26895841,11.1914894 L1.26895841,12.7461579 L4.14754335,12.7461579 L4.14754335,11.1914894 L4.14656939,11.1914894 Z M14.7310262,11.1914894 L11.8524412,11.1914894 L11.8524412,12.7461579 L14.7300522,12.7461579 L14.7300522,11.1914894 L14.7310262,11.1914894 Z M2.70826043,0.177781147 C2.97910519,0.177781147 3.20399434,0.375295214 3.24603883,0.635384405 L3.25386106,0.723384508 L3.25386106,8.66197534 L3.25386108,8.66197644 C3.25865008,8.96326602 3.01828893,9.21139079 2.71700125,9.21624839 C2.44305319,9.22053289 2.20836143,9.02104474 2.16852648,8.74997272 L2.16265981,8.66197262 L2.16265981,0.723381782 C2.16265981,0.422225876 2.40710454,0.177781147 2.70826045,0.177781147 L2.70826043,0.177781147 Z M13.2917432,0.177779593 C13.5635658,0.177779593 13.7884549,0.375295214 13.8304994,0.635384405 L13.8373471,0.723384508 L13.8373471,8.66197534 L13.8373471,8.66198061 C13.8383738,8.96330648 13.5949368,9.20841389 13.293611,9.20944646 C13.0248268,9.21036193 12.7954154,9.01538658 12.7529852,8.74997117 L12.7461407,8.66197106 L12.7461407,0.723380228 C12.7461407,0.422224322 12.9905854,0.177779593 13.2917413,0.177779593 L13.2917432,0.177779593 Z M9.4392943,4.57681503 L6.56070936,4.57681503 L6.56070936,6.13148351 L9.43732729,6.13148351 L9.43732729,4.57681503 L9.4392943,4.57681503 Z M8.00000374,0.177783873 C8.2708485,0.177783873 8.49671543,0.375295214 8.53778214,0.635384405 L8.54560765,0.723384508 L8.54560765,2.04631938 L8.54560765,2.04632465 C8.54663432,2.34765052 8.30319734,2.59275792 8.00187147,2.5937905 C7.7330873,2.59470597 7.50367592,2.39973062 7.46124566,2.1343152 L7.45440121,2.0463151 L7.45440121,0.723385957 C7.45440121,0.422230051 7.69884594,0.177783873 8.00000185,0.177783873 L8.00000374,0.177783873 Z" id="形状" fill-rule="nonzero"></path>
                    <rect id="矩形" transform="translate(2.700426, 4.735674) rotate(-90.000000) translate(-2.700426, -4.735674) " x="-1.85746847" y="4.0963958" width="9.1157881" height="1.27855568" rx="0.639277842"></rect>
                    <rect id="矩形备份-24" transform="translate(13.299581, 4.735674) rotate(-90.000000) translate(-13.299581, -4.735674) " x="8.74168696" y="4.0963958" width="9.1157881" height="1.27855568" rx="0.639277842"></rect>
                    <rect id="矩形备份-25" transform="translate(8.000003, 11.266231) rotate(-90.000000) translate(-8.000003, -11.266231) " x="3.44210924" y="10.6269533" width="9.1157881" height="1.27855568" rx="0.639277842"></rect>
                    <rect id="矩形备份-26" transform="translate(2.700426, 14.571447) rotate(-90.000000) translate(-2.700426, -14.571447) " x="1.44774697" y="13.9321687" width="2.50535722" height="1.27855568" rx="0.639277842"></rect>
                    <rect id="矩形备份-27" transform="translate(13.299581, 14.571447) rotate(-90.000000) translate(-13.299581, -14.571447) " x="12.0469024" y="13.9321687" width="2.50535722" height="1.27855568" rx="0.639277842"></rect>
                    <rect id="矩形备份-23" transform="translate(8.000003, 1.410511) rotate(-90.000000) translate(-8.000003, -1.410511) " x="6.76727145" y="0.771233596" width="2.46546369" height="1.27855568" rx="0.639277842"></rect>
                </g>
            </g>
        </g>
    </g>
</svg>