<?xml version="1.0" encoding="utf-8"?>
<!-- Generator: Adobe Illustrator 24.0.1, SVG Export Plug-In . SVG Version: 6.00 Build 0)  -->
<svg version="1.1" id="图层_1" xmlns="http://www.w3.org/2000/svg" xmlns:xlink="http://www.w3.org/1999/xlink" x="0px" y="0px"
	 viewBox="0 0 20 20" style="enable-background:new 0 0 20 20;" xml:space="preserve">
<style type="text/css">
	.st0{fill:#FFFFFF;}
</style>
<title>流程工具</title>
<path class="st0" d="M19,0c0.6,0,1,0.4,1,1v4c0,0.6-0.4,1-1,1h-7c-0.6,0-1-0.4-1-1V4H4.2v10H8c0.6,0,1,0.4,1,1v4c0,0.6-0.4,1-1,1H1
	c-0.6,0-1-0.4-1-1v-4c0-0.6,0.4-1,1-1h1.2V4C2.2,2.9,3,2.1,4,2h0.1H11V1c0-0.6,0.4-1,1-1H19z M7,16H2v2h5V16z M18,2h-5v2h5V2z"/>
<path class="st0" d="M11.1,6.2L11.1,6.2l1.7,1.7c0.3,0.4,0.4,0.9,0.1,1.3l-0.1,0.1l-1,1l3.9,3.9l0.9-0.9c0.4-0.4,0.9-0.4,1.3-0.1
	l0.1,0.1l1.7,1.8c0.4,0.4,0.4,1,0,1.4s-0.9,0.4-1.3,0.1l-0.1-0.1l-1-1.1l-1.9,1.9l0.9,0.9c0.4,0.4,0.4,0.9,0.1,1.3l-0.1,0.1
	C15.9,20,15.4,20,15,19.7l-0.1-0.1L13.3,18c-0.3-0.4-0.4-0.9-0.1-1.3l0.1-0.1l1-1l-3.9-3.9l-0.9,0.9C9.1,13,8.6,13,8.2,12.7l-0.2,0
	l-1.7-1.8c-0.4-0.4-0.4-1,0-1.4s0.9-0.4,1.3-0.1l0.1,0.1l1,1.1l1.9-1.9l-0.9-1c-0.3-0.4-0.3-0.9,0-1.3l0.1-0.1
	C10.1,5.9,10.7,5.9,11.1,6.2z"/>
</svg>
