<?xml version="1.0" encoding="UTF-8"?>
<svg width="28px" height="28px" viewBox="0 0 28 28" version="1.1" xmlns="http://www.w3.org/2000/svg" xmlns:xlink="http://www.w3.org/1999/xlink">
    <title>icon_home</title>
    <g id="菜单导航" stroke="none" stroke-width="1" fill="none" fill-rule="evenodd">
        <g id="菜单导航-悬浮1" transform="translate(-183.000000, -18.000000)">
            <g id="icon_home" transform="translate(183.000000, 18.000000)">
                <rect id="32x32框" x="0" y="0" width="28" height="28"></rect>
                <g id="shouye-2" transform="translate(5.000000, 6.000000)" fill="#FFFFFF" fill-rule="nonzero">
                    <path d="M0.601226994,7.14110429 C0.421267894,7.14110429 0.241308793,7.0593047 0.124744376,6.90388548 C-0.0715746421,6.6400818 -0.018404908,6.26789366 0.243353783,6.07157464 L8.16973415,0.126789366 C8.43149284,-0.0695296524 8.80572597,-0.0163599182 9.00204499,0.245398773 C9.19836401,0.509202454 9.14519427,0.881390593 8.88343558,1.07770961 L0.957055215,7.02249489 C0.850715746,7.10224949 0.72392638,7.14110429 0.601226994,7.14110429 Z" id="路径"></path>
                    <path d="M16.4539877,7.14110429 C16.3292434,7.14110429 16.204499,7.10224949 16.0981595,7.02249489 L8.17177914,1.07770961 C7.91002045,0.881390593 7.85480573,0.507157464 8.05316973,0.245398773 C8.24948875,-0.0163599182 8.62372188,-0.0695296524 8.88548057,0.126789366 L16.8118609,6.07157464 C17.0736196,6.26789366 17.1288344,6.64212679 16.9304703,6.90388548 C16.8139059,7.0593047 16.6359918,7.14110429 16.4539877,7.14110429 Z M10.5092025,14.6728016 C10.1799591,14.6728016 9.91411043,14.406953 9.91411043,14.0777096 L9.91411043,10.5112474 C9.91411043,10.402863 9.82617587,10.3128834 9.71574642,10.3128834 L7.3394683,10.3128834 C7.22903885,10.3128834 7.14110429,10.400818 7.14110429,10.5112474 L7.14110429,13.3026585 C7.14110429,13.6298569 6.87525562,13.8977505 6.54601227,13.8977505 C6.21676892,13.8977505 5.95092025,13.6319018 5.95092025,13.3026585 L5.95092025,10.5112474 C5.95092025,9.74642127 6.57259714,9.12474438 7.33742331,9.12474438 L9.71574642,9.12474438 C10.4805726,9.12474438 11.1022612,9.74642127 11.1022612,10.5112474 L11.1022612,14.0777096 C11.1042945,14.406953 10.8384458,14.6728016 10.5092025,14.6728016 L10.5092025,14.6728016 Z" id="形状"></path>
                    <path d="M13.6809816,15.8609407 L11.3026585,15.8609407 C10.5644172,15.8609407 9.9591002,15.2822086 9.91820041,14.5562372 C9.91615542,14.5378323 9.91615542,14.5214724 9.91615542,14.5030675 L9.91615542,13.8650307 C9.91615542,13.5378323 10.1820041,13.2699387 10.5112474,13.2699387 C10.8404908,13.2699387 11.1042945,13.5378323 11.1042945,13.8650307 L11.1042945,14.4744376 C11.1042945,14.5828221 11.192229,14.6728016 11.3026585,14.6728016 L13.6809816,14.6728016 C13.7893661,14.6728016 13.8793456,14.5848671 13.8793456,14.4744376 L13.8793456,5.35787321 C13.8793456,5.03067485 14.1451943,4.76278119 14.4744376,4.76278119 C14.803681,4.76278119 15.0695297,5.02862986 15.0695297,5.35787321 L15.0695297,14.4744376 C15.0674847,15.2392638 14.4458078,15.8609407 13.6809816,15.8609407 L13.6809816,15.8609407 Z M5.75255624,15.8609407 L3.37423313,15.8609407 C2.60940695,15.8609407 1.98773006,15.2392638 1.98773006,14.4744376 L1.98773006,5.35787321 C1.98773006,5.03067485 2.25357873,4.76278119 2.58282209,4.76278119 C2.91206544,4.76278119 3.17791411,5.02862986 3.17791411,5.35787321 L3.17791411,14.4744376 C3.17791411,14.5828221 3.26584867,14.6728016 3.37627812,14.6728016 L5.75460123,14.6728016 C5.86503067,14.6728016 5.95296524,14.5848671 5.95296524,14.4744376 L5.95296524,13.0715746 C5.95296524,12.7443763 6.21881391,12.4764826 6.54805726,12.4764826 C6.87730061,12.4764826 7.14314928,12.7423313 7.14314928,13.0715746 L7.14314928,14.4744376 C7.14110429,15.2392638 6.51738241,15.8609407 5.75255624,15.8609407 L5.75255624,15.8609407 Z" id="形状"></path>
                </g>
            </g>
        </g>
    </g>
</svg>