<?xml version="1.0" encoding="UTF-8"?>
<svg width="69px" height="31px" viewBox="0 0 69 31" version="1.1" xmlns="http://www.w3.org/2000/svg" xmlns:xlink="http://www.w3.org/1999/xlink">
    <title>logo</title>
    <g id="菜单导航" stroke="none" stroke-width="1" fill="none" fill-rule="evenodd">
        <g id="菜单导航-悬浮1" transform="translate(-48.000000, -16.000000)">
            <g id="logo" transform="translate(48.000000, 16.000000)">
                <rect id="矩形" x="0" y="0" width="69" height="31"></rect>
                <path d="M19.7393986,2.03209631 C18.7485123,2.27565199 18.5037887,3.67361177 18.2596267,4.51353685 C18.0154647,5.35346193 17.6064316,6.25198942 17.2428203,6.87605105 C16.879209,7.50011268 16.7616019,8.90037993 18.0774248,8.99733646 C19.3932477,9.09429299 19.6643654,6.51824969 20.1451581,5.51589327 C20.6259509,4.51353685 20.5137232,4.78250623 20.881581,3.88239428 C21.2494387,2.98228232 20.7302848,1.78854063 19.7393986,2.03209631 Z" id="路径-5" fill="#FFFFFF"></path>
                <path d="M66.6900585,10.6177438 C67.4230519,9.93993792 68.0536433,9.8199128 68.5818326,10.2576684 C69.3741166,10.9143019 68.6950374,11.5788571 67.9129089,12.3481221 C67.1307805,13.1173872 65.1635863,16.7898952 65.1635863,19.9809417 C65.1635863,23.1719883 66.3540285,26.8914231 67.9129089,27.7933399 C69.4717893,28.6952567 69.0237494,29.6266998 68.5818326,29.8643495 C68.1399158,30.1019993 67.3410814,30.2431488 65.3789441,28.3539053 C63.4168069,26.4646617 62.6999846,22.0803838 63.1121606,18.0537327 C63.3869445,15.3692987 64.5795772,12.8906357 66.6900585,10.6177438 Z" id="路径-8" fill="#FFFFFF" transform="translate(66.000000, 20.000000) scale(-1, 1) translate(-66.000000, -20.000000) "></path>
                <path d="M25.6900585,10.6177438 C26.4230519,9.93993792 27.0536433,9.8199128 27.5818326,10.2576684 C28.3741166,10.9143019 27.6950374,11.5788571 26.9129089,12.3481221 C26.1307805,13.1173872 24.1635863,16.7898952 24.1635863,19.9809417 C24.1635863,23.1719883 25.3540285,26.8914231 26.9129089,27.7933399 C28.4717893,28.6952567 28.0237494,29.6266998 27.5818326,29.8643495 C27.1399158,30.1019993 26.3410814,30.2431488 24.3789441,28.3539053 C22.4168069,26.4646617 21.6999846,22.0803838 22.1121606,18.0537327 C22.3869445,15.3692987 23.5795772,12.8906357 25.6900585,10.6177438 Z" id="路径-8" fill="#FFFFFF"></path>
                <path d="M52,16.2238855 C52,15.1749526 52.5474383,14.8002619 53.642315,15.0998132 C54.1963526,15.6849459 55.1510795,18.1248692 56.5064957,22.4195831 C57.9320033,18.6072507 58.7428804,16.4342059 58.9391269,15.9004488 C59.2334966,15.0998132 60.4218009,14.6732531 60.9461591,15.6284938 C61.2759765,16.3323538 60.0905023,19.5731799 57.3897364,25.3509722 C56.7124861,26.2163426 56.0660961,26.2163426 55.4505665,25.3509722 C54.835037,24.4856017 53.6848481,21.4432395 52,16.2238855 Z" id="路径-14" fill="#FFFFFF"></path>
                <path d="M41.2610448,17.4045897 C43.4973204,14.3601948 47.5902249,14.3601948 48.9352862,16.5416143 C49.8319937,17.9958939 49.6242127,19.1696771 48.3119431,20.062964 L48.3119431,20.062964 L42.8464728,22.9724416 C43.5257902,23.7723757 44.606097,24.1723427 46.0873932,24.1723427 C48.3093374,24.1723427 48.9352862,22.4159058 50.1009057,22.4159058 C51.2665253,22.4159058 51.6110577,24.1723427 49.200634,25.3493649 C46.7902103,26.5263872 43.195348,26.0048296 41.6708646,24.5983586 C40.1463813,23.1918876 39.0247692,20.4489845 41.2610448,17.4045897 Z M47.7916553,17.935176 C47.7916553,17.935176 47.388944,17.0148693 45.2260738,17.2769403 C43.7841604,17.4516543 42.7351315,18.64465 42.0789871,20.8559275 C45.8874325,18.9087599 47.7916553,17.935176 47.7916553,17.935176 Z" id="形状结合" fill="#FFFFFF"></path>
                <path d="M37.9750585,9.79763956 C37.9813174,9.88755685 37.9861855,9.970229 37.9898945,10.0529324 L37.9938037,10.152657 C37.9977501,10.2701066 37.9996064,10.3933219 38.0000088,10.5422692 L38.0000126,10.6767058 C37.9986143,11.2906077 37.9796651,12.3382077 37.9757595,14.8426164 L37.9750585,21.7236351 L37.9750585,21.7236351 C37.9817028,22.2269819 37.9855484,22.674353 37.9865954,23.0657484 L37.9865084,23.5085545 C37.9836477,24.34043 37.9646667,24.8498854 37.9295654,25.0369207 C37.9112408,25.1345625 37.7290482,25.4336033 37.7005388,25.4730826 C37.3656215,25.9368704 36.3360202,26.1808146 35.9291422,25.3989689 L35.9939517,25.3538306 C35.2082722,25.946767 33.8759469,26.1316307 31.9969758,25.9084216 C29.1785192,25.5736078 28,22.2976678 28,20.1724177 C28,18.0471675 29.1942433,15.3836739 31.7623055,14.645076 C33.4321453,14.164815 34.8151728,14.5038646 35.9113879,15.6622247 C35.9128895,15.5007606 35.9151296,15.3350269 35.9174279,15.1672263 L36.009174,11.8336038 C36.009174,10.2031014 36.1933484,9.30659071 36.5616972,9.14407178 C37.3856849,8.78052075 37.9295654,9.14407178 37.9750585,9.79763956 Z M30.0265802,20.4316112 C30.3520337,24.3155879 33.7462626,23.8668529 34.1643828,23.746532 C34.5013216,23.6495724 35.4833092,22.8421321 35.8519292,22.3740399 L35.8496337,22.3840734 C35.8511282,21.3555206 35.8600759,20.0624581 35.876477,18.5048858 C35.3337291,17.4272621 34.6055708,16.8518657 33.6919053,16.7774596 C32.2198563,16.6575804 30.2075129,17.4431508 30.0265802,20.4316112 Z" id="形状结合" fill="#FFFFFF"></path>
                <path d="M14.2305951,2.24705787 C15.3236842,2.74654823 15.3236842,4.45307302 13.7658835,5.01125269 C12.2080828,5.56943236 10.5852055,5.50030021 9.63281086,6.59158806 C8.68041618,7.68287592 7.98481134,10.6168024 7.98481134,10.9378406 C7.98481134,11.2588789 10.973917,10.95959 11.8466224,11.188922 C12.7193278,11.4182539 13.2961458,13.3912578 11.8466224,14.316127 C11.5039193,14.5362277 9.98193014,14.5947836 7.28065499,14.491795 C6.83531873,16.2343874 6.37831685,18.0594041 5.90964935,19.9668451 C5.44098186,21.8742861 5.00212226,23.716213 4.59307056,25.4926259 C3.95489004,28.3068639 2.95631366,29.8038469 1.59734143,29.9835748 C-0.441116909,30.2531667 0.609415931,27.1380243 1.10737171,25.4926259 C1.43934223,24.3956936 1.85651512,22.5537667 2.35889037,19.9668451 L3.63579978,14.491795 C1.52478141,14.6305941 0.436504434,14.5720382 0.37096886,14.316127 C0.00288151738,14.0396039 -0.687450652,11.188922 1.855717,10.9378406 C3.04507759,10.8204177 4.04756858,10.8670104 4.30108777,10.61973 C4.5420047,10.3847417 4.60660911,9.65206064 4.97602982,8.41462402 C5.73419547,5.87502101 6.33681182,4.58560571 7.98481134,3.27508092 C9.63281086,1.96455613 13.1375061,1.74756751 14.2305951,2.24705787 Z" id="路径-7" fill="#FFFFFF"></path>
            </g>
        </g>
    </g>
</svg>