<?xml version="1.0" encoding="UTF-8"?>
<svg width="29px" height="28px" viewBox="0 0 29 28" version="1.1" xmlns="http://www.w3.org/2000/svg" xmlns:xlink="http://www.w3.org/1999/xlink">
    <title>icon_manage</title>
    <g id="菜单导航" stroke="none" stroke-width="1" fill="none" fill-rule="evenodd">
        <g id="菜单导航-悬浮1" transform="translate(-966.000000, -18.000000)">
            <g id="icon_manage" transform="translate(966.500000, 18.000000)">
                <rect id="32x32框" x="0" y="0" width="28" height="28"></rect>
                <path d="M16.3880028,21.5320088 C16.1000024,21.5320088 15.8120021,21.4120086 15.6360019,21.2120084 C15.3880016,20.9400081 14.6040007,20.2280072 13.9559999,20.2280072 C13.3159992,20.2280072 12.5159983,20.9400081 12.291998,21.1880084 C12.1079978,21.3880086 11.8279975,21.5000087 11.5399971,21.5000087 C11.403997,21.5000087 11.2759968,21.4760087 11.1559967,21.4200086 L11.1319967,21.4120086 L9.17199438,20.3160073 L9.15599436,20.3000073 C8.79599394,20.052007 8.65999379,19.5640065 8.843994,19.164006 C8.843994,19.164006 9.02799421,18.7480055 9.02799421,18.3720051 C9.02799421,17.2280038 8.09999313,16.3000027 6.9559918,16.3000027 L6.8679917,16.3000027 C6.53999132,16.3000027 6.27599101,16.0120023 6.18799091,15.5560018 C6.1799909,15.5320018 6.01999071,14.6760008 6.01999071,14.004 C6.01999071,13.3319992 6.1799909,12.4759982 6.18799091,12.4359982 C6.27599101,11.9799976 6.54799133,11.6839973 6.88399172,11.6919973 L6.9559918,11.6919973 C8.09999313,11.6919973 9.02799421,10.7639962 9.02799421,9.6199949 C9.02799421,9.24399447 8.85199401,8.82799398 8.843994,8.82799398 C8.6679938,8.42799352 8.80399395,7.93999295 9.16399437,7.69199266 L9.1879944,7.67599264 L11.2439968,6.54799133 L11.2679968,6.53999132 C11.387997,6.49199126 11.5079971,6.46799124 11.6439973,6.46799124 C11.9319976,6.46799124 12.2119979,6.57999137 12.3959981,6.7799916 C12.6439984,7.0359919 13.4119993,7.69999267 14.036,7.69999267 C14.6520008,7.69999267 15.4200017,7.04399191 15.6680019,6.79599162 C15.8520022,6.60399139 16.1320025,6.49199126 16.4120028,6.49199126 C16.548003,6.49199126 16.6760031,6.51599129 16.7960033,6.57199136 L16.8200033,6.57999137 L18.8200056,7.67599264 L18.8360056,7.69199266 C19.196006,7.93999295 19.3320062,8.42799352 19.156006,8.82799398 C19.156006,8.82799398 18.9720058,9.24399447 18.9720058,9.6199949 C18.9720058,10.7639962 19.9000069,11.6919973 21.0440082,11.6919973 L21.1160083,11.6919973 C21.4520087,11.6839973 21.724009,11.9799976 21.8120091,12.4359982 C21.8200091,12.4759982 21.9800093,13.3239992 21.9800093,14.004 C21.9800093,14.6840008 21.8200091,15.5320018 21.8120091,15.5720018 C21.724009,16.0280024 21.4520087,16.3240027 21.1160083,16.3160027 L21.0440082,16.3160027 C19.9000069,16.3160027 18.9720058,17.2440038 18.9720058,18.3880051 C18.9720058,18.7640055 19.148006,19.180006 19.156006,19.180006 C19.3320062,19.5800065 19.196006,20.0680071 18.8360056,20.3160073 L18.8120056,20.3320074 L16.7800032,21.4520087 L16.7560032,21.4600087 C16.6520031,21.5080087 16.5240029,21.5320088 16.3880028,21.5320088 Z M16.1764606,20.133128 C16.183927,20.1405944 16.2063262,20.1480608 16.2361919,20.1480608 L18.0057327,19.1699602 C17.9609342,19.0728968 17.7668074,18.5875797 17.7668074,18.0873297 C17.7668074,16.5865799 18.9465013,15.3546211 20.4323183,15.2799569 C20.4547175,15.1604943 20.5667138,14.4959831 20.5667138,14.0031996 C20.5667138,13.5029497 20.4472511,12.845905 20.4323183,12.7264423 C18.9465013,12.6517781 17.7668074,11.4198193 17.7668074,9.91906951 C17.7668074,9.41881957 17.9609342,8.93350246 18.0057327,8.83643904 L16.2660576,7.86580483 L16.2585911,7.86580483 C16.2287255,7.86580483 16.1988598,7.87327125 16.1913934,7.88073766 C16.1615277,7.91060333 15.9076695,8.16446151 15.5492815,8.41831969 C15.0116995,8.79910696 14.5039831,8.98576738 14.0410653,8.98576738 C13.570681,8.98576738 13.0629647,8.79164054 12.5179162,8.40338685 C12.1520618,8.14206226 11.8982036,7.88073766 11.8683379,7.850872 C11.8608715,7.84340558 11.8310059,7.83593916 11.8011402,7.83593916 L11.7936738,7.83593916 L9.99426727,8.82897262 C10.0390658,8.92603605 10.2331926,9.41135315 10.2331926,9.91160309 C10.2331926,11.4123529 9.05349873,12.6443117 7.56768174,12.7189759 C7.54528249,12.8384386 7.43328623,13.5029497 7.43328623,13.9957332 C7.43328623,14.4959831 7.55274891,15.1530278 7.56768174,15.2724905 C9.05349873,15.3471547 10.2331926,16.5791135 10.2331926,18.0798633 C10.2331926,18.5875797 10.0390658,19.0654304 9.99426727,19.1624938 L11.7040768,20.1256616 C11.726476,20.1256616 11.7563417,20.1181952 11.7638081,20.1107287 C11.7936738,20.0733967 12.047532,19.8046056 12.4208528,19.5358146 C12.9659012,19.1326281 13.4885504,18.9310348 13.9664011,18.9310348 C14.4517182,18.9310348 14.9743674,19.1400945 15.5268823,19.543281 C15.8852703,19.8270049 16.1391285,20.1032623 16.1764606,20.133128 Z" id="形状" fill="#FFFFFF" fill-rule="nonzero"></path>
                <path d="M14,11.2399968 C15.5200018,11.2399968 16.7600032,12.4799982 16.7600032,14 C16.7600032,15.5200018 15.5280018,16.7600032 14,16.7600032 C12.4799982,16.7600032 11.2399968,15.5200018 11.2399968,14 C11.2399968,12.4799982 12.4799982,11.2399968 14,11.2399968 Z M14,12.4361014 C13.1357403,12.4361014 12.4361014,13.1357403 12.4361014,14 C12.4361014,14.8642597 13.1357403,15.5638986 14,15.5638986 C14.8642597,15.5638986 15.5638986,14.8642597 15.5638986,14 C15.5638986,13.1357403 14.8642597,12.4361014 14,12.4361014 Z" id="形状结合" fill="#FFFFFF" fill-rule="nonzero"></path>
            </g>
        </g>
    </g>
</svg>