<?xml version="1.0" encoding="UTF-8"?>
<svg width="28px" height="28px" viewBox="0 0 28 28" version="1.1" xmlns="http://www.w3.org/2000/svg" xmlns:xlink="http://www.w3.org/1999/xlink">
    <title>icon_measure</title>
    <g id="页面-1" stroke="none" stroke-width="1" fill="none" fill-rule="evenodd">
        <g id="任务详情-pipelines-20" transform="translate(-871.000000, -18.000000)">
            <g id="icon_measure" transform="translate(871.000000, 18.000000)">
                <rect id="32x32框" x="0" y="0" width="28" height="28"></rect>
                <path d="M7.23075783,7.21841102 L7.23075783,20.7568955 L20.7692423,20.7568955 L20.7692423,7.21841102 L7.23075783,7.21841102 Z M7.23075783,5.98764084 L20.7692423,5.98764084 L20.7692423,5.98764084 C21.4489774,5.98764084 22.0000125,6.53867585 22.0000125,7.21841102 L22.0000125,20.7568955 L22.0000125,20.7568955 C22.0000125,21.4366307 21.4489774,21.9876657 20.7692423,21.9876657 L7.23075777,21.9876657 L7.23075772,21.9876657 C6.55102256,21.9876657 5.99998754,21.4366307 5.99998754,20.7568955 C5.99998754,20.7568955 5.99998754,20.7568955 5.99998754,20.7568955 L5.99998754,7.21841102 L5.99998754,7.21841121 C5.99998754,6.53867604 6.55102256,5.98764084 7.23075772,5.98764084 L7.23075783,5.98764084 Z" id="形状" fill="#FFFFFF" fill-rule="nonzero"></path>
                <rect id="矩形" fill="#FFFFFF" x="8.1767064" y="17.3627121" width="11.6465872" height="1.27855568" rx="0.639277842"></rect>
                <rect id="矩形备份-33" fill="#FFFFFF" transform="translate(10.001767, 14.000000) rotate(-90.000000) translate(-10.001767, -14.000000) " x="7.76708992" y="13.3607222" width="4.46935478" height="1.27855568" rx="0.639277842"></rect>
                <rect id="矩形备份-34" fill="#FFFFFF" transform="translate(14.029988, 12.354769) rotate(-90.000000) translate(-14.029988, -12.354769) " x="10.1500791" y="11.7154911" width="7.75981693" height="1.27855568" rx="0.639277842"></rect>
                <rect id="矩形备份-35" fill="#FFFFFF" transform="translate(18.058208, 12.794286) rotate(-90.000000) translate(-18.058208, -12.794286) " x="14.6178164" y="12.155008" width="6.88078304" height="1.27855568" rx="0.639277842"></rect>
            </g>
        </g>
    </g>
</svg>