<?xml version="1.0" encoding="UTF-8"?>
<svg width="29px" height="28px" viewBox="0 0 29 28" version="1.1" xmlns="http://www.w3.org/2000/svg" xmlns:xlink="http://www.w3.org/1999/xlink">
    <title>icon_team</title>
    <g id="菜单导航" stroke="none" stroke-width="1" fill="none" fill-rule="evenodd">
        <g id="菜单导航-悬浮1" transform="translate(-402.000000, -18.000000)">
            <g id="编组" transform="translate(402.500000, 18.000000)">
                <rect id="32x32框" x="0" y="0" width="28" height="28"></rect>
                <g id="协作套件" transform="translate(4.473684, 5.000000)" fill="#FFFFFF">
                    <path d="M15.7620095,10.2972376 C16.1154718,10.2972376 16.4020095,10.5837754 16.4020095,10.9372376 L16.4020095,13.8753447 C16.4020095,14.196674 16.1652015,14.4626938 15.856584,14.5084054 L15.7620095,14.5153447 L15.7620095,14.5153447 L10.8848872,14.5152376 L6.38283983,16.71111 C6.24573162,16.7779821 6.09643107,16.7914206 5.95854429,16.7595536 C5.85366975,16.7381612 5.75217586,16.6902272 5.66527216,16.6146829 L1.07901903,12.6279139 C0.812257694,12.3960218 0.783990586,11.9917833 1.01588268,11.725022 C1.24777477,11.4582607 1.65201325,11.4299935 1.91877459,11.6618856 L6.19388718,15.3782376 L10.4219559,13.3169709 C10.4861357,13.2856684 10.5529869,13.2660739 10.6200885,13.2573537 C10.6720692,13.2425742 10.726525,13.2353447 10.7826694,13.2353447 L15.1218872,13.2352376 L15.1218872,11.5762376 L10.8678872,11.5762376 L7.35611837,12.9955965 C7.02839388,13.1280057 6.65538177,12.9696715 6.52297248,12.641947 C6.39056319,12.3142225 6.54889745,11.9412104 6.87662193,11.8088011 L10.4854051,10.3507581 C10.549652,10.3248006 10.6156395,10.3100169 10.6812135,10.3054926 C10.7141014,10.299984 10.7480647,10.2972376 10.7826694,10.2972376 L15.7620095,10.2972376 L15.7620095,10.2972376 Z" id="形状结合"></path>
                    <path d="M10.3617333,0.0805163608 C10.6794008,0.0805163608 10.9369213,0.399165373 10.9369213,0.792238849 L10.9369213,8.76353071 C10.9369213,9.15660419 10.6794008,9.4752532 10.3617333,9.4752532 L7.48579345,9.4752532 C7.1681259,9.4752532 6.91060548,9.15660419 6.91060548,8.76353071 L6.91060548,0.792238849 C6.91060548,0.399165373 7.1681259,0.0805163608 7.48579345,0.0805163608 L10.3617333,0.0805163608 Z M9.73369787,1.1266086 L8.11382887,1.1266086 L8.11382887,8.42916097 L9.73369787,8.42916097 L9.73369787,1.1266086 Z" id="矩形" fill-rule="nonzero"></path>
                    <path d="M14.875125,1.4500885 C15.1628212,1.4500885 15.396045,1.72228461 15.396045,2.05805552 L15.396045,8.86728618 C15.396045,9.2030571 15.1628212,9.4752532 14.875125,9.4752532 L12.2705253,9.4752532 C11.9828291,9.4752532 11.7496053,9.2030571 11.7496053,8.86728618 L11.7496053,2.05805552 C11.7496053,1.72228461 11.9828291,1.4500885 12.2705253,1.4500885 L14.875125,1.4500885 Z M14.311402,2.4514383 L12.8342483,2.4514383 L12.8342483,8.47390341 L14.311402,8.47390341 L14.311402,2.4514383 Z" id="矩形备份-10" fill-rule="nonzero"></path>
                    <path d="M5.57700148,2.10949916 C5.86469763,2.10949916 6.09792143,2.35932949 6.09792143,2.66751083 L6.09792143,8.91724153 C6.09792143,9.22542287 5.86469763,9.4752532 5.57700148,9.4752532 L2.97240171,9.4752532 C2.68470556,9.4752532 2.45148176,9.22542287 2.45148176,8.91724153 L2.45148176,2.66751083 C2.45148176,2.35932949 2.68470556,2.10949916 2.97240171,2.10949916 L5.57700148,2.10949916 Z M5.00978355,3.08481249 L3.54295546,3.08481249 L3.54295546,8.60851825 L5.00978355,8.60851825 L5.00978355,3.08481249 Z" id="矩形备份-11" fill-rule="nonzero"></path>
                </g>
            </g>
        </g>
    </g>
</svg>