<?xml version="1.0" encoding="UTF-8"?>
<svg width="28px" height="28px" viewBox="0 0 28 28" version="1.1" xmlns="http://www.w3.org/2000/svg" xmlns:xlink="http://www.w3.org/1999/xlink">
    <title>发布备份</title>
    <g id="icon" stroke="none" stroke-width="1" fill="none" fill-rule="evenodd">
        <g id="二级菜单" transform="translate(-129.000000, -96.000000)">
            <g id="发布备份" transform="translate(129.000000, 96.000000)">
                <rect id="32x32框" x="0" y="0" width="28" height="28"></rect>
                <g id="发布" transform="translate(6.500000, 6.500000)">
                    <path d="M14.200832,0.131188111 C14.4994591,0.125133606 14.7584873,0.336461208 14.8123809,0.630249636 C14.8318814,0.728446907 14.8278425,0.829867394 14.8005951,0.926201909 L12.9450029,13.6390738 C12.9065854,13.9082028 12.6954631,14.1198595 12.4264308,14.158955 C12.2982242,14.1826157 12.1657974,14.1637634 12.0492875,14.1052644 L7.99238555,12.1147662 C7.69437231,11.955823 7.58163446,11.5853875 7.74057758,11.2873758 C7.89140344,11.0045828 8.23497199,10.8862053 8.52798084,11.0160754 L11.8541803,12.6490586 L13.2894196,2.81845707 L6.83040456,10.5671881 L5.60240456,10.5671881 L5.6025069,10.377037 C5.59838363,10.2249452 5.64956461,10.0765213 5.74655532,9.95929781 L11.8397767,2.64821788 L2.07071259,7.71608092 L4.37416254,8.91036802 C4.67598315,9.06859607 4.79771069,9.43783464 4.64916294,9.74453519 C4.52098087,10.0100773 4.2209042,10.136848 3.94708157,10.0557191 L3.85428116,10.0195351 L0.524153117,8.28572872 C0.397630222,8.21973092 0.297392913,8.11256443 0.239986596,7.98191933 C0.083730523,7.68677579 0.195558973,7.32084428 0.490106414,7.16346645 L13.9114264,0.200725368 C14.0009659,0.154805389 14.1002037,0.131188111 14.200832,0.131188111 Z" id="形状" fill="#FFFFFF" fill-rule="nonzero"></path>
                    <rect id="矩形" fill="#FFFFFF" transform="translate(6.064644, 13.322042) rotate(-270.000000) translate(-6.064644, -13.322042) " x="4.3990304" y="12.6827639" width="3.33122661" height="1.27855568" rx="0.639277842"></rect>
                    <rect id="矩形" fill="#FFFFFF" transform="translate(8.525264, 7.586120) rotate(40.000000) translate(-8.525264, -7.586120) " x="7.91085094" y="3.08611974" width="1.22882593" height="9" rx="0.614412963"></rect>
                </g>
            </g>
        </g>
    </g>
</svg>