<?xml version="1.0" encoding="UTF-8"?>
<svg width="20px" height="20px" viewBox="0 0 20 20" version="1.1" xmlns="http://www.w3.org/2000/svg" xmlns:xlink="http://www.w3.org/1999/xlink">
    <title>工具导航</title>
    <g id="组件库" stroke="none" stroke-width="1" fill="none" fill-rule="evenodd">
        <g id="1.4_Icon_场景图标" transform="translate(-714.000000, -1878.000000)">
            <g id="编组" transform="translate(714.000000, 1878.000000)">
                <rect id="矩形" x="0" y="0" width="20" height="20"></rect>
                <path d="M10,0 C14.418278,0 18,3.581722 18,8 C18,10.4099698 16.214876,13.5258321 12.6446281,17.3475868 L12.024,18 L15,18 C15.5522847,18 16,18.4477153 16,19 C16,19.5522847 15.5522847,20 15,20 L5,20 C4.44771525,20 4,19.5522847 4,19 C4,18.4477153 4.44771525,18 5,18 L7.975,18 L7.3553719,17.3475868 C7.15702479,17.1352671 6.96418733,16.9251261 6.7768595,16.7171638 L6.23140496,16.0998128 C3.41046832,12.842133 2,10.1421954 2,8 C2,3.581722 5.581722,0 10,0 Z M10,2 C6.6862915,2 4,4.6862915 4,8 C4,9.97127091 5.89798368,13.0422545 9.78324373,16.9880637 L10,17.206 L10.2167563,16.9880637 C14.0023943,13.1434291 15.9013609,10.1293324 15.9962549,8.15380149 L16,8 C16,4.6862915 13.3137085,2 10,2 Z M10,4 C12.209139,4 14,5.790861 14,8 C14,10.209139 12.209139,12 10,12 C7.790861,12 6,10.209139 6,8 C6,5.790861 7.790861,4 10,4 Z M10,6 C8.8954305,6 8,6.8954305 8,8 C8,9.1045695 8.8954305,10 10,10 C11.1045695,10 12,9.1045695 12,8 C12,6.8954305 11.1045695,6 10,6 Z" id="工具导航" fill="#fff" fill-rule="nonzero"></path>
            </g>
        </g>
    </g>
</svg>