<?xml version="1.0" encoding="UTF-8"?>
<svg width="12px" height="37px" viewBox="0 0 12 37" version="1.1" xmlns="http://www.w3.org/2000/svg" xmlns:xlink="http://www.w3.org/1999/xlink">
    <title>icon_menu_unfold</title>
    <g id="定稿" stroke="none" stroke-width="1" fill="none" fill-rule="evenodd">
        <g id="二级菜单1-展开" transform="translate(-162.000000, -464.000000)">
            <g id="icon_menu_unfold" transform="translate(162.000000, 464.000000)">
                <path d="M4,0 L12,0 L12,0 L12,37 L4,37 C1.790861,37 2.705415e-16,35.209139 0,33 L0,4 C-2.705415e-16,1.790861 1.790861,4.05812251e-16 4,0 Z" id="矩形" fill="#FFFFFF" transform="translate(6.000000, 18.500000) scale(-1, 1) translate(-6.000000, -18.500000) "></path>
                <g transform="translate(1.000000, 14.000000)">
                    <rect id="矩形" x="0" y="0" width="10" height="10"></rect>
                    <path d="M3.2238225,4.193963 L6.66463167,1.32654301 C6.73528195,1.26769649 6.83359048,1.255017 6.91685995,1.29401148 C7.00012942,1.33300597 7.0533701,1.41663871 7.0533701,1.50858637 L7.0533701,7.60751308 C7.0533701,7.69946074 7.00012942,7.78309348 6.91685995,7.82208796 C6.83359048,7.86108245 6.73528195,7.84840296 6.66463167,7.78955644 L3.2238225,4.92213645 C3.11581291,4.8320652 3.0533701,4.6986872 3.0533701,4.55804972 C3.0533701,4.41741225 3.11581291,4.28403425 3.2238225,4.193963 L3.2238225,4.193963 Z" id="路径" fill="#BBBBBB" fill-rule="nonzero" transform="translate(5.053370, 4.558050) scale(-1, 1) translate(-5.053370, -4.558050) "></path>
                </g>
            </g>
        </g>
    </g>
</svg>