<?xml version="1.0" encoding="UTF-8"?>
<svg width="28px" height="28px" viewBox="0 0 28 28" version="1.1" xmlns="http://www.w3.org/2000/svg" xmlns:xlink="http://www.w3.org/1999/xlink">
    <title>用户备份</title>
    <g id="icon" stroke="none" stroke-width="1" fill="none" fill-rule="evenodd">
        <g id="二级菜单" transform="translate(-24.000000, -484.000000)">
            <g id="用户备份" transform="translate(24.000000, 484.000000)">
                <rect id="32x32框" x="0" y="0" width="28" height="28"></rect>
                <path d="M7.23075783,7.22634712 L7.23075783,20.7648316 L20.7692423,20.7648316 L20.7692423,7.22634712 L7.23075783,7.22634712 Z M7.23075783,5.99557694 L20.7692423,5.99557694 L20.7692423,5.99557694 C21.4489774,5.99557694 22.0000125,6.54661195 22.0000125,7.22634712 L22.0000125,20.7648316 L22.0000125,20.7648316 C22.0000125,21.4445668 21.4489774,21.9956018 20.7692423,21.9956018 L7.23075777,21.9956018 L7.23075772,21.9956018 C6.55102256,21.9956018 5.99998754,21.4445668 5.99998754,20.7648316 C5.99998754,20.7648316 5.99998754,20.7648316 5.99998754,20.7648316 L5.99998754,7.22634712 L5.99998754,7.22634731 C5.99998754,6.54661214 6.55102256,5.99557694 7.23075772,5.99557694 L7.23075783,5.99557694 Z" id="形状" fill="#FFFFFF" fill-rule="nonzero"></path>
                <path d="M14.9266479,8.23845271 C13.3948838,7.83050692 11.7631498,8.48765947 10.9456868,9.84479833 C10.1139336,11.2225745 10.3107675,12.9797283 11.4329898,14.1575031 C11.5520379,14.2828984 11.7044176,14.3765458 11.9123498,14.5432156 C11.6028271,14.7273431 11.4123525,14.832101 11.2282251,14.9511491 C10.1155296,15.6670216 9.3488557,16.6543342 8.99805841,17.9336995 C8.87742658,18.3717971 8.82505375,18.8368668 8.80282046,19.2924343 C8.78536285,19.6289414 9.02822251,19.8559149 9.30759337,19.8797319 C9.58378454,19.9019529 9.82186852,19.7051312 9.88853155,19.3686241 C9.92663874,19.1765536 9.92980615,18.9765523 9.95203943,18.7813143 C10.1853723,16.7559124 11.902823,15.2400468 13.9456825,15.2575044 C15.9631536,15.274962 17.625064,13.6114679 17.5758463,11.6241609 C17.534584,10.0400363 16.4425135,8.64480251 14.9266356,8.23845271 L14.9266479,8.23845271 Z M13.9964839,14.1352839 C12.6250425,14.1336861 11.5393315,13.0463913 11.5409257,11.6797257 C11.5425112,10.3082844 12.6266385,9.22892038 13.9996513,9.22892038 C15.3774397,9.22892038 16.4488729,10.3019373 16.4504584,11.6828931 C16.4520526,13.0590856 15.3726763,14.1368658 13.9964839,14.1352839 L13.9964839,14.1352839 Z" id="形状" fill="#FFFFFF" fill-rule="nonzero"></path>
                <path d="M19.1933147,18.9940099 C19.1615669,17.9400466 18.5996578,16.6194067 17.8377595,15.8463979 C17.7615697,15.7686121 17.6869636,15.6813118 17.5948999,15.6289267 C17.3647344,15.4987681 17.0964864,15.4813105 16.9472741,15.7035328 C16.8440999,15.8575085 16.829822,16.1051192 16.8552104,16.3003572 C16.8726803,16.4305158 17.0266436,16.5432168 17.1234708,16.6606813 C17.5615684,17.1924263 17.8663399,17.7892507 17.9964863,18.4670282 C18.0536348,18.7654404 18.066329,19.0733794 18.1171181,19.3749713 C18.1710869,19.6971881 18.4218897,19.9178268 18.6949012,19.8765522 C18.9822028,19.8337062 19.16951,19.6654403 19.1933147,19.3590851 C19.2012455,19.2511597 19.1933147,19.1416384 19.1933147,18.9940099 L19.1933147,18.9940099 Z" id="路径" fill="#FFFFFF"></path>
            </g>
        </g>
    </g>
</svg>