<?xml version="1.0" encoding="UTF-8"?>
<svg width="24px" height="24px" viewBox="0 0 24 24" version="1.1" xmlns="http://www.w3.org/2000/svg" xmlns:xlink="http://www.w3.org/1999/xlink">
    <title>添加活动项</title>
    <g id="工作流程配置" stroke="none" stroke-width="1" fill="none" fill-rule="evenodd">
        <g id="画板" transform="translate(-51.000000, -126.000000)">
            <g id="添加活动项" transform="translate(51.000000, 126.000000)">
                <g id="编组" transform="translate(3.000000, 3.000000)">
                    <rect id="24x24框" x="0" y="0" width="18" height="18"></rect>
                </g>
                <rect id="矩形" x="0" y="0" width="24" height="24"></rect>
                <g id="tianjiawenjian" transform="translate(4.000000, 4.000000)" fill="#1565C0" fill-rule="nonzero">
                    <path d="M1.37060308,1.34645792 L14.3423773,1.34645792 L14.3423773,7.80786998 L15.6885048,7.80786998 L15.6885048,0.918144618 C15.6885048,0.411249827 15.2775854,0.000330409256 14.7706906,0.000330409256 L0.942289777,0.000330409256 C0.694657866,-0.00627547442 0.454870762,0.0874983695 0.277416831,0.260343107 C0.0999628993,0.433187844 4.60354409e-07,0.670424628 4.60354409e-07,0.918144618 L4.60354409e-07,14.6853578 C4.60354409e-07,15.1922526 0.410919937,15.603172 0.917814727,15.603172 L7.78306504,15.603172 L7.78306504,14.2570445 L1.37060308,14.2570445 L1.37060308,1.34645792 Z" id="路径"></path>
                    <path d="M3.9527204,3.97752534 L11.5766971,3.97752534 L11.5766971,5.32365285 L3.9527204,5.32365285 L3.9527204,3.97752534 Z M15.9210177,11.4546518 L13.1553376,11.4546518 L13.1553376,8.75015924 L11.80921,8.75015924 L11.80921,11.4546518 L9.03129237,11.4546518 L9.03129237,12.8007793 L11.80921,12.8007793 L11.80921,15.5052718 L13.1553376,15.5052718 L13.1553376,12.8007793 L15.9210177,12.8007793 L15.9210177,11.4546518 L15.9210177,11.4546518 Z" id="形状"></path>
                </g>
            </g>
        </g>
    </g>
</svg>