<?xml version="1.0" encoding="UTF-8"?>
<svg width="56px" height="56px" viewBox="0 0 56 56" version="1.1" xmlns="http://www.w3.org/2000/svg" xmlns:xlink="http://www.w3.org/1999/xlink">
    <title>android</title>
    <g id="页面-1" stroke="none" stroke-width="1" fill="none" fill-rule="evenodd">
        <g id="icon" transform="translate(-10.000000, -177.000000)" fill-rule="nonzero">
            <g id="android" transform="translate(10.000000, 177.000000)">
                <path d="M45.5,0 L45.5,0 C51.2989873,0 56,4.7010127 56,10.5 L56,45.5 L56,45.5 C56,51.2989873 51.2989873,56 45.5,56 C45.5,56 45.5,56 45.5,56 L10.5,56 L10.5,56 C4.70101266,56 0,51.2989873 0,45.5 C0,45.5 0,45.5 0,45.5 L0,10.5 L0,10.5 C0,4.70101428 4.70100582,0 10.5,0 L45.5,0 L45.5,0 Z" id="路径" fill="#86C127"></path>
                <g transform="translate(14.020072, 10.000000)" fill="#FFFFFF" id="形状">
                    <path d="M5.01193486,26.4730187 C5.01193486,27.0870171 5.21476451,27.6064649 5.62042382,28.031362 C6.02608313,28.4564914 6.49137061,28.6690562 7.01628624,28.6690562 L8.51990191,28.6690562 C8.424356,28.8581574 8.37658304,29.0471426 8.37658304,29.2360115 L8.37658304,33.6284349 C8.37658304,34.1952741 8.56755749,34.6794106 8.94950639,35.0808443 C9.33122053,35.482278 9.7846528,35.6829948 10.3098032,35.6829948 C10.6438617,35.6829948 10.9539751,35.5885603 11.2401434,35.3996914 C11.5265463,35.2108224 11.7533212,34.9628302 11.9204678,34.6557149 C12.0876145,34.3485995 12.1711878,34.0060567 12.1711878,33.6280864 L12.1711878,29.2356631 C12.1711878,29.0467941 12.1472426,28.857809 12.0993523,28.6687077 L15.6073194,28.6687077 C15.5596638,28.857809 15.535836,29.0467941 15.535836,29.2356631 L15.535836,33.6280864 C15.535836,34.1949257 15.7266931,34.6790621 16.1084072,35.0804958 C16.4901213,35.4819295 16.9435536,35.6826464 17.468704,35.6826464 C17.8029973,35.6826464 18.1133455,35.5882119 18.3997485,35.3993429 C18.6859167,35.2104739 18.9125741,34.9624817 19.0797208,34.6553664 C19.2468675,34.348251 19.3304408,34.0057082 19.3304408,33.627738 L19.3304408,29.2353146 C19.3304408,29.0464456 19.306613,28.8574605 19.2589574,28.6683592 L20.6907376,28.6683592 C21.0726865,28.6683592 21.418835,28.5739247 21.7291832,28.3850558 C22.0395313,28.1961868 22.2781613,27.924615 22.4450732,27.5703405 C22.6122199,27.216066 22.6957932,26.8500597 22.6957932,26.4723218 L22.6957932,11.2401434 L5.01263913,11.2401434 L5.01263913,26.4723218 L5.01193486,26.4730187 Z M3.22168145,11.8785344 C2.83996731,11.453405 2.38653504,11.2408403 1.86138465,11.2408403 C1.33646901,11.2408403 0.895009327,11.453405 0.537005596,11.8785344 C0.179001865,12.3036639 0,12.7996482 0,13.3664875 L0,22.2220729 C0,22.7889121 0.179001865,23.2730486 0.537005596,23.6744823 C0.895009327,24.075916 1.33646901,24.2766328 1.86138465,24.2766328 C2.38630028,24.2766328 2.83973255,24.075916 3.22168145,23.6744823 C3.60363035,23.2730486 3.7946048,22.7889121 3.7946048,22.2220729 L3.7946048,13.3664875 C3.7946048,12.7996482 3.60363035,12.3036639 3.22168145,11.8785344 L3.22168145,11.8785344 Z M18.1849462,2.95186181 L18.9008363,1.81829948 L19.6882098,0.543259658 C19.8314112,0.35415837 19.8075835,0.188868977 19.6167264,0.0473914775 C19.5688361,8.24229573e-13 19.4972353,-0.0118478694 19.4019241,0.0118478694 C19.3063782,0.0355436081 19.2347775,0.0709710607 19.1871219,0.118130227 L18.327913,1.53499602 L17.6120229,2.66855834 C16.4187554,2.19626975 15.1778323,1.96012545 13.8892536,1.96012545 C12.5527846,1.96012545 11.2880337,2.19626975 10.0950009,2.66855834 L9.37911086,1.53499602 L8.59138528,0.118130227 C8.5437297,0.0709710607 8.47212895,0.0355436081 8.37658304,0.0118478694 C8.28127188,-0.0118478694 8.20967114,8.24229573e-13 8.1617808,0.0473914775 C7.97092373,0.188868977 7.92326815,0.35415837 8.01881406,0.543259658 L8.80618752,1.81829948 L9.5220776,2.95186181 C8.18560859,3.66041086 7.09985957,4.62868379 6.26483054,5.85668061 C5.42956675,7.08467742 5.01193486,8.4306883 5.01193486,9.89471326 L22.695089,9.89471326 C22.695089,8.4306883 22.2894297,7.08467742 21.478111,5.85668061 C20.6667924,4.62868379 19.5690708,3.66041086 18.1849462,2.95186181 Z M10.0950009,7.13172043 C9.90390912,7.13172043 9.73676246,7.08456126 9.59356097,6.99024293 C9.45059423,6.8959246 9.34331049,6.76606266 9.27170974,6.60065711 C9.200109,6.43525156 9.16430863,6.2581143 9.16430863,6.06924532 C9.16430863,5.88037634 9.200109,5.70323908 9.27170974,5.53783353 C9.34331049,5.37242798 9.45059423,5.25429776 9.59356097,5.18344285 C9.73676246,5.11258795 9.90390912,5.07716049 10.0950009,5.07716049 C10.3335136,5.07716049 10.5483158,5.17159498 10.7394076,5.36046396 C10.9302647,5.54956525 11.0256933,5.7858257 11.0256933,6.06924532 C11.0256933,6.35266494 10.9302647,6.60054095 10.7394076,6.81287336 C10.5485506,7.02543807 10.3337483,7.13172043 10.0950009,7.13172043 Z M18.327913,6.81287336 C18.1370559,7.02543807 17.9103984,7.13172043 17.6479406,7.13172043 C17.3854828,7.13172043 17.1706806,7.02543807 17.0035339,6.81287336 C16.8363872,6.60054095 16.7528139,6.35266494 16.7528139,6.06924532 C16.7528139,5.7858257 16.8363872,5.54956525 17.0035339,5.36046396 C17.1706806,5.17159498 17.3854828,5.07716049 17.6479406,5.07716049 C17.9103984,5.07716049 18.1370559,5.17159498 18.327913,5.36046396 C18.51877,5.54956525 18.6141986,5.7858257 18.6141986,6.06924532 C18.6141986,6.35266494 18.51877,6.60054095 18.327913,6.81287336 Z M27.2052317,11.8785344 C26.8235176,11.453405 26.3700853,11.2408403 25.8449349,11.2408403 C25.3197845,11.2408403 24.8783248,11.453405 24.5205559,11.8785344 C24.1625521,12.3036639 23.9835503,12.7996482 23.9835503,13.3664875 L23.9835503,22.2220729 C23.9835503,22.7889121 24.1625521,23.2730486 24.5205559,23.6744823 C24.8785596,24.075916 25.3200193,24.2766328 25.8449349,24.2766328 C26.3700853,24.2766328 26.8235176,24.075916 27.2052317,23.6744823 C27.5869458,23.2730486 27.7778029,22.7889121 27.7778029,22.2220729 L27.7778029,13.3664875 C27.7778029,12.7996482 27.5869458,12.3036639 27.2052317,11.8785344 Z"></path>
                </g>
            </g>
        </g>
    </g>
</svg>