<?xml version="1.0" encoding="UTF-8"?>
<svg width="60px" height="60px" viewBox="0 0 60 60" version="1.1" xmlns="http://www.w3.org/2000/svg" xmlns:xlink="http://www.w3.org/1999/xlink">
    <title>创建时间</title>
    <g id="应用(未完成)" stroke="none" stroke-width="1" fill="none" fill-rule="evenodd">
        <g id="项目成员-权限交互" transform="translate(-1245.000000, -599.000000)" fill-rule="nonzero">
            <g id="编组-7" transform="translate(1194.000000, 599.000000)">
                <g id="创建时间" transform="translate(51.000000, 0.000000)">
                    <circle id="椭圆形" fill="#7FC388" cx="30" cy="30" r="30"></circle>
                    <g id="tubiao-10" transform="translate(14.000000, 14.000000)" fill="#FFFFFF">
                        <path d="M30.4577637,-0.000114226974 L1.41094371,-0.000114226974 C0.636683676,-0.000114226974 0.00724925987,0.629320189 0.00724925987,1.40358022 L0.00724925987,30.4504002 C0.00724925987,31.2246602 0.634826933,31.8540947 1.41094371,31.8540947 L30.4577637,31.8540947 C31.2320237,31.8540947 31.8614581,31.226517 31.8614581,30.4504002 L31.8614581,1.40358022 C31.8614581,0.629320189 31.2320237,-0.000114226974 30.4577637,-0.000114226974 Z M29.0540692,29.0467058 L2.81463816,29.0467058 L2.81463816,2.80727467 L29.0540692,2.80727467 L29.0540692,29.0467058 Z" id="形状"></path>
                        <path d="M10.59623,26.4974035 C10.7986145,26.5976674 11.0121394,26.6459426 11.2238076,26.6459426 C11.7381243,26.6459426 12.2338735,26.3618616 12.4808197,25.8698259 L16.251856,18.3296101 C17.5497163,18.1662171 18.5690659,17.1023058 18.5690659,15.7598837 C18.5690659,15.1025982 18.305409,14.521439 17.9062102,14.0591111 L19.3878877,8.99949819 C19.6051261,8.25494597 19.1799329,7.47697245 18.4353807,7.2578773 C17.6889718,7.04063886 16.9109983,7.46583203 16.6937598,8.21038425 L15.2120824,13.2718539 C14.1166065,13.591213 13.3014983,14.5604306 13.3014982,15.7598837 C13.3014982,16.2630599 13.4797451,16.7049637 13.7248347,17.1041625 L9.97050905,24.6146705 C9.62329893,25.307234 9.90366645,26.1501934 10.59623,26.4974035 L10.59623,26.4974035 Z" id="路径"></path>
                    </g>
                </g>
            </g>
        </g>
    </g>
</svg>