<?xml version="1.0" encoding="UTF-8"?>
<svg width="60px" height="60px" viewBox="0 0 60 60" version="1.1" xmlns="http://www.w3.org/2000/svg" xmlns:xlink="http://www.w3.org/1999/xlink">
    <title>应用概述</title>
    <g id="应用(未完成)" stroke="none" stroke-width="1" fill="none" fill-rule="evenodd" opacity="0.300199963">
        <g id="项目成员-权限交互" transform="translate(-208.000000, -259.000000)" fill="#0378EA" fill-rule="nonzero">
            <g id="应用概述" transform="translate(208.000000, 259.000000)">
                <path d="M11.4555027,23.1402853 C10.5044158,25.4500679 9.9609375,28.0315897 9.9609375,30.6131114 C9.9609375,32.7870245 10.3685462,34.9609375 11.047894,36.8631114 C12.2707201,34.8250679 13.9011549,32.5152853 15.9391984,30.0696331 C15.6674592,29.5261549 15.3957202,28.846807 15.3957201,28.1674593 C15.3957201,27.623981 15.5315896,27.2163723 15.6674592,26.8087636 C13.7652853,25.4500679 12.4065897,24.2272418 11.4555027,23.1402853 L11.4555027,23.1402853 Z M18.5207201,46.9174593 C19.200068,46.373981 19.7435462,45.8305027 20.422894,45.422894 C25.9935462,41.2109375 31.0207201,38.7652853 34.9609375,37.4065897 C34.9609375,37.1348505 34.8250679,36.8631114 34.8250679,36.5913723 L34.8250679,36.1837636 C33.4663723,35.7761549 31.9718071,35.3685462 30.6131114,34.8250679 C27.0805027,33.6022418 24.0913723,32.1076766 21.5098505,30.748981 C20.8305027,31.4283288 19.8794157,31.8359375 18.9283288,31.8359375 C18.3848506,31.8359375 17.9772419,31.700068 17.5696332,31.5641984 C14.9881115,34.5533288 13.2218071,37.4065897 11.998981,39.5805027 C13.6294158,42.5696332 15.8033288,45.0152853 18.5207201,46.9174593 L18.5207201,46.9174593 Z M31.4283288,32.7870245 C32.9228941,33.3305027 34.4174592,33.7381114 35.9120245,34.1457201 C36.3196332,33.7381114 36.7272419,33.4663722 37.1348506,33.3305027 C36.7272419,31.8359375 36.1837636,30.3413723 35.5044158,28.846807 C34.5533288,26.672894 33.4663723,24.6348505 32.3794158,22.8685462 C31.9718071,23.0044158 31.7000679,23.0044158 31.2924592,23.0044158 C30.4772418,23.0044158 29.6620244,22.7326766 28.9826767,22.1891984 C27.4881114,23.1402853 25.9935462,24.0913723 24.3631114,25.3141984 L22.3250679,26.9446332 C22.4609375,27.3522419 22.5968071,27.8957201 22.5968071,28.3033288 L22.5968071,28.846807 C25.0424592,30.0696331 28.0315897,31.5641984 31.4283288,32.7870245 L31.4283288,32.7870245 Z M50.4500679,30.6131114 C50.4500679,24.9065897 48.0044157,19.6076767 43.9283288,16.0750679 C41.8902853,16.4826766 38.7652853,17.297894 34.9609375,18.9283288 L34.9609375,19.3359375 C34.9609375,20.1511549 34.6891983,20.8305027 34.2815897,21.5098505 C35.5044158,23.4120245 36.5913723,25.5859375 37.6783288,28.0315897 C38.3576767,29.797894 39.0370244,31.5641984 39.5805027,33.1946332 C40.6674593,33.4663723 41.6185462,34.2815897 42.1620245,35.3685462 C42.9772418,35.5044157 43.7924592,35.5044157 44.6076766,35.5044158 C46.6457201,35.6402853 48.547894,35.5044158 50.0424592,35.5044158 C50.1783288,33.7381115 50.4500679,32.2435462 50.4500679,30.6131114 L50.4500679,30.6131114 Z M30.2055027,15.8033288 C30.6131114,15.6674592 30.8848506,15.6674592 31.2924592,15.6674592 C32.3794158,15.6674592 33.3305027,16.0750679 34.0098505,16.8902853 C36.998981,15.5315897 39.5805027,14.7163723 41.6185462,14.172894 C38.3576767,11.998981 34.4174592,10.6402853 30.2055027,10.6402853 C28.7109375,10.6402853 27.0805027,10.7761549 25.7218071,11.1837636 C26.9446332,12.4065897 28.575068,13.9011549 30.2055027,15.8033288 L30.2055027,15.8033288 Z M39.4446331,48.2761549 C39.5805027,46.2381114 39.4446331,43.5207201 38.7652853,40.123981 L38.4935462,40.123981 C37.5424593,40.123981 36.7272419,39.8522418 36.1837636,39.3087636 C32.3794158,40.6674592 27.3522418,42.9772418 21.9174592,47.1891983 C21.5098505,47.4609375 21.1022418,47.8685462 20.5587636,48.1402853 C23.4120245,49.6348506 26.672894,50.450068 30.0696331,50.4500679 C33.4663722,50.5859375 36.7272418,49.7707201 39.4446331,48.2761549 Z M12.5424592,20.9663723 C13.4935462,22.0533288 14.9881114,23.547894 17.1620245,25.1783288 C17.7055027,24.9065896 18.3848506,24.6348505 19.0641983,24.6348505 C19.7435462,24.6348505 20.422894,24.7707201 20.9663723,25.1783288 L23.0044158,23.547894 C24.6348505,22.3250679 26.2652853,21.2381114 27.7598506,20.2870244 C27.623981,20.0152853 27.623981,19.7435462 27.623981,19.3359375 C27.623981,18.5207201 27.8957201,17.8413723 28.3033288,17.1620245 C26.2652853,14.8522418 24.498981,13.0859375 23.0044158,11.998981 C18.5207201,13.6294158 14.8522418,16.8902853 12.5424592,20.9663723 L12.5424592,20.9663723 Z M44.0641984,37.6783288 C43.6565897,37.6783288 42.9772418,37.6783288 42.0261549,37.950068 C41.7544158,38.4935462 41.4826767,38.9011549 41.0750679,39.3087636 C41.6185462,42.297894 41.8902853,44.8794158 41.8902853,46.9174593 C45.1511549,44.6076766 47.7326766,41.4826767 49.2272418,37.6783288 L44.0641984,37.6783288 L44.0641984,37.6783288 Z" id="形状"></path>
                <path d="M39.4446331,2.89572013 C38.9011549,1.26528535 37.4065897,0.0424592604 35.5044158,0.0424592604 C33.3305028,0.0424592604 31.4283288,1.80876359 31.4283288,3.98267661 C31.4283288,6.15658963 33.1946332,7.92289402 35.5044158,7.92289402 C36.5913723,7.92289402 37.6783288,7.51528533 38.3576767,6.70006793 C48.547894,10.2326767 55.748981,19.6076767 55.748981,30.6131114 C55.748981,33.3305028 55.3413723,35.9120245 54.5261549,38.3576767 L58.0587636,40.3957201 C59.1457201,37.4065897 59.8250679,34.0098505 59.8250679,30.6131114 C59.8250679,17.7055027 51.2652853,6.70006793 39.4446331,2.89572013 Z M50.9935462,44.4718071 C48.8196332,44.4718071 46.9174593,46.2381114 46.9174593,48.4120244 C46.9174593,48.8196331 47.0533288,49.0913723 47.0533288,49.498981 C42.5696332,53.4391984 36.5913723,55.8848506 30.0696331,55.8848506 C22.5968071,55.8848506 15.8033288,52.623981 11.047894,47.596807 L7.37941578,49.6348505 C12.8141984,55.8848505 20.9663723,59.8250679 29.9337636,59.8250679 C37.5424593,59.8250679 44.6076766,56.9718071 49.7707201,52.2163723 C50.0424593,52.3522418 50.3141984,52.3522418 50.7218071,52.3522418 C52.8957201,52.3522418 54.797894,50.5859375 54.797894,48.4120244 C54.797894,46.2381113 53.1674592,44.4718071 50.9935462,44.4718071 L50.9935462,44.4718071 Z M5.06963315,35.5044158 C4.797894,33.873981 4.52615491,32.3794158 4.52615491,30.6131114 C4.52615491,18.5207201 13.2218071,8.46637233 24.7707201,6.02072009 L24.7707201,1.94463313 C10.9120244,4.3902853 0.450067956,16.3468071 0.450067956,30.6131114 C0.450067956,32.6511549 0.721807108,34.6891984 1.12941574,36.5913723 C0.450067892,37.2707201 0.0424592604,38.221807 0.0424592604,39.3087636 C0.0424592604,41.4826766 1.80876359,43.248981 4.11854622,43.248981 C6.29245924,43.248981 8.19463317,41.4826767 8.19463317,39.3087636 C8.19463317,37.4065897 6.83593754,35.9120245 5.06963315,35.5044158 L5.06963315,35.5044158 Z" id="形状"></path>
            </g>
        </g>
    </g>
</svg>