<?xml version="1.0" encoding="UTF-8"?>
<svg width="32px" height="32px" viewBox="0 0 32 32" version="1.1" xmlns="http://www.w3.org/2000/svg" xmlns:xlink="http://www.w3.org/1999/xlink">
    <title>gitlab</title>
    <g id="应用" stroke="none" stroke-width="1" fill="none" fill-rule="evenodd">
        <g id="应用概述2" transform="translate(-208.000000, -699.000000)" fill-rule="nonzero">
            <g id="gitlab" transform="translate(208.000000, 699.000000)">
                <circle id="椭圆形" fill="#5DBFF2" cx="16" cy="16" r="16"></circle>
                <g id="Gitlab-fill" transform="translate(6.666667, 7.333333)" fill="#FFFFFF">
                    <path d="M18.5426619,9.40950106 L16.0114782,0.798832272 C15.8535695,0.325106157 15.4750531,0.00696656051 14.9688163,0.00696656051 C14.4625796,0.00696656051 14.0515525,0.292595541 13.8936438,0.766321656 L12.2170249,5.7683121 L6.36743631,5.7683121 L4.69081741,0.768643843 C4.5329087,0.294917728 4.12188163,0.00928874735 3.6156449,0.00928874735 C3.10940817,0.00928874735 2.6983811,0.325106157 2.57298301,0.801154459 L0.0441215499,9.40950106 C-0.0510881104,9.72531847 0.0766321656,10.0736465 0.329750531,10.2640658 L9.2794586,16.9751858 L18.2593551,10.2640658 C18.5101513,10.0759687 18.6378715,9.72764066 18.5426619,9.40950106 Z" id="路径"></path>
                </g>
            </g>
        </g>
    </g>
</svg>