<?xml version="1.0" encoding="UTF-8"?>
<svg width="60px" height="60px" viewBox="0 0 60 60" version="1.1" xmlns="http://www.w3.org/2000/svg" xmlns:xlink="http://www.w3.org/1999/xlink">
    <title>应用</title>
    <g id="应用(未完成)" stroke="none" stroke-width="1" fill="none" fill-rule="evenodd">
        <g id="项目成员-权限交互" transform="translate(-825.000000, -271.000000)" fill-rule="nonzero">
            <g id="应用" transform="translate(825.000000, 271.000000)">
                <circle id="椭圆形" fill="#5994CE" cx="30" cy="30" r="30"></circle>
                <g id="yingyong-3" transform="translate(30.000000, 30.000000) rotate(-45.000000) translate(-30.000000, -30.000000) translate(10.000000, 10.000000)" fill="#FFFFFF">
                    <path d="M19.9041411,4.37835506 L24.6285468,9.10276074 L19.9041411,13.8271664 L15.1797354,9.10276074 L19.9041411,4.37835506 M19.9041411,0.0402607362 L10.8416411,9.10276074 L17.7592983,16.0204179 C18.3517063,16.6128259 19.127684,16.9090299 19.9041411,16.9090299 C20.6805982,16.9090299 21.4565759,16.6128259 22.0489839,16.0204179 L28.9666411,9.10276074 L19.9041411,0.0402607362 Z M9.14206288,15.1193443 L13.9230253,19.9003067 L9.14206288,24.6812692 L4.36110046,19.9003067 L9.14206288,15.1193443 M9.14206288,10.78125 L0.023006135,19.9003067 L9.14206288,29.0193635 L16.1042945,22.0571319 C17.2953413,20.8660851 17.2953413,18.9345284 16.1042945,17.7434816 L9.14206288,10.78125 Z M30.7807707,15.2161618 L35.4649156,19.9003067 L30.7807707,24.5844517 L26.0971051,19.900786 L26.0966258,19.9003067 L26.0966258,19.8998275 L26.0971051,19.8993482 L30.7807707,15.2161618 M30.7807707,10.8780675 L23.9278183,17.7310199 C22.7295821,18.9292561 22.7295821,20.8718367 23.9278183,22.0700729 L30.7802914,28.922546 L39.80301,19.9003067 L30.7807707,10.8780675 L30.7807707,10.8780675 Z M19.9041411,25.6906633 L24.8097201,30.5962423 L19.9041411,35.5018213 L14.9985621,30.5962423 L19.9041411,25.6906633 M19.9041411,22.6231787 C19.1190567,22.6231787 18.3344517,22.9227377 17.7353336,23.5213765 L10.6604678,30.5962423 L19.9041411,39.8399156 L29.1478144,30.5962423 L22.0729486,23.5213765 C21.4743098,22.9222584 20.6892255,22.6231787 19.9041411,22.6231787 Z" id="形状"></path>
                </g>
            </g>
        </g>
    </g>
</svg>