<?xml version="1.0" encoding="UTF-8"?>
<svg width="60px" height="60px" viewBox="0 0 60 60" version="1.1" xmlns="http://www.w3.org/2000/svg" xmlns:xlink="http://www.w3.org/1999/xlink">
    <title>行内应用负责人</title>
    <g id="应用(未完成)" stroke="none" stroke-width="1" fill="none" fill-rule="evenodd">
        <g id="项目成员-权限交互" transform="translate(-825.000000, -435.000000)" fill-rule="nonzero">
            <g id="编组-3" transform="translate(825.000000, 435.000000)">
                <circle id="椭圆形" fill="#2B94A0" cx="30" cy="30" r="30"></circle>
                <g id="fuzeren" transform="translate(12.000000, 12.000000)" fill="#FFFFFF">
                    <path d="M20.6015625,23.1714844 C20.6015625,22.8339844 20.1761719,22.2820312 19.4835938,21.3785156 L16.509375,21.3785156 C15.8203125,22.2785156 15.3949219,22.8339844 15.3949219,23.1714844 C15.4230469,23.540625 16.2210938,25.1578125 16.9488281,26.0929687 C16.3265625,28.8632812 15.5953125,30.9269531 15.5953125,33.3421875 C15.5953125,34.1683594 17.4199219,35.8839844 17.9683594,35.9296875 L18.028125,35.9296875 C18.5730469,35.8875 20.4011719,34.1683594 20.4011719,33.3421875 C20.4011719,30.9269531 19.6664063,28.8632812 19.0476563,26.0929687 C19.7789063,25.1507813 20.5734375,23.5371094 20.6015625,23.1714844 L20.6015625,23.1714844 Z M18,2.23242188 C20.1058594,2.23242188 22.0851563,3.0515625 23.5757812,4.5421875 C25.0664062,6.0328125 25.8855469,8.01210937 25.8855469,10.1179687 C25.8855469,12.2238281 25.0628906,14.203125 23.5757812,15.6902344 C22.0851563,17.1808594 20.1058594,18 18,18 C15.8941406,18 13.9148437,17.1808594 12.4242187,15.6902344 C10.9335937,14.1996094 10.1144531,12.2203125 10.1144531,10.1144531 C10.1144531,8.00859375 10.9335937,6.02929688 12.4242187,4.53867188 C13.9148437,3.0515625 15.8941406,2.23242188 18,2.23242188 M18,0 C12.4136719,0 7.88554687,4.528125 7.88554687,10.1144531 C7.88554687,15.7007812 12.4136719,20.2324219 18,20.2324219 C23.5863281,20.2324219 28.1144531,15.7042969 28.1144531,10.1179688 C28.1144531,4.53164063 23.5863281,0 18,0 Z" id="形状"></path>
                    <path d="M36,36 L33.7570313,36 C33.7570313,27.3128906 26.6871094,20.2429687 18,20.2429687 C9.31289062,20.2429687 2.24296875,27.3128906 2.24296875,36 L0,36 C0,33.5707031 0.474609375,31.2117187 1.41328125,28.9933594 C2.3203125,26.8488281 3.62109375,24.9257812 5.2734375,23.2734375 C6.92578125,21.6210938 8.85234375,20.3238281 10.9933594,19.4167969 C13.2117188,18.4746094 15.5707031,18 18,18 C20.4292969,18 22.7882813,18.4746094 25.0066406,19.4132813 C27.1511719,20.3203125 29.0742188,21.6210938 30.7265625,23.2734375 C32.3789062,24.9257812 33.6761719,26.8523437 34.5832031,28.9933594 C35.5253906,31.2117188 36,33.5707031 36,36 Z" id="路径"></path>
                </g>
            </g>
        </g>
    </g>
</svg>