<?xml version="1.0" encoding="UTF-8"?>
<svg width="60px" height="60px" viewBox="0 0 60 60" version="1.1" xmlns="http://www.w3.org/2000/svg" xmlns:xlink="http://www.w3.org/1999/xlink">
    <title>应用所属系统</title>
    <g id="应用(未完成)" stroke="none" stroke-width="1" fill="none" fill-rule="evenodd">
        <g id="项目成员-权限交互" transform="translate(-825.000000, -599.000000)" fill-rule="nonzero">
            <g id="编组-7" transform="translate(807.000000, 599.000000)">
                <g id="应用所属系统" transform="translate(18.000000, 0.000000)">
                    <circle id="椭圆形" fill="#8AB666" cx="30" cy="30" r="30"></circle>
                    <g id="xitong" transform="translate(12.000000, 12.000000)" fill="#FFFFFF">
                        <path d="M19.5175446,0 L16.4824554,0 C15.8696114,0 15.3419224,0.432466304 15.2216518,1.03339286 L14.4373661,4.95441964 C14.3478036,5.39684193 14.0336572,5.7603499 13.6088839,5.91308036 C13.2515625,6.04245536 12.9017411,6.1875 12.5594196,6.34821429 C12.386121,6.42936508 12.1971169,6.47147267 12.0057589,6.4715625 C11.7525347,6.47184466 11.504912,6.3970405 11.2941964,6.25660714 L7.96741071,4.03834821 C7.45743212,3.69835636 6.77836342,3.76562418 6.345,4.1990625 L4.1990625,6.345 C3.76562418,6.77836342 3.69835636,7.45743212 4.03834821,7.96741071 L6.25660714,11.2945982 C6.50623343,11.6711736 6.54097157,12.1508037 6.34821429,12.5594196 C6.1875,12.9014732 6.04258929,13.2514286 5.91348214,13.6092857 C5.76075168,14.034059 5.39724371,14.3482054 4.95482143,14.4377679 L1.03339286,15.2220536 C0.432614394,15.3422945 0,15.8697624 0,16.4824554 L0,19.5171429 C0,20.1299868 0.432466304,20.6576758 1.03339286,20.7779464 L4.95441964,21.5622321 C5.39684193,21.6517946 5.7603499,21.965941 5.91308036,22.3907143 C6.04245536,22.7483036 6.1875,23.0982589 6.34821429,23.4405804 C6.54097157,23.8491963 6.50623343,24.3288264 6.25660714,24.7054018 L4.03834821,28.0325893 C3.69835636,28.5425679 3.76562418,29.2216366 4.1990625,29.655 L6.345,31.8009375 C6.77836342,32.2343758 7.45743212,32.3016436 7.96741071,31.9616518 L11.2945982,29.7433929 C11.5053138,29.6029595 11.7529365,29.5281553 12.0061607,29.5284375 C12.1973846,29.5285731 12.386248,29.5706799 12.5594196,29.6517857 C12.9014732,29.8125 13.2514286,29.9575446 13.6092857,30.0869196 C14.034059,30.2396501 14.3482054,30.6031581 14.4377679,31.0455804 L15.2220536,34.9666071 C15.3422945,35.5673856 15.8697624,36 16.4824554,36 L19.5171429,36 C20.1299868,36 20.6576758,35.5675337 20.7779464,34.9666071 L21.5622321,31.0455804 C21.6517946,30.6031581 21.965941,30.2396501 22.3907143,30.0869196 C22.7483036,29.9575446 23.0982589,29.8125 23.4405804,29.6517857 C23.613879,29.5706349 23.8028831,29.5285273 23.9942411,29.5284375 C24.2474653,29.5281553 24.495088,29.6029595 24.7058036,29.7433929 L28.0329911,31.9616518 C28.5429697,32.3016436 29.2220384,32.2343758 29.6554018,31.8009375 L31.8013393,29.655 C32.2347776,29.2216366 32.3020454,28.5425679 31.9620536,28.0325893 L29.7437946,24.7054018 C29.4940379,24.3288986 29.4591472,23.8492654 29.6517857,23.4405804 C29.8125,23.0985268 29.9574107,22.7487054 30.0865179,22.3911161 C30.2392483,21.9663428 30.6027563,21.6521964 31.0451786,21.5626339 L34.9662054,20.7783482 C35.5672916,20.6582448 36,20.1305125 36,19.5175446 L36,16.4824554 C36,15.8696114 35.5675337,15.3419224 34.9666071,15.2216518 L31.0455804,14.4373661 C30.6031581,14.3478036 30.2396501,14.0336572 30.0869196,13.6088839 C29.9575446,13.2515625 29.8125,12.9017411 29.6517857,12.5594196 C29.4590284,12.1508037 29.4937666,11.6711736 29.7433929,11.2945982 L31.9616518,7.96741071 C32.3016436,7.45743212 32.2343758,6.77836342 31.8009375,6.345 L29.655,4.1990625 C29.2216366,3.76562418 28.5425679,3.69835636 28.0325893,4.03834821 L24.7054018,6.25660714 C24.4946862,6.3970405 24.2470635,6.47184466 23.9938393,6.4715625 C23.8026154,6.47142693 23.613752,6.42932012 23.4405804,6.34821429 C23.0985268,6.1875 22.7485714,6.04245536 22.3907143,5.91308036 C21.965941,5.7603499 21.6517946,5.39684193 21.5622321,4.95441964 L20.7783482,1.03339286 C20.6580776,0.432466304 20.1303886,0 19.5175446,0 Z M18,25.7143135 C14.3197026,25.7143135 11.1517931,23.1148616 10.4336458,19.5053113 C9.71549849,15.895761 11.6471286,12.2815724 15.0472236,10.8730475 C18.4473187,9.46452257 22.3688999,10.6539572 24.4136755,13.7139378 C26.4584512,16.7739184 26.0569198,20.8521933 23.4546429,23.4546429 C22.0111851,24.9061222 20.0470301,25.719794 18,25.7143135 L18,25.7143135 Z" id="形状"></path>
                    </g>
                </g>
            </g>
        </g>
    </g>
</svg>