<?xml version="1.0" encoding="UTF-8"?>
<svg width="60px" height="60px" viewBox="0 0 60 60" version="1.1" xmlns="http://www.w3.org/2000/svg" xmlns:xlink="http://www.w3.org/1999/xlink">
    <title>应用类型</title>
    <g id="应用(未完成)" stroke="none" stroke-width="1" fill="none" fill-rule="evenodd">
        <g id="项目成员-权限交互" transform="translate(-1035.000000, -599.000000)" fill-rule="nonzero">
            <g id="编组-7" transform="translate(1033.000000, 599.000000)">
                <g id="应用类型" transform="translate(2.000000, 0.000000)">
                    <circle id="椭圆形" fill="#67B399" cx="30" cy="30" r="30"></circle>
                    <g id="yiqileixing" transform="translate(12.000000, 12.000000)" fill="#FFFFFF">
                        <path d="M30.9751123,2.52002244 C29.6158965,2.52002244 28.5140344,3.62188453 28.5140344,4.98110029 C28.5140344,6.34031606 29.6158965,7.44217814 30.9751123,7.44217814 C32.334328,7.44217814 33.4361901,6.34031606 33.4361901,4.98110029 C33.4361901,3.62188453 32.334328,2.52002244 30.9751123,2.52002244 L30.9751123,2.52002244 Z M26.0080464,4.98110031 C26.0080055,2.73113606 27.5203725,0.762141068 29.6942404,0.18193616 C31.8681082,-0.398268748 34.1604907,0.555239342 35.2816187,2.50598567 C36.4027466,4.45673199 36.072586,6.91746139 34.4768959,8.50368721 C32.8812059,10.089913 30.418556,10.4054296 28.4745135,9.27271705 L23.7589446,14.3493638 C24.4200224,15.400262 24.8008608,16.6451721 24.8008608,17.9763099 C24.8008608,19.2912799 24.4290045,20.5200224 23.7840943,21.563735 L27.6697231,25.4080464 C29.5318708,23.7488145 32.33571,23.7278009 34.2225177,25.358936 C36.1093253,26.9900711 36.493939,29.767485 35.1213903,31.8499727 C33.7488416,33.9324603 31.0448041,34.6741723 28.80184,33.5834124 C26.558876,32.4926525 25.472604,29.9077021 26.2631362,27.5421781 L22.0954716,23.4176273 C20.9117407,24.3179823 19.4653377,24.8051651 17.9781063,24.8044536 C16.657747,24.8044536 15.4236153,24.4272081 14.3781063,23.7769087 L9.38768713,28.6846931 C10.5413102,30.9011557 9.86881753,33.629577 7.8172962,35.0560457 C5.76577488,36.4825143 2.97393118,36.1629235 1.29784111,34.3097439 C-0.378248965,32.4565643 -0.416763304,29.6467519 1.20790323,27.7483285 C2.83256976,25.8499052 5.6146049,25.4539127 7.70445358,26.8236153 L12.5260105,22.0828967 C11.6341526,20.9004871 11.1528665,19.4591521 11.1553518,17.9781063 C11.1553518,16.7026572 11.5056512,15.50625 12.1164297,14.4840943 L7.78888474,10.9343937 C5.72746108,12.3468643 2.93763009,12.0079473 1.27435817,10.1429896 C-0.388913754,8.27803194 -0.407709171,5.46775289 1.23046904,3.5807148 C2.86864726,1.69367672 5.65369545,1.3174744 7.73382734,2.70224583 C9.81395924,4.08701726 10.5414536,6.80156577 9.43259732,9.04098052 L13.7763099,12.6014596 C14.9753521,11.6623133 16.4550526,11.1530534 17.9781063,11.1553518 C19.5050524,11.1553518 20.9170285,11.6583458 22.0541542,12.5044536 L26.6960703,7.503256 C26.2445639,6.73950701 26.0069127,5.86832594 26.0080464,4.98110031 Z M4.98110031,4.3775075 C4.08631226,4.35332644 3.24894851,4.81687351 2.79442806,5.58800356 C2.33990762,6.3591336 2.33990762,7.31624068 2.79442806,8.08737072 C3.24894851,8.85850077 4.08631226,9.32204784 4.98110031,9.29786678 C6.31393445,9.26184781 7.37569339,8.17100788 7.37569339,6.83768714 C7.37569339,5.5043664 6.31393445,4.41352647 4.98110031,4.3775075 L4.98110031,4.3775075 Z M17.9781063,13.6613363 C16.6990644,13.6613363 15.5529566,14.2146332 14.760741,15.100262 C14.0763099,15.8655314 13.6613398,16.8715194 13.6613398,17.9781063 C13.6613398,19.2571482 14.2146332,20.403256 15.100262,21.1954716 C15.8655314,21.8799027 16.8715194,22.2948728 17.9781063,22.2948728 C19.2571482,22.2948728 20.403256,21.7415794 21.1954716,20.8559506 C21.8799027,20.0906811 22.2948728,19.0846931 22.2948728,17.9781063 C22.2948728,16.8715194 21.8816991,15.8655314 21.1954716,15.100262 C20.3775519,14.1833914 19.2067811,13.6597804 17.9781063,13.6613363 L17.9781063,13.6613363 Z M30.9751123,26.6583458 C30.0809951,26.6335287 29.243904,27.0961258 28.7891522,27.866361 C28.3344004,28.6365962 28.3337015,29.5930047 28.7873271,30.3639036 C29.2409528,31.1348026 30.0773669,31.5986226 30.9715195,31.5751123 C32.3034064,31.5400924 33.3651861,30.4508244 33.3661604,29.1184775 C33.3671333,27.7861307 32.3069466,26.6953121 30.9751123,26.6583458 Z M4.98110031,28.5158309 C4.08631226,28.4916498 3.24894851,28.9551969 2.79442806,29.7263269 C2.33990762,30.497457 2.33990762,31.454564 2.79442806,32.2256941 C3.24894851,32.9968241 4.08631226,33.4603712 4.98110031,33.4361901 C6.34031608,33.4361901 7.44217816,32.334328 7.44217816,30.9751123 C7.44217816,29.6158965 6.34031608,28.5140344 4.98110031,28.5140344 L4.98110031,28.5158309 Z" id="形状"></path>
                    </g>
                </g>
            </g>
        </g>
    </g>
</svg>