<?xml version="1.0" encoding="UTF-8"?>
<svg width="60px" height="60px" viewBox="0 0 60 60" version="1.1" xmlns="http://www.w3.org/2000/svg" xmlns:xlink="http://www.w3.org/1999/xlink">
    <title>重要度</title>
    <g id="应用(未完成)" stroke="none" stroke-width="1" fill="none" fill-rule="evenodd">
        <g id="项目成员-权限交互" transform="translate(-1245.000000, -271.000000)" fill-rule="nonzero">
            <g id="重要度" transform="translate(1245.000000, 271.000000)">
                <circle id="椭圆形" fill="#0398EA" cx="30" cy="30" r="30"></circle>
                <g id="paixuti" transform="translate(13.857143, 17.285714)" fill="#FFFFFF">
                    <path d="M5.97277266,11.942133 L1.48708005,11.942133 C0.160934628,11.942133 -0.378167373,11.1505402 0.283767979,10.1815214 L6.75981608,0.725626749 C6.99732343,0.281858103 7.45979889,0.00483061952 7.96312816,0.00483061952 C8.46645743,0.00483061952 8.92893288,0.281858103 9.16644023,0.725626749 L15.6424883,10.1815214 C16.3044237,11.1482655 15.7607723,11.942133 14.4391763,11.942133 L9.95348365,11.942133 L9.95348365,24.8601088 C9.95529955,25.1281511 9.85024717,25.3858713 9.66156402,25.576262 C9.47288088,25.7666527 9.21611751,25.8740225 8.94806978,25.8746891 L6.97818653,25.8746891 C6.70899802,25.8777591 6.45004767,25.7715815 6.26054911,25.580368 C6.07105055,25.3891545 5.96721007,25.1292581 5.97277266,24.8601088 L5.97277266,11.942133 Z M16.9208652,21.8939105 C16.6540895,21.8907717 16.3974527,21.9959904 16.2096602,22.1854979 C16.0218677,22.3750054 15.9189863,22.6325882 15.9245502,22.8993243 L15.9245502,24.8714823 C15.9269807,25.4222103 16.3701821,25.8694592 16.9208652,25.8768962 L30.851079,25.8768962 C31.1182582,25.8800533 31.375255,25.774525 31.5631171,25.5845184 C31.7509792,25.3945117 31.8535836,25.1363337 31.8473941,24.8692076 L31.8473941,22.8970496 C31.8449636,22.3463216 31.4017622,21.8990727 30.851079,21.8916358 L16.9208652,21.8939105 Z M20.8833787,11.9421292 C20.6189687,11.9413952 20.3655775,12.0479853 20.1812011,12.2375071 C19.9968247,12.4270289 19.8972477,12.6832573 19.9052611,12.9475468 L19.9052611,14.9197048 C19.9038821,15.4645881 20.3386343,15.9104619 20.8833787,15.9228478 L30.8692766,15.9228478 C31.1336865,15.9235818 31.3870777,15.8169916 31.5714541,15.6274698 C31.7558306,15.437948 31.8554076,15.1817196 31.8473941,14.9174301 L31.8473941,12.9475468 C31.8500157,12.40178 31.4149089,11.9545306 30.8692766,11.9421292 L20.8833787,11.9421292 Z M24.861815,1.9903554 C24.5977994,1.99023425 24.3450012,2.09709525 24.1611208,2.28654774 C23.9772405,2.47600022 23.8779716,2.73187504 23.8859721,2.99576937 L23.8859721,4.96792732 C23.8804899,5.23110836 23.9805862,5.48553263 24.163925,5.67442723 C24.3472639,5.86332183 24.5985876,5.97096653 24.861815,5.97334133 L30.8715512,5.97334133 C31.1359742,5.97348203 31.3891345,5.86631038 31.5730842,5.6763577 C31.7570338,5.48640501 31.8560233,5.22993474 31.8473941,4.96565263 L31.8473941,2.99576937 C31.8528763,2.73258833 31.7527801,2.47816406 31.5694412,2.28926946 C31.3861023,2.10037486 31.1347787,1.99273017 30.8715512,1.9903554 L24.861815,1.9903554 Z" id="形状"></path>
                </g>
            </g>
        </g>
    </g>
</svg>