<?xml version="1.0" encoding="UTF-8"?>
<svg width="32px" height="32px" viewBox="0 0 32 32" version="1.1" xmlns="http://www.w3.org/2000/svg" xmlns:xlink="http://www.w3.org/1999/xlink">
    <title>icon_32_left2_unchoose</title>
    <g id="icon" stroke="none" stroke-width="1" fill="none" fill-rule="evenodd">
        <g transform="translate(-122.000000, -474.000000)" id="icon_32_left2_unchoose">
            <g transform="translate(122.000000, 474.000000)">
                <rect id="矩形" x="0" y="0" width="32" height="32"></rect>
                <rect id="bg-" stroke="#ECEFF1" x="1" y="1" width="30" height="30" rx="3"></rect>
                <g id="编组-5" transform="translate(11.000000, 10.000000)" fill="#ECEFF1">
                    <path d="M4.29289322,4.88284271 L8.88578644,0.289949494 C9.27238576,-0.0966498312 9.89918711,-0.0966498312 10.2857864,0.289949494 C10.6723858,0.676548819 10.6723858,1.30335017 10.2857864,1.68994949 L6.38578644,5.58994949 L10.2857864,9.48994949 C10.6723858,9.87654882 10.6723858,10.5033502 10.2857864,10.8899495 C9.89918711,11.2765488 9.27238576,11.2765488 8.88578644,10.8899495 L4.29289322,6.29705627 C3.90236893,5.90653198 3.90236893,5.273367 4.29289322,4.88284271 L4.29289322,4.88284271 Z" id="Shape"></path>
                    <rect id="矩形" x="0" y="0" width="2" height="11" rx="1"></rect>
                </g>
            </g>
        </g>
    </g>
</svg>