<?xml version="1.0" encoding="UTF-8"?>
<svg width="32px" height="32px" viewBox="0 0 32 32" version="1.1" xmlns="http://www.w3.org/2000/svg" xmlns:xlink="http://www.w3.org/1999/xlink">
    <title>icon_32_implementation</title>
    <g id="图标" stroke="none" stroke-width="1" fill="none" fill-rule="evenodd">
        <g id="场景图标" transform="translate(-461.000000, -1106.000000)">
            <g id="icon_32_implementation" transform="translate(461.000000, 1106.000000)">
                <circle id="椭圆形" fill="#E8F5E9" cx="16" cy="16" r="16"></circle>
                <g id="实施阶段" transform="translate(6.000000, 6.000000)" fill="#63BC66" fill-rule="nonzero">
                    <path d="M5.74933334,16.5 C5.376,16.5 5,16.1253333 5,15.7493333 L5,10 C5,9.62533334 5.37466666,9.24933334 5.74933334,9.24933334 C6.12533334,9.24933334 6.5,9.62533334 6.5,10 L6.5,15.7506667 C6.5,16 6.37466666,16.124 6.24933334,16.2493333 C6.12533334,16.3746667 6,16.5 5.74933334,16.5 L5.74933334,16.5 Z M10,16.5 C9.62533334,16.5 9.24933334,16.1253333 9.24933334,15.7493333 L9.24933334,5.74933334 C9.24933334,5.376 9.62533334,5 10,5 C10.3746667,5 10.7506667,5.37466666 10.7506667,5.74933334 L10.7506667,15.7493333 C10.7506667,16 10.6253333,16.1253333 10.5,16.2506667 C10.3746667,16.3746667 10.2506667,16.5 10,16.5 Z M14.2506667,16.5 C13.8746667,16.5 13.5,16.1253333 13.5,15.7493333 L13.5,8.62666666 C13.5,8.252 13.8746667,7.876 14.2506667,7.876 C14.624,7.876 15,8.252 15,8.62666666 L15,15.7506667 C15,16.0013333 14.8746667,16.1266667 14.7493333,16.252 C14.6253333,16.376 14.5,16.5013333 14.2506667,16.5013333 L14.2506667,16.5 Z M3.624,1.37466666 C2.37466666,1.37466666 1.37466666,2.5 1.37466666,3.75066666 L1.37466666,16.2493333 C1.37466666,17.5 2.37466666,18.6253333 3.5,18.6253333 L16.3746667,18.6253333 C17.5,18.6253333 18.5,17.5 18.5,16.2506667 L18.5,3.74933334 C18.5,2.5 17.5,1.376 16.3746667,1.376 L3.62666666,1.376 L3.624,1.37466666 Z M16.376,20 L3.62666666,20 C1.62533334,20 0,18.2493333 0,16.2493333 L0,3.75066666 C0,1.624 1.62533334,0 3.62533334,0 L16.5,0 C18.3746667,0 20,1.74933334 20,3.75066666 L20,16.2493333 C20,18.2493333 18.3746667,20 16.3746667,20 L16.376,20 Z" id="形状"></path>
                </g>
            </g>
        </g>
    </g>
</svg>