<?xml version="1.0" encoding="UTF-8"?>
<svg width="32px" height="32px" viewBox="0 0 32 32" version="1.1" xmlns="http://www.w3.org/2000/svg" xmlns:xlink="http://www.w3.org/1999/xlink">
    <title>icon_32_accessory2</title>
    <g id="icon" stroke="none" stroke-width="1" fill="none" fill-rule="evenodd">
        <g transform="translate(-590.000000, -1196.000000)" id="icon_32_accessory2">
            <g transform="translate(590.000000, 1196.000000)">
                <circle id="椭圆形" fill="#FFEBEE" cx="16" cy="16" r="16"></circle>
                <g id="附-件" transform="translate(6.000000, 5.000000)" fill="#F1524B" fill-rule="nonzero">
                    <path d="M13.7933498,0.00476371951 C14.4054878,0.00476371951 15.0176258,0.157202744 15.4773247,0.312023628 C17.3161204,1.07660061 18.3879573,2.76295732 18.3879573,4.75419207 C18.3879573,5.97846799 17.9282584,7.20512576 17.0088605,8.12452363 L8.43178354,16.8540396 C8.12452363,17.1612995 7.81964558,17.3137386 7.51238567,17.4661776 C7.20512576,17.6186166 6.90024771,17.6186166 6.44054878,17.6186166 C6.13328887,17.6186166 5.67358994,17.6186166 5.36871189,17.4661776 C5.06145198,17.3137386 4.75657393,17.1589177 4.60175305,16.8540396 C4.29449314,16.5467797 4.14205412,16.2419017 3.98961509,15.9346418 C3.83717607,15.6273819 3.83717607,15.1700648 3.83717607,14.8628049 C3.83717607,14.095846 4.14443598,13.3312691 4.60413491,12.8715701 L12.4166349,4.75419207 C12.5690739,4.60175305 12.8763338,4.44693216 13.0287729,4.44693216 C13.3360328,4.44693216 13.6409108,4.59937119 13.7957317,4.75419207 C13.9481707,4.9066311 14.1029916,5.21389101 14.1029916,5.36633003 C13.9505526,5.67358994 13.9505526,5.82602896 13.7957317,6.13328887 L5.82841082,14.095846 C5.6759718,14.2482851 5.52115091,14.555545 5.52115091,14.8628049 C5.52115091,15.3225038 5.98084985,15.7822027 6.44054878,15.7822027 C6.74780869,15.7822027 6.90024771,15.6297637 7.05268674,15.4749428 L15.6297637,6.74542683 C16.2419017,6.13328887 16.3943407,5.52115091 16.3943407,4.75419207 C16.3943407,3.98723323 16.0870808,3.37509527 15.6297637,2.76295732 C15.1700648,2.15081936 14.5579268,1.84355945 13.790968,1.84355945 C13.0240091,1.84355945 12.2594322,2.15081936 11.7997332,2.76295732 L3.22503811,11.4924733 C2.76533918,11.9521723 2.45807927,12.4118712 2.15320122,13.0240091 C1.69350229,14.095846 1.69350229,15.4749428 2.15320122,16.5467797 C2.46046113,17.1589177 2.76533918,17.6186166 3.22503811,18.0783155 C4.14443598,18.9977134 5.21627287,19.4574123 6.44054878,19.4574123 C7.6648247,19.4574123 8.89148247,18.9977134 9.65605945,18.0783155 L18.3879573,9.50123857 C18.5403963,9.19397866 18.6952172,9.19397866 19.0000953,9.19397866 C19.3073552,9.19397866 19.4597942,9.34641768 19.6122332,9.50123857 C19.7646723,9.65367759 19.9194931,9.80849848 19.9194931,10.1133765 C19.9194931,10.4182546 19.7670541,10.5730755 19.6122332,10.7255145 L11.0351563,19.4574123 C10.4230183,20.0695503 9.65605945,20.5292492 8.89148247,20.9889482 C8.12452363,21.2962081 7.35994665,21.4486471 6.44054878,21.4486471 C5.52115091,21.4486471 4.75657393,21.2962081 3.98961509,20.9889482 C3.22265625,20.6816883 2.45807927,20.2219893 1.84594131,19.4574123 C1.23380335,18.8452744 0.774104421,18.0783155 0.466844512,17.3137386 C0.161966463,16.5467797 0.00952743902,15.6273819 0.00952743902,14.8628049 C0.00952743902,13.943407 0.161966463,13.17883 0.469226372,12.2594322 C0.77648628,11.4924733 1.23618521,10.7278963 1.84832317,10.1157584 L10.4254002,1.38624238 C11.3424162,0.464462652 12.5666921,0.00476371951 13.7933498,0.00476371951 Z" id="路径"></path>
                </g>
            </g>
        </g>
    </g>
</svg>