<?xml version="1.0" encoding="UTF-8"?>
<svg width="66px" height="42px" viewBox="0 0 66 42" version="1.1" xmlns="http://www.w3.org/2000/svg" xmlns:xlink="http://www.w3.org/1999/xlink">
    <title>computer</title>
    <defs>
        <linearGradient x1="0%" y1="100%" x2="100%" y2="100%" id="linearGradient-1">
            <stop stop-color="#FF7495" offset="0%"></stop>
            <stop stop-color="#EA4E6D" offset="100%"></stop>
        </linearGradient>
    </defs>
    <g id="页面-1" stroke="none" stroke-width="1" fill="none" fill-rule="evenodd">
        <g id="icon" transform="translate(-217.000000, -51.000000)" fill-rule="nonzero">
            <g id="computer" transform="translate(217.000000, 51.000000)">
                <g id="编组-11" fill="url(#linearGradient-1)">
                    <rect id="矩形" x="0" y="0" width="66" height="42" rx="2"></rect>
                </g>
                <g id="xitong-2" transform="translate(18.024568, 8.012284)" fill="#FFFFFF">
                    <path d="M28.6949686,9.36750677e-17 C29.3462477,9.36750677e-17 29.8742138,0.527966097 29.8742138,1.17924529 L29.8742138,20.0471698 C29.8742138,20.698449 29.3462477,21.2264151 28.6949686,21.2264151 L16.1595912,21.2264151 L16.1595912,24.3710692 L23.1918239,24.3710692 C23.8431031,24.3710692 24.3710692,24.8990353 24.3710692,25.5503145 C24.3710692,26.2015937 23.8431031,26.7295598 23.1918239,26.7295598 L6.68238993,26.7295598 C6.03111074,26.7295598 5.50314464,26.2015937 5.50314464,25.5503145 C5.50314464,24.8990353 6.03111074,24.3710692 6.68238993,24.3710692 L13.8011006,24.3710692 L13.8011006,21.2264151 L1.17924529,21.2264151 C0.527966097,21.2264151 6.86950496e-16,20.698449 6.86950496e-16,20.0471698 L6.86950496e-16,1.17924529 C6.86950496e-16,0.527966097 0.527966097,9.36750677e-17 1.17924529,9.36750677e-17 L28.6949686,9.36750677e-17 Z" id="形状"></path>
                </g>
                <path d="M40.1081731,21.0240385 L36.7067308,21.0240385 L36.7067308,16.9375 L40.1081731,16.9375 C40.5721154,16.9375 40.9495192,16.5600962 40.9495192,16.0961538 C40.9495192,15.6322115 40.5721154,15.2548077 40.1081731,15.2548077 L36.7067308,15.2548077 L36.7067308,11.8533654 C36.7067308,11.3894231 36.3293269,11.0120192 35.8653846,11.0120192 C35.4014423,11.0120192 35.0240385,11.3894231 35.0240385,11.8533654 L35.0240385,15.2548077 L30.9375,15.2548077 L30.9375,11.8533654 C30.9375,11.3894231 30.5600962,11.0120192 30.0961538,11.0120192 C29.6322115,11.0120192 29.2548077,11.3894231 29.2548077,11.8533654 L29.2548077,15.2548077 L25.8533654,15.2548077 C25.3894231,15.2548077 25.0120192,15.6322115 25.0120192,16.0961538 C25.0120192,16.5600962 25.3894231,16.9375 25.8533654,16.9375 L29.2548077,16.9375 L29.2548077,21.0240385 L25.8533654,21.0240385 C25.3894231,21.0240385 25.0120192,21.4014423 25.0120192,21.8653846 C25.0120192,22.3293269 25.3894231,22.7067308 25.8533654,22.7067308 L29.2548077,22.7067308 L29.2548077,26.1081731 C29.2548077,26.5721154 29.6322115,26.9495192 30.0961538,26.9495192 C30.5600962,26.9495192 30.9375,26.5721154 30.9375,26.1057692 L30.9375,22.7067308 L35.0240385,22.7067308 L35.0240385,26.1081731 C35.0240385,26.5721154 35.4014423,26.9495192 35.8653846,26.9495192 C36.3293269,26.9495192 36.7067308,26.5721154 36.7067308,26.1057692 L36.7067308,22.7067308 L40.1081731,22.7067308 C40.5721154,22.7067308 40.9495192,22.3293269 40.9495192,21.8653846 C40.9495192,21.4014423 40.5721154,21.0240385 40.1081731,21.0240385 Z M30.9375,21.0240385 L30.9375,16.9375 L35.0240385,16.9375 L35.0240385,21.0240385 L30.9375,21.0240385 Z" id="形状" fill="#EC5271"></path>
            </g>
        </g>
    </g>
</svg>