<?xml version="1.0" encoding="UTF-8"?>
<svg width="32px" height="32px" viewBox="0 0 32 32" version="1.1" xmlns="http://www.w3.org/2000/svg" xmlns:xlink="http://www.w3.org/1999/xlink">
    <title>icon_32_configuration4</title>
    <g id="icon" stroke="none" stroke-width="1" fill="none" fill-rule="evenodd">
        <g transform="translate(-330.000000, -1196.000000)" id="icon_32_configuration4">
            <g transform="translate(330.000000, 1196.000000)">
                <g id="编组-10" fill="#EFE9FF">
                    <circle id="椭圆形" cx="16" cy="16" r="16"></circle>
                </g>
                <g id="gaikuang" transform="translate(6.000000, 6.000000)" fill="#6338D5" fill-rule="nonzero">
                    <path d="M18.9083866,7.82460205 L17.1592391,7.82460205 C16.9943232,7.46925963 16.7605372,6.73017741 16.4613512,6.20361776 L17.6967358,5.00304286 C18.086888,4.61289071 18.0873321,3.99927897 17.6975131,3.60979305 L16.2872193,2.20807674 C15.8978444,1.8186741 15.2664392,1.8229212 14.876287,2.21274023 L13.7097446,3.44995695 C13.1839622,3.151104 12.44488,2.91906689 12.0895375,2.75423421 L12.0895375,1.00530887 C12.0895375,0.453932699 11.5054058,0.0076241862 10.9550012,0.0076241862 L8.96068666,0.0076241862 C8.4099767,0.0076241862 7.82584497,0.453932699 7.82584497,1.00530887 L7.82584497,2.7545673 C7.47050255,2.91939998 6.73175342,3.15326921 6.20519377,3.45201109 L5.00428575,2.21662646 C4.6141336,1.82647431 4.00007772,1.82647431 3.61103594,2.21587698 L2.20931963,3.62647616 C1.82025008,4.01554571 1.823831,4.64695093 2.21398313,5.03740842 L3.45153296,6.20395085 C3.15234692,6.7305105 2.9206429,7.46925963 2.75581022,7.82460205 L1.00699593,7.82460205 C0.455175618,7.82460205 0.00886710612,8.40873378 0.00886710612,8.95902734 L0.00886710612,10.9534251 C0.00886710612,11.5038575 0.455175618,12.0882946 1.00699593,12.0882946 L2.75614334,12.0882946 C2.9210593,12.443637 3.15517836,13.1822751 3.45369816,13.7089458 L2.2182025,14.9102702 C1.82805035,15.3003113 1.82805035,15.9136177 2.2175363,16.3031036 L3.62771908,17.705153 C4.01678863,18.0942225 4.64852696,18.0903085 5.03865134,17.7001564 L6.20519377,16.4626066 C6.73175342,16.7614595 7.47050255,16.9933856 7.82584497,17.1583293 L7.82584497,18.90756 C7.82584497,19.4589639 8.4099767,19.9052724 8.96027026,19.9052724 L10.9546681,19.9052724 C11.5051004,19.9052724 12.0895375,19.4589639 12.0895375,18.9071436 L12.0895375,17.1579962 C12.4448799,16.9930802 13.183518,16.7589612 13.7105218,16.4601082 L14.9115131,17.6954929 C15.3015542,18.085645 15.9148606,18.085645 16.3043465,17.6962701 L17.7063959,16.2859763 C18.0954655,15.8966014 18.0915515,15.2651962 17.7013993,14.8750441 L16.4638495,13.7085016 C16.7627024,13.1819697 16.9946285,12.443637 17.1595722,12.0882946 L18.9088029,12.0882946 C19.4602068,12.0882946 19.9065153,11.5041628 19.9065153,10.9537582 L19.9065153,8.95944368 C19.9065153,8.40873378 19.4602069,7.82460205 18.9083866,7.82460205 L18.9083866,7.82460205 Z M9.95762183,14.4430314 C7.47938542,14.4430314 5.47044192,12.4340879 5.47044192,9.95607357 C5.47044192,7.47769835 7.47938542,5.46875486 9.95762183,5.46875486 C12.4363024,5.46875486 14.4449405,7.47769835 14.4449405,9.95607357 C14.4449405,12.4340879 12.4363024,14.4430314 9.95762183,14.4430314 L9.95762183,14.4430314 Z" id="形状"></path>
                </g>
            </g>
        </g>
    </g>
</svg>