<?xml version="1.0" encoding="UTF-8"?>
<svg width="32px" height="32px" viewBox="0 0 32 32" version="1.1" xmlns="http://www.w3.org/2000/svg" xmlns:xlink="http://www.w3.org/1999/xlink">
    <title>icon_32_configuration</title>
    <g id="图标" stroke="none" stroke-width="1" fill="none" fill-rule="evenodd">
        <g id="场景图标" transform="translate(-409.000000, -1106.000000)">
            <g id="icon_32_configuration" transform="translate(409.000000, 1106.000000)">
                <circle id="椭圆形" fill="#E8EAF6" cx="16" cy="16" r="16"></circle>
                <g id="配置" transform="translate(6.000000, 6.000000)" fill="#3845AE" fill-rule="nonzero">
                    <path d="M4.90211089,13.7254903 C6.18250306,13.7254903 7.27269913,14.5441179 7.67662068,15.6862748 L18.6276011,15.6862748 C19.1689981,15.6863576 19.6078432,16.1252699 19.6078432,16.6666669 C19.6078432,17.2080639 19.1689981,17.6469762 18.6276011,17.6470591 L7.6756403,17.6470591 C7.25972699,18.8220574 6.14854783,19.6074718 4.90211089,19.6074718 C3.65567395,19.6074718 2.5444948,18.8220574 2.12858148,17.6470591 L0.980542256,17.6470591 C0.439145234,17.6469762 0.000300182569,17.2080639 0.000300182569,16.6666669 C0.000300182569,16.1252699 0.439145234,15.6863576 0.980542256,15.6862748 L2.12760108,15.6862748 C2.54350909,14.5107905 3.65521776,13.7251307 4.90211089,13.7254903 Z M4.90211089,15.6862748 C4.55181476,15.6862211 4.22810484,15.8730711 4.0529413,16.1764275 C3.87777775,16.4797839 3.87777775,16.8535499 4.0529413,17.1569063 C4.22810484,17.4602627 4.55181476,17.6471127 4.90211089,17.6470591 C5.44350791,17.6469762 5.88235296,17.2080639 5.88235296,16.6666669 C5.88235296,16.1252699 5.44350791,15.6863576 4.90211089,15.6862748 L4.90211089,15.6862748 Z M12.7452481,6.86274523 C14.0256403,6.86274523 15.1158364,7.68137281 15.5197579,8.82352966 L18.6276011,8.82352966 C19.1690567,8.82352966 19.6079932,9.26246618 19.6079932,9.80392182 C19.6079932,10.3453775 19.1690567,10.784314 18.6276011,10.784314 L15.5187775,10.784314 C15.1028642,11.9593124 13.9916851,12.7447267 12.7452481,12.7447267 C11.4988112,12.7447267 10.387632,11.9593124 9.97171873,10.784314 L0.980542256,10.784314 C0.439086614,10.784314 0.000150091282,10.3453775 0.000150091282,9.80392182 C0.000150091282,9.26246618 0.439086614,8.82352966 0.980542256,8.82352966 L9.97073833,8.82352966 C10.3866463,7.64804544 11.498355,6.86238561 12.7452481,6.86274523 L12.7452481,6.86274523 Z M12.7452481,8.82352966 C12.2037925,8.82352966 11.764856,9.26246618 11.764856,9.80392182 C11.764856,10.3453775 12.2037925,10.784314 12.7452481,10.784314 C13.2867038,10.784314 13.7256403,10.3453775 13.7256403,9.80392182 C13.7256403,9.26246618 13.2867038,8.82352966 12.7452481,8.82352966 L12.7452481,8.82352966 Z M4.90211089,1.23400684e-07 C6.18250306,1.23400684e-07 7.27269913,0.818627706 7.67662068,1.96078458 L18.6276011,1.96078458 C19.1689981,1.96086746 19.6078432,2.3997797 19.6078432,2.94117673 C19.6078432,3.48257376 19.1689981,3.921486 18.6276011,3.92156888 L7.6756403,3.92156888 C7.25972699,5.09656725 6.14854783,5.88198156 4.90211089,5.88198156 C3.65567395,5.88198156 2.5444948,5.09656725 2.12858148,3.92156888 L0.980542256,3.92156888 C0.630246126,3.92162251 0.306536208,3.73477255 0.131372661,3.43141614 C-0.0437908869,3.12805973 -0.0437908869,2.75429373 0.131372661,2.45093732 C0.306536208,2.14758091 0.630246126,1.96073095 0.980542256,1.96078458 L2.12760108,1.96078458 C2.54350908,0.785300352 3.65521775,-0.000359490486 4.90211089,1.23400684e-07 Z M4.90211089,1.96078456 C4.55181476,1.96073095 4.22810484,2.14758091 4.0529413,2.45093732 C3.87777775,2.75429373 3.87777775,3.12805973 4.0529413,3.43141614 C4.22810484,3.73477255 4.55181476,3.92162251 4.90211089,3.92156889 C5.44350791,3.921486 5.88235296,3.48257376 5.88235296,2.94117673 C5.88235296,2.3997797 5.44350791,1.96086746 4.90211089,1.96078456 Z" id="形状"></path>
                </g>
            </g>
        </g>
    </g>
</svg>