<?xml version="1.0" encoding="UTF-8"?>
<svg width="32px" height="32px" viewBox="0 0 32 32" version="1.1" xmlns="http://www.w3.org/2000/svg" xmlns:xlink="http://www.w3.org/1999/xlink">
    <title>icon_32_temporarily closed</title>
    <g id="icon" stroke="none" stroke-width="1" fill="none" fill-rule="evenodd">
        <g transform="translate(-698.000000, -1196.000000)" id="icon_32_temporarily-closed">
            <g transform="translate(698.000000, 1196.000000)">
                <circle id="椭圆形" fill="#FFF3DF" cx="16" cy="16" r="16"></circle>
                <g id="暂停服务-运营" transform="translate(5.000000, 7.000000)" fill="#FFA800" fill-rule="nonzero">
                    <path d="M12.1855372,18.216268 C11.5185343,18.8830694 10.4373226,18.8830694 9.77031978,18.216268 L0.510287267,8.95564829 C-0.15651418,8.28864544 -0.15651418,7.20743375 0.510287267,6.5404309 L6.5272467,0.523471467 C7.19425261,-0.143347767 8.27548487,-0.143347767 8.94249078,0.523471467 L10.977368,2.55890916 L13.0133929,0.523444779 C13.6803957,-0.143356669 14.7616074,-0.143356669 15.4286102,0.523444779 L21.4455697,6.54157851 C22.1123711,7.20858137 22.1123711,8.28979305 21.4455697,8.9567959 L12.1849767,18.216268 L12.1855372,18.216268 Z M7.73490877,1.73220109 L1.71848311,7.74862675 L10.9779552,17.0080721 L11.5393512,16.4467027 L9.50447399,14.4112384 L10.7120827,13.2036297 L12.7475204,15.239094 L13.3823636,14.6042508 L11.3468993,12.5687864 L12.5550951,11.3606172 L14.5899723,13.3960816 L15.3278605,12.6581934 L13.2929833,10.622729 L14.500592,9.41512034 L16.5360297,11.4505847 L16.9943808,10.9916731 L14.3104086,8.30772758 L14.2210282,8.39710792 C12.9672536,9.65063975 10.9347408,9.65063975 9.68096613,8.39710792 L8.61854377,7.33468556 C7.95174232,6.66768271 7.95174232,5.58647102 8.61854377,4.91946817 L9.76978601,3.76707832 L7.73490877,1.73220109 L7.73490877,1.73220109 Z M14.2210282,1.73220109 L9.82556531,6.12707686 L10.8885481,7.18949922 C11.4747374,7.77610592 12.4254223,7.77661965 13.0122452,7.19064684 L13.1022127,7.09953174 L14.309261,5.89080212 L14.5438276,5.65620875 L18.43709,9.54893731 L20.2374005,7.74862675 L14.2210016,1.73220109 L14.2210282,1.73220109 Z" id="形状"></path>
                </g>
            </g>
        </g>
    </g>
</svg>