<?xml version="1.0" encoding="UTF-8"?>
<svg width="32px" height="32px" viewBox="0 0 32 32" version="1.1" xmlns="http://www.w3.org/2000/svg" xmlns:xlink="http://www.w3.org/1999/xlink">
    <title>icon_32_personnel</title>
    <g id="icon" stroke="none" stroke-width="1" fill="none" fill-rule="evenodd">
        <g transform="translate(-278.000000, -1196.000000)" id="icon_32_personnel">
            <g transform="translate(278.000000, 1196.000000)">
                <g id="编组-10" fill="#E3F2FD">
                    <circle id="椭圆形" cx="16" cy="16" r="16"></circle>
                </g>
                <g id="renyuan" transform="translate(6.000000, 9.000000)" fill="#42A5F5" fill-rule="nonzero">
                    <path d="M2.54217658,3.7342189 C2.54217658,1.68227084 4.23947927,0.0189341947 6.33338537,0.0189341947 C8.42829046,0.0189341947 10.1255931,1.68227086 10.1255931,3.7342189 C10.1255931,5.78616694 8.42729144,7.44950363 6.33338537,7.44950363 C4.23947929,7.44950363 2.54217658,5.78616696 2.54217658,3.7342189 Z M7.75396478,13.9799731 L7.75396478,13.7232299 C7.75396478,11.829124 8.74097776,10.1647883 10.2294893,9.18376936 C9.55706774,8.85817704 8.81974769,8.68878809 8.0726461,8.68826485 L4.91180694,8.68826485 C2.20651223,8.68826485 0.0137050352,10.836117 0.0137050352,13.4864667 L0.0137050352,13.796157 C0.0137050352,14.8800731 2.20651223,14.8800731 4.91180694,14.8800731 L7.93378496,14.8800731 C7.81081415,14.5961486 7.74952291,14.2893519 7.75396478,13.9799731 Z M14.4852335,2.54340971 C12.7479708,2.54340971 11.3383804,3.92402908 11.3383804,5.62732581 C11.3383804,7.33062253 12.7479708,8.71124189 14.4852335,8.71124189 C16.2234953,8.71124189 17.6320867,7.33062251 17.6320867,5.62732581 C17.6320867,3.9240291 16.2244943,2.54340971 14.4852335,2.54340971 Z M14.4852335,2.54340971 C12.7479708,2.54340971 11.3383804,3.92402908 11.3383804,5.62732581 C11.3383804,7.33062253 12.7479708,8.71124189 14.4852335,8.71124189 C16.2234953,8.71124189 17.6320867,7.33062251 17.6320867,5.62732581 C17.6320867,3.9240291 16.2244943,2.54340971 14.4852335,2.54340971 Z M13.3064123,9.74021291 C11.0606581,9.74021291 9.24047828,11.5234297 9.24047828,13.7232299 L9.24047828,13.9799731 C9.24047828,14.879074 11.0606581,14.879074 13.3064123,14.879074 L15.929789,14.879074 C18.1745442,14.879074 19.993725,14.846107 19.993725,13.9799731 L19.993725,13.7232299 C19.993725,11.5234297 18.1745442,9.74021291 15.929789,9.74021291 L13.3064123,9.74021291 Z" id="形状"></path>
                </g>
            </g>
        </g>
    </g>
</svg>