<?xml version="1.0" encoding="UTF-8"?>
<svg width="32px" height="32px" viewBox="0 0 32 32" version="1.1" xmlns="http://www.w3.org/2000/svg" xmlns:xlink="http://www.w3.org/1999/xlink">
    <title>icon_32_Implementation unit information</title>
    <g id="icon" stroke="none" stroke-width="1" fill="none" fill-rule="evenodd">
        <g transform="translate(-382.000000, -1196.000000)" id="icon_32_Implementation-unit-information">
            <g transform="translate(382.000000, 1196.000000)">
                <g id="编组-10" fill="#EFE9FF">
                    <circle id="椭圆形" cx="16" cy="16" r="16"></circle>
                </g>
                <g id="fenhongqingkuang" transform="translate(6.000000, 7.000000)" fill="#6338D5" fill-rule="nonzero">
                    <path d="M9.95994365,8.56823771 C15.4148891,8.56823771 19.9083498,6.76736711 19.9083498,4.28429514 C19.9083498,1.80122317 15.414889,0.000352566722 9.95994365,0.000352566722 C4.50459828,0.000352566722 0.0115374609,1.80122317 0.0115374609,4.28429514 C0.0115374609,6.76736711 4.5045983,8.56823771 9.95994365,8.56823771 Z M9.95994365,7.48024109 C5.10772592,7.48024109 1.24538939,5.93215519 1.24538939,4.28429514 C1.24538939,2.63678763 5.10772592,1.08870173 9.95994365,1.08870173 C14.8117614,1.08870173 18.6740979,2.63678763 18.6740979,4.28429514 C18.6740979,5.9321552 14.8117614,7.48024109 9.95994365,7.48024109 Z M19.4136092,7.39456929 C19.7343707,7.82187062 19.9083498,8.28372271 19.9083498,8.77201673 C19.9083498,11.2554413 15.4148891,13.0563119 9.95994365,13.0563119 C4.5045983,13.0563119 0.0115374609,11.2554413 0.0115374609,8.77201673 C0.0115374609,8.28372271 0.185116641,7.82187062 0.505878125,7.39456929 C0.826902887,7.6205448 1.16497428,7.8270322 1.5177567,8.01260496 C1.33977807,8.25939616 1.24538938,8.51464877 1.24538939,8.77201673 C1.24538939,10.4198768 5.10772592,11.9679627 9.95994365,11.9679627 C14.8117614,11.9679627 18.6740979,10.4198768 18.6740979,8.77201673 C18.6740979,8.51464877 18.5797093,8.25939616 18.4021306,8.01260496 C18.7547239,7.82694769 19.0926559,7.6204638 19.4136092,7.39456929 L19.4136092,7.39456929 Z M19.4136092,11.9679627 C19.7343707,12.3949114 19.9083498,12.8571161 19.9083498,13.3454101 C19.9083498,15.8284821 15.4148891,17.6293527 9.95994365,17.6293527 C4.5045983,17.6293527 0.0115374609,15.8284821 0.0115374609,13.3454101 C0.0115374609,12.8571161 0.185116641,12.3949115 0.505878125,11.9679627 C0.826813612,12.1939373 1.16489423,12.4003125 1.5177567,12.5856458 C1.33977807,12.8327895 1.24538938,13.0880421 1.24538939,13.3454101 C1.24538939,14.9932702 5.10772592,16.5413561 9.95994365,16.5413561 C14.8117614,16.5413561 18.6740979,14.9932702 18.6740979,13.3454101 C18.6740979,13.0880422 18.5797093,12.8327896 18.4021306,12.5856458 C18.7548041,12.400228 19.0927453,12.1938563 19.4136092,11.9679627 L19.4136092,11.9679627 Z" id="形状"></path>
                </g>
            </g>
        </g>
    </g>
</svg>