<?xml version="1.0" encoding="UTF-8"?>
<svg width="32px" height="32px" viewBox="0 0 32 32" version="1.1" xmlns="http://www.w3.org/2000/svg" xmlns:xlink="http://www.w3.org/1999/xlink">
    <title>icon_32_basic information</title>
    <g id="icon" stroke="none" stroke-width="1" fill="none" fill-rule="evenodd">
        <g transform="translate(-70.000000, -1196.000000)" id="icon_32_basic-information">
            <g transform="translate(70.000000, 1196.000000)">
                <circle id="椭圆形" fill="#FFF3E0" cx="16" cy="16" r="16"></circle>
                <g id="jibenxinxi" transform="translate(6.787879, 6.787879)" fill="#FFA726" fill-rule="nonzero">
                    <path d="M3.69626849,5.69058642 C3.33601276,5.69058642 3.04398581,5.40271348 3.04398581,5.0475823 C3.04398581,4.69245113 3.33601276,4.40457819 3.69626849,4.40457819 L14.3067333,4.40457819 C14.666989,4.40457819 14.959016,4.69245113 14.959016,5.0475823 C14.959016,5.40271348 14.666989,5.69058642 14.3067333,5.69058642 L3.69626849,5.69058642 Z M3.69626849,10.2451989 C3.33601276,10.2451989 3.04398581,9.95732596 3.04398581,9.60219479 C3.04398581,9.24706361 3.33601276,8.95919067 3.69626849,8.95919067 L11.7410881,8.95919067 C12.1013439,8.95919067 12.3933708,9.24706361 12.3933708,9.60219479 C12.3933708,9.95732596 12.1013439,10.2451989 11.7410881,10.2451989 L3.69626849,10.2451989 Z M3.69626849,14.7998114 C3.33601276,14.7998114 3.04398581,14.5119384 3.04398581,14.1568073 C3.04398581,13.8016761 3.33601276,13.5138032 3.69626849,13.5138032 L8.91452988,13.5138032 C9.2747856,13.5138032 9.56681255,13.8016761 9.56681255,14.1568073 C9.56681255,14.5119384 9.2747856,14.7998114 8.91452988,14.7998114 L3.69626849,14.7998114 Z" id="形状"></path>
                    <path d="M15.5743142,12.7694187 L14.1620788,11.9656636 L11.666554,16.2265518 C11.5873829,16.3617224 11.5607908,16.5206663 11.5917371,16.6737397 L11.7851172,17.6302083 L12.7231432,17.3174511 C12.8732836,17.2673951 12.9997993,17.1651628 13.0790504,17.0298568 L15.5743142,12.7694187 Z M16.2265969,11.6556927 L16.5636096,11.0802898 C16.7437266,10.7727195 16.6368392,10.3794796 16.3248524,10.2019247 L16.042414,10.0411737 C15.7304055,9.86359739 15.3314911,9.96898577 15.1513741,10.2765132 L14.8143614,10.8519376 L16.2265969,11.6556927 Z M16.9771351,9.08819873 C17.9130738,9.62088477 18.2337577,10.8006473 17.693385,11.7232939 L14.2088257,17.6728609 C13.971082,18.0787828 13.5915427,18.3854872 13.1411259,18.5356653 L11.4995479,19.0829904 C11.1266596,19.207326 10.7278322,18.9801526 10.6508846,18.5995585 L10.3123499,16.9251115 C10.2194978,16.4658963 10.2992587,15.9890652 10.5367569,15.5835477 L14.0215771,9.63353052 C14.5619498,8.71088392 15.7587363,8.39476166 16.6946967,8.9274477 L16.9771351,9.08819873 Z" id="形状"></path>
                    <path d="M8.67535956,17.9183813 C9.03561528,17.9183813 9.32764224,18.2062543 9.32764224,18.5613855 C9.32764224,18.9165166 9.03561528,19.2043896 8.67535956,19.2043896 L1.95684802,19.2043896 C0.876102602,19.2043896 0,18.3407493 0,17.2753772 L0,1.92901235 C0,0.863640261 0.876102602,0 1.95684802,0 L16.0461538,0 C17.1268992,0 18.0030018,0.863640261 18.0030018,1.92901235 L18.0030018,7.04550326 C18.0030018,7.400613 17.7109748,7.68850737 17.3507191,7.68850737 C16.9904634,7.68850737 16.6984365,7.400613 16.6984365,7.04550326 L16.6984365,1.92901235 C16.6984365,1.57388117 16.4064095,1.28600823 16.0461538,1.28600823 L1.95684802,1.28600823 C1.5965923,1.28600823 1.30456535,1.57388117 1.30456535,1.92901235 L1.30456535,17.2753772 C1.30456535,17.6305084 1.5965923,17.9183813 1.95684802,17.9183813 L8.67535956,17.9183813 Z" id="路径"></path>
                </g>
            </g>
        </g>
    </g>
</svg>