<?xml version="1.0" encoding="UTF-8"?>
<svg width="32px" height="32px" viewBox="0 0 32 32" version="1.1" xmlns="http://www.w3.org/2000/svg" xmlns:xlink="http://www.w3.org/1999/xlink">
    <title>icon_32_opinion</title>
    <g id="icon" stroke="none" stroke-width="1" fill="none" fill-rule="evenodd">
        <g transform="translate(-174.000000, -1196.000000)" id="icon_32_opinion">
            <g transform="translate(174.000000, 1196.000000)">
                <circle id="椭圆形" fill="#E8F5E9" cx="16" cy="16" r="16"></circle>
                <g id="yijianfankui" transform="translate(6.000000, 7.000000)" fill="#66BB6A" fill-rule="nonzero">
                    <path d="M5.58411396,19.0893941 C5.43535482,19.0893941 5.28575625,19.0369296 5.16567766,18.9295624 C4.90625355,18.6984191 4.8833091,18.3004689 5.11485211,18.0410648 L8.60780389,14.1233211 L15.0097234,14.1233211 C15.588391,14.1233211 16.0588721,13.6526402 16.0588721,13.0741724 L16.0588721,4.9431852 C16.0588721,4.3647174 15.5883911,3.89403652 15.0097234,3.89403652 L2.31491049,3.89403652 C1.73624283,3.89403652 1.26576182,4.3647174 1.26576182,4.9431852 L1.26576182,13.0741524 C1.26576182,13.6526202 1.73624283,14.1233011 2.31491049,14.1233011 L5.75951504,14.1233011 C6.10703941,14.1233011 6.38900824,14.40505 6.38900824,14.7527943 C6.38900824,15.1005385 6.10703941,15.3822875 5.75951504,15.3822875 L2.31491049,15.3822875 C1.04239326,15.3822875 0.00675541016,14.3468495 0.00675541016,13.0741324 L0.00675541016,4.9431852 C0.00675541016,3.67046811 1.04239324,2.63503012 2.31491049,2.63503012 L15.0097234,2.63503012 C16.2822406,2.63503012 17.3178785,3.67046809 17.3178785,4.9431852 L17.3178785,13.0741524 C17.3178785,14.3468695 16.2822406,15.3823075 15.0097234,15.3823075 L9.17174156,15.3823075 L6.05417527,18.8787569 C5.92999945,19.0185021 5.75745645,19.0893941 5.58411396,19.0893941 Z" id="路径"></path>
                    <path d="M19.3637314,11.7977578 C19.016207,11.7977578 18.7342382,11.5160088 18.7342382,11.1682646 L18.7342382,2.32030352 C18.7342382,1.74183572 18.2637572,1.27115484 17.6850895,1.27115484 L4.57060113,1.27115484 C4.22307676,1.27115484 3.94110793,0.989405879 3.94110793,0.641661641 C3.94110793,0.293917402 4.22307676,0.0121684375 4.57060113,0.0121684375 L17.6850695,0.0121684375 C18.9575868,0.0121684375 19.9932246,1.04760641 19.9932246,2.32032352 L19.9932246,11.1682846 C19.9932246,11.5160088 19.7112558,11.7977578 19.3637314,11.7977578 Z" id="路径"></path>
                </g>
            </g>
        </g>
    </g>
</svg>