<?xml version="1.0" encoding="UTF-8"?>
<svg width="32px" height="32px" viewBox="0 0 32 32" version="1.1" xmlns="http://www.w3.org/2000/svg" xmlns:xlink="http://www.w3.org/1999/xlink">
    <title>icon_32_distribution</title>
    <g id="icon" stroke="none" stroke-width="1" fill="none" fill-rule="evenodd">
        <g transform="translate(-72.000000, -897.000000)" id="icon_32_distribution">
            <g transform="translate(72.000000, 897.000000)">
                <rect id="矩形" x="0" y="0" width="32" height="32"></rect>
                <path d="M25.6708075,19.1304348 L24.8757764,19.1304348 L24.8757764,15.9503106 L16.9254658,15.9503106 L16.9254658,14.3602484 L19.310559,14.3602484 C20.18765,14.3576561 20.8980288,13.6472774 20.9006211,12.7701863 L20.9006211,9.59006211 C20.8980288,8.71297108 20.18765,8.00259234 19.310559,8 L12.9503106,8 C12.0732195,8.00259234 11.3628408,8.71297108 11.3602484,9.59006211 L11.3602484,12.7701863 C11.3628408,13.6472774 12.0732195,14.3576561 12.9503106,14.3602484 L15.3354037,14.3602484 L15.3354037,15.9503106 L7.38509317,15.9503106 L7.38509317,19.1304348 L6.59006211,19.1304348 C5.71297108,19.1330271 5.00259234,19.8434059 5,20.7204969 L5,22.310559 C5.00259234,23.18765 5.71297108,23.8980288 6.59006211,23.9006211 L9.77018634,23.9006211 C10.6472774,23.8980288 11.3576561,23.18765 11.3602484,22.310559 L11.3602484,20.7204969 C11.3576561,19.8434059 10.6472774,19.1330271 9.77018634,19.1304348 L8.97515528,19.1304348 L8.97515528,17.5403727 L15.3354037,17.5403727 L15.3354037,19.1304348 L14.5403727,19.1304348 C13.6632816,19.1330271 12.9529029,19.8434059 12.9503106,20.7204969 L12.9503106,22.310559 C12.9529029,23.18765 13.6632816,23.8980288 14.5403727,23.9006211 L17.7204969,23.9006211 C18.5975879,23.8980288 19.3079667,23.18765 19.310559,22.310559 L19.310559,20.7204969 C19.3079667,19.8434059 18.5975879,19.1330271 17.7204969,19.1304348 L16.9254658,19.1304348 L16.9254658,17.5403727 L23.2857143,17.5403727 L23.2857143,19.1304348 L22.4906832,19.1304348 C21.6135922,19.1330271 20.9032135,19.8434059 20.9006211,20.7204969 L20.9006211,22.310559 C20.9032135,23.18765 21.6135922,23.8980288 22.4906832,23.9006211 L25.6708075,23.9006211 C26.5478985,23.8980288 27.2582772,23.18765 27.2608696,22.310559 L27.2608696,20.7204969 C27.2582772,19.8434059 26.5478985,19.1330271 25.6708075,19.1304348 L25.6708075,19.1304348 Z" id="路径" fill="#1565C0" fill-rule="nonzero"></path>
            </g>
        </g>
    </g>
</svg>