<?xml version="1.0" encoding="UTF-8"?>
<svg width="48px" height="48px" viewBox="0 0 48 48" version="1.1" xmlns="http://www.w3.org/2000/svg" xmlns:xlink="http://www.w3.org/1999/xlink">
    <title>double_square</title>
    <defs>
        <linearGradient x1="0%" y1="100%" x2="100%" y2="100%" id="linearGradient-1">
            <stop stop-color="#ABECFC" offset="0%"></stop>
            <stop stop-color="#7CD4FD" offset="100%"></stop>
        </linearGradient>
    </defs>
    <g id="页面-1" stroke="none" stroke-width="1" fill="none" fill-rule="evenodd">
        <g id="icon" transform="translate(-66.000000, -273.000000)" fill-rule="nonzero">
            <g id="double_square" transform="translate(66.000000, 273.000000)">
                <circle id="椭圆形" fill="url(#linearGradient-1)" cx="24" cy="24" r="24"></circle>
                <g id="bind" transform="translate(11.000000, 13.003422)" fill="#FFFFFF">
                    <path d="M6.30059328,12.522721 L1.79600887,12.522721 L1.79600887,1.76284809 L16.1964403,1.76284809 L16.1964403,12.522721 L13.4886738,12.522721 C13.1577717,12.5128435 12.8476893,12.6837369 12.679321,12.9687735 C12.5109527,13.2538101 12.5109527,13.6078661 12.679321,13.8929027 C12.8476893,14.1779394 13.1577717,14.3488327 13.4886738,14.3389552 L16.1964403,14.3389552 C16.6719135,14.3398142 17.1282537,14.1517567 17.4650708,13.8161533 C17.801888,13.4805499 17.9915917,13.0248916 17.9924492,12.5494184 L17.9924492,1.78954551 C17.9915917,1.31407236 17.801888,0.858414059 17.4650708,0.522810644 C17.1282537,0.187207229 16.6719135,-0.000850299619 16.1964403,2.89046599e-06 L1.79600887,2.89046599e-06 C1.32053572,-0.000850299619 0.864195543,0.187207229 0.527378375,0.522810644 C0.190561208,0.858414059 0.000857475602,1.31407236 0,1.78954551 L0,12.5494184 C0.000857475602,13.0248916 0.190561208,13.4805499 0.527378375,13.8161533 C0.864195543,14.1517567 1.32053572,14.3398142 1.79600887,14.3389552 L6.30059328,14.3389552 C6.54249426,14.3415636 6.77530558,14.246899 6.94674522,14.07622 C7.11818487,13.9055409 7.21388374,13.6731528 7.21235093,13.4312426 C7.20620735,12.9307881 6.80106648,12.5270852 6.30059328,12.522721 Z M25.2031821,7.1274133 L20.6985977,7.1274133 C20.3676956,7.11753581 20.0576132,7.28842916 19.8892449,7.5734658 C19.7208766,7.85850243 19.7208766,8.21255837 19.8892449,8.49759501 C20.0576132,8.78263164 20.3676956,8.95352499 20.6985977,8.94364751 L25.2031821,8.94364751 L25.2031821,19.7035204 L10.8027506,19.7035204 L10.8027506,8.94364751 L13.5105172,8.94364751 C13.8414193,8.95352499 14.1515016,8.78263164 14.31987,8.49759501 C14.4882383,8.21255837 14.4882383,7.85850243 14.31987,7.5734658 C14.1515016,7.28842916 13.8414193,7.11753581 13.5105172,7.1274133 L10.8027506,7.1274133 C10.3272775,7.12655427 9.87093732,7.3146118 9.53412015,7.65021521 C9.19730298,7.98581863 9.00759925,8.44147692 9.00674177,8.91695008 L9.00674177,19.676823 C9.00759925,20.1522962 9.19730298,20.6079545 9.53412015,20.9435579 C9.87093732,21.2791613 10.3272775,21.4672188 10.8027506,21.4663689 L25.2031821,21.4663689 C25.6787953,21.4674337 26.1353434,21.2794711 26.4723356,20.9438444 C26.8093279,20.6082177 26.9991427,20.1524366 27,19.676823 L27,8.91695008 C26.9991427,8.44133646 26.8093279,7.98555535 26.4723356,7.64992866 C26.1353434,7.31430198 25.6787953,7.12633939 25.2031821,7.1274133 L25.2031821,7.1274133 Z" id="形状"></path>
                </g>
            </g>
        </g>
    </g>
</svg>