<?xml version="1.0" encoding="UTF-8"?>
<svg width="64px" height="64px" viewBox="0 0 64 64" version="1.1" xmlns="http://www.w3.org/2000/svg" xmlns:xlink="http://www.w3.org/1999/xlink">
    <title>icon_64_component</title>
    <g id="icon" stroke="none" stroke-width="1" fill="none" fill-rule="evenodd">
        <g transform="translate(-154.000000, -1300.000000)" id="icon_64_component">
            <g transform="translate(154.000000, 1300.000000)">
                <rect id="矩形" x="0" y="0" width="64" height="64"></rect>
                <path d="M55.6668883,2.04986702 L8.00731383,2.04986702 C4.81582447,2.04986702 2.04986702,4.81582447 2.04986702,8.00731383 L2.04986702,55.6668883 C2.04986702,58.8583777 4.81582447,61.6243351 8.00731383,61.6243351 L55.6668883,61.6243351 C58.8583777,61.6243351 61.6243351,58.8583777 61.6243351,55.6668883 L61.6243351,8.00731383 C61.6243351,4.81582447 58.8583777,2.04986702 55.6668883,2.04986702 Z M57.369016,54.6030585 C57.369016,56.0924202 56.0924202,57.369016 54.6030585,57.369016 L9.07114362,57.369016 C7.58178191,57.369016 6.30518617,56.0924202 6.30518617,54.6030585 L6.30518617,9.07114362 C6.30518617,7.58178191 7.58178191,6.30518617 9.07114362,6.30518617 L54.3902926,6.30518617 C56.0924202,6.30518617 57.369016,7.58178191 57.369016,9.07114362 L57.369016,54.6030585 Z" id="形状" fill="#90CAF9" fill-rule="nonzero"></path>
                <path d="M50.9860372,50.9860372 L46.7307181,50.9860372 L46.7307181,48.8583777 L50.9860372,48.8583777 L50.9860372,44.6030585 L44.6030585,44.6030585 L44.6030585,42.4753989 L53.1136968,42.4753989 L53.1136968,50.9860372 L50.9860372,50.9860372 L50.9860372,50.9860372 Z M12.6881649,50.9860372 L10.5605053,50.9860372 L10.5605053,42.4753989 L16.943484,42.4753989 L16.943484,44.6030585 L12.6881649,44.6030585 L12.6881649,48.8583777 L19.0711436,48.8583777 L19.0711436,50.9860372 L12.6881649,50.9860372 L12.6881649,50.9860372 Z M50.9860372,21.1988032 L46.7307181,21.1988032 L46.7307181,19.0711436 L50.9860372,19.0711436 L50.9860372,14.8158245 L44.6030585,14.8158245 L44.6030585,12.6881649 L53.1136968,12.6881649 L53.1136968,21.1988032 L50.9860372,21.1988032 Z M12.6881649,21.1988032 L10.5605053,21.1988032 L10.5605053,12.6881649 L16.943484,12.6881649 L16.943484,14.8158245 L12.6881649,14.8158245 L12.6881649,19.0711436 L19.0711436,19.0711436 L19.0711436,21.1988032 L12.6881649,21.1988032 L12.6881649,21.1988032 Z M10.5605053,27.5817819 L53.1136968,27.5817819 L53.1136968,36.0924202 L10.5605053,36.0924202 L10.5605053,27.5817819 L10.5605053,27.5817819 Z M36.0924202,12.6881649 L42.4753989,12.6881649 L42.4753989,14.8158245 L36.0924202,14.8158245 L36.0924202,12.6881649 Z M27.5817819,12.6881649 L33.9647606,12.6881649 L33.9647606,14.8158245 L27.5817819,14.8158245 L27.5817819,12.6881649 L27.5817819,12.6881649 Z M19.0711436,12.6881649 L25.4541223,12.6881649 L25.4541223,14.8158245 L19.0711436,14.8158245 L19.0711436,12.6881649 Z M21.1988032,19.0711436 L27.5817819,19.0711436 L27.5817819,21.1988032 L21.1988032,21.1988032 L21.1988032,19.0711436 Z M29.7094415,19.0711436 L36.0924202,19.0711436 L36.0924202,21.1988032 L29.7094415,21.1988032 L29.7094415,19.0711436 L29.7094415,19.0711436 Z M38.2200798,19.0711436 L44.6030585,19.0711436 L44.6030585,21.1988032 L38.2200798,21.1988032 L38.2200798,19.0711436 Z M36.0924202,42.4753989 L42.4753989,42.4753989 L42.4753989,44.6030585 L36.0924202,44.6030585 L36.0924202,42.4753989 Z M27.5817819,42.4753989 L33.9647606,42.4753989 L33.9647606,44.6030585 L27.5817819,44.6030585 L27.5817819,42.4753989 L27.5817819,42.4753989 Z M19.0711436,42.4753989 L25.4541223,42.4753989 L25.4541223,44.6030585 L19.0711436,44.6030585 L19.0711436,42.4753989 Z M21.1988032,48.8583777 L27.5817819,48.8583777 L27.5817819,50.9860372 L21.1988032,50.9860372 L21.1988032,48.8583777 Z M29.7094415,48.8583777 L36.0924202,48.8583777 L36.0924202,50.9860372 L29.7094415,50.9860372 L29.7094415,48.8583777 L29.7094415,48.8583777 Z M38.2200798,48.8583777 L44.6030585,48.8583777 L44.6030585,50.9860372 L38.2200798,50.9860372 L38.2200798,48.8583777 Z" id="形状" fill="#1565C0" fill-rule="nonzero"></path>
            </g>
        </g>
    </g>
</svg>