<?xml version="1.0" encoding="UTF-8"?>
<svg width="24px" height="24px" viewBox="0 0 24 24" version="1.1" xmlns="http://www.w3.org/2000/svg" xmlns:xlink="http://www.w3.org/1999/xlink">
    <title>icon_24_other</title>
    <defs>
        <polygon id="path-1" points="0.001875 0 22.001875 0 22.001875 24 0.001875 24"></polygon>
    </defs>
    <g id="图标" stroke="none" stroke-width="1" fill="none" fill-rule="evenodd">
        <g id="场景图标" transform="translate(-557.000000, -1057.000000)">
            <g id="编组" transform="translate(557.000000, 1057.000000)">
                <g id="pdf" transform="translate(1.000000, 0.000000)">
                    <mask id="mask-2" fill="white">
                        <use xlink:href="#path-1"></use>
                    </mask>
                    <g id="Clip-2"></g>
                    <path d="M2.25993438,0 C1.94503281,0 1.60896719,0.12 1.378,0.36 C1.147,0.59996875 1,0.90003125 1,1.1999375 L1,22.8000625 C1,23.0999687 1.126,23.4200313 1.378,23.64 C1.62996719,23.88 1.94503281,24 2.25993438,24 L20.7400656,24 C21.0549672,24 21.3910328,23.88 21.622,23.64 C21.874,23.4000313 22,23.0999687 22,22.8000625 L22,6.24846589 L15.2677547,0 L2.25993438,0 Z" id="Fill-1" fill="#B0BEC5" mask="url(#mask-2)"></path>
                    <path d="M22.1688506,6.13215416 L16.4042299,6.13215416 C16.0953449,6.13215416 15.7660005,6.02627278 15.5395641,5.81439973 C15.2923789,5.62031144 15.1688506,5.33801624 15.1688506,5.07325765 L15.1688506,0.132154163 L22.1688506,6.13215416 Z" id="Fill-3" fill="#ECEFF1" mask="url(#mask-2)" transform="translate(18.668851, 3.132154) rotate(2.000000) translate(-18.668851, -3.132154) "></path>
                    <path d="M13.9913756,7.77393266 C14.477193,7.99079818 14.477193,8.73172614 13.7848371,8.974073 C13.0924813,9.21641986 12.3712025,9.18640451 11.9479159,9.66021286 C11.5246294,10.1340212 11.2154717,11.4078545 11.2154717,11.5472409 C11.2154717,11.6866272 12.5439631,11.5566839 12.9318322,11.6562537 C13.3197012,11.7558236 13.5760648,12.6124497 12.9318322,13.0140035 C12.7795197,13.1095654 12.1030801,13.1349889 10.9025133,13.0902739 C10.7045861,13.8468615 10.5014742,14.6392355 10.2931775,15.467396 C10.0848808,16.2955565 9.88983211,17.0952724 9.70803136,17.866544 C9.42439557,19.0884117 8.98058385,19.7383622 8.37659619,19.8163953 C7.47061471,19.933445 7.93751819,18.5809325 8.15883187,17.866544 C8.30637432,17.3902849 8.4917845,16.590569 8.71506239,15.467396 L9.28257768,13.0902739 C8.34434729,13.1505368 7.86066864,13.1251134 7.83154172,13.0140035 C7.66794734,12.8939445 7.36113304,11.6562537 8.49142978,11.5472409 C9.02003448,11.4962589 9.46558603,11.5164883 9.57826123,11.4091256 C9.68533542,11.3070999 9.71404849,10.9889892 9.87823548,10.4517269 C10.215198,9.34909838 10.4830275,8.78926833 11.2154717,8.2202731 C11.9479159,7.65127788 13.5055582,7.55706715 13.9913756,7.77393266 Z" id="路径-7" fill="#FFFFFF" mask="url(#mask-2)"></path>
                </g>
            </g>
        </g>
    </g>
</svg>