<?xml version="1.0" encoding="UTF-8"?>
<svg width="24px" height="24px" viewBox="0 0 24 24" version="1.1" xmlns="http://www.w3.org/2000/svg" xmlns:xlink="http://www.w3.org/1999/xlink">
    <title>icon_24_pdf</title>
    <defs>
        <polygon id="path-1" points="0.167243368 0 21.5005767 0 21.5005767 24 0.167243368 24"></polygon>
    </defs>
    <g id="图标" stroke="none" stroke-width="1" fill="none" fill-rule="evenodd">
        <g id="场景图标" transform="translate(-453.000000, -1057.000000)">
            <g id="编组" transform="translate(453.000000, 1057.000000)">
                <g id="pdf" transform="translate(1.000000, 0.000000)">
                    <g transform="translate(0.166090, 0.000000)">
                        <mask id="mask-2" fill="white">
                            <use xlink:href="#path-1"></use>
                        </mask>
                        <g id="Clip-2"></g>
                        <path d="M1.4471767,0 C1.1272767,0 0.785876701,0.12 0.551243368,0.36 C0.316576701,0.59996875 0.167243368,0.90003125 0.167243368,1.1999375 L0.167243368,22.8000625 C0.167243368,23.0999687 0.295243368,23.4200313 0.551243368,23.64 C0.807210035,23.88 1.1272767,24 1.4471767,24 L20.2206434,24 C20.5405434,24 20.8819434,23.88 21.1165767,23.64 C21.3725767,23.4000313 21.5005767,23.0999687 21.5005767,22.8000625 L21.5005767,6.8000625 L14.2471767,0 L1.4471767,0 Z" id="Fill-1" fill="#FF5562" mask="url(#mask-2)"></path>
                        <path d="M21.5005767,6.66666667 L16.0104617,6.66666667 C15.7162855,6.66666667 15.4026242,6.54902069 15.1869705,6.31360619 C14.951556,6.09795253 14.83391,5.7842912 14.83391,5.49011498 L14.83391,0 L21.5005767,6.66666667 Z" id="Fill-3" fill="#FFBBC0" mask="url(#mask-2)"></path>
                        <path d="M14.4855572,17.3333333 C13.4235119,17.3333333 12.4794716,15.4866376 11.9737621,14.2896959 C11.130869,13.9307015 10.2037129,13.6057978 9.3101935,13.3835136 C8.51792666,13.913576 7.18607652,14.70004 6.15777327,14.70004 C5.51717451,14.70004 5.06206491,14.3751631 4.89343361,13.8109833 C4.75864973,13.3492893 4.87654941,13.0244124 5.01146499,12.8534512 C5.28124346,12.4772245 5.83747389,12.2891645 6.680367,12.2891645 C7.35470783,12.2891645 8.21448514,12.4088828 9.17540962,12.6482925 C9.79912418,12.2036973 10.4228651,11.6907604 10.9790955,11.1435725 C10.7262803,9.94663074 10.4565018,8.01446784 11.1477268,7.12530421 C11.4849104,6.69783454 12.0075041,6.5611244 12.631245,6.74918434 C13.3223647,6.95434306 13.5752853,7.38181273 13.6595483,7.70671639 C13.9461056,8.86940718 12.631245,10.4424688 11.7377256,11.3658835 C11.94002,12.169473 12.1929143,13.0072869 12.5132136,13.776759 C13.7944375,14.3581712 15.3115924,15.2131105 15.4802237,16.153517 C15.5476288,16.478394 15.4464817,16.7861454 15.1935611,17.0425738 C14.9745142,17.2307406 14.7384778,17.3333333 14.4855572,17.3333333 Z M12.9178023,14.734291 C13.5584011,16.0509243 14.1652578,16.6664539 14.4855572,16.6664539 C14.5361834,16.6664539 14.6035886,16.6493284 14.7047357,16.5638612 C14.8227408,16.4441697 14.8227408,16.3586758 14.8058566,16.2903341 C14.7384778,15.9483316 14.1989999,15.3840449 12.9178023,14.734291 Z M6.680367,12.9731694 C5.85435809,12.9731694 5.61832168,13.1783282 5.55091657,13.2638221 C5.53403237,13.2980464 5.4666536,13.3835136 5.53403237,13.6228165 C5.58465864,13.8281088 5.71944252,14.0332675 6.15777327,14.0332675 C6.6972512,14.0332675 7.4727392,13.725516 8.38303742,13.1783282 C7.72555445,13.0415111 7.15243982,12.9731694 6.680367,12.9731694 Z M10.0183027,12.8705767 C10.557649,13.0244124 11.1139847,13.2124723 11.6365785,13.417631 C11.4511683,12.9218196 11.2993949,12.4088828 11.164611,11.9129378 C10.7936854,12.2378147 10.4059809,12.5626917 10.0183027,12.8705767 Z M12.1086513,7.34758844 C11.9232412,7.34758844 11.7883519,7.41606374 11.6703205,7.55277388 C11.3162791,7.99736905 11.2826424,9.12594241 11.5523155,10.5621871 C12.5806188,9.45081936 13.1369545,8.42483872 13.0020653,7.87765083 C12.9851811,7.79218361 12.9178023,7.55277388 12.4458349,7.41606374 C12.3109456,7.36471394 12.2097985,7.34758844 12.1086513,7.34758844 Z" id="Fill-4" fill="#FFFFFF" mask="url(#mask-2)"></path>
                    </g>
                </g>
            </g>
        </g>
    </g>
</svg>