<?xml version="1.0" encoding="UTF-8"?>
<svg width="24px" height="24px" viewBox="0 0 24 24" version="1.1" xmlns="http://www.w3.org/2000/svg" xmlns:xlink="http://www.w3.org/1999/xlink">
    <title>7z</title>
    <defs>
        <polygon id="path-1" points="0.167243368 0 21.5005767 0 21.5005767 24 0.167243368 24"></polygon>
    </defs>
    <g id="图标" stroke="none" stroke-width="1" fill="none" fill-rule="evenodd">
        <g id="场景图标" transform="translate(-942.000000, -1057.000000)">
            <g id="7z" transform="translate(942.000000, 1057.000000)">
                <g transform="translate(1.166090, 0.000000)">
                    <mask id="mask-2" fill="white">
                        <use xlink:href="#path-1"></use>
                    </mask>
                    <g id="Clip-2"></g>
                    <path d="M1.4471767,0 C1.1272767,0 0.785876701,0.12 0.551243368,0.36 C0.316576701,0.59996875 0.167243368,0.90003125 0.167243368,1.1999375 L0.167243368,22.8000625 C0.167243368,23.0999687 0.295243368,23.4200313 0.551243368,23.64 C0.807210035,23.88 1.1272767,24 1.4471767,24 L20.2206434,24 C20.5405434,24 20.8819434,23.88 21.1165767,23.64 C21.3725767,23.4000313 21.5005767,23.0999687 21.5005767,22.8000625 L21.5005767,6.8000625 L14.2471767,0 L1.4471767,0 Z" id="Fill-1" fill="#D3A1FF" mask="url(#mask-2)"></path>
                    <path d="M21.5005767,6.66666667 L16.0104617,6.66666667 C15.7162855,6.66666667 15.4026242,6.54902069 15.1869705,6.31360619 C14.951556,6.09795253 14.83391,5.7842912 14.83391,5.49011498 L14.83391,0 L21.5005767,6.66666667 Z" id="Fill-3" fill="#F6ECFF" mask="url(#mask-2)"></path>
                    <path d="M6.9725767,16 L9.63924337,9.38666667 L9.63924337,8.384 L4.48724337,8.384 L4.48724337,9.51466667 L8.3805767,9.51466667 L5.64991003,16 L6.9725767,16 Z M16.6152434,16 L16.6152434,14.9333333 L11.9645767,14.9333333 L16.3592434,9.376 L16.3592434,8.384 L10.6525767,8.384 L10.6525767,9.45066667 L14.73791,9.45066667 L10.3325767,15.0186667 L10.3325767,16 L16.6152434,16 Z" id="7Z" fill="#FFFFFF" fill-rule="nonzero" mask="url(#mask-2)"></path>
                </g>
            </g>
        </g>
    </g>
</svg>