<?xml version="1.0" encoding="UTF-8"?>
<svg width="24px" height="24px" viewBox="0 0 24 24" version="1.1" xmlns="http://www.w3.org/2000/svg" xmlns:xlink="http://www.w3.org/1999/xlink">
    <title>pptx</title>
    <defs>
        <polygon id="path-1" points="0.167243368 0 21.5005767 0 21.5005767 24 0.167243368 24"></polygon>
        <polygon id="path-3" points="0.167243368 0 21.5005767 0 21.5005767 24 0.167243368 24"></polygon>
        <polygon id="path-5" points="0.167243368 0 21.5005767 0 21.5005767 24 0.167243368 24"></polygon>
        <path d="M2.86,13.6666667 L2.86,11.8133333 L4.09333333,11.8133333 C5.23333333,11.8133333 5.80666667,11.3266667 5.80666667,10.3533333 C5.80666667,9.38666667 5.24,8.90666667 4.10666667,8.90666667 L2.13333333,8.90666667 L2.13333333,13.6666667 L2.86,13.6666667 Z M4.04666667,11.1933333 L2.86,11.1933333 L2.86,9.52666667 L4.04666667,9.52666667 C4.4,9.52666667 4.66,9.59333333 4.82666667,9.72666667 C4.99333333,9.84666667 5.08,10.06 5.08,10.3533333 C5.08,10.6466667 4.99333333,10.86 4.83333333,10.9933333 C4.66666667,11.1266667 4.40666667,11.1933333 4.04666667,11.1933333 Z M7.20666667,13.6666667 L7.20666667,11.8133333 L8.44,11.8133333 C9.58,11.8133333 10.1533333,11.3266667 10.1533333,10.3533333 C10.1533333,9.38666667 9.58666667,8.90666667 8.45333333,8.90666667 L6.48,8.90666667 L6.48,13.6666667 L7.20666667,13.6666667 Z M8.39333333,11.1933333 L7.20666667,11.1933333 L7.20666667,9.52666667 L8.39333333,9.52666667 C8.74666667,9.52666667 9.00666667,9.59333333 9.17333333,9.72666667 C9.34,9.84666667 9.42666667,10.06 9.42666667,10.3533333 C9.42666667,10.6466667 9.34,10.86 9.18,10.9933333 C9.01333333,11.1266667 8.75333333,11.1933333 8.39333333,11.1933333 Z M12.7733333,13.6666667 L12.7733333,9.52666667 L14.36,9.52666667 L14.36,8.90666667 L10.46,8.90666667 L10.46,9.52666667 L12.0533333,9.52666667 L12.0533333,13.6666667 L12.7733333,13.6666667 Z M15.3866667,13.6666667 L16.66,11.78 L17.9333333,13.6666667 L18.82,13.6666667 L17.0933333,11.2066667 L18.7066667,8.90666667 L17.82,8.90666667 L16.66,10.6266667 L15.5,8.90666667 L14.6133333,8.90666667 L16.2133333,11.2066667 L14.5,13.6666667 L15.3866667,13.6666667 Z" id="path-7"></path>
    </defs>
    <g id="图标" stroke="none" stroke-width="1" fill="none" fill-rule="evenodd">
        <g id="场景图标" transform="translate(-863.000000, -1057.000000)">
            <g id="编组" transform="translate(863.000000, 1057.000000)">
                <g id="pptx" transform="translate(1.000000, 0.000000)">
                    <g id="Fill-1-Clipped" transform="translate(0.166089, 0.000000)">
                        <mask id="mask-2" fill="white">
                            <use xlink:href="#path-1"></use>
                        </mask>
                        <g id="path-1"></g>
                        <path d="M1.44717671,0 C1.12727671,0 0.785876707,0.12 0.551243373,0.36 C0.316576701,0.599968749 0.167243368,0.900031249 0.167243368,1.1999375 L0.167243368,22.8000625 C0.167243368,23.0999688 0.295243368,23.4200312 0.551243373,23.64 C0.80721004,23.88 1.12727671,24 1.44717671,24 L20.2206433,24 C20.5405433,24 20.8819433,23.88 21.1165767,23.64 C21.3725767,23.4000312 21.5005767,23.0999688 21.5005767,22.8000625 L21.5005767,6.80006249 L14.2471767,0 L1.44717671,0 Z" id="Fill-1" fill="#FFBC97" fill-rule="nonzero" mask="url(#mask-2)"></path>
                    </g>
                    <g id="Fill-3-Clipped" transform="translate(0.166089, 0.000000)">
                        <mask id="mask-4" fill="white">
                            <use xlink:href="#path-3"></use>
                        </mask>
                        <g id="path-1"></g>
                        <path d="M21.5005767,6.66666667 L16.0104617,6.66666667 C15.7162855,6.66666667 15.4026241,6.54902069 15.1869705,6.31360619 C14.951556,6.09795253 14.83391,5.7842912 14.83391,5.49011499 L14.83391,0 L21.5005767,6.66666667 Z" id="Fill-3" fill="#FFE8DB" fill-rule="nonzero" mask="url(#mask-4)"></path>
                    </g>
                    <g id="PPTX-Clipped" transform="translate(0.166089, 0.000000)">
                        <mask id="mask-6" fill="white">
                            <use xlink:href="#path-5"></use>
                        </mask>
                        <g id="path-1"></g>
                        <g id="PPTX" fill-rule="nonzero" mask="url(#mask-6)">
                            <use fill="#000000" xlink:href="#path-7"></use>
                            <use fill="#FFFFFF" xlink:href="#path-7"></use>
                        </g>
                    </g>
                </g>
            </g>
        </g>
    </g>
</svg>