<?xml version="1.0" encoding="UTF-8"?>
<svg width="24px" height="24px" viewBox="0 0 24 24" version="1.1" xmlns="http://www.w3.org/2000/svg" xmlns:xlink="http://www.w3.org/1999/xlink">
    <title>ZIP</title>
    <defs>
        <polygon id="path-1" points="0.167243368 0 21.5005767 0 21.5005767 24 0.167243368 24"></polygon>
        <polygon id="path-3" points="0.167243368 0 21.5005767 0 21.5005767 24 0.167243368 24"></polygon>
        <polygon id="path-5" points="0.167243368 0 21.5005767 0 21.5005767 24 0.167243368 24"></polygon>
        <path d="M9.71391067,16 L9.71391067,15.256 L6.16991067,15.256 L9.52191067,10.984 L9.52191067,10.288 L5.27391067,10.288 L5.27391067,11.032 L8.39391067,11.032 L5.03391067,15.312 L5.03391067,16 L9.71391067,16 Z M11.3539107,16 L11.3539107,10.288 L10.4899107,10.288 L10.4899107,16 L11.3539107,16 Z M13.3619107,16 L13.3619107,13.776 L14.8419107,13.776 C16.2099107,13.776 16.8979107,13.192 16.8979107,12.024 C16.8979107,10.864 16.2179107,10.288 14.8579107,10.288 L12.4899107,10.288 L12.4899107,16 L13.3619107,16 Z M14.7859107,13.032 L13.3619107,13.032 L13.3619107,11.032 L14.7859107,11.032 C15.2099107,11.032 15.5219107,11.112 15.7219107,11.272 C15.9219107,11.416 16.0259107,11.672 16.0259107,12.024 C16.0259107,12.376 15.9219107,12.632 15.7299107,12.792 C15.5299107,12.952 15.2179107,13.032 14.7859107,13.032 Z" id="path-7"></path>
    </defs>
    <g id="图标" stroke="none" stroke-width="1" fill="none" fill-rule="evenodd">
        <g id="场景图标" transform="translate(-903.000000, -1057.000000)">
            <g id="编组" transform="translate(903.000000, 1057.000000)">
                <g id="ZIP" transform="translate(1.000000, 0.000000)">
                    <g id="word" transform="translate(0.166089, 0.000000)">
                        <g id="Fill-1-Clipped">
                            <mask id="mask-2" fill="white">
                                <use xlink:href="#path-1"></use>
                            </mask>
                            <g id="path-1"></g>
                            <path d="M1.44717671,0 C1.12727671,0 0.785876707,0.12 0.551243373,0.36 C0.316576701,0.599968749 0.167243368,0.900031249 0.167243368,1.1999375 L0.167243368,22.8000625 C0.167243368,23.0999688 0.295243368,23.4200312 0.551243373,23.64 C0.80721004,23.88 1.12727671,24 1.44717671,24 L20.2206433,24 C20.5405433,24 20.8819433,23.88 21.1165767,23.64 C21.3725767,23.4000312 21.5005767,23.0999688 21.5005767,22.8000625 L21.5005767,6.80006249 L14.2471767,0 L1.44717671,0 Z" id="Fill-1" fill="#D3A1FF" fill-rule="nonzero" mask="url(#mask-2)"></path>
                        </g>
                        <g id="Fill-3-Clipped">
                            <mask id="mask-4" fill="white">
                                <use xlink:href="#path-3"></use>
                            </mask>
                            <g id="path-1"></g>
                            <path d="M21.5005767,6.66666667 L16.0104617,6.66666667 C15.7162855,6.66666667 15.4026241,6.54902069 15.1869705,6.31360619 C14.951556,6.09795253 14.83391,5.7842912 14.83391,5.49011499 L14.83391,0 L21.5005767,6.66666667 Z" id="Fill-3" fill="#F6ECFF" fill-rule="nonzero" mask="url(#mask-4)"></path>
                        </g>
                        <g id="ZIP-Clipped">
                            <mask id="mask-6" fill="white">
                                <use xlink:href="#path-5"></use>
                            </mask>
                            <g id="path-1"></g>
                            <g id="ZIP" fill-rule="nonzero" mask="url(#mask-6)">
                                <use fill="#000000" xlink:href="#path-7"></use>
                                <use fill="#FFFFFF" xlink:href="#path-7"></use>
                            </g>
                        </g>
                    </g>
                </g>
            </g>
        </g>
    </g>
</svg>