<?xml version="1.0" encoding="UTF-8"?>
<svg width="24px" height="24px" viewBox="0 0 24 24" version="1.1" xmlns="http://www.w3.org/2000/svg" xmlns:xlink="http://www.w3.org/1999/xlink">
    <title>icon_24_excel</title>
    <defs>
        <polygon id="path-1" points="0 0 21.3333333 0 21.3333333 24 0 24"></polygon>
    </defs>
    <g id="图标" stroke="none" stroke-width="1" fill="none" fill-rule="evenodd">
        <g id="场景图标" transform="translate(-401.000000, -1057.000000)">
            <g id="编组" transform="translate(401.000000, 1057.000000)">
                <g id="excel" transform="translate(1.000000, 0.000000)">
                    <mask id="mask-2" fill="white">
                        <use xlink:href="#path-1"></use>
                    </mask>
                    <g id="Clip-2"></g>
                    <path d="M1.27993333,0 C0.960033333,0 0.618633333,0.12 0.384,0.36 C0.149333333,0.59996875 0,0.90003125 0,1.1999375 L0,22.8000625 C0,23.0999687 0.128,23.4200313 0.384,23.64 C0.639966667,23.88 0.960033333,24 1.27993333,24 L20.0534,24 C20.3733,24 20.7147,23.88 20.9493333,23.64 C21.2053333,23.4000313 21.3333333,23.0999687 21.3333333,22.8000625 L21.3333333,6.8000625 L14.0799333,0 L1.27993333,0 Z" id="Fill-1" fill="#A5D6A7" mask="url(#mask-2)"></path>
                    <path d="M21.3333333,6.66666667 L15.8432184,6.66666667 C15.5490421,6.66666667 15.2353808,6.54902069 15.0197271,6.31360619 C14.7843126,6.09795253 14.6666667,5.7842912 14.6666667,5.49011498 L14.6666667,-7.54951657e-14 L21.3333333,6.66666667 Z" id="Fill-3" fill="#E8F5E9" mask="url(#mask-2)"></path>
                    <polygon id="Fill-4" fill="#FFFFFF" mask="url(#mask-2)" points="9.70829298 12.5564431 6.87496914 9.33333333 8.83331841 9.33333333 10.6875327 11.6404619 12.6250159 9.33333333 14.5207996 9.33333333 11.6250404 12.5564431 14.6666667 15.9831424 12.6874513 15.9831424 10.6458006 13.5403846 8.60418243 16 6.66666667 16"></polygon>
                </g>
            </g>
        </g>
    </g>
</svg>