<?xml version="1.0" encoding="UTF-8"?>
<svg width="24px" height="24px" viewBox="0 0 24 24" version="1.1" xmlns="http://www.w3.org/2000/svg" xmlns:xlink="http://www.w3.org/1999/xlink">
    <title>ppt</title>
    <defs>
        <polygon id="path-1" points="0.167243368 0 21.5005767 0 21.5005767 24 0.167243368 24"></polygon>
        <polygon id="path-3" points="0.167243368 0 21.5005767 0 21.5005767 24 0.167243368 24"></polygon>
        <polygon id="path-5" points="0.167243368 0 21.5005767 0 21.5005767 24 0.167243368 24"></polygon>
        <path d="M3.43791004,16.6666667 L3.43791004,14.072 L5.16457671,14.072 C6.76057671,14.072 7.56324337,13.3906667 7.56324337,12.028 C7.56324337,10.6746667 6.76991004,10.0026667 5.18324337,10.0026667 L2.42057671,10.0026667 L2.42057671,16.6666667 L3.43791004,16.6666667 Z M5.09924337,13.204 L3.43791004,13.204 L3.43791004,10.8706667 L5.09924337,10.8706667 C5.59391004,10.8706667 5.95791004,10.964 6.19124337,11.1506667 C6.42457671,11.3186667 6.54591004,11.6173333 6.54591004,12.028 C6.54591004,12.4386667 6.42457671,12.7373333 6.20057671,12.924 C5.96724337,13.1106667 5.60324337,13.204 5.09924337,13.204 Z M9.52324337,16.6666667 L9.52324337,14.072 L11.24991,14.072 C12.84591,14.072 13.6485767,13.3906667 13.6485767,12.028 C13.6485767,10.6746667 12.8552434,10.0026667 11.2685767,10.0026667 L8.50591004,10.0026667 L8.50591004,16.6666667 L9.52324337,16.6666667 Z M11.1845767,13.204 L9.52324337,13.204 L9.52324337,10.8706667 L11.1845767,10.8706667 C11.6792434,10.8706667 12.0432434,10.964 12.2765767,11.1506667 C12.50991,11.3186667 12.6312434,11.6173333 12.6312434,12.028 C12.6312434,12.4386667 12.50991,12.7373333 12.28591,12.924 C12.0525767,13.1106667 11.6885767,13.204 11.1845767,13.204 Z M17.3165767,16.6666667 L17.3165767,10.8706667 L19.53791,10.8706667 L19.53791,10.0026667 L14.07791,10.0026667 L14.07791,10.8706667 L16.3085767,10.8706667 L16.3085767,16.6666667 L17.3165767,16.6666667 Z" id="path-7"></path>
    </defs>
    <g id="图标" stroke="none" stroke-width="1" fill="none" fill-rule="evenodd">
        <g id="场景图标" transform="translate(-823.000000, -1057.000000)">
            <g id="编组" transform="translate(823.000000, 1057.000000)">
                <g id="ppt" transform="translate(1.000000, 0.000000)">
                    <g id="Fill-1-Clipped" transform="translate(0.166089, 0.000000)">
                        <mask id="mask-2" fill="white">
                            <use xlink:href="#path-1"></use>
                        </mask>
                        <g id="path-1"></g>
                        <path d="M1.44717671,0 C1.12727671,0 0.785876707,0.12 0.551243373,0.36 C0.316576701,0.599968749 0.167243368,0.900031249 0.167243368,1.1999375 L0.167243368,22.8000625 C0.167243368,23.0999688 0.295243368,23.4200312 0.551243373,23.64 C0.80721004,23.88 1.12727671,24 1.44717671,24 L20.2206433,24 C20.5405433,24 20.8819433,23.88 21.1165767,23.64 C21.3725767,23.4000312 21.5005767,23.0999688 21.5005767,22.8000625 L21.5005767,6.80006249 L14.2471767,0 L1.44717671,0 Z" id="Fill-1" fill="#FFBC97" fill-rule="nonzero" mask="url(#mask-2)"></path>
                    </g>
                    <g id="Fill-3-Clipped" transform="translate(0.166089, 0.000000)">
                        <mask id="mask-4" fill="white">
                            <use xlink:href="#path-3"></use>
                        </mask>
                        <g id="path-1"></g>
                        <path d="M21.5005767,6.66666667 L16.0104617,6.66666667 C15.7162855,6.66666667 15.4026241,6.54902069 15.1869705,6.31360619 C14.951556,6.09795253 14.83391,5.7842912 14.83391,5.49011499 L14.83391,0 L21.5005767,6.66666667 Z" id="Fill-3" fill="#FFE8DB" fill-rule="nonzero" mask="url(#mask-4)"></path>
                    </g>
                    <g id="PPT-Clipped" transform="translate(0.166089, 0.000000)">
                        <mask id="mask-6" fill="white">
                            <use xlink:href="#path-5"></use>
                        </mask>
                        <g id="path-1"></g>
                        <g id="PPT" fill-rule="nonzero" mask="url(#mask-6)">
                            <use fill="#000000" xlink:href="#path-7"></use>
                            <use fill="#FFFFFF" xlink:href="#path-7"></use>
                        </g>
                    </g>
                </g>
            </g>
        </g>
    </g>
</svg>