<?xml version="1.0" encoding="UTF-8"?>
<svg width="24px" height="24px" viewBox="0 0 24 24" version="1.1" xmlns="http://www.w3.org/2000/svg" xmlns:xlink="http://www.w3.org/1999/xlink">
    <title>md</title>
    <defs>
        <polygon id="path-1" points="0.167243368 0 21.5005767 0 21.5005767 24 0.167243368 24"></polygon>
        <polygon id="path-3" points="0.167243368 0 21.5005767 0 21.5005767 24 0.167243368 24"></polygon>
        <polygon id="path-5" points="0.167243368 0 21.5005767 0 21.5005767 24 0.167243368 24"></polygon>
        <path d="M5.03791004,16.6666667 L5.03791004,11.9066667 L5.07524337,11.9066667 L7.11924337,16.6666667 L7.99657671,16.6666667 L10.0405767,11.9066667 L10.07791,11.9066667 L10.07791,16.6666667 L11.0952434,16.6666667 L11.0952434,10.0026667 L9.89124337,10.0026667 L7.57657671,15.3413333 L7.54857671,15.3413333 L5.22457671,10.0026667 L4.02057671,10.0026667 L4.02057671,16.6666667 L5.03791004,16.6666667 Z M14.80991,16.6666667 C15.8832434,16.6666667 16.6952434,16.368 17.2552434,15.7706667 C17.7872434,15.192 18.05791,14.38 18.05791,13.3346667 C18.05791,12.28 17.7965767,11.468 17.27391,10.908 C16.71391,10.3013333 15.90191,10.0026667 14.8285767,10.0026667 L12.40191,10.0026667 L12.40191,16.6666667 L14.80991,16.6666667 Z M14.6232434,15.7986667 L13.4192434,15.7986667 L13.4192434,10.8706667 L14.64191,10.8706667 C15.48191,10.8706667 16.09791,11.0666667 16.48991,11.468 C16.8632434,11.86 17.0592434,12.476 17.0592434,13.3346667 C17.0592434,14.1746667 16.8632434,14.7906667 16.4805767,15.192 C16.0885767,15.5933333 15.4632434,15.7986667 14.6232434,15.7986667 Z" id="path-7"></path>
    </defs>
    <g id="图标" stroke="none" stroke-width="1" fill="none" fill-rule="evenodd">
        <g id="场景图标" transform="translate(-745.000000, -1057.000000)">
            <g id="编组" transform="translate(745.000000, 1057.000000)">
                <g id="md" transform="translate(1.000000, 0.000000)">
                    <g id="Fill-1-Clipped" transform="translate(0.166089, 0.000000)">
                        <mask id="mask-2" fill="white">
                            <use xlink:href="#path-1"></use>
                        </mask>
                        <g id="path-1"></g>
                        <path d="M1.44717671,0 C1.12727671,0 0.785876707,0.12 0.551243373,0.36 C0.316576701,0.599968749 0.167243368,0.900031249 0.167243368,1.1999375 L0.167243368,22.8000625 C0.167243368,23.0999688 0.295243368,23.4200312 0.551243373,23.64 C0.80721004,23.88 1.12727671,24 1.44717671,24 L20.2206433,24 C20.5405433,24 20.8819433,23.88 21.1165767,23.64 C21.3725767,23.4000312 21.5005767,23.0999688 21.5005767,22.8000625 L21.5005767,6.80006249 L14.2471767,0 L1.44717671,0 Z" id="Fill-1" fill="#97A7FF" fill-rule="nonzero" mask="url(#mask-2)"></path>
                    </g>
                    <g id="Fill-3-Clipped" transform="translate(0.166089, 0.000000)">
                        <mask id="mask-4" fill="white">
                            <use xlink:href="#path-3"></use>
                        </mask>
                        <g id="path-1"></g>
                        <path d="M21.5005767,6.66666667 L16.0104617,6.66666667 C15.7162855,6.66666667 15.4026241,6.54902069 15.1869705,6.31360619 C14.951556,6.09795253 14.83391,5.7842912 14.83391,5.49011499 L14.83391,0 L21.5005767,6.66666667 Z" id="Fill-3" fill="#EEF1FF" fill-rule="nonzero" mask="url(#mask-4)"></path>
                    </g>
                    <g id="MD-Clipped" transform="translate(0.166089, 0.000000)">
                        <mask id="mask-6" fill="white">
                            <use xlink:href="#path-5"></use>
                        </mask>
                        <g id="path-1"></g>
                        <g id="MD" fill-rule="nonzero" mask="url(#mask-6)">
                            <use fill="#000000" xlink:href="#path-7"></use>
                            <use fill="#FFFFFF" xlink:href="#path-7"></use>
                        </g>
                    </g>
                </g>
            </g>
        </g>
    </g>
</svg>