<?xml version="1.0" encoding="UTF-8"?>
<svg width="24px" height="24px" viewBox="0 0 24 24" version="1.1" xmlns="http://www.w3.org/2000/svg" xmlns:xlink="http://www.w3.org/1999/xlink">
    <title>RAR</title>
    <defs>
        <polygon id="path-1" points="0.167243368 0 21.5005767 0 21.5005767 24 0.167243368 24"></polygon>
        <polygon id="path-3" points="0.167243368 0 21.5005767 0 21.5005767 24 0.167243368 24"></polygon>
        <polygon id="path-5" points="0.167243368 0 21.5005767 0 21.5005767 24 0.167243368 24"></polygon>
        <path d="M4.26591004,16 L4.26591004,13.64 L5.80991004,13.64 C6.13791004,13.64 6.38591004,13.704 6.56191004,13.848 C6.72991004,13.992 6.83391004,14.216 6.86591004,14.536 L6.93791004,15.248 C6.96991004,15.568 7.04991004,15.824 7.18591004,16 L8.12991004,16 C7.93791004,15.792 7.82591004,15.512 7.79391004,15.16 L7.69791004,14.248 C7.63391004,13.688 7.35391004,13.352 6.84191004,13.24 L6.84191004,13.224 C7.15391004,13.144 7.40191004,12.976 7.58591004,12.72 C7.74591004,12.488 7.82591004,12.224 7.82591004,11.92 C7.82591004,11.376 7.64991004,10.968 7.29791004,10.68 C6.96191004,10.416 6.49791004,10.288 5.92191004,10.288 L3.39391004,10.288 L3.39391004,16 L4.26591004,16 Z M5.80991004,12.896 L4.26591004,12.896 L4.26591004,11.032 L5.80191004,11.032 C6.20191004,11.032 6.48991004,11.104 6.68191004,11.256 C6.85791004,11.4 6.95391004,11.632 6.95391004,11.952 C6.95391004,12.256 6.85791004,12.488 6.67391004,12.648 C6.48191004,12.808 6.19391004,12.896 5.80991004,12.896 Z M9.29791004,16 L9.83391004,14.528 L12.28991,14.528 L12.82591,16 L13.76191,16 L11.56191,10.288 L10.56991,10.288 L8.36991004,16 L9.29791004,16 Z M12.02591,13.808 L10.09791,13.808 L11.04991,11.224 L11.08191,11.224 L12.02591,13.808 Z M15.19391,16 L15.19391,13.64 L16.73791,13.64 C17.06591,13.64 17.31391,13.704 17.48991,13.848 C17.65791,13.992 17.76191,14.216 17.79391,14.536 L17.86591,15.248 C17.89791,15.568 17.97791,15.824 18.11391,16 L19.05791,16 C18.86591,15.792 18.75391,15.512 18.72191,15.16 L18.62591,14.248 C18.56191,13.688 18.28191,13.352 17.76991,13.24 L17.76991,13.224 C18.08191,13.144 18.32991,12.976 18.51391,12.72 C18.67391,12.488 18.75391,12.224 18.75391,11.92 C18.75391,11.376 18.57791,10.968 18.22591,10.68 C17.88991,10.416 17.42591,10.288 16.84991,10.288 L14.32191,10.288 L14.32191,16 L15.19391,16 Z M16.73791,12.896 L15.19391,12.896 L15.19391,11.032 L16.72991,11.032 C17.12991,11.032 17.41791,11.104 17.60991,11.256 C17.78591,11.4 17.88191,11.632 17.88191,11.952 C17.88191,12.256 17.78591,12.488 17.60191,12.648 C17.40991,12.808 17.12191,12.896 16.73791,12.896 Z" id="path-7"></path>
    </defs>
    <g id="图标" stroke="none" stroke-width="1" fill="none" fill-rule="evenodd">
        <g id="场景图标" transform="translate(-706.000000, -1057.000000)">
            <g id="编组" transform="translate(706.000000, 1057.000000)">
                <g id="RAR" transform="translate(1.000000, 0.000000)">
                    <g id="Fill-1-Clipped" transform="translate(0.166089, 0.000000)">
                        <mask id="mask-2" fill="white">
                            <use xlink:href="#path-1"></use>
                        </mask>
                        <g id="path-1"></g>
                        <path d="M1.44717671,0 C1.12727671,0 0.785876707,0.12 0.551243373,0.36 C0.316576701,0.599968749 0.167243368,0.900031249 0.167243368,1.1999375 L0.167243368,22.8000625 C0.167243368,23.0999688 0.295243368,23.4200312 0.551243373,23.64 C0.80721004,23.88 1.12727671,24 1.44717671,24 L20.2206433,24 C20.5405433,24 20.8819433,23.88 21.1165767,23.64 C21.3725767,23.4000312 21.5005767,23.0999688 21.5005767,22.8000625 L21.5005767,6.80006249 L14.2471767,0 L1.44717671,0 Z" id="Fill-1" fill="#D3A1FF" fill-rule="nonzero" mask="url(#mask-2)"></path>
                    </g>
                    <g id="Fill-3-Clipped" transform="translate(0.166089, 0.000000)">
                        <mask id="mask-4" fill="white">
                            <use xlink:href="#path-3"></use>
                        </mask>
                        <g id="path-1"></g>
                        <path d="M21.5005767,6.66666667 L16.0104617,6.66666667 C15.7162855,6.66666667 15.4026241,6.54902069 15.1869705,6.31360619 C14.951556,6.09795253 14.83391,5.7842912 14.83391,5.49011499 L14.83391,0 L21.5005767,6.66666667 Z" id="Fill-3" fill="#F6ECFF" fill-rule="nonzero" mask="url(#mask-4)"></path>
                    </g>
                    <g id="RAR-Clipped" transform="translate(0.166089, 0.000000)">
                        <mask id="mask-6" fill="white">
                            <use xlink:href="#path-5"></use>
                        </mask>
                        <g id="path-1"></g>
                        <g id="RAR" fill-rule="nonzero" mask="url(#mask-6)">
                            <use fill="#000000" xlink:href="#path-7"></use>
                            <use fill="#FFFFFF" xlink:href="#path-7"></use>
                        </g>
                    </g>
                </g>
            </g>
        </g>
    </g>
</svg>