<?xml version="1.0" encoding="UTF-8"?>
<svg width="24px" height="24px" viewBox="0 0 24 24" version="1.1" xmlns="http://www.w3.org/2000/svg" xmlns:xlink="http://www.w3.org/1999/xlink">
    <title>pprt</title>
    <defs>
        <polygon id="path-1" points="0.167243368 0 21.5005767 0 21.5005767 24 0.167243368 24"></polygon>
        <polygon id="path-3" points="0.167243368 0 21.5005767 0 21.5005767 24 0.167243368 24"></polygon>
        <polygon id="path-5" points="-4.20996571e-13 0 21.3333333 0 21.3333333 24 -4.20996571e-13 24"></polygon>
        <path d="M3.06000001,13.6666667 L3.06000001,11.8133333 L4.29333334,11.8133333 C5.43333334,11.8133333 6.00666667,11.3266667 6.00666667,10.3533333 C6.00666667,9.38666667 5.44000001,8.90666667 4.30666667,8.90666667 L2.33333334,8.90666667 L2.33333334,13.6666667 L3.06000001,13.6666667 Z M4.24666667,11.1933333 L3.06000001,11.1933333 L3.06000001,9.52666667 L4.24666667,9.52666667 C4.60000001,9.52666667 4.86000001,9.59333333 5.02666667,9.72666667 C5.19333334,9.84666667 5.28000001,10.06 5.28000001,10.3533333 C5.28000001,10.6466667 5.19333334,10.86 5.03333334,10.9933333 C4.86666667,11.1266667 4.60666667,11.1933333 4.24666667,11.1933333 Z M7.40666667,13.6666667 L7.40666667,11.8133333 L8.64000001,11.8133333 C9.78000001,11.8133333 10.3533333,11.3266667 10.3533333,10.3533333 C10.3533333,9.38666667 9.78666667,8.90666667 8.65333334,8.90666667 L6.68000001,8.90666667 L6.68000001,13.6666667 L7.40666667,13.6666667 Z M8.59333334,11.1933333 L7.40666667,11.1933333 L7.40666667,9.52666667 L8.59333334,9.52666667 C8.94666667,9.52666667 9.20666667,9.59333333 9.37333334,9.72666667 C9.54000001,9.84666667 9.62666667,10.06 9.62666667,10.3533333 C9.62666667,10.6466667 9.54000001,10.86 9.38000001,10.9933333 C9.21333334,11.1266667 8.95333334,11.1933333 8.59333334,11.1933333 Z M11.7533333,13.6666667 L11.7533333,11.7 L13.04,11.7 C13.3133333,11.7 13.52,11.7533333 13.6666667,11.8733333 C13.8066667,11.9933333 13.8933333,12.18 13.92,12.4466667 L13.98,13.04 C14.0066667,13.3066667 14.0733333,13.52 14.1866667,13.6666667 L14.9733333,13.6666667 C14.8133333,13.4933333 14.72,13.26 14.6933333,12.9666667 L14.6133333,12.2066667 C14.56,11.74 14.3266667,11.46 13.9,11.3666667 L13.9,11.3533333 C14.16,11.2866667 14.3666667,11.1466667 14.52,10.9333333 C14.6533333,10.74 14.72,10.52 14.72,10.2666667 C14.72,9.81333333 14.5733333,9.47333333 14.28,9.23333333 C14,9.01333333 13.6133333,8.90666667 13.1333333,8.90666667 L11.0266667,8.90666667 L11.0266667,13.6666667 L11.7533333,13.6666667 Z M13.04,11.08 L11.7533333,11.08 L11.7533333,9.52666667 L13.0333333,9.52666667 C13.3666667,9.52666667 13.6066667,9.58666667 13.7666667,9.71333333 C13.9133333,9.83333333 13.9933333,10.0266667 13.9933333,10.2933333 C13.9933333,10.5466667 13.9133333,10.74 13.76,10.8733333 C13.6,11.0066667 13.36,11.08 13.04,11.08 Z M17.5866667,13.6666667 L17.5866667,9.52666667 L19.1733333,9.52666667 L19.1733333,8.90666667 L15.2733333,8.90666667 L15.2733333,9.52666667 L16.8666667,9.52666667 L16.8666667,13.6666667 L17.5866667,13.6666667 Z" id="path-7"></path>
    </defs>
    <g id="图标" stroke="none" stroke-width="1" fill="none" fill-rule="evenodd">
        <g id="场景图标" transform="translate(-783.000000, -1057.000000)">
            <g id="编组" transform="translate(783.000000, 1057.000000)">
                <g id="Fill-1-Clipped" transform="translate(1.000000, 0.000000)">
                    <mask id="mask-2" fill="white">
                        <use xlink:href="#path-1"></use>
                    </mask>
                    <g id="path-1"></g>
                    <path d="M1.44717671,0 C1.12727671,0 0.785876707,0.12 0.551243373,0.36 C0.316576701,0.599968749 0.167243368,0.900031249 0.167243368,1.1999375 L0.167243368,22.8000625 C0.167243368,23.0999688 0.295243368,23.4200312 0.551243373,23.64 C0.80721004,23.88 1.12727671,24 1.44717671,24 L20.2206433,24 C20.5405433,24 20.8819433,23.88 21.1165767,23.64 C21.3725767,23.4000312 21.5005767,23.0999688 21.5005767,22.8000625 L21.5005767,6.80006249 L14.2471767,0 L1.44717671,0 Z" id="Fill-1" fill="#97A7FF" fill-rule="nonzero" mask="url(#mask-2)"></path>
                </g>
                <g id="Fill-3-Clipped" transform="translate(1.000000, 0.000000)">
                    <mask id="mask-4" fill="white">
                        <use xlink:href="#path-3"></use>
                    </mask>
                    <g id="path-1"></g>
                    <path d="M21.5005767,6.66666667 L16.0104617,6.66666667 C15.7162855,6.66666667 15.4026241,6.54902069 15.1869705,6.31360619 C14.951556,6.09795253 14.83391,5.7842912 14.83391,5.49011499 L14.83391,0 L21.5005767,6.66666667 Z" id="Fill-3" fill="#EEF1FF" fill-rule="nonzero" mask="url(#mask-4)"></path>
                </g>
                <g id="编组-2" transform="translate(1.000000, 0.000000)">
                    <mask id="mask-6" fill="white">
                        <use xlink:href="#path-5"></use>
                    </mask>
                    <g id="path-1"></g>
                    <g id="PPRT" fill-rule="nonzero" mask="url(#mask-6)">
                        <use fill="#000000" xlink:href="#path-7"></use>
                        <use fill="#FFFFFF" xlink:href="#path-7"></use>
                    </g>
                </g>
            </g>
        </g>
    </g>
</svg>