<?xml version="1.0" encoding="UTF-8"?>
<svg width="24px" height="24px" viewBox="0 0 24 24" version="1.1" xmlns="http://www.w3.org/2000/svg" xmlns:xlink="http://www.w3.org/1999/xlink">
    <title>icon_32_file</title>
    <g id="图标" stroke="none" stroke-width="1" fill="none" fill-rule="evenodd">
        <g id="场景图标" transform="translate(-357.000000, -1057.000000)">
            <g id="编组" transform="translate(357.000000, 1057.000000)">
                <g id="编组-4备份" transform="translate(0.000000, 2.000000)">
                    <path d="M23.4769655,3.27807377 C23.2386517,3.04392564 22.9406586,2.92685158 22.6428207,2.92685158 L10.9241379,2.92685158 L8.30234483,0.351222189 C8.20303448,0.25366047 8.064,0.156129239 7.92493448,0.0975312312 C7.7660069,0.0390551757 7.62709655,0 7.46816897,0 L1.19166207,0 C0.893824138,0 0.575968966,0.117074063 0.357517241,0.351222189 C0.139034483,0.585339827 0,0.878085961 0,1.17067965 L0,8 L23.8344828,8 L23.8344828,4.09753123 C23.8344828,3.80493754 23.7153103,3.49267906 23.4769655,3.27807377 Z" id="Fill-1" fill="#FFCC80"></path>
                    <path d="M22.6428207,20 L1.19166207,20 C0.536306897,20 0,19.4600937 0,18.8000625 L0,6 L23.8344828,6 L23.8344828,18.8000625 C23.8344828,19.4600937 23.2981759,20 22.6428207,20 Z" id="Fill-2" fill="#FFA726"></path>
                </g>
            </g>
        </g>
    </g>
</svg>