<?xml version="1.0" encoding="UTF-8"?>
<svg width="18px" height="18px" viewBox="0 0 18 18" version="1.1" xmlns="http://www.w3.org/2000/svg" xmlns:xlink="http://www.w3.org/1999/xlink">
    <title>参与人员总数</title>
    <g id="页面-1" stroke="none" stroke-width="1" fill="none" fill-rule="evenodd">
        <g id="场景图标" transform="translate(-834.000000, -976.000000)" fill="#FD8D00">
            <g id="参与人员总数" transform="translate(834.000000, 976.000000)">
                <circle id="椭圆形备份-3" fill-opacity="0.2" cx="9" cy="9" r="9"></circle>
                <g id="人员" transform="translate(3.000000, 3.750000)" fill-rule="nonzero">
                    <path d="M5.91600092,5.05172775 C6.66377453,4.58696787 7.11296018,3.7638904 7.09998333,2.88370074 C7.09478857,1.40502142 5.91469722,0.198976362 4.4386253,0.162613093 C2.93267855,0.223636394 1.76168302,1.4932921 1.82139259,2.99923886 C1.85385478,3.80542837 2.24201713,4.55711309 2.88075108,5.05043407 C1.181375,5.64632636 0.0324421328,7.23794642 -1.00284801e-05,9.03988376 L8.90839907,9.03988376 C8.87335956,7.20419055 7.66730447,5.59697621 5.91600092,5.05042405 L5.91600092,5.05172775 Z M7.68158502,2.88239704 C7.68288873,3.65874179 7.37520493,4.40391803 6.82865277,4.95306756 C8.43195601,5.68396324 9.46404706,7.27948438 9.47443657,9.04117743 L11.735939,9.04117743 C11.7138764,7.57288762 10.7687623,6.27855182 9.37836373,5.80990089 C9.91583008,5.38148423 10.2429792,4.74275028 10.2741376,4.05598994 C10.3040025,2.87331124 9.36927792,1.89055028 8.18659922,1.8606955 L8.18659919,1.8606955 C8.16021686,1.85939698 8.1337866,1.85939698 8.10740428,1.8606955 C7.91396493,1.85550075 7.72182928,1.88796294 7.54137681,1.95676834 L7.54137697,1.95676897 C7.61515419,2.26060584 7.66207073,2.57034146 7.68158514,2.88239767 L7.68158502,2.88239704 Z" id="形状"></path>
                </g>
            </g>
        </g>
    </g>
</svg>