<?xml version="1.0" encoding="UTF-8"?>
<svg width="66px" height="42px" viewBox="0 0 66 42" version="1.1" xmlns="http://www.w3.org/2000/svg" xmlns:xlink="http://www.w3.org/1999/xlink">
    <title>humen</title>
    <defs>
        <linearGradient x1="0%" y1="100%" x2="100%" y2="100%" id="linearGradient-1">
            <stop stop-color="#FCC7BB" offset="0%"></stop>
            <stop stop-color="#FC9893" offset="100%"></stop>
        </linearGradient>
    </defs>
    <g id="页面-1" stroke="none" stroke-width="1" fill="none" fill-rule="evenodd">
        <g id="icon" transform="translate(-217.000000, -94.000000)" fill-rule="nonzero">
            <g id="humen" transform="translate(217.000000, 94.000000)">
                <rect id="矩形" fill="url(#linearGradient-1)" x="0" y="0" width="66" height="42" rx="2"></rect>
                <g id="cunchuduixiang" transform="translate(17.000000, 7.000000)">
                    <path d="M7.26744186,7.99418605 C7.26744186,12.4092531 10.6838736,15.9883721 14.8982558,15.9883721 C19.112638,15.9883721 22.5290698,12.4092531 22.5290698,7.99418605 C22.5290698,5.13813845 21.0746448,2.49904164 18.7136628,1.07101785 C16.3526807,-0.35700595 13.4438309,-0.35700595 11.0828488,1.07101785 C8.72186678,2.49904164 7.26744186,5.13813845 7.26744186,7.99418605 Z" id="路径" fill="#FFFFFF"></path>
                    <path d="M20.3488372,28.4011628 L0,28.4011628 C0.774066054,25.1892898 2.63568968,22.3442154 5.26889535,20.3488372 C6.60801743,19.3234092 8.10537452,18.5231823 9.70203488,17.9796512 C13.0742979,16.8361111 16.7294812,16.8361111 20.1017442,17.9796512 C20.8511554,18.2336547 21.5800279,18.5446403 22.2819767,18.9098837 L21.0755814,18.9098837 C20.6742117,18.9098837 20.3488372,19.2352582 20.3488372,19.6366279 L20.3488372,28.4011628 L20.3488372,28.4011628 Z" id="路径" fill="#FFFFFF"></path>
                    <path d="M21.1090846,28.992316 C20.6248396,29.0334244 20.1932109,28.6881215 20.127019,28.2066635 C20.1039284,28.143059 20.0874732,28.0772383 20.0779158,28.0102504 L20.0779158,20.7724273 C20.0078948,20.2735639 20.3550145,19.8122022 20.8537475,19.7412585 L31.0377673,19.7412585 C31.5202382,19.6945612 31.9535936,20.036912 32.0198328,20.5170903 C32.0395036,20.6010661 32.0395036,20.6884516 32.0198328,20.7724273 L32.0198328,28.0102504 C32.0613997,28.491198 31.7215099,28.9214383 31.244001,28.992316 L21.1090846,28.992316 Z M23.0241124,26.340739 C23.010196,26.4398616 23.0366822,26.5404197 23.0976218,26.6198258 C23.1585614,26.6992319 23.2488453,26.750829 23.348194,26.7630272 C23.3834953,26.7731243 23.42092,26.7731243 23.4562212,26.7630272 L28.2487011,26.7630272 C28.4573587,26.7922407 28.6504308,26.6474366 28.68081,26.4389456 L28.68081,26.340739 C28.7100235,26.1320814 28.5652194,25.9390093 28.3567283,25.9086302 L23.4464006,25.9086302 C23.237743,25.8794166 23.0446709,26.0242207 23.0142918,26.2327118 L23.0241124,26.340739 Z M23.0241124,24.4551731 C23.010196,24.5542958 23.0366822,24.6548538 23.0976218,24.7342599 C23.1585614,24.8136661 23.2488453,24.8652631 23.348194,24.8774613 L28.2585218,24.8774613 C28.463907,24.9070589 28.6555074,24.7677132 28.6906306,24.5632004 L28.6906306,24.4551731 C28.7198441,24.2465155 28.5750401,24.0534434 28.366549,24.0230643 L23.4562212,24.0230643 C23.2475636,23.9938508 23.0544915,24.1386548 23.0241124,24.3471459 L23.0241124,24.4551731 L23.0241124,24.4551731 Z M23.0241124,22.5696073 C22.9948989,22.7782649 23.1397029,22.971337 23.348194,23.0017161 L28.2585218,23.0017161 C28.4671794,23.0309297 28.6602515,22.8861256 28.6906306,22.6776345 L28.6906306,22.5696073 C28.7198441,22.3609497 28.5750401,22.1678776 28.366549,22.1374985 L23.4562212,22.1374985 C23.2475636,22.1082849 23.0544915,22.253089 23.0241124,22.4615801 L23.0241124,22.5696073 L23.0241124,22.5696073 Z M31.0770499,18.8868615 L21.1090846,18.8868615 C20.5667048,18.8868615 20.127019,19.3265472 20.127019,19.868927 L20.127019,18.0324645 C20.1313182,17.4835825 20.5610649,17.0323485 21.1090846,17.0012956 L25.5578415,17.0012956 C25.8354524,16.9870305 26.1061045,17.0910825 26.302664,17.287642 C26.4992235,17.4842015 26.6032755,17.7548536 26.5890103,18.0324645 L26.5890103,18.1895949 L31.0377673,18.1895949 C31.605045,18.1949219 32.0636092,18.6534861 32.0689377,19.2207638 L32.0689377,19.9082097 C32.0692728,19.6390144 31.9590925,19.3814824 31.7641579,19.1958304 C31.5692233,19.0101783 31.306626,18.9126841 31.0377673,18.9261441 L31.0770499,18.8868615 Z" id="形状" fill="#F03D34"></path>
                </g>
            </g>
        </g>
    </g>
</svg>