<?xml version="1.0" encoding="UTF-8"?>
<svg width="56px" height="56px" viewBox="0 0 56 56" version="1.1" xmlns="http://www.w3.org/2000/svg" xmlns:xlink="http://www.w3.org/1999/xlink">
    <title>ios</title>
    <g id="页面-1" stroke="none" stroke-width="1" fill="none" fill-rule="evenodd">
        <g id="icon" transform="translate(-9.000000, -121.000000)" fill-rule="nonzero">
            <g id="ios" transform="translate(9.000000, 121.000000)">
                <path d="M45.5,0 L45.5,0 C51.2989873,0 56,4.7010127 56,10.5 L56,45.5 L56,45.5 C56,51.2989873 51.2989873,56 45.5,56 C45.5,56 45.5,56 45.5,56 L10.5,56 L10.5,56 C4.70101266,56 0,51.2989873 0,45.5 C0,45.5 0,45.5 0,45.5 L0,10.5 L0,10.5 C0,4.70101428 4.70100582,0 10.5,0 L45.5,0 L45.5,0 Z" id="路径" fill="#EDEDED"></path>
                <path d="M36.2288108,28.0322807 C36.1918436,24.5278031 39.3009174,22.8484284 39.439226,22.7637915 C37.691567,20.3850486 34.970012,20.060501 34.0005775,20.0216826 C31.6850249,19.8046811 29.4816489,21.2906 28.3057077,21.2906 C27.1329533,21.2906 25.3190081,20.0541373 23.3979855,20.0878648 C20.8727393,20.1215923 18.543802,21.4522374 17.2454864,23.5560694 C14.6220859,27.7904609 16.5737021,34.0625022 19.1301792,37.4963429 C20.3794176,39.1782631 21.8695805,41.0650937 23.825021,40.9982751 C25.7084391,40.9276382 26.4210148,39.8636312 28.6976881,39.8636312 C30.9749986,39.8636312 31.6142772,40.9976387 33.6079597,40.9632748 C35.6347853,40.9276382 36.9190788,39.2501726 38.1600314,37.5637979 C39.5941061,35.6146033 40.1849448,33.7265 40.22,33.6291357 C40.1753843,33.6100446 36.2670528,32.2183082 36.2288108,28.0322807 L36.2288108,28.0322807 Z M33.2688807,17.8414864 C34.3957447,16.5585689 35.156123,14.776739 34.9489789,13 C33.324969,13.062364 31.3567812,14.0156431 30.1929499,15.2966515 C29.1463941,16.432568 28.2324105,18.2468527 28.4777966,19.987955 C30.290467,20.1215923 32.1394673,19.1237675 33.2688807,17.8427591 L33.2688807,17.8414864 Z" id="形状" fill="#666666"></path>
            </g>
        </g>
    </g>
</svg>