<?xml version="1.0" encoding="UTF-8"?>
<svg width="56px" height="56px" viewBox="0 0 56 56" version="1.1" xmlns="http://www.w3.org/2000/svg" xmlns:xlink="http://www.w3.org/1999/xlink">
    <title>java</title>
    <g id="页面-1" stroke="none" stroke-width="1" fill="none" fill-rule="evenodd">
        <g id="icon" transform="translate(-62.000000, -369.000000)" fill-rule="nonzero">
            <g id="java" transform="translate(62.000000, 369.000000)">
                <path d="M45.5,0 L45.5,0 C51.2989873,0 56,4.7010127 56,10.5 L56,45.5 L56,45.5 C56,51.2989873 51.2989873,56 45.5,56 C45.5,56 45.5,56 45.5,56 L10.5,56 L10.5,56 C4.70101266,56 0,51.2989873 0,45.5 C0,45.5 0,45.5 0,45.5 L0,10.5 L0,10.5 C0,4.70101428 4.70100582,0 10.5,0 L45.5,0 L45.5,0 Z" id="路径" fill="#F2F7FF"></path>
                <g transform="translate(12.000000, 5.000000)">
                    <path d="M17.9670869,20.5653212 C20.1398759,22.9176483 17.3661027,25.1342642 17.3661027,25.1342642 C17.3661027,25.1342642 22.7749604,22.4200407 20.3247941,18.9820241 C18.0133165,15.81543 16.2103639,14.2321329 25.8723404,8.7132116 C25.8723404,8.75844866 10.7090471,12.5131246 17.9670869,20.5653212" id="路径" fill="#FF0000"></path>
                    <path d="M20.6254515,0 C20.6254515,0 25.1559707,4.47829514 16.3237464,11.3992967 C9.27627201,16.9632392 14.7220477,20.1297105 16.3237464,23.7937701 C12.1593297,20.0844752 9.18474637,16.8275333 11.1983105,13.7967679 C14.0813682,9.31847272 22.4559643,7.1471781 20.6254515,0" id="路径" fill="#FF0000"></path>
                    <path d="M25.2005608,32.9661214 C33.3526808,28.8247691 29.5726475,24.7724782 26.9767211,25.3513769 C26.2935825,25.4849689 26.0203271,25.5740303 26.0203271,25.5740303 C26.0203271,25.5740303 26.2480399,25.2177849 26.7490082,25.0841929 C31.9864037,23.3029661 35.9941499,30.3388119 25.0639331,33.1887747 C25.0183906,33.1887747 25.1550183,33.0551827 25.2005608,32.9661214 M10.1715128,34.6582868 C10.1715128,34.6582868 8.48643774,35.5934309 11.3556196,35.9496762 C14.7713124,36.3059216 16.5930152,36.3059216 20.3730484,35.5934309 C20.3730484,35.5934309 21.4205276,36.2613909 22.7412621,36.7512283 C14.2248015,40.2691512 3.47675507,36.5285749 10.1715128,34.6582868 M9.12403372,30.0270972 C9.12403372,30.0270972 7.21124579,31.4075479 10.1715128,31.674732 C13.860461,32.0309773 16.820728,32.1200387 21.7848681,31.0958333 C21.7848681,31.0958333 22.5135492,31.808324 23.6065709,32.1645693 C13.3139501,35.1481242 1.79167999,32.3872227 9.12403372,30.0270972" id="形状" fill="#6699FF"></path>
                    <path d="M29.4580627,38.3191063 C29.4580627,38.3191063 30.6903775,39.3604621 28.0431827,40.1301597 C23.0682821,41.6695551 7.50460235,42.1223185 3.16867983,40.2207124 C1.61687598,39.5415674 4.58355981,38.6360407 5.45074431,38.409659 C6.40921139,38.1832773 7.00254816,38.27383 7.00254816,38.27383 C5.26817915,37.0060926 -4.2252091,40.5829231 2.21021274,41.6242788 C19.5995441,44.3861352 33.9765504,40.3565414 29.4580627,38.3191063 M11.1559055,25.1436929 C11.1559055,25.1436929 3.21432112,27.0452989 8.32614556,27.6338913 C10.5169275,27.9055493 14.85285,27.860273 18.8236422,27.4980623 C22.109815,27.2264043 25.3959879,26.6378119 25.3959879,26.6378119 C25.3959879,26.6378119 24.2093144,27.1358516 23.3877712,27.724444 C15.3092629,29.8524317 -0.254416902,28.9016287 4.21842949,26.6830883 C8.1435804,24.9173112 11.1559055,25.1436929 11.1559055,25.1436929" id="形状" fill="#6699FF"></path>
                    <path d="M11.9442913,44.4386685 C19.7311579,44.9247587 31.6830926,44.1735283 32,40.5499463 C32,40.5499463 31.4114578,41.9198371 25.5260354,42.9803976 C18.8709808,44.1735283 10.6313894,44.0409582 5.78723404,43.2455378 C5.877779,43.2897278 6.87377356,44.1293383 11.9442913,44.4386685" id="路径" fill="#6699FF"></path>
                </g>
            </g>
        </g>
    </g>
</svg>