<?xml version="1.0" encoding="UTF-8"?>
<svg width="18px" height="18px" viewBox="0 0 18 18" version="1.1" xmlns="http://www.w3.org/2000/svg" xmlns:xlink="http://www.w3.org/1999/xlink">
    <title>参与实施单元总数</title>
    <g id="页面-1" stroke="none" stroke-width="1" fill="none" fill-rule="evenodd">
        <g id="场景图标" transform="translate(-868.000000, -976.000000)">
            <g id="参与实施单元总数" transform="translate(868.000000, 976.000000)">
                <circle id="椭圆形备份-3" fill-opacity="0.2" fill="#5B69C4" cx="9" cy="9" r="9"></circle>
                <path d="M12.9536406,4 C13.4921125,4 13.9369322,4.40888512 13.9938482,4.93255692 L14,5.04642207 L14,12.9537974 C14,13.4922693 13.5910876,13.937098 13.0674971,13.9940153 L12.9536511,14.0001672 L5.04643252,14.0001672 C4.50785336,14.0000697 4.06306297,13.5911781 4.00615127,13.0676333 L4,12.9537974 L4,5.04642207 C4,4.50785267 4.40888512,4.06306292 4.93256542,4.00615127 L5.04643252,4 L12.9536406,4 Z M11.3721844,6.13775165 L6.62785951,6.13775165 C6.28163006,6.13775165 6,6.41937699 6,6.76559439 L6,11.5099403 C6,11.8560636 6.28163006,12.1376889 6.62785951,12.1377516 L11.3721907,12.1377516 C11.7183511,12.1377516 12,11.8560949 12,11.5099403 L12,6.76559439 C12,6.41937699 11.7183449,6.13775165 11.3721844,6.13775165 Z M10.9277399,8.50211456 L10.9277399,10.261142 L8.52336603,10.261142 L8.52336603,8.50211456 L10.9277399,8.50211456 Z M7.93400597,8.50211456 L7.93400597,10.261142 L7,10.261142 L7,8.50211456 L7.93400597,8.50211456 Z M7.93400597,7.13775165 L7.93400597,7.91266397 L7,7.91266397 L7,7.13775165 L7.93400597,7.13775165 Z M10.9277487,7.13775165 L10.9277487,7.91266397 L8.52337482,7.91266397 L8.52337482,7.13775165 L10.9277487,7.13775165 Z" id="形状结合" fill="#4A66DB" fill-rule="nonzero"></path>
            </g>
        </g>
    </g>
</svg>