<?xml version="1.0" encoding="UTF-8"?>
<svg width="240px" height="115px" viewBox="0 0 240 115" version="1.1" xmlns="http://www.w3.org/2000/svg" xmlns:xlink="http://www.w3.org/1999/xlink">
    <title>编组</title>
    <defs>
        <linearGradient x1="16.4527186%" y1="-22.3281487%" x2="60.3053399%" y2="93.4205319%" id="linearGradient-1">
            <stop stop-color="#96C0EF" offset="0%"></stop>
            <stop stop-color="#FFFFFF" stop-opacity="0" offset="100%"></stop>
        </linearGradient>
        <linearGradient x1="71.0523704%" y1="-7.04064944%" x2="51.6117098%" y2="54.6809007%" id="linearGradient-2">
            <stop stop-color="#96C0EF" offset="0%"></stop>
            <stop stop-color="#FFFFFF" stop-opacity="0" offset="100%"></stop>
        </linearGradient>
        <linearGradient x1="49.99527%" y1="-57.3650491%" x2="49.99527%" y2="99.8624001%" id="linearGradient-3">
            <stop stop-color="#96C0EF" offset="0%"></stop>
            <stop stop-color="#FFFFFF" stop-opacity="0" offset="100%"></stop>
        </linearGradient>
        <linearGradient x1="56.8382498%" y1="1.84318154%" x2="44.4967359%" y2="103.85835%" id="linearGradient-4">
            <stop stop-color="#96C0EF" offset="0%"></stop>
            <stop stop-color="#FFFFFF" stop-opacity="0" offset="100%"></stop>
        </linearGradient>
        <linearGradient x1="-9.18380688%" y1="49.8132698%" x2="103.94319%" y2="42.1158427%" id="linearGradient-5">
            <stop stop-color="#EDEDED" offset="0%"></stop>
            <stop stop-color="#96C0EF" offset="100%"></stop>
        </linearGradient>
        <linearGradient x1="49.9963697%" y1="-1.12803302%" x2="49.9963697%" y2="80.5945474%" id="linearGradient-6">
            <stop stop-color="#F6FAFE" offset="0%"></stop>
            <stop stop-color="#BACEE3" offset="100%"></stop>
        </linearGradient>
        <linearGradient x1="70.067569%" y1="112.538721%" x2="38.9658696%" y2="7.44121916%" id="linearGradient-7">
            <stop stop-color="#E5F3FF" offset="0%"></stop>
            <stop stop-color="#DDE9F6" offset="100%"></stop>
        </linearGradient>
        <linearGradient x1="45.0884457%" y1="25.0682119%" x2="67.8519321%" y2="140.572827%" id="linearGradient-8">
            <stop stop-color="#E3EAF0" offset="0%"></stop>
            <stop stop-color="#96C0EF" offset="100%"></stop>
        </linearGradient>
        <linearGradient x1="50.000765%" y1="72.9303855%" x2="50.000765%" y2="-11.3538261%" id="linearGradient-9">
            <stop stop-color="#F8FCFF" offset="0%"></stop>
            <stop stop-color="#E3F2FD" offset="100%"></stop>
        </linearGradient>
        <linearGradient x1="50.0065971%" y1="24.178767%" x2="50.0065971%" y2="121.266899%" id="linearGradient-10">
            <stop stop-color="#F8FCFF" offset="0%"></stop>
            <stop stop-color="#E3F2FD" offset="100%"></stop>
        </linearGradient>
    </defs>
    <g id="规范" stroke="none" stroke-width="1" fill="none" fill-rule="evenodd">
        <g id="间距规范" transform="translate(-996.000000, -530.000000)" fill-rule="nonzero">
            <g id="编组" transform="translate(996.000000, 530.000000)">
                <text id="暂无数据" fill="#78909C" font-family="PingFangSC-Regular, PingFang SC" font-size="16" font-weight="normal" line-spacing="24">
                    <tspan x="88" y="108">暂无数据</tspan>
                </text>
                <g id="no_data">
                    <g id="编组-2备份-7" transform="translate(0.000000, 15.670424)">
                        <path d="M47.8709677,40.8736883 C42.7741935,38.5231248 37.2258065,32.2549553 38.7741935,26.3785464 C39.5483871,26.1826661 40.3870968,26.5091333 40.8387097,27.1620676 C40.8387097,27.1620676 49.6774194,41.134862 47.2258065,28.272056 C46.0645161,22.1997668 44.0645161,16.3886514 43.8709677,10.1204819 C43.6129032,-1.2405752 53.9354839,-4.37465993 56.9032258,8.16167897 C57.2903226,9.79401477 58.7741935,23.3097551 62.1935484,21.8080062 C62.6451613,21.5468325 62.9677419,21.2203653 63.2258065,20.7633113 C64.9677419,17.8904003 65.483871,13.6463272 68.6451613,12.7322192 C71.4193548,11.8181112 74.1935484,14.2992616 75.6774194,16.780412 C78.7096774,21.9385931 82.7741935,34.6708123 76.5806452,38.9801788 C70.2580645,43.2242518 54.5806452,43.9424796 47.8709677,40.8736883 L47.8709677,40.8736883 Z" id="路径" fill="url(#linearGradient-1)"></path>
                        <path d="M194.580645,35.5196269 C195.16129,35.8460941 195.483871,36.4990284 195.354839,37.2172561 C195.354839,37.2172561 193.096774,50.9288768 198.709677,41.5266226 C201.354839,37.0866693 203.354839,32.3202487 206.709677,28.3373494 C212.83871,21.0897785 220.967742,25.0073844 215.870968,34.474932 C215.225806,35.7155072 208.645161,44.9871745 211.612903,45.966576 C212,46.0971628 212.451613,46.0318694 212.83871,45.9012825 C215.483871,45.1177614 218.193548,42.7671978 220.709677,43.9424796 C222.903226,44.9871745 223.290323,48.0559658 222.774194,50.4718228 C221.806452,55.3688302 217.096774,60.8534784 210.83871,60.0046638 C204.451613,59.1558492 194.580645,55.3688302 192.129032,49.6883016 C190.258065,45.3136417 190.322581,38.3272445 194.580645,35.5196269 Z" id="路径_1_" fill="url(#linearGradient-2)"></path>
                        <path d="M239.612903,66.8604742 C209.548387,46.0318694 167.16129,32.9731831 120.064516,32.9731831 C72.9677419,32.9731831 30.6451613,45.966576 0.580645161,66.8604742 L239.612903,66.8604742 Z" id="路径_2_" fill="url(#linearGradient-3)"></path>
                        <path d="M189.935484,3.98289934 C188,6.39875632 186.83871,9.8593082 187.935484,12.8628061 C188.709677,14.9521959 191.096774,15.0174893 190.903226,17.9556937 C190.709677,19.3921492 190.258065,20.8286047 189.483871,22.0691799 C188.129032,24.4197435 186.516129,26.6397202 184.580645,28.5985231 C186.193548,29.8390983 186.967742,31.8631947 186.709677,33.8872911 C186.387097,35.9113875 185.483871,37.7396036 184,39.1760591 C183.548387,39.6984065 183.032258,40.0901671 182.387097,40.3513408 C181.806452,40.4819277 181.16129,40.4819277 180.580645,40.3513408 C177.612903,39.8289934 174.709677,38.9148853 172.064516,37.6090167 C170.387097,36.8254955 168.645161,35.6502138 168.064516,33.8872911 C167.419355,31.8631947 168.451613,31.2102604 169.612903,30.5573261 L169.935484,30.3614458 C170.516129,30.0349786 171.096774,29.643218 171.419355,29.1208706 C172.258065,27.7497085 172.258065,25.856199 172.580645,24.3544501 C173.032258,22.0691799 172.387097,17.8904003 175.16129,17.0415857 C176.258065,16.7151185 177.419355,16.780412 178.516129,16.3886514 C180.903226,15.6051302 181.870968,13.3851535 182.83871,11.0998834 L183.032258,10.7081228 C183.548387,9.40225418 184.129032,8.09638554 184.967742,7.11698407 C186.129032,5.61523513 189.096774,4.96230082 189.935484,3.98289934 Z M183.032258,17.4986397 C183.032258,17.4986397 174.451613,27.6191216 174.709677,36.9560824 L177.483871,36.9560824 C177.483871,36.9560824 178.516129,25.6603187 183.032258,17.4986397 Z" id="形状结合" fill="url(#linearGradient-4)"></path>
                    </g>
                    <g id="编组-21" transform="translate(67.741935, 0.000000)">
                        <polygon id="路径_3_" fill="url(#linearGradient-5)" points="47.2903226 0.391760591 46.9677419 20.6327244 92.7741935 6.59463661"></polygon>
                        <polygon id="路径_6_" fill="url(#linearGradient-6)" points="10.7741935 8.55343956 47.2903226 0.457054023 47.2903226 12.7975126"></polygon>
                        <polygon id="路径_7_" fill="url(#linearGradient-7)" points="10.7741935 8.55343956 53.8709677 12.8628061 53.8709677 68.0357559 10.7741935 57.45822"></polygon>
                        <polygon id="路径_8_" fill="url(#linearGradient-8)" points="53.8709677 12.8628061 92.7741935 6.59463661 92.7741935 56.0217645 53.8709677 68.0357559"></polygon>
                        <polygon id="路径_9_" fill="url(#linearGradient-9)" points="10.7741935 8.55343956 0.451612903 26.2479596 43.9354839 34.6708123 53.8709677 12.8628061"></polygon>
                        <polygon id="路径_10_" fill="url(#linearGradient-10)" points="53.8709677 12.8628061 66.0645161 34.6708123 105.290323 24.7462106 92.7741935 6.59463661"></polygon>
                    </g>
                </g>
            </g>
        </g>
    </g>
</svg>