<?xml version="1.0" encoding="UTF-8"?>
<svg width="100px" height="66px" viewBox="0 0 100 66" version="1.1" xmlns="http://www.w3.org/2000/svg" xmlns:xlink="http://www.w3.org/1999/xlink">
    <title>无数据</title>
    <g id="敏捷" stroke="none" stroke-width="1" fill="none" fill-rule="evenodd">
        <g id="迭代-无数据" transform="translate(-908.000000, -420.000000)" fill="#B0BEC5" fill-rule="nonzero">
            <g id="无数据" transform="translate(908.000000, 420.000000)">
                <path d="M9.99759272,44.9967989 L11.3439352,44.9967989 C11.7068203,45.0041134 11.9971838,45.3026645 11.9971112,45.6683929 C11.9971112,46.0391128 11.7105136,46.3399869 11.3439352,46.3399869 L9.99759272,46.3399869 L9.99759272,47.6966068 C9.99033358,48.062262 9.69404422,48.3548565 9.33108653,48.3547689 C9.15576742,48.3576432 8.98660647,48.2896583 8.86137473,48.1659944 C8.73614299,48.0423304 8.6652699,47.8732862 8.66458034,47.6966068 L8.66458034,46.3399869 L7.31823784,46.3399869 C6.95535275,46.3326724 6.66498918,46.0341213 6.66506176,45.6683929 C6.66506176,45.297673 6.95165941,44.9967989 7.31823784,44.9967989 L8.66458034,44.9967989 L8.66458034,43.640179 C8.67183949,43.2745237 8.96812885,42.9819437 9.33108653,42.9820168 C9.69899796,42.9820168 9.99759272,43.2708022 9.99759272,43.640179 L9.99759272,44.9967989 L9.99759272,44.9967989 Z M97.9764084,39.6240468 L97.9764084,38.2674269 C97.9757189,38.0907474 97.9048458,37.9217033 97.779614,37.7980393 C97.6543823,37.6743754 97.4852214,37.6063905 97.3099022,37.6092647 C96.9469445,37.6091772 96.6506552,37.9017717 96.643396,38.2674269 L96.643396,39.6240468 L95.2970536,39.6240468 C95.1217126,39.6247416 94.9539491,39.6961557 94.831222,39.8223434 C94.7084949,39.9485311 94.6410251,40.1189833 94.6438775,40.2956408 C94.6438775,40.6556151 94.9371403,40.9672348 95.2970536,40.9672348 L96.643396,40.9672348 L96.643396,42.3238547 C96.643396,42.6932315 96.9419908,42.9820168 97.3099022,42.9820168 C97.6728599,42.98209 97.9691492,42.6895099 97.9764084,42.3238547 L97.9764084,40.9672348 L99.3227509,40.9672348 C99.6893294,40.9672348 99.9759269,40.6663607 99.9759269,40.2956408 C99.9759995,39.9299124 99.685636,39.6313613 99.3227509,39.6240468 L97.9764084,39.6240468 Z M49.5507354,61.7866492 L15.9921493,61.7866492 C15.6388698,61.7870095 15.3000154,61.6454819 15.0505845,61.3933907 C14.8011536,61.1412995 14.6617169,60.7994347 14.6631252,60.4434612 C14.6631252,59.7020214 15.2669906,59.1002731 15.9921493,59.1002732 L22.0373603,59.1002732 C21.5707984,58.2856115 21.3261536,57.3611902 21.3281978,56.4206131 L21.3281978,17.4547284 C21.3289033,16.0296896 21.8918428,14.6633978 22.8929883,13.6568775 C23.8941338,12.6503572 25.2513382,12.0861964 26.6655793,12.0886922 L30.6592842,12.0886922 L30.6592842,10.7387883 C30.6599897,9.31374952 31.2229293,7.9474577 32.2240748,6.94093739 C33.2252202,5.93441709 34.5824247,5.37025626 35.9966657,5.37273849 L67.9782983,5.37273849 C69.3927555,5.36954128 70.750372,5.93347211 71.7516716,6.94014732 C72.7529711,7.94682253 73.3156834,9.31353003 73.3156798,10.7387883 L73.3156798,49.7046729 C73.3156798,50.6811706 73.0570754,51.5958817 72.6051842,52.384333 L79.9794086,52.384333 C80.7165644,52.384333 81.3137539,52.9807085 81.3137539,53.7275211 C81.3137539,54.4689609 80.7205634,55.0707091 79.9807415,55.0707091 L63.9845932,55.0707091 L63.9845932,56.4206131 C63.9845932,57.3971108 63.7259888,58.3118218 63.2740976,59.1002732 L63.9885923,59.1002732 C64.7217491,59.1002732 65.3176056,59.6966487 65.3176056,60.4434612 C65.3176056,61.184901 64.713751,61.7866492 63.9885923,61.7866492 L56.9756143,61.7866492 C57.584801,62.8155313 57.4528327,64.164092 56.5663795,65.057312 C56.0672971,65.562581 55.3889789,65.8466388 54.6815,65.8466388 C53.9740211,65.8466388 53.2957029,65.562581 52.7966205,65.057312 L49.5507354,61.7866492 Z M54.4242286,59.1002732 L58.6632079,59.1002732 C60.1295215,59.1002732 61.3185685,57.9048359 61.3185685,56.4071812 L61.3185685,17.3915986 C61.3185685,15.9409555 60.1668459,14.7750683 58.7458547,14.7750683 L26.5669363,14.7750683 C25.1459451,14.7750683 23.9942225,15.9463282 23.9942225,17.3915986 L23.9942225,56.4071812 C23.9942225,57.8940903 25.1939336,59.1002732 26.6482501,59.1002732 L46.8833777,59.1002732 L46.1982093,58.4085313 C45.5220429,57.7308008 45.2575892,56.7402408 45.5050429,55.8121489 L44.2466793,54.5428362 C40.3259563,57.4836853 34.8176448,56.8786838 31.6177861,53.1557507 C28.4179274,49.4328175 28.6103475,43.8529495 32.0589472,40.3628002 C35.5180178,36.8648734 41.073098,36.6592504 44.7775466,39.8920175 C48.4819953,43.1247846 49.0733847,48.6942569 46.1315587,52.6435683 L47.3912554,53.912881 C48.312077,53.6623296 49.295528,53.9283965 49.9679683,54.6099956 L54.4242286,59.1002732 L54.4242286,59.1002732 Z M63.9845932,52.384333 L67.9956274,52.384333 C69.4630401,52.3769437 70.64894,51.1765896 70.6496551,49.697957 L70.6496551,10.7455042 C70.6496551,9.25725188 69.460608,8.05912816 67.9956274,8.05912816 L35.9780036,8.05912816 C34.511112,8.06725356 33.3260199,9.26739277 33.325309,10.7455042 L33.325309,12.0886922 L58.6472117,12.0886922 C60.061669,12.0854814 61.4192855,12.6494122 62.420585,13.6560874 C63.4218846,14.6627626 63.9845968,16.0294701 63.9845932,17.4547284 L63.9845932,52.384333 L63.9845932,52.384333 Z M16.9959076,3.02217304 L18.982096,3.02217304 C19.5419612,3.02217304 19.9951854,3.46945465 19.9951854,4.02956408 C19.9951854,4.58564394 19.5419612,5.03695511 18.982096,5.03695511 L16.9959076,5.03695511 L16.9959076,7.03830524 C16.9959076,7.60244424 16.5520145,8.05912816 15.9961483,8.05912816 C15.7292261,8.05735287 15.473937,7.94880341 15.2864445,7.75736069 C15.098952,7.56591797 14.9946155,7.30726491 14.996389,7.03830524 L14.996389,5.03695511 L13.0102006,5.03695511 C12.7430661,5.03945959 12.485961,4.9345593 12.2958133,4.74548117 C12.1056657,4.55640304 11.998164,4.29874739 11.9971112,4.02956408 C11.9971112,3.47348422 12.4503354,3.02217304 13.0102006,3.02217304 L14.996389,3.02217304 L14.996389,1.02082291 C14.996389,0.456683913 15.4402821,0 15.9961483,0 C16.5480154,0 16.9959076,0.456683913 16.9959076,1.02082291 L16.9959076,3.02217304 Z M1.33300166,60.4434612 C1.33300166,59.7020214 1.93686701,59.1002732 2.66202565,59.1002732 L10.6680979,59.1002732 C11.4012547,59.1002732 11.9971112,59.6966487 11.9971112,60.4434612 C11.9971112,61.184901 11.3932566,61.7866499 10.6680979,61.7866499 L2.66202565,61.7866499 C2.30874621,61.7870095 1.96989178,61.6454819 1.72046092,61.3933907 C1.47103007,61.1412995 1.33159339,60.7994347 1.33300166,60.4434612 L1.33300166,60.4434612 Z M43.3708901,51.7610938 C45.0548728,50.0642563 45.712543,47.5910617 45.0961625,45.2731385 C44.4797821,42.9552154 42.6829939,41.1447113 40.3826308,40.5236256 C38.0822677,39.90254 35.6278094,40.5652305 33.9438267,42.2620681 C31.3406151,44.8851516 31.3406152,49.1380102 33.9438268,51.7610937 C36.5470384,54.3841772 40.7676784,54.3841772 43.3708901,51.7610938 L43.3708901,51.7610938 Z M29.3262659,20.1478204 C29.3262659,19.4065224 29.9222695,18.8053737 30.6579512,18.8046323 L45.3224202,18.8046323 C46.0586226,18.8046323 46.6554326,19.4059981 46.6554326,20.1478204 C46.6554326,20.8896427 46.0586226,21.4910145 45.3224202,21.4910145 L30.6592842,21.4910145 C30.3054215,21.492083 29.9657447,21.350914 29.7155249,21.0987841 C29.465305,20.8466541 29.3252055,20.5043843 29.3262659,20.1478204 Z M29.3262477,26.8637605 C29.3262477,26.1223207 29.9194624,25.5205725 30.6499532,25.5205725 L51.9968131,25.5205725 C52.7273038,25.5205725 53.3204944,26.116948 53.3204944,26.8637605 C53.3204944,27.6052003 52.7273039,28.2069485 51.9968131,28.2069485 L30.6499532,28.2069485 C30.2973785,28.2065976 29.9594814,28.0646693 29.7110505,27.8125773 C29.4626196,27.5604853 29.3241435,27.2190203 29.3262477,26.8637605 L29.3262477,26.8637605 Z M29.3262612,33.5797007 C29.3262612,32.8382609 29.9207954,32.2365126 30.6566183,32.2365126 L39.9930368,32.2365126 C40.7275266,32.2365126 41.3233832,32.8328881 41.3233832,33.5797007 C41.3233832,34.3211405 40.7288597,34.9228914 39.9930368,34.9228914 L30.6566183,34.9228914 C30.303108,34.9236068 29.9639102,34.7822372 29.7141905,34.530107 C29.4644708,34.2779768 29.3248515,33.9359073 29.3262612,33.5797007 Z M3.99903708,25.5205725 C2.57031871,25.5205725 1.25012848,24.752542 0.535769278,23.5057905 C-0.178589918,22.259039 -0.178589918,20.7229778 0.535769278,19.4762264 C1.25012848,18.2294749 2.57031871,17.4614444 3.99903708,17.4614444 C6.20764422,17.4614444 7.99807404,19.2655417 7.99807404,21.4910084 C7.99807404,23.7164752 6.20764422,25.5205725 3.99903708,25.5205725 L3.99903708,25.5205725 Z M3.99903708,23.5057905 C4.71348133,23.5059191 5.37370965,23.1219319 5.73096863,22.4985033 C6.08822761,21.8750748 6.08822761,21.106942 5.73096863,20.4835135 C5.37370965,19.8600849 4.71348133,19.4760978 3.99903708,19.4762263 C2.89487298,19.4764251 1.99987572,20.3784156 1.99987572,21.4910084 C1.99987572,22.6036013 2.89487298,23.5055917 3.99903708,23.5057905 L3.99903708,23.5057905 Z M86.6458034,17.4614444 C84.4371962,17.4614444 82.6467663,15.6573471 82.6467663,13.4318803 C82.6467663,11.2064135 84.4371962,9.4023162 86.6458034,9.4023162 C88.8544106,9.4023162 90.6448405,11.2064135 90.6448405,13.4318803 C90.6448405,15.6573471 88.8544106,17.4614444 86.6458034,17.4614444 L86.6458034,17.4614444 Z M86.6458034,15.4466623 C87.3602476,15.4467909 88.020476,15.0628037 88.3777349,14.4393752 C88.7349939,13.8159466 88.7349939,13.0478139 88.3777349,12.4243853 C88.020476,11.8009568 87.3602476,11.4169696 86.6458034,11.4170982 C85.5416393,11.417297 84.646642,12.3192874 84.646642,13.4318802 C84.646642,14.5444731 85.5416393,15.4464635 86.6458034,15.4466623 L86.6458034,15.4466623 Z" id="形状"></path>
            </g>
        </g>
    </g>
</svg>