<?xml version="1.0" encoding="UTF-8"?>
<svg width="44px" height="44px" viewBox="0 0 44 44" version="1.1" xmlns="http://www.w3.org/2000/svg" xmlns:xlink="http://www.w3.org/1999/xlink">
    <title>通过</title>
    <g id="页面-1" stroke="none" stroke-width="1" fill="none" fill-rule="evenodd">
        <g id="画板" transform="translate(-130.000000, -121.000000)" fill="#4DBB59" fill-rule="nonzero">
            <g id="不通过" transform="translate(130.000000, 121.000000)">
                <path d="M0,22.0000256 L0,22.0000289 C0,34.1503165 9.84973802,44.0000545 22.0000256,44.0000545 C34.1503132,44.0000545 44.0000512,34.1503165 44.0000512,22.0000289 L44.0000512,22.0000289 C44.0000512,9.84974135 34.1503132,3.32190933e-06 22.0000256,3.32190933e-06 C9.84973802,3.32190933e-06 0,9.84974135 0,22.0000289 L0,22.0000256 Z" id="路径" opacity="0.147786458"></path>
                <path d="M27.1333788,22.4889246 C29.6984357,22.4889246 31.7778334,24.5683137 31.7778334,27.1333792 C31.7778334,29.6271845 29.8123615,31.661937 27.3459759,31.7730546 L27.133379,31.7778339 C24.5683221,31.7778339 22.4889244,29.6984447 22.4889244,27.1333792 C22.4889244,24.6395739 24.4543964,22.6048214 26.920782,22.4937039 L27.1333788,22.4889246 Z M26.4853308,29.6198772 C26.7212355,29.6060124 26.9531642,29.5089591 27.1334062,29.3287171 L27.1334062,29.3287171 L29.8583514,26.603772 C30.2488756,26.2132477 30.2488756,25.5800827 29.8583514,25.1895584 C29.4678271,24.7990341 28.8346621,24.7990341 28.4441378,25.1895584 L28.4441378,25.1895584 L26.3869244,27.2469246 L25.8226201,26.682317 C25.4621361,26.321833 24.894905,26.2941035 24.5026138,26.5991284 L24.4084065,26.682317 C24.0178822,27.0728413 24.0178822,27.7060062 24.4084065,28.0965305 L24.4084065,28.0965305 L25.6405931,29.3287171 C25.820835,29.5089591 26.0527638,29.6060124 26.2886684,29.6198772 Z" id="形状"></path>
                <path d="M31.7778383,22.0978226 C29.1045858,19.4245746 24.7710835,19.4245746 22.0978226,22.0978226 C19.4245746,24.7710706 19.4245746,29.1045729 22.0978226,31.7778339 L14.1778134,31.7778339 L14.1778135,31.7778339 C13.0977884,31.7778339 12.2222561,30.9023016 12.2222561,29.8222765 C12.2222561,29.8222765 12.2222561,29.8222764 12.2222561,29.8222764 L12.2222561,14.177809 L12.2222561,14.1778092 C12.2222561,13.0977842 13.0977884,12.2222519 14.1778135,12.2222519 C14.1778135,12.2222519 14.1778135,12.2222519 14.1778136,12.2222519 L29.822281,12.2222519 L29.8222809,12.2222519 C30.902306,12.2222519 31.7778383,13.0977842 31.7778383,14.1778092 C31.7778383,14.1778093 31.7778383,14.1778093 31.7778383,14.1778093 L31.7778383,22.0978185 L31.7778383,22.0978226 Z M17.1111644,16.1333664 L17.1111645,16.1333664 C16.5711541,16.1334796 16.1335899,16.5713388 16.1335899,17.1113492 C16.1335899,17.6512006 16.5713131,18.0888121 17.1111645,18.0889238 L26.8889727,18.0889238 L26.8889727,18.0889238 C27.4289831,18.0888106 27.8665473,17.6509514 27.8665473,17.110941 C27.8665473,16.5710896 27.4288241,16.1334781 26.8889727,16.1333664 L17.1111645,16.1333664 L17.1111644,16.1333664 Z M17.1111644,20.0444811 L17.1111645,20.0444811 C16.5711541,20.0445943 16.1334782,20.4824535 16.1335899,21.0224639 C16.133703,21.5623153 16.5713131,21.9999268 17.1111645,22.0000385 L19.0667218,22.0000385 L19.0667218,22.0000385 C19.6067322,21.9999253 20.0444081,21.5620661 20.0442964,21.0220557 C20.0441832,20.4822043 19.6065732,20.0445929 19.0667218,20.0444811 L17.1111645,20.0444811 L17.1111644,20.0444811 Z" id="形状"></path>
            </g>
        </g>
    </g>
</svg>