<?xml version="1.0" encoding="UTF-8"?>
<svg width="32px" height="32px" viewBox="0 0 32 32" version="1.1" xmlns="http://www.w3.org/2000/svg" xmlns:xlink="http://www.w3.org/1999/xlink">
    <title>icon_32_Change the object</title>
    <g id="图标" stroke="none" stroke-width="1" fill="none" fill-rule="evenodd">
        <g id="场景图标" transform="translate(-357.000000, -1106.000000)">
            <g id="icon_32_Change-the-object" transform="translate(357.000000, 1106.000000)">
                <circle id="椭圆形" fill="#E2F2FE" cx="16" cy="16" r="16"></circle>
                <g id="变更-(1)" transform="translate(6.000000, 6.000000)" fill="#3BA3F8" fill-rule="nonzero">
                    <path d="M12.7704687,16.0875 L6.88671875,16.0875 C6.60588237,16.1073623 6.33744941,15.968796 6.19098148,15.7283574 C6.04451354,15.4879188 6.04451354,15.1858312 6.19098148,14.9453926 C6.33744941,14.704954 6.60588237,14.5663877 6.88671875,14.58625 L12.7704687,14.58625 C13.0513051,14.5663877 13.3197381,14.704954 13.466206,14.9453926 C13.612674,15.1858312 13.612674,15.4879188 13.466206,15.7283574 C13.3197381,15.968796 13.0513051,16.1073623 12.7704687,16.0875 L12.7704687,16.0875 Z" id="路径"></path>
                    <path d="M12.5442187,15.8625 C12.3443822,15.862382 12.1527994,15.7827807 12.0117187,15.64125 L10.6529687,14.28875 C10.5117529,14.1480236 10.4323773,13.9568636 10.4323773,13.7575 C10.4323773,13.5581364 10.5117529,13.3669764 10.6529687,13.22625 C10.9483549,12.9329302 11.4250826,12.9329302 11.7204687,13.22625 L13.0779687,14.57875 C13.2953916,14.7933518 13.360923,15.1183826 13.2436398,15.4004665 C13.1263567,15.6825503 12.8496999,15.8653082 12.5442187,15.8625 L12.5442187,15.8625 Z" id="路径"></path>
                    <path d="M11.1854688,17.66625 C10.8814098,17.6660705 10.6073369,17.4829231 10.4908379,17.2020675 C10.3743389,16.921212 10.4383091,16.5978442 10.6529688,16.3825 L12.0117188,15.03 C12.306958,14.7375068 12.7827295,14.7375068 13.0779688,15.03 C13.2191846,15.1707264 13.2985602,15.3618864 13.2985602,15.56125 C13.2985602,15.7606136 13.2191846,15.9517736 13.0779688,16.0925 L11.7204688,17.44625 C11.5779549,17.5870085 11.3857763,17.6660352 11.1854688,17.66625 L11.1854688,17.66625 Z" id="路径"></path>
                    <path d="M14.5817187,19.9212518 L4.16921875,19.9212518 C1.88271738,19.9233284 0.0261110894,18.0739919 0.01921875,15.7875 L0.01921875,14.435 C0.0254230828,12.1480195 1.88223081,10.2979232 4.16921875,10.2999983 L14.5817187,10.2999983 C16.8692187,10.2999983 18.7317187,12.155 18.7317187,14.435 L18.7317187,15.7875 C18.723454,18.0734192 16.8676528,19.9219537 14.5817187,19.9212518 L14.5817187,19.9212518 Z M4.16921875,11.8049997 C2.71500379,11.8043049 1.53460379,12.9807908 1.53046875,14.435 L1.53046875,15.7875 C1.53460379,17.2417092 2.71500379,18.4181951 4.16921875,18.4175003 L14.5817187,18.4175003 C16.0359337,18.4181951 17.2163337,17.2417092 17.2204687,15.7875 L17.2204687,14.435 C17.2163337,12.9807908 16.0359337,11.8043049 14.5817187,11.8049997 L4.16921875,11.8049997 L4.16921875,11.8049997 Z M9.41296875,8.72375075 C7.00046875,8.72375075 5.03671875,6.76875 5.03671875,4.365 C5.04361077,1.95404185 7.00075115,0.00361166548 9.41171875,0.00499925929 C11.8254687,0.00499925929 13.7892187,1.96 13.7892187,4.365 C13.7802644,6.77587324 11.8226082,8.72514428 9.41171875,8.72375075 L9.41296875,8.72375075 Z M9.41296875,1.50874887 C7.83359592,1.50805355 6.55154216,2.78563438 6.54671875,4.365 C6.55222954,5.9438771 7.83408219,7.22069849 9.41296875,7.22000029 C10.9918553,7.22069849 12.273708,5.9438771 12.2792187,4.365 C12.2743943,2.78514614 10.9915794,1.50736405 9.41171875,1.50874887 L9.41296875,1.50874887 Z" id="形状"></path>
                </g>
            </g>
        </g>
    </g>
</svg>