<?xml version="1.0" encoding="UTF-8"?>
<svg width="32px" height="32px" viewBox="0 0 32 32" version="1.1" xmlns="http://www.w3.org/2000/svg" xmlns:xlink="http://www.w3.org/1999/xlink">
    <title> icon_32_performer</title>
    <g id="icon" stroke="none" stroke-width="1" fill="none" fill-rule="evenodd">
        <g transform="translate(-644.000000, -1196.000000)" fill-rule="nonzero" id="-icon_32_performer">
            <g transform="translate(644.000000, 1196.000000)">
                <path d="M29.3338182,24.6661818 C29.6,24.1338182 29.8661818,23.7338182 30.1338182,23.2 C30.2661818,23.0661818 30.2661818,22.9338182 30.2661818,22.8 C30.4,22.4 30.6661818,22 30.8,21.6 C30.9338182,21.4661818 30.9338182,21.3338182 30.9338182,21.0661818 C31.0661818,20.6661818 31.2,20.2661818 31.3338182,20 C31.3338182,19.8661818 31.4661818,19.6 31.4661818,19.4661818 C31.6,19.0661818 31.6,18.6661818 31.7338182,18.2661818 C31.7338182,18.1338182 31.8661818,17.8661818 31.8661818,17.7338182 C32,17.2 32,16.5338182 32,16 C32,7.2 24.8,0 16,0 C7.2,0 0,7.2 0,16 C0,16.5338182 0,17.2 0.133818187,17.7338182 C0.133818187,17.8661818 0.133818187,18.1338182 0.266181813,18.2661818 C0.266181813,18.6661818 0.4,19.0661818 0.4,19.4661818 C0.4,19.6 0.533818187,19.8661818 0.533818187,20 C0.666181812,20.4 0.8,20.8 0.933818188,21.0661818 C0.933818188,21.2 1.06618181,21.3338182 1.06618181,21.6 C1.2,22 1.33381819,22.4 1.6,22.8 C1.6,22.9338182 1.73381819,23.0661818 1.73381819,23.2 C2,23.7338182 2.26618181,24.1338182 2.53381819,24.6661818 C5.43089682,29.2303939 10.4601587,31.996872 15.8661818,32 C21.4661818,32 26.4,29.0661818 29.3338182,24.6661818 C29.2,24.6661818 29.2,24.6661818 29.3338182,24.6661818 L29.3338182,24.6661818 Z" id="路径" fill="#E3F2FD"></path>
                <path d="M15.8661818,7.6 C19.0661818,7.6 21.7338182,10.2661818 21.7338182,13.4661818 C21.7338182,16.6661818 19.0661818,19.3338182 15.8661818,19.3338182 C12.6661818,19.3338182 10,16.6661818 10,13.4661818 C10,10.2661818 12.6661818,7.6 15.8661818,7.6 Z" id="路径" fill="#42A5F5"></path>
                <path d="M6.13381819,26 C7.86618181,22.1338182 11.6,19.6 15.8661818,19.6 C20.1338182,19.6 23.8661818,22.1338182 25.6,26 C23.0661818,28.4 19.6,30 15.8661818,30 C12.1338182,29.8661818 8.66618181,28.4 6.13381819,26 Z" id="路径" fill="#42A5F5"></path>
            </g>
        </g>
    </g>
</svg>