<?xml version="1.0" encoding="UTF-8"?>
<svg width="32px" height="32px" viewBox="0 0 32 32" version="1.1" xmlns="http://www.w3.org/2000/svg" xmlns:xlink="http://www.w3.org/1999/xlink">
    <title>icon_32_state2</title>
    <g id="icon" stroke="none" stroke-width="1" fill="none" fill-rule="evenodd">
        <g transform="translate(-122.000000, -1196.000000)" id="icon_32_state">
            <g transform="translate(122.000000, 1196.000000)">
                <circle id="椭圆形" fill="#E2F2FE" cx="16" cy="16" r="16"></circle>
                <g id="任务状态" transform="translate(5.787879, 6.787879)" fill="#3BA3F8" fill-rule="nonzero">
                    <path d="M19.3440889,0.161225121 C19.3440889,0.00562235521 19.3440889,0.00562235521 19.3440889,0.161225121 L19.3440889,0.00562235521 L0.317532242,9.18618538 C0.162844786,9.34178815 0.00815735294,9.49739091 0.00815735294,9.80859645 C0.00815735294,10.119802 0.162844808,10.2754047 0.317532242,10.4310075 L5.19018701,12.9206517 C5.49956192,13.0762545 5.96362426,12.9206517 6.11831174,12.6094462 C6.2729992,12.2982407 6.11831174,11.753631 5.80893683,11.5980282 L2.09643797,9.80859645 L15.940965,2.41746519 L7.43315508,12.9984531 C7.27846762,13.1540559 7.27846762,13.3096586 7.27846762,13.4652614 L7.27846762,18.7557553 C7.27846762,19.0669609 7.58784254,19.3781664 7.89721745,19.3781664 C8.20659236,19.3781664 8.51596727,19.0669608 8.51596725,18.7557553 L8.51596725,13.7764669 L17.7198707,2.49526659 L15.6315901,16.655118 L10.7589353,14.1654738 C10.4495604,14.0098711 9.98549806,14.1654738 9.83081061,14.4766793 C9.67612315,14.7878849 9.83081061,15.3324945 10.1401855,15.4880973 L15.7862775,18.288947 C15.940965,18.4445498 16.2503399,18.4445498 16.4050273,18.288947 C16.5597148,18.1333443 16.7144023,17.9777415 16.7144023,17.8221387 L19.3440889,0.161225121 C19.3440889,0.316827887 19.3440889,0.316827887 19.3440889,0.161225121 C19.3440889,0.316827887 19.3440889,0.316827887 19.3440889,0.161225121 L19.3440889,0.161225121 Z" id="路径"></path>
                </g>
            </g>
        </g>
    </g>
</svg>