<?xml version="1.0" encoding="UTF-8"?>
<svg width="106px" height="24px" viewBox="0 0 106 24" version="1.1" xmlns="http://www.w3.org/2000/svg" xmlns:xlink="http://www.w3.org/1999/xlink">
    <title>priority_higher</title>
    <defs>
        <linearGradient x1="6.33818599%" y1="100%" x2="50%" y2="100%" id="linearGradient-1">
            <stop stop-color="#E50000" offset="0%"></stop>
            <stop stop-color="#FF2946" offset="100%"></stop>
        </linearGradient>
    </defs>
    <g id="页面-1" stroke="none" stroke-width="1" fill="none" fill-rule="evenodd">
        <g id="icon" transform="translate(-77.000000, -137.000000)" fill-rule="nonzero">
            <g id="priority_higher" transform="translate(77.000000, 137.000000)">
                <rect id="矩形" fill="url(#linearGradient-1)" x="0" y="0" width="106" height="24" rx="12"></rect>
                <rect id="矩形" fill-opacity="0.2" fill="#FFFFFF" x="64" y="2" width="40" height="20" rx="10"></rect>
                <path d="M24.94,17.2 L24.94,9.064 C25.372,8.284 25.744,7.456 26.032,6.592 L25.252,6.232 C24.664,8.08 23.728,9.724 22.432,11.164 L22.684,12.028 C23.188,11.512 23.656,10.96 24.076,10.384 L24.076,17.2 L24.94,17.2 Z M26.056,17.164 C27.784,15.568 28.792,13.168 29.056,9.964 L29.812,9.964 L29.812,16.012 C29.812,16.672 30.124,17.008 30.76,17.008 L32.248,17.008 C32.56,16.996 32.812,16.876 32.98,16.66 C33.148,16.396 33.28,15.616 33.364,14.344 L32.584,14.092 C32.548,15.196 32.476,15.832 32.368,16.012 C32.272,16.144 32.164,16.216 32.032,16.216 L30.988,16.216 C30.748,16.216 30.64,16.096 30.64,15.856 L30.64,9.964 L33.136,9.964 L33.136,9.124 L29.104,9.124 C29.116,8.884 29.128,8.644 29.128,8.404 L29.128,6.232 L28.3,6.232 L28.3,8.404 C28.3,8.644 28.288,8.884 28.276,9.124 L25.804,9.124 L25.804,9.964 L28.228,9.964 C27.964,12.94 27.028,15.148 25.42,16.612 L26.056,17.164 Z M31.996,8.608 L32.584,8.02 C32.08,7.492 31.444,6.964 30.7,6.448 L30.136,6.988 C30.928,7.552 31.54,8.092 31.996,8.608 Z M35.2,17.2 C36.52,16.624 37.468,15.928 38.032,15.112 C38.512,14.416 38.812,13.372 38.932,11.956 L41.164,11.956 L41.164,15.628 C41.164,16.552 41.572,17.02 42.388,17.02 L44.02,17.02 C44.404,17.008 44.692,16.888 44.908,16.672 C45.124,16.396 45.292,15.592 45.388,14.272 L44.56,14.008 C44.512,15.136 44.416,15.796 44.26,15.988 C44.14,16.12 43.984,16.192 43.792,16.192 L42.64,16.192 C42.244,16.192 42.052,15.952 42.052,15.472 L42.052,11.956 L45.328,11.956 L45.328,11.128 L40.54,11.128 L40.54,8.86 L44.5,8.86 L44.5,8.032 L40.54,8.032 L40.54,6.208 L39.664,6.208 L39.664,8.032 L37.216,8.032 C37.408,7.564 37.588,7.072 37.744,6.544 L36.868,6.364 C36.484,7.72 35.848,8.956 34.972,10.084 L35.8,10.6 C36.184,10.072 36.532,9.496 36.844,8.86 L39.664,8.86 L39.664,11.128 L34.732,11.128 L34.732,11.956 L38.044,11.956 C37.936,13.18 37.66,14.092 37.204,14.692 C36.688,15.364 35.824,15.952 34.6,16.432 L35.2,17.2 Z M46.972,13.972 C48.136,13.828 49.36,13.576 50.632,13.192 L50.632,12.412 C49.768,12.676 48.892,12.892 48.028,13.048 C48.772,12.22 49.696,10.828 50.824,8.884 L50.068,8.608 C49.816,9.052 49.576,9.472 49.348,9.88 C48.772,9.976 48.196,10.048 47.62,10.108 C48.268,9.22 48.904,8.02 49.528,6.508 L48.712,6.184 C48.208,7.552 47.608,8.776 46.924,9.844 C46.816,10 46.696,10.108 46.564,10.156 L46.78,10.948 C47.476,10.864 48.172,10.768 48.868,10.66 C48.196,11.74 47.62,12.496 47.14,12.952 C47.032,13.048 46.9,13.132 46.744,13.192 L46.972,13.972 Z M52.192,17.212 C53.224,16.708 54.112,16.084 54.832,15.316 C55.432,16.012 56.164,16.636 57.004,17.188 L57.544,16.468 C56.704,15.94 55.972,15.352 55.348,14.68 C56.212,13.54 56.764,12.136 57.016,10.48 L57.016,10 L55.492,10 C55.684,9.232 55.876,8.308 56.068,7.228 L56.068,6.688 L50.8,6.688 L50.8,7.504 L51.988,7.504 L51.988,8.152 C51.964,12.028 51.172,14.836 49.612,16.588 L50.248,17.152 C51.46,15.784 52.252,13.828 52.612,11.296 C52.984,12.52 53.536,13.624 54.256,14.596 C53.572,15.316 52.72,15.928 51.712,16.42 L52.192,17.212 Z M54.76,13.996 C53.752,12.712 53.092,11.188 52.792,9.436 C52.816,9.028 52.828,8.596 52.828,8.152 L52.828,7.504 L55.18,7.504 C54.928,8.932 54.7,10.012 54.484,10.756 L56.152,10.756 C55.912,11.992 55.456,13.072 54.76,13.996 Z M46.588,16.516 C47.932,16.264 49.12,15.916 50.176,15.484 L50.176,14.668 C49.12,15.088 47.884,15.424 46.48,15.676 L46.588,16.516 Z" id="优先级" fill="#FFFFFF"></path>
                <polygon id="星形" fill="#FFFFFF" points="14 15 10.4732885 16.854102 11.1468305 12.927051 8.2936609 10.145898 12.2366442 9.57294902 14 6 15.7633558 9.57294902 19.7063391 10.145898 16.8531695 12.927051 17.5267115 16.854102"></polygon>
                <path d="M77.294,18.428 C78.442,17.896 79.436,17.196 80.262,16.356 C80.948,17.112 81.76,17.784 82.684,18.386 L83.552,17.252 C82.628,16.692 81.802,16.048 81.102,15.334 C82.012,14.06 82.614,12.478 82.908,10.602 L82.908,9.86 L81.214,9.86 C81.452,9.006 81.69,7.998 81.928,6.836 L81.928,5.982 L75.194,5.982 L75.194,7.256 L76.664,7.256 L76.664,8.46 C76.636,12.576 75.838,15.586 74.298,17.462 L75.32,18.358 C76.538,16.888 77.336,14.816 77.728,12.156 C78.12,13.276 78.666,14.312 79.352,15.264 C78.596,16.02 77.672,16.678 76.566,17.21 L77.294,18.428 Z M80.164,14.284 C79.03,12.814 78.302,11.092 77.966,9.118 C77.966,8.908 77.98,8.684 77.98,8.46 L77.98,7.256 L80.528,7.256 C80.206,8.908 79.912,10.154 79.646,11.022 L81.578,11.022 C81.312,12.226 80.836,13.318 80.164,14.284 Z M72.674,11.808 L72.674,18.386 L74.004,18.386 L74.004,11.652 C74.312,12.114 74.662,12.688 75.068,13.374 L75.852,12.198 C75.222,11.442 74.606,10.742 74.004,10.126 L74.004,9.426 L75.572,9.426 L75.572,8.152 L74.004,8.152 L74.004,5.534 L72.674,5.534 L72.674,8.152 L70.742,8.152 L70.742,9.426 L72.562,9.426 C72.142,11.05 71.442,12.506 70.49,13.78 L71.064,15.25 C71.6275,14.3435 72.1159687,13.35125 72.5106484,12.27325 L72.674,11.808 Z M97.216,7.816 L97.216,6.584 L91.77,6.584 C91.644,6.164 91.518,5.786 91.392,5.436 L89.908,5.688 C90.062,5.968 90.202,6.262 90.328,6.584 L84.77,6.584 L84.77,7.816 L97.216,7.816 Z M95.046,11.386 L95.046,8.474 L86.968,8.474 L86.968,11.386 L95.046,11.386 Z M93.772,10.378 L88.242,10.378 L88.242,9.482 L93.772,9.482 L93.772,10.378 Z M86.66,18.442 L86.66,13.164 L95.34,13.164 L95.34,16.706 C95.34,17.07 95.074,17.266 94.556,17.266 L93.478,17.21 L93.786,18.4 L94.948,18.4 C96.04,18.4 96.6,17.924 96.6,16.986 L96.6,12.016 L85.4,12.016 L85.4,18.442 L86.66,18.442 Z M93.856,16.776 L93.856,13.836 L88.158,13.836 L88.158,16.776 L93.856,16.776 Z M92.68,15.796 L89.348,15.796 L89.348,14.816 L92.68,14.816 L92.68,15.796 Z" id="极高" fill="#FFFFFF"></path>
            </g>
        </g>
    </g>
</svg>