<?xml version="1.0" encoding="UTF-8"?>
<svg width="106px" height="24px" viewBox="0 0 106 24" version="1.1" xmlns="http://www.w3.org/2000/svg" xmlns:xlink="http://www.w3.org/1999/xlink">
    <title>一般</title>
    <defs>
        <linearGradient x1="6.33818599%" y1="100%" x2="50%" y2="100%" id="linearGradient-1">
            <stop stop-color="#FD8D00" offset="0%"></stop>
            <stop stop-color="#FFA83C" offset="100%"></stop>
        </linearGradient>
    </defs>
    <g id="组件" stroke="none" stroke-width="1" fill="none" fill-rule="evenodd">
        <g id="1.4_Icon_场景图标" transform="translate(-1105.000000, -905.000000)" fill-rule="nonzero">
            <g id="一般" transform="translate(1105.000000, 905.000000)">
                <rect id="矩形" fill="url(#linearGradient-1)" x="0" y="0" width="106" height="24" rx="12"></rect>
                <rect id="矩形" fill-opacity="0.2" fill="#FFFFFF" x="64" y="2" width="40" height="20" rx="10"></rect>
                <path d="M83.328,12.52 L83.328,11.204 L70.658,11.204 L70.658,12.52 L83.328,12.52 Z M85.54,18.456 C86.268,16.972 86.66,15.068 86.73,12.744 L89.292,12.744 L89.292,16.692 C89.292,17.028 89.138,17.196 88.844,17.196 C88.48,17.196 88.074,17.168 87.64,17.126 L87.99,18.4 L89.25,18.4 C90.09,18.4 90.524,17.966 90.524,17.126 L90.524,6.864 L88.648,6.864 C88.816,6.486 88.942,6.08 89.04,5.646 L87.64,5.464 C87.556,5.94 87.43,6.402 87.262,6.864 L85.526,6.864 L85.526,11.512 L84.63,11.512 L84.63,12.744 L85.512,12.744 C85.456,14.648 85.12,16.23 84.504,17.504 L85.54,18.456 Z M91.952,11.036 C92.582,10.378 92.974,9.804 93.128,9.328 C93.282,8.866 93.366,8.194 93.366,7.298 L94.864,7.298 L94.864,9.314 C94.864,10.224 95.312,10.686 96.236,10.686 L97.44,10.686 L97.44,9.454 L96.6,9.454 C96.292,9.454 96.152,9.3 96.152,9.02 L96.152,6.094 L92.092,6.094 C92.092,7.186 92.022,7.998 91.882,8.502 C91.742,9.006 91.42,9.538 90.916,10.112 L91.952,11.036 Z M89.292,11.512 L86.744,11.512 L86.744,8.096 L89.292,8.096 L89.292,11.512 Z M87.808,10.938 L88.83,10.658 C88.606,9.888 88.354,9.202 88.088,8.614 L87.136,8.922 C87.402,9.566 87.626,10.238 87.808,10.938 Z M91.686,18.54 C92.722,18.12 93.618,17.588 94.374,16.93 C95.046,17.49 95.844,17.994 96.768,18.456 L97.44,17.294 C96.628,16.902 95.914,16.454 95.284,15.964 C96.012,15.054 96.53,13.948 96.838,12.66 L96.838,11.526 L91.28,11.526 L91.28,12.73 L91.588,12.73 C91.91,13.934 92.512,15.012 93.394,15.992 C92.722,16.552 91.91,17.028 90.958,17.42 L91.686,18.54 Z M94.29,15.068 C93.618,14.368 93.128,13.598 92.82,12.73 L95.536,12.73 C95.256,13.598 94.836,14.382 94.29,15.068 Z M87.85,16.188 L88.914,15.908 C88.662,14.928 88.368,14.074 88.032,13.318 L87.024,13.654 C87.36,14.466 87.626,15.306 87.85,16.188 Z" fill="#FFFFFF"></path>
                <path d="M24.94,17.2 L24.94,9.064 C25.372,8.284 25.744,7.456 26.032,6.592 L25.252,6.232 C24.664,8.08 23.728,9.724 22.432,11.164 L22.684,12.028 C23.188,11.512 23.656,10.96 24.076,10.384 L24.076,17.2 L24.94,17.2 Z M26.056,17.164 C27.784,15.568 28.792,13.168 29.056,9.964 L29.812,9.964 L29.812,16.012 C29.812,16.672 30.124,17.008 30.76,17.008 L32.248,17.008 C32.56,16.996 32.812,16.876 32.98,16.66 C33.148,16.396 33.28,15.616 33.364,14.344 L32.584,14.092 C32.548,15.196 32.476,15.832 32.368,16.012 C32.272,16.144 32.164,16.216 32.032,16.216 L30.988,16.216 C30.748,16.216 30.64,16.096 30.64,15.856 L30.64,9.964 L33.136,9.964 L33.136,9.124 L29.104,9.124 C29.116,8.884 29.128,8.644 29.128,8.404 L29.128,6.232 L28.3,6.232 L28.3,8.404 C28.3,8.644 28.288,8.884 28.276,9.124 L25.804,9.124 L25.804,9.964 L28.228,9.964 C27.964,12.94 27.028,15.148 25.42,16.612 L26.056,17.164 Z M31.996,8.608 L32.584,8.02 C32.08,7.492 31.444,6.964 30.7,6.448 L30.136,6.988 C30.928,7.552 31.54,8.092 31.996,8.608 Z M35.2,17.2 C36.52,16.624 37.468,15.928 38.032,15.112 C38.512,14.416 38.812,13.372 38.932,11.956 L41.164,11.956 L41.164,15.628 C41.164,16.552 41.572,17.02 42.388,17.02 L44.02,17.02 C44.404,17.008 44.692,16.888 44.908,16.672 C45.124,16.396 45.292,15.592 45.388,14.272 L44.56,14.008 C44.512,15.136 44.416,15.796 44.26,15.988 C44.14,16.12 43.984,16.192 43.792,16.192 L42.64,16.192 C42.244,16.192 42.052,15.952 42.052,15.472 L42.052,11.956 L45.328,11.956 L45.328,11.128 L40.54,11.128 L40.54,8.86 L44.5,8.86 L44.5,8.032 L40.54,8.032 L40.54,6.208 L39.664,6.208 L39.664,8.032 L37.216,8.032 C37.408,7.564 37.588,7.072 37.744,6.544 L36.868,6.364 C36.484,7.72 35.848,8.956 34.972,10.084 L35.8,10.6 C36.184,10.072 36.532,9.496 36.844,8.86 L39.664,8.86 L39.664,11.128 L34.732,11.128 L34.732,11.956 L38.044,11.956 C37.936,13.18 37.66,14.092 37.204,14.692 C36.688,15.364 35.824,15.952 34.6,16.432 L35.2,17.2 Z M46.972,13.972 C48.136,13.828 49.36,13.576 50.632,13.192 L50.632,12.412 C49.768,12.676 48.892,12.892 48.028,13.048 C48.772,12.22 49.696,10.828 50.824,8.884 L50.068,8.608 C49.816,9.052 49.576,9.472 49.348,9.88 C48.772,9.976 48.196,10.048 47.62,10.108 C48.268,9.22 48.904,8.02 49.528,6.508 L48.712,6.184 C48.208,7.552 47.608,8.776 46.924,9.844 C46.816,10 46.696,10.108 46.564,10.156 L46.78,10.948 C47.476,10.864 48.172,10.768 48.868,10.66 C48.196,11.74 47.62,12.496 47.14,12.952 C47.032,13.048 46.9,13.132 46.744,13.192 L46.972,13.972 Z M52.192,17.212 C53.224,16.708 54.112,16.084 54.832,15.316 C55.432,16.012 56.164,16.636 57.004,17.188 L57.544,16.468 C56.704,15.94 55.972,15.352 55.348,14.68 C56.212,13.54 56.764,12.136 57.016,10.48 L57.016,10 L55.492,10 C55.684,9.232 55.876,8.308 56.068,7.228 L56.068,6.688 L50.8,6.688 L50.8,7.504 L51.988,7.504 L51.988,8.152 C51.964,12.028 51.172,14.836 49.612,16.588 L50.248,17.152 C51.46,15.784 52.252,13.828 52.612,11.296 C52.984,12.52 53.536,13.624 54.256,14.596 C53.572,15.316 52.72,15.928 51.712,16.42 L52.192,17.212 Z M54.76,13.996 C53.752,12.712 53.092,11.188 52.792,9.436 C52.816,9.028 52.828,8.596 52.828,8.152 L52.828,7.504 L55.18,7.504 C54.928,8.932 54.7,10.012 54.484,10.756 L56.152,10.756 C55.912,11.992 55.456,13.072 54.76,13.996 Z M46.588,16.516 C47.932,16.264 49.12,15.916 50.176,15.484 L50.176,14.668 C49.12,15.088 47.884,15.424 46.48,15.676 L46.588,16.516 Z" id="优先级" fill="#FFFFFF"></path>
                <polygon id="星形" fill="#FFFFFF" points="14 15 10.4732885 16.854102 11.1468305 12.927051 8.2936609 10.145898 12.2366442 9.57294902 14 6 15.7633558 9.57294902 19.7063391 10.145898 16.8531695 12.927051 17.5267115 16.854102"></polygon>
            </g>
        </g>
    </g>
</svg>