<?xml version="1.0" encoding="UTF-8"?>
<svg width="66px" height="42px" viewBox="0 0 66 42" version="1.1" xmlns="http://www.w3.org/2000/svg" xmlns:xlink="http://www.w3.org/1999/xlink">
    <title>refresh_s_db</title>
    <defs>
        <linearGradient x1="100%" y1="36.5970994%" x2="0%" y2="36.5970994%" id="linearGradient-1">
            <stop stop-color="#0663BE" offset="0%"></stop>
            <stop stop-color="#4AA1FE" offset="100%"></stop>
        </linearGradient>
    </defs>
    <g id="页面-1" stroke="none" stroke-width="1" fill="none" fill-rule="evenodd">
        <g id="icon" transform="translate(-217.000000, -266.000000)" fill-rule="nonzero">
            <g id="refresh_s_db" transform="translate(217.000000, 266.000000)">
                <g id="编组-11" fill="url(#linearGradient-1)">
                    <rect id="矩形" x="0" y="0" width="66" height="42" rx="2"></rect>
                </g>
                <path d="M17.0020874,7.0101074 L17.0020874,35.1345581 C26.8420465,35.1345581 33.7678052,35.1345581 37.7793634,35.1345581 C35,26 40.5732945,22.094417 43.1040522,21.3454444 C44.791224,20.8461294 47.027886,20.8461294 49.8140381,21.3454444 L49.8140381,7.0101074 L17.0020874,7.0101074 Z" id="形状" fill="#FFFFFF"></path>
                <g id="biangeng-2" transform="translate(36.006439, 22.015024)" fill="#00407F">
                    <path d="M16.2860577,3.62079327 L12.6674107,7.23944025 L15.3824691,7.23944025 C15.3824691,10.2335165 12.9485748,12.6674108 9.95449863,12.6674108 C9.04017858,12.6674108 8.17093064,12.4420502 7.421875,12.0342548 L6.09761333,13.3563702 C7.21153847,14.0625 8.53150756,14.4788805 9.95235234,14.4788805 C13.9508928,14.4788805 17.1917926,11.2401271 17.1917926,7.23944025 L19.9068509,7.23944025 L16.2860577,3.62079327 Z M4.52438187,7.23944025 C4.52438187,4.24536401 6.9582761,1.81146978 9.95235234,1.81146978 C10.8666724,1.81146978 11.7359203,2.03683036 12.4849759,2.44462569 L13.8070913,1.1225103 C12.6931662,0.416380494 11.3731971,-3.46944695e-18 9.95235234,-3.46944695e-18 C5.95381182,-3.46944695e-18 2.71291209,3.23875343 2.71291209,7.23944025 L3.80771803e-16,7.23944025 L3.61864698,10.8580873 L7.23729396,7.23944025 L4.52438187,7.23944025 Z" id="形状"></path>
                </g>
                <g id="Field-number" transform="translate(23.000000, 13.000000)" fill="#3D95F2">
                    <path d="M6.88920455,0.213068182 L5.76526989,0.213068182 C5.70667614,0.213068182 5.6587358,0.261008523 5.6587358,0.319602273 L5.6587358,6.36008523 L5.55752841,6.36008523 L1.37428977,0.259232955 C1.35475852,0.230823864 1.32102273,0.213068182 1.28728693,0.213068182 L0.106534091,0.213068182 C0.0479403409,0.213068182 0,0.261008523 0,0.319602273 L0,8.55823864 C0,8.61683239 0.0479403409,8.66477273 0.106534091,8.66477273 L1.21981534,8.66477273 C1.27840909,8.66477273 1.32634943,8.61683239 1.32634943,8.55823864 L1.32634943,2.43430398 L1.42755682,2.43430398 L5.65696023,8.61860795 C5.67649148,8.64701705 5.71022727,8.66477273 5.74573864,8.66477273 L6.88920455,8.66477273 C6.9477983,8.66477273 6.99573864,8.61683239 6.99573864,8.55823864 L6.99573864,0.319602273 C6.99573864,0.261008523 6.9477983,0.213068182 6.88920455,0.213068182 Z M13.6008523,7.54616477 L8.203125,7.54616477 C8.125,7.54616477 8.06107955,7.61008523 8.06107955,7.68821023 L8.06107955,8.54048295 C8.06107955,8.61860795 8.125,8.68252841 8.203125,8.68252841 L13.6008523,8.68252841 C13.6789773,8.68252841 13.7428977,8.61860795 13.7428977,8.54048295 L13.7428977,7.68821023 C13.7428977,7.61008523 13.6789773,7.54616477 13.6008523,7.54616477 Z M10.8984375,6.42755682 C11.8377131,6.42755682 12.5887784,6.12215909 13.1392045,5.50958807 C13.6612216,4.92542614 13.9204545,4.16370739 13.9204545,3.22265625 C13.9204545,2.27982955 13.6612216,1.50923295 13.1392045,0.926846591 C12.590554,0.308948864 11.8394886,0 10.8984375,0 C9.94495739,0 9.19566761,0.310724432 8.65589489,0.9375 C8.13742898,1.52521307 7.8852983,2.28515625 7.8852983,3.22265625 C7.8852983,4.15305398 8.13920455,4.91299716 8.65767045,5.50071023 C9.20099432,6.11683239 9.95383523,6.42755682 10.8984375,6.42755682 L10.8984375,6.42755682 Z M9.62890625,1.74538352 C9.92897727,1.37961648 10.3444602,1.19673295 10.8966619,1.19673295 C11.4559659,1.19673295 11.8696733,1.3671875 12.1573153,1.7134233 C12.4485085,2.07386364 12.5994318,2.57634943 12.5994318,3.22088068 C12.5994318,3.86541193 12.4502841,4.35901989 12.1590909,4.71058239 C11.8661222,5.05504261 11.4488636,5.2290483 10.8966619,5.2290483 C10.3426847,5.2290483 9.92009943,5.04616477 9.62890625,4.68927557 C9.33948864,4.33238636 9.19389205,3.84943182 9.19389205,3.22265625 C9.19566761,2.58700284 9.33948864,2.1040483 9.62890625,1.74538352 L9.62890625,1.74538352 Z" id="形状"></path>
                </g>
            </g>
        </g>
    </g>
</svg>