<?xml version="1.0" encoding="UTF-8"?>
<svg width="66px" height="42px" viewBox="0 0 66 42" version="1.1" xmlns="http://www.w3.org/2000/svg" xmlns:xlink="http://www.w3.org/1999/xlink">
    <title>refresh_s_o</title>
    <defs>
        <linearGradient x1="0%" y1="100%" x2="100%" y2="100%" id="linearGradient-1">
            <stop stop-color="#FED9A2" offset="0%"></stop>
            <stop stop-color="#FFB86F" offset="100%"></stop>
        </linearGradient>
    </defs>
    <g id="页面-1" stroke="none" stroke-width="1" fill="none" fill-rule="evenodd">
        <g id="icon" transform="translate(-217.000000, -180.000000)" fill-rule="nonzero">
            <g id="refresh_s_o" transform="translate(217.000000, 180.000000)">
                <g id="编组-11" fill="url(#linearGradient-1)">
                    <rect id="矩形" x="0" y="0" width="66" height="42" rx="2"></rect>
                </g>
                <path d="M17.0020874,7.0101074 L17.0020874,35.1345581 C26.8420465,35.1345581 33.7678052,35.1345581 37.7793634,35.1345581 C35,26 40.5732945,22.094417 43.1040522,21.3454444 C44.791224,20.8461294 47.027886,20.8461294 49.8140381,21.3454444 L49.8140381,7.0101074 L17.0020874,7.0101074 Z" id="形状" fill="#FFFFFF"></path>
                <polygon id="路径" fill="#FFC583" points="23 16 19 16 19 20 23 20"></polygon>
                <polygon id="路径" fill="#FFC583" points="29 16 25 16 25 20 29 20"></polygon>
                <polygon id="路径" fill="#FFC583" points="35 16 31 16 31 20 35 20"></polygon>
                <polygon id="路径" fill="#FFC583" points="23 22 19 22 19 26 23 26"></polygon>
                <polygon id="路径" fill="#FFC583" points="29 22 25 22 25 26 29 26"></polygon>
                <polygon id="路径" fill="#FFC583" points="23 28 19 28 19 32 23 32"></polygon>
                <polygon id="路径" fill="#FFC583" points="29 28 25 28 25 32 29 32"></polygon>
                <polygon id="路径" fill="#FFC583" points="35 22 31 22 31 26 35 26"></polygon>
                <polygon id="路径" fill="#FFC583" points="29 10 25 10 25 14 29 14"></polygon>
                <polygon id="路径" fill="#FFC583" points="23 10 19 10 19 14 23 14"></polygon>
                <polygon id="路径" fill="#FFC583" points="35 10 31 10 31 14 35 14"></polygon>
                <polygon id="路径" fill="#FFC583" points="41 16 37 16 37 20 41 20"></polygon>
                <polygon id="路径" fill="#FFC583" points="41 10 37 10 37 14 41 14"></polygon>
                <polygon id="路径" fill="#FFC583" points="47 16 43 16 43 20 47 20"></polygon>
                <polygon id="路径" fill="#FFC583" points="47 10 43 10 43 14 47 14"></polygon>
                <g id="biangeng-2" transform="translate(36.006439, 22.015024)" fill="#FF8200">
                    <path d="M16.2860577,3.62079327 L12.6674107,7.23944025 L15.3824691,7.23944025 C15.3824691,10.2335165 12.9485748,12.6674108 9.95449863,12.6674108 C9.04017858,12.6674108 8.17093064,12.4420502 7.421875,12.0342548 L6.09761333,13.3563702 C7.21153847,14.0625 8.53150756,14.4788805 9.95235234,14.4788805 C13.9508928,14.4788805 17.1917926,11.2401271 17.1917926,7.23944025 L19.9068509,7.23944025 L16.2860577,3.62079327 Z M4.52438187,7.23944025 C4.52438187,4.24536401 6.9582761,1.81146978 9.95235234,1.81146978 C10.8666724,1.81146978 11.7359203,2.03683036 12.4849759,2.44462569 L13.8070913,1.1225103 C12.6931662,0.416380494 11.3731971,-3.46944695e-18 9.95235234,-3.46944695e-18 C5.95381182,-3.46944695e-18 2.71291209,3.23875343 2.71291209,7.23944025 L3.80771803e-16,7.23944025 L3.61864698,10.8580873 L7.23729396,7.23944025 L4.52438187,7.23944025 Z" id="形状"></path>
                </g>
            </g>
        </g>
    </g>
</svg>