<?xml version="1.0" encoding="UTF-8"?>
<svg width="226px" height="178px" viewBox="0 0 226 178" version="1.1" xmlns="http://www.w3.org/2000/svg" xmlns:xlink="http://www.w3.org/1999/xlink">
    <title>img</title>
    <g id="组件" stroke="none" stroke-width="1" fill="none" fill-rule="evenodd">
        <g id="通用组件-反馈" transform="translate(-120.000000, -510.000000)" fill-rule="nonzero">
            <g id="img" transform="translate(120.000000, 510.000000)">
                <g id="文件" transform="translate(0.000000, 26.000000)">
                    <g id="Floor">
                        <path d="M132.589286,15.3770642 C132.589286,15.3770642 143.991687,5.87376147 150.36484,5.19495413 C156.737993,4.51614679 157.416872,10.0851376 160.949815,10.2236697 C164.482759,10.3622018 166.644089,1.93944954 172.892549,0.180091743 C179.14101,-1.57926606 199.632081,15.1138532 199.632081,15.1138532 L132.589286,15.3770642 Z" id="路径" fill="#ECEFF1" opacity="0.46"></path>
                        <path d="M0.138546798,39.4816514 L57.2198276,39.4816514 C57.2198276,39.4816514 52.5230911,30.1307339 44.34883,30.6710092 C36.174569,31.2251376 35.5095443,21.0845872 24.7583128,22.0266055 C14.020936,22.9686239 0.138546798,39.4816514 0.138546798,39.4816514 Z" id="路径" fill="#ECEFF1" opacity="0.46"></path>
                        <ellipse id="椭圆形" fill="#546E7A" cx="113" cy="141.372018" rx="113" ry="9.62798165"></ellipse>
                    </g>
                    <g id="Mail_Sent" transform="translate(27.000000, 7.000000)">
                        <path d="M151.46747,130.986184 L19.7855422,130.986184 C14.5204819,130.986184 10.253012,126.730739 10.253012,121.480515 L10.253012,51.1275115 C10.253012,45.8772873 14.5204819,41.6218425 19.7855422,41.6218425 L151.46747,41.6218425 C156.73253,41.6218425 161,45.8772873 161,51.1275115 L161,121.494331 C161,126.730739 156.73253,130.986184 151.46747,130.986184 Z" id="路径" fill="#90CAF9"></path>
                        <path d="M149.777108,7.09471075 L149.777108,59.2929916 L21.3373494,59.2929916 L21.3373494,7.09471075 C21.3373494,3.41955387 24.4271084,0.435215947 28.2512048,0.435215947 L142.863253,0.435215947 C146.687349,0.435215947 149.777108,3.41955387 149.777108,7.09471075 Z" id="路径" fill="#F2F2F2"></path>
                        <path d="M149.777108,59.2929916 L149.777108,80.2800717 C149.777108,83.9552286 146.687349,86.9395665 142.863253,86.9395665 L89.5060241,106.323947 C86.9704819,107.249644 84.1578313,107.249644 81.6222892,106.323947 L28.2512048,86.9395665 C24.4409639,86.9395665 21.3373494,83.9552286 21.3373494,80.2800717 L21.3373494,59.2929916 L149.777108,59.2929916 Z" id="路径" fill="#F7F7F7"></path>
                        <path d="M56.1144578,115.940147 L21.8915663,115.940147 C20.9771084,115.940147 20.2289157,115.194062 20.2289157,114.282181 L20.2289157,112.762379 C20.2289157,111.850498 20.9771084,111.104414 21.8915663,111.104414 L56.1144578,111.104414 C57.0289157,111.104414 57.7771084,111.850498 57.7771084,112.762379 L57.7771084,114.282181 C57.7771084,115.194062 57.0289157,115.940147 56.1144578,115.940147 Z" id="路径" fill="#F7F7F7"></path>
                        <g id="编组" transform="translate(0.000000, 43.127828)">
                            <path d="M56.8072289,30.1473396 L1.6626506,30.1473396 C0.748192771,30.1473396 0,29.4012551 0,28.489374 L0,1.65796551 C0,0.74608448 0.748192771,0 1.6626506,0 L56.8072289,0 C57.7216867,0 58.4698795,0.74608448 58.4698795,1.65796551 L58.4698795,28.489374 C58.4698795,29.4012551 57.7216867,30.1473396 56.8072289,30.1473396 Z" id="路径" fill="#E3F2FD"></path>
                            <polygon id="路径" fill="#E3F2FD" points="49.2144578 27.3426146 58.4698795 38.0503085 58.4698795 15.0736698"></polygon>
                            <path d="M52.3180723,8.40035859 L8.29939759,8.40035859 C7.46807229,8.40035859 6.7753012,7.70953963 6.7753012,6.88055687 L6.7753012,6.30026894 C6.7753012,5.47128619 7.46807229,4.78046723 8.29939759,4.78046723 L52.3180723,4.78046723 C53.1493976,4.78046723 53.8421687,5.47128619 53.8421687,6.30026894 L53.8421687,6.88055687 C53.8421687,7.70953963 53.163253,8.40035859 52.3180723,8.40035859 Z" id="路径" fill="#F7F7F7"></path>
                            <path d="M52.3180723,15.4881612 L8.29939759,15.4881612 C7.46807229,15.4881612 6.7753012,14.7973422 6.7753012,13.9683594 L6.7753012,13.3880715 C6.7753012,12.5590888 7.46807229,11.8682698 8.29939759,11.8682698 L52.3180723,11.8682698 C53.1493976,11.8682698 53.8421687,12.5590888 53.8421687,13.3880715 L53.8421687,13.9683594 C53.8421687,14.7973422 53.163253,15.4881612 52.3180723,15.4881612 Z" id="路径" fill="#F7F7F7"></path>
                            <path d="M32.0060241,22.5621473 L8.29939759,22.5621473 C7.46807229,22.5621473 6.7753012,21.8713284 6.7753012,21.0423456 L6.7753012,20.4620577 C6.7753012,19.6330749 7.46807229,18.942256 8.29939759,18.942256 L32.0060241,18.942256 C32.8373494,18.942256 33.5301205,19.6330749 33.5301205,20.4620577 L33.5301205,21.0423456 C33.5301205,21.8851448 32.8373494,22.5621473 32.0060241,22.5621473 Z" id="路径" fill="#F7F7F7"></path>
                        </g>
                    </g>
                    <g id="Plant" transform="translate(18.000000, 89.000000)">
                        <g id="编组" opacity="0.5" fill="#E3F2FD">
                            <path d="M9.15970149,27.5121813 C4.28208955,27.2206799 0.141791045,23.125779 0.113432836,19.6832861 C0.0850746269,16.8376771 2.87835821,16.101983 2.96343284,12.5067989 C3.04850746,9.41133144 0.992537313,8.71728045 1.34701493,6.07988669 C1.71567164,3.30368272 4.48059701,0.124929178 7.82686567,0.11101389 C11.6552239,0.0971671388 14.2641791,4.30311615 14.4910448,7.66232295 C14.6470149,9.95269122 13.2149254,10.2580737 13.2574627,12.4235127 C13.3425373,16.823796 18.9574627,18.0869688 18.8723881,21.3767705 C18.8014925,24.3750708 13.9664179,27.8036827 9.15970149,27.5121813 Z" id="路径"></path>
                        </g>
                        <rect id="矩形" fill="#F7F7F7" x="8.83358209" y="4.7611898" width="1" height="25.0830028"></rect>
                        <path d="M8.94701493,13.4645892 C6.57910448,13.311898 6.25298507,9.89716714 6.23880597,9.75835694 L6.52238806,9.7305949 C6.52238806,9.75835694 6.84850746,13.0481586 8.97537313,13.1869688 L8.94701493,13.4645892 Z" id="路径" fill="#F7F7F7"></path>
                        <path d="M5.52985075,29.6498584 L12.3216418,29.6498584 C12.9880597,29.6498584 13.5126866,30.1912181 13.4843284,30.8436261 L12.5626866,47.625779 C12.5343284,48.2087819 12.0522388,48.6807365 11.4567164,48.6946176 L6.50820896,48.8889518 C5.87014925,48.9167139 5.33134328,48.4308782 5.30298507,47.8201133 L4.38134328,30.8436261 C4.33880597,30.1912181 4.86343284,29.6498584 5.52985075,29.6498584 Z" id="路径" fill="#90CAF9"></path>
                        <path d="M8.94701493,22.2235127 C7.24552239,22.1124646 7.01865672,19.6971671 7.00447761,19.586119 L7.2880597,19.5583569 C7.2880597,19.586119 7.51492537,21.8487252 8.96119403,21.9458924 L8.94701493,22.2235127 Z" id="路径" fill="#F7F7F7"></path>
                        <path d="M8.84776119,18.5866856 L8.83358209,18.3090652 C10.8186567,18.211898 11.1164179,16.0325779 11.1164179,16.0186969 L11.4,16.0464589 C11.4,16.074221 11.0738806,18.4895184 8.84776119,18.5866856 Z" id="路径" fill="#F7F7F7"></path>
                        <path d="M8.94701493,25.0274788 L8.93283582,24.7498584 C10.3365672,24.6804533 10.5350746,23.1813031 10.5492537,23.125779 L10.8328358,23.1535411 C10.8328358,23.1674221 10.591791,24.9441926 8.94701493,25.0274788 Z" id="路径" fill="#F7F7F7"></path>
                    </g>
                </g>
                <g id="编组" transform="translate(79.000000, 0.000000)">
                    <circle id="椭圆形" fill="#1565C0" cx="34" cy="34" r="34"></circle>
                    <path d="M28.1549613,54 L14.3506123,40.8527628 C12.6393294,39.2361395 12.5442581,36.5093052 14.1224413,34.7563402 C15.7006244,33.0033752 18.3626201,32.9059883 20.073903,34.5226115 L28.2120041,42.2746121 L50.9530529,21.1221683 C52.6833501,19.5250224 55.3453458,19.6418867 56.9045147,21.4143291 C58.4636836,23.1867714 58.349598,25.9136058 56.6193008,27.5107517 L28.1549613,54 Z" id="路径" fill="#F7F7F7"></path>
                </g>
            </g>
        </g>
    </g>
</svg>