<?xml version="1.0" encoding="UTF-8"?>
<svg width="48px" height="48px" viewBox="0 0 48 48" version="1.1" xmlns="http://www.w3.org/2000/svg" xmlns:xlink="http://www.w3.org/1999/xlink">
    <title>revoke</title>
    <defs>
        <linearGradient x1="100%" y1="54.8427768%" x2="0%" y2="54.8427768%" id="linearGradient-1">
            <stop stop-color="#D1DDE3" offset="0%"></stop>
            <stop stop-color="#B0BEC5" offset="100%"></stop>
        </linearGradient>
    </defs>
    <g id="页面-1" stroke="none" stroke-width="1" fill="none" fill-rule="evenodd">
        <g id="icon" transform="translate(-66.000000, -321.000000)" fill-rule="nonzero">
            <g id="revoke" transform="translate(66.000000, 321.000000)">
                <g id="编组-15" fill="#E1E7EA">
                    <rect id="矩形" x="0" y="0" width="48" height="48" rx="8"></rect>
                </g>
                <rect id="矩形" stroke="#FFFFFF" fill="url(#linearGradient-1)" x="11.5" y="10.5" width="25" height="27" rx="2"></rect>
                <g id="chexiao-2" transform="translate(17.003296, 17.007950)" fill="#FFFFFF">
                    <path d="M5.95536932,9.98768281 C3.90174041,8.26010033 1.97404886,6.63682179 -1.07119175e-16,4.97413956 C1.96091429,3.32304662 3.89092371,1.70208596 5.91519299,1.30104261e-16 L5.91519299,2.30473102 C7.01695176,2.44303033 8.05844603,2.50406746 9.06671756,2.71344798 C11.1620681,3.14843409 12.8332491,4.16752233 13.5618316,6.33395402 C14.6141425,9.46152731 13.3663582,12.9267363 10.5625135,14.6512284 C10.5238824,14.6751796 10.4759798,14.6883142 10.3770842,14.7284905 C10.7518058,14.2703258 11.1149381,13.8793791 11.4201238,13.4467109 C12.0235414,12.5952816 12.3750844,11.6480472 12.4160333,10.594191 C12.4523466,9.64386609 12.030495,8.95236952 11.2362398,8.46948085 C10.3067756,7.90392164 9.26528138,7.70303996 8.20910729,7.61496108 C7.47743439,7.55392395 6.73726264,7.60337175 5.95536932,7.60337175 L5.95536932,9.98768281 L5.95536932,9.98768281 Z" id="路径"></path>
                </g>
            </g>
        </g>
    </g>
</svg>