<?xml version="1.0" encoding="UTF-8"?>
<svg width="64px" height="64px" viewBox="0 0 64 64" version="1.1" xmlns="http://www.w3.org/2000/svg" xmlns:xlink="http://www.w3.org/1999/xlink">
    <title>icon_64_plug-in</title>
    <g id="icon" stroke="none" stroke-width="1" fill="none" fill-rule="evenodd">
        <g transform="translate(-70.000000, -1300.000000)" id="icon_64_plug-in">
            <g transform="translate(70.000000, 1300.000000)" id="icon-chajian">
                <rect id="矩形" x="0" y="0" width="64" height="64"></rect>
                <g id="zujian-danxuan" transform="translate(2.000000, 2.000000)">
                    <path d="M53.6668883,0.0498670213 L6.00731383,0.0498670213 C2.81582447,0.0498670213 0.0498670213,2.81582447 0.0498670213,6.00731383 L0.0498670213,53.6668883 C0.0498670213,56.8583777 2.81582447,59.6243351 6.00731383,59.6243351 L53.6668883,59.6243351 C56.8583777,59.6243351 59.6243351,56.8583777 59.6243351,53.6668883 L59.6243351,6.00731383 C59.6243351,2.81582447 56.8583777,0.0498670213 53.6668883,0.0498670213 Z M55.369016,52.6030585 C55.369016,54.0924202 54.0924202,55.369016 52.6030585,55.369016 L7.07114362,55.369016 C5.58178191,55.369016 4.30518617,54.0924202 4.30518617,52.6030585 L4.30518617,7.07114362 C4.30518617,5.58178191 5.58178191,4.30518617 7.07114362,4.30518617 L52.3902926,4.30518617 C54.0924202,4.30518617 55.369016,5.58178191 55.369016,7.07114362 L55.369016,52.6030585 Z" id="形状" fill="#90CAF9" fill-rule="nonzero"></path>
                    <g id="编组" transform="translate(12.520898, 7.561523)">
                        <path d="M7.34131804,0 C8.33891129,0 9.14763945,0.808728159 9.14763945,1.8063214 L9.14763945,9.70980763 C12.4535282,10.4773353 14.9162004,13.4480511 14.9162004,16.9938592 C14.9162004,20.5396673 12.4535282,23.5104545 9.14771085,24.2779822 L9.14771085,42.5609081 C9.14771085,43.5585727 8.33891129,44.3672295 7.34131804,44.3672295 C6.3437248,44.3672295 5.53499664,43.5585727 5.53499664,42.5609081 L5.53499664,24.2197161 C2.34735383,23.3692876 6.4942078e-14,20.4556242 6.4942078e-14,16.9938592 C6.4942078e-14,13.5321657 2.34735383,10.6185022 5.53492524,9.76807376 L5.53492524,1.8063214 C5.53492524,0.808728159 6.3437248,0 7.34131804,0 Z" id="路径" fill="#1565C0"></path>
                        <path d="M26.4783854,0 C27.4759787,0 28.2847068,0.808728159 28.2847068,1.8063214 L28.284921,20.0319094 C31.5113365,20.8557754 33.8962492,23.7882897 33.8962492,27.2776168 C33.8962492,30.7670867 31.5113365,33.6995296 28.2848496,34.5233955 L28.2847068,42.5609081 C28.2847068,43.5585727 27.4759787,44.3672295 26.4783854,44.3672295 C25.4807922,44.3672295 24.672064,43.5585727 24.672064,42.5609081 L24.6719212,34.5434602 C21.4047337,33.7481561 18.9800487,30.7960055 18.9800487,27.2776168 C18.9800487,23.7592994 21.4047337,20.8071489 24.6718498,20.0118448 L24.672064,1.8063214 C24.672064,0.808728159 25.4807922,0 26.4783854,0 L26.4783854,0 Z" id="路径" fill="#1565C0"></path>
                        <path d="M26.4381846,24.0733367 C24.6783476,24.0733367 23.2495422,25.506712 23.2495422,27.2776168 C23.2495422,29.0485215 24.6783476,30.4819682 26.4381846,30.4819682 C28.1979503,30.4819682 29.6267557,29.0485215 29.6267557,27.2776168 C29.6267557,25.5067834 28.1979503,24.0733367 26.4381846,24.0733367 Z" id="路径" fill="#FFFFFF"></path>
                        <path d="M7.45813592,13.7896505 C5.69829889,13.7896505 4.26956485,15.2229545 4.26956485,16.9938592 C4.26956485,18.038151 4.76639785,18.9651252 5.53492524,19.5499286 L5.53492524,19.5282216 C5.93388459,19.836875 6.39886446,20.0490071 6.89346858,20.1480133 C7.07676411,20.1810022 7.26548639,20.1982107 7.45813592,20.1982107 C9.21790155,20.1982107 10.646707,18.7647639 10.646707,16.9938592 C10.646707,15.2230259 9.21790155,13.7895791 7.45813592,13.7895791 L7.45813592,13.7896505 Z" id="路径" fill="#FFFFFF"></path>
                    </g>
                </g>
            </g>
        </g>
    </g>
</svg>