<?xml version="1.0" encoding="UTF-8"?>
<svg width="18px" height="18px" viewBox="0 0 18 18" version="1.1" xmlns="http://www.w3.org/2000/svg" xmlns:xlink="http://www.w3.org/1999/xlink">
    <title>椭圆形备份 4</title>
    <g id="页面-1" stroke="none" stroke-width="1" fill="none" fill-rule="evenodd">
        <g id="场景图标" transform="translate(-902.000000, -976.000000)" fill="#55D1D1">
            <g id="实施任务总数" transform="translate(902.000000, 976.000000)">
                <circle id="椭圆形备份-4" fill-opacity="0.2" cx="9" cy="9" r="9"></circle>
                <path d="M12.7229209,3.86224835 C13.2947543,3.86224835 13.7600293,4.32748191 13.7600293,4.89941889 L13.7600293,4.89941889 L13.7600293,12.7368843 C13.7600293,13.3087177 13.2947647,13.774003 12.7229313,13.774003 L12.7229313,13.774003 L4.8856213,13.774003 C4.31367396,13.7738994 3.84844041,13.3086659 3.84844041,12.7368843 L3.84844041,12.7368843 L3.84844041,4.89941889 C3.84844041,4.32748191 4.31367396,3.86224835 4.8856213,3.86224835 L4.8856213,3.86224835 Z M12.0107499,10.8383485 L5.5981238,10.8383485 C5.31671308,10.8383485 5.08775805,11.0675211 5.08775805,11.3492115 C5.08775805,11.6305186 5.31670272,11.8593701 5.5981238,11.8593701 L5.5981238,11.8593701 L12.0107499,11.8593701 C12.2920363,11.8593701 12.5209085,11.6305186 12.5209085,11.3492115 C12.5209085,11.0675211 12.2920467,10.8383485 12.0107499,10.8383485 L12.0107499,10.8383485 Z M12.0104391,5.77694345 L10.0860588,5.77694345 C9.80476201,5.77694345 9.5759002,6.00592956 9.5759002,6.28739208 C9.5759002,6.56887532 9.80476201,6.79787178 10.0860588,6.79787178 L10.0860588,6.79787178 L10.864711,6.79787178 L9.09168978,8.76791261 L7.16825207,6.98624201 L5.21840005,9.15255665 C5.12745198,9.25380112 5.08130464,9.38452602 5.08847276,9.52053378 C5.09557872,9.65684194 5.15524397,9.78191107 5.25575298,9.87203046 C5.34950304,9.95713154 5.47160237,10.0042414 5.598217,10.0041641 L5.598217,10.0041641 L5.68407499,9.99687311 C5.79673823,9.97760521 5.90061211,9.9208503 5.97729853,9.83499864 L5.97729853,9.83499864 L7.23389423,8.43856252 L9.15768413,10.2201295 L11.5000838,7.61733667 L11.5000838,8.42483744 C11.5000838,8.70633103 11.7291735,8.93535857 12.0107499,8.93535857 C12.2920363,8.93535857 12.5208878,8.70634139 12.5208878,8.42474421 L12.5208878,8.42474421 L12.5198519,6.27615305 C12.5189714,6.22914595 12.5098663,6.19213485 12.5027603,6.16458111 C12.4985029,6.14342895 12.4912209,6.11386565 12.4768018,6.08136052 C12.4611086,6.04551994 12.4428568,6.01940603 12.4305508,6.00272877 C12.4155931,5.97919414 12.3970306,5.95118462 12.3713414,5.92762928 L12.3713414,5.92762928 L12.3611693,5.91668029 C12.328861,5.88665086 12.3027678,5.87016004 12.281626,5.85843417 C12.2639543,5.84665649 12.2342252,5.82810433 12.1943448,5.81235933 L12.1943448,5.81235933 C12.1560493,5.79761912 12.1231505,5.79154901 12.1023195,5.78842073 C12.0796757,5.78281675 12.0484136,5.77694345 12.0104391,5.77694345 L12.0104391,5.77694345 Z" id="形状结合" fill-rule="nonzero"></path>
            </g>
        </g>
    </g>
</svg>