<?xml version="1.0" encoding="UTF-8"?>
<svg width="48px" height="48px" viewBox="0 0 48 48" version="1.1" xmlns="http://www.w3.org/2000/svg" xmlns:xlink="http://www.w3.org/1999/xlink">
    <title>triggle_rule</title>
    <defs>
        <linearGradient x1="0%" y1="100%" x2="100%" y2="100%" id="linearGradient-1">
            <stop stop-color="#FED9A2" offset="0%"></stop>
            <stop stop-color="#FFB86F" offset="100%"></stop>
        </linearGradient>
    </defs>
    <g id="页面-1" stroke="none" stroke-width="1" fill="none" fill-rule="evenodd">
        <g id="icon" transform="translate(-66.000000, -226.000000)" fill-rule="nonzero">
            <g id="triggle_rule" transform="translate(66.000000, 226.000000)">
                <g id="编组-11" fill="url(#linearGradient-1)">
                    <circle id="椭圆形" cx="24" cy="24" r="24"></circle>
                </g>
                <g id="编组-6" transform="translate(13.000000, 11.000000)" fill="#FFFFFF">
                    <g id="chufaqi" transform="translate(8.356234, 11.478262)">
                        <path d="M12.1497248,11.1059326 L12.1059558,11.1514524 C11.8863141,11.3703664 11.5349268,11.3825885 11.3006056,11.1794646 C11.1899862,11.08481 11.1215505,10.9500494 11.1103843,10.8048893 C11.0992182,10.6597292 11.1462383,10.5160874 11.2410797,10.4056281 L11.3811406,10.2445581 C13.1436968,7.89648089 12.830299,4.59288125 10.6576542,2.61811911 C8.48500948,0.643356968 5.16657879,0.645911867 2.99697743,2.62401716 C0.827376062,4.60212244 0.519065575,7.90620074 2.28523528,10.2515611 L2.38362807,10.384619 C2.57321058,10.631231 2.53442991,10.9835016 2.29573985,11.1829661 L2.29083772,11.1864676 C2.18086968,11.2815143 2.03731737,11.3283787 1.89245071,11.316526 C1.74758405,11.3046733 1.61355863,11.2350979 1.52050275,11.1234403 C-0.733409169,8.33847194 -0.451430251,4.28504711 2.16638155,1.83898318 C4.78419334,-0.607080749 8.84740883,-0.613773357 11.4732644,1.82365362 C14.0991199,4.26108059 14.3944502,8.31355452 12.1497248,11.1059326 L12.1497248,11.1059326 Z M9.75573378,5.09031677 C10.3695707,6.12995107 10.387023,7.41689009 9.80160372,8.4727876 L9.77289124,8.52881197 C9.63947378,8.79570613 9.32476369,8.91709864 9.04667544,8.80893378 C8.7745009,8.70206405 8.64012766,8.39510419 8.74624481,8.12263534 L8.97349363,7.5413826 C9.28792266,6.59926565 8.95513094,5.56204941 8.15126683,4.97873777 C7.34740272,4.39542613 6.2581187,4.40073497 5.4599784,4.99185427 C4.6618381,5.58297358 4.33917209,6.62338432 4.66276913,7.56239173 L4.87601187,8.10512774 C4.92848635,8.23864776 4.9256293,8.38756796 4.86807214,8.51897701 C4.81051497,8.65038606 4.70299658,8.75346459 4.56927849,8.80543226 L4.56122499,8.80893378 C4.27444036,8.91710755 3.9536469,8.77742971 3.83746026,8.49379675 C3.24425456,7.43727847 3.25608021,6.1453623 3.86852674,5.09988005 C4.48097327,4.05439779 5.6020931,3.41230936 6.81375447,3.41308602 C8.02149128,3.41279883 9.1395248,4.05057191 9.75398302,5.09031677 L9.75573378,5.09031677 Z M6.45099674,9.16608908 C6.5483169,9.05273986 6.69026943,8.98752245 6.83966575,8.98752245 C6.98906207,8.98752245 7.1310146,9.05273986 7.22833476,9.16608908 L11.7698096,14.0016918 C11.8740149,14.1381036 11.8893278,14.3226784 11.8090267,14.4743974 C11.7236533,14.6280734 11.5625267,14.7242684 11.386743,14.726507 L2.29048757,14.726507 C2.11195365,14.7255788 1.94804148,14.6276608 1.86260151,14.4708959 C1.77403356,14.3270332 1.77403356,14.1455545 1.86260151,14.0016918 L6.45099674,9.16608908 Z M10.4290766,13.8196127 L6.84526818,10.1465154 L3.24990476,13.8196127 L10.4280262,13.8196127 L10.4290766,13.8196127 Z" id="形状"></path>
                    </g>
                    <g id="bianmaguize">
                        <path d="M1.59782297,1.59782297 L19.1738756,1.59782297 L19.1738756,10.3730667 L20.7716986,10.3730667 L20.7716986,1.2790573 C20.7708182,0.573018426 20.1986801,0.000880335007 19.4926413,0 L1.27825837,0 C0.572531519,0.00132021085 0.000879260538,0.573329759 0,1.2790573 L0,24.2869091 C0.00132021085,24.9926359 0.573329759,25.5642882 1.2790573,25.5651675 L7.84531075,25.5651675 L7.84531075,23.9673445 L1.59782297,23.9673445 L1.59782297,1.59782297 Z" id="路径"></path>
                        <path d="M4.79346891,4.24701345 L15.9782297,4.24701345 L15.9782297,5.84483642 L4.79346891,5.84483642 L4.79346891,4.24701345 Z M4.79346891,8.57551587 L15.9782297,8.57551587 L15.9782297,10.1733388 L4.79346891,10.1733388 L4.79346891,8.57551587 Z" id="形状"></path>
                    </g>
                </g>
            </g>
        </g>
    </g>
</svg>