<?xml version="1.0" encoding="UTF-8"?>
<svg width="66px" height="42px" viewBox="0 0 66 42" version="1.1" xmlns="http://www.w3.org/2000/svg" xmlns:xlink="http://www.w3.org/1999/xlink">
    <title>up_s</title>
    <defs>
        <linearGradient x1="0%" y1="100%" x2="100%" y2="100%" id="linearGradient-1">
            <stop stop-color="#A3DCFF" offset="0%"></stop>
            <stop stop-color="#8FAFFC" offset="100%"></stop>
        </linearGradient>
    </defs>
    <g id="页面-1" stroke="none" stroke-width="1" fill="none" fill-rule="evenodd">
        <g id="icon" transform="translate(-217.000000, -137.000000)" fill-rule="nonzero">
            <g id="up_s" transform="translate(217.000000, 137.000000)">
                <rect id="矩形" fill="url(#linearGradient-1)" x="0" y="0" width="66" height="42" rx="2"></rect>
                <g id="paixuti" transform="translate(17.000809, 8.004831)">
                    <path d="M5.97196363,11.9373024 L1.48627102,11.9373024 C0.160125595,11.9373024 -0.378976406,11.1457096 0.282958946,10.1766908 L6.75900705,0.720796129 C6.9965144,0.277027483 7.45898986,1.43114687e-16 7.96231913,1.43114687e-16 C8.4656484,1.43114687e-16 8.92812385,0.277027483 9.1656312,0.720796129 L15.6416793,10.1766908 C16.3036147,11.1434349 15.7599633,11.9373024 14.4383673,11.9373024 L9.95267462,11.9373024 L9.95267462,24.8552782 C9.95449052,25.1233205 9.84943814,25.3810407 9.66075499,25.5714314 C9.47207185,25.7618221 9.21530848,25.8691919 8.94726075,25.8699233 L6.9773775,25.8699233 C6.70818899,25.8729285 6.44923864,25.7667509 6.25974008,25.5755374 C6.07024152,25.3843239 5.96640104,25.1244275 5.97196363,24.8552782 L5.97196363,11.9373024 Z" id="路径" fill="#FFFFFF"></path>
                    <path d="M16.9200562,21.8890799 C16.6532805,21.8859411 16.3966437,21.9911598 16.2088512,22.1806673 C16.0210587,22.3701748 15.9181773,22.6277576 15.9237412,22.8944937 L15.9237412,24.8666517 C15.9261717,25.4173797 16.3693731,25.8646286 16.9200562,25.8720656 L30.85027,25.8720656 C31.1174492,25.8752227 31.374446,25.7696944 31.5623081,25.5796878 C31.7501702,25.3896811 31.8527746,25.1315031 31.8465851,24.864377 L31.8465851,22.892219 C31.8441546,22.341491 31.4009532,21.8942421 30.85027,21.8868052 L16.9200562,21.8890799 Z" id="路径" fill="#3C4BF3"></path>
                    <path d="M20.8825697,11.9372948 C20.6181597,11.9365646 20.3647685,12.0431547 20.1803921,12.2326765 C19.9960157,12.4221983 19.8964387,12.6784267 19.9044521,12.9427162 L19.9044521,14.9148742 C19.9030731,15.4597575 20.3378253,15.9056313 20.8825697,15.9180209 L30.8684676,15.9180209 C31.1328775,15.9187512 31.3862687,15.812161 31.5706451,15.6226392 C31.7550216,15.4331174 31.8545986,15.176889 31.8465851,14.9125995 L31.8465851,12.9427162 C31.8492067,12.3969494 31.4140999,11.9497 30.8684676,11.9372948 L20.8825697,11.9372948 Z" id="路径" fill="#3C4BF3"></path>
                    <path d="M24.861006,1.98552468 C24.5969904,1.98540363 24.3441922,2.09226463 24.1603118,2.28171712 C23.9764315,2.4711696 23.8771626,2.72704442 23.8851631,2.99093875 L23.8851631,4.9630967 C23.8796809,5.22627774 23.9797772,5.48070201 24.163116,5.66959661 C24.3464549,5.85849121 24.5977786,5.96613591 24.861006,5.96851085 L30.8707422,5.96851085 C31.1351652,5.96865141 31.3883255,5.86147976 31.5722752,5.67152708 C31.7562248,5.48157439 31.8552143,5.22510412 31.8465851,4.96082201 L31.8465851,2.99093875 C31.8520673,2.72775771 31.7519711,2.47333344 31.5686322,2.28443884 C31.3852933,2.09554424 31.1339697,1.98789955 30.8707422,1.98552468 L24.861006,1.98552468 Z" id="路径" fill="#3C4BF3"></path>
                </g>
            </g>
        </g>
    </g>
</svg>