<?xml version="1.0" encoding="UTF-8"?>
<svg width="32px" height="32px" viewBox="0 0 32 32" version="1.1" xmlns="http://www.w3.org/2000/svg" xmlns:xlink="http://www.w3.org/1999/xlink">
    <title>icon_32_User Story Overview</title>
    <g id="icon" stroke="none" stroke-width="1" fill="none" fill-rule="evenodd">
        <g transform="translate(-226.000000, -1196.000000)" id="icon_32_User-Story-Overview">
            <g transform="translate(226.000000, 1196.000000)">
                <g id="编组-10" fill="#FFEDEF">
                    <circle id="椭圆形" cx="16" cy="16" r="16"></circle>
                </g>
                <g id="yonghu" transform="translate(8.000000, 6.000000)" fill="#FF5562" fill-rule="nonzero">
                    <path d="M10.5605053,16.0857713 C10.2257361,16.0463324 9.97344872,15.7626162 9.97340426,15.4255319 L9.97340426,13.7480053 C9.97331622,13.5348453 10.0754337,13.3345664 10.2480053,13.2094415 C11.3464096,12.4142287 12.3085106,11.1382979 12.8397606,9.69481383 C12.9086517,9.50750396 13.0580383,9.36104644 13.2466755,9.29587766 C13.4494681,9.22606383 13.6941489,8.79255319 13.9202128,7.82646277 C14.0432181,7.30385638 13.8989362,6.97539894 13.5757979,6.77925532 C13.3953152,6.6696818 13.2776037,6.48089929 13.2586436,6.2706117 C12.974734,3.10239362 11.181516,1.32978723 8.35771277,1.32978723 C5.48537234,1.32978723 3.62167553,3.15957447 3.35704787,6.36702128 C3.33953421,6.57691335 3.22360822,6.7660947 3.04454787,6.87699468 C2.70345745,7.08976064 2.58178191,7.36236702 2.70744681,7.7918883 C2.94414894,8.59973404 3.20279255,9.04587766 3.47207447,9.21476064 C3.59863317,9.29435901 3.69467087,9.41428902 3.74468085,9.55518617 C4.26595745,11.0199468 5.24534574,12.3297872 6.37765957,13.1602394 C6.54821796,13.2855227 6.6489493,13.4845164 6.64893617,13.6961436 L6.64893617,15.4255319 C6.6488917,15.7626162 6.39660431,16.0463324 6.06183511,16.0857713 C3.46210106,16.3916223 1.64428191,17.2160904 1.36702128,17.9281915 C1.41489362,17.950133 1.47340426,17.9734043 1.5412234,17.9966755 C1.89827128,18.1216755 2.44547872,18.2360372 3.14361702,18.331117 C4.50465426,18.5159574 6.36768617,18.6170213 8.31117021,18.6170213 C10.2546543,18.6170213 12.1176862,18.5159574 13.4787234,18.331117 C14.1768617,18.2360372 14.7240691,18.1216755 15.081117,17.9966755 C15.1496011,17.9734043 15.2074468,17.950133 15.2553191,17.9281915 C14.9780585,17.2160904 13.1602394,16.3922872 10.5611702,16.0864362 L10.5605053,16.0857713 Z M11.3031915,14.84375 C14.4481383,15.3144947 16.6223404,16.4886968 16.6223404,18.1136968 C16.6223404,19.505984 13.3776596,19.9468085 8.31117021,19.9468085 C3.24468085,19.9468085 0,19.505984 0,18.1136968 C0,16.4886968 2.17420213,15.3144947 5.31914894,14.84375 L5.31914894,14.0226064 C4.14228723,13.0764628 3.1462766,11.7174202 2.56449468,10.1968085 C2.06715426,9.79388298 1.71409574,9.13098404 1.43151596,8.16489362 C1.16555851,7.25797872 1.43284574,6.47473404 2.06183511,5.95013298 C2.48204787,2.25398936 4.86901596,0 8.35771277,0 C11.7985372,0 14.1130319,2.19680851 14.5511968,5.84773936 C15.1628989,6.3643617 15.4388298,7.17553191 15.2154255,8.13031915 C14.9388298,9.30984043 14.5744681,10.0525266 13.9900266,10.4082447 C13.3989362,11.8756649 12.4321809,13.1755319 11.3031915,14.0771277 L11.3031915,14.84375 Z" id="形状"></path>
                </g>
            </g>
        </g>
    </g>
</svg>