<?xml version="1.0" encoding="UTF-8"?>
<svg width="56px" height="56px" viewBox="0 0 56 56" version="1.1" xmlns="http://www.w3.org/2000/svg" xmlns:xlink="http://www.w3.org/1999/xlink">
    <title>vue</title>
    <g id="页面-1" stroke="none" stroke-width="1" fill="none" fill-rule="evenodd">
        <g id="icon" transform="translate(-10.000000, -65.000000)" fill-rule="nonzero">
            <g id="vue" transform="translate(10.000000, 65.000000)">
                <path d="M45.5,0 L45.5,0 C51.2989873,0 56,4.7010127 56,10.5 L56,45.5 L56,45.5 C56,51.2989873 51.2989873,56 45.5,56 C45.5,56 45.5,56 45.5,56 L10.5,56 L10.5,56 C4.70101266,56 0,51.2989873 0,45.5 C0,45.5 0,45.5 0,45.5 L0,10.5 L0,10.5 C0,4.70101428 4.70100582,0 10.5,0 L45.5,0 L45.5,0 Z" id="路径" fill="#EDF8FF"></path>
                <g id="Vue" transform="translate(12.017817, 15.017817)">
                    <polygon id="路径" fill="#41B883" points="19.6739421 0.0035634744 25.5714922 0.0035634744 15.9821826 16.6129176 6.39287305 0.0035634744 3.43475248e-16 0.0035634744 15.9821826 27.6846325 31.9643652 3.43475248e-16"></polygon>
                    <polygon id="路径" fill="#34495E" points="25.5714922 0.0035634744 19.6739421 0.0035634744 15.9821826 6.39643653 12.2904231 0.0035634744 6.39287305 0.0035634744 15.9821826 16.6129176"></polygon>
                </g>
            </g>
        </g>
    </g>
</svg>