<?xml version="1.0" encoding="UTF-8"?>
<svg width="44px" height="44px" viewBox="0 0 44 44" version="1.1" xmlns="http://www.w3.org/2000/svg" xmlns:xlink="http://www.w3.org/1999/xlink">
    <title>不通过</title>
    <g id="页面-1" stroke="none" stroke-width="1" fill="none" fill-rule="evenodd">
        <g id="不通过" fill-rule="nonzero">
            <path d="M0,22.0000256 L0,22.0000289 C0,34.1503165 9.84973802,44.0000545 22.0000256,44.0000545 C34.1503132,44.0000545 44.0000512,34.1503165 44.0000512,22.0000289 L44.0000512,22.0000289 C44.0000512,9.84974135 34.1503132,3.32190933e-06 22.0000256,3.32190933e-06 C9.84973802,3.32190933e-06 0,9.84974135 0,22.0000289 L0,22.0000256 Z" id="路径" fill="#FFEFDC"></path>
            <path d="M31.7778383,22.0978226 C29.1045858,19.4245746 24.7710835,19.4245746 22.0978226,22.0978226 C19.4245746,24.7710706 19.4245746,29.1045729 22.0978226,31.7778339 L14.1778134,31.7778339 L14.1778135,31.7778339 C13.0977884,31.7778339 12.2222561,30.9023016 12.2222561,29.8222765 C12.2222561,29.8222765 12.2222561,29.8222764 12.2222561,29.8222764 L12.2222561,14.177809 L12.2222561,14.1778092 C12.2222561,13.0977842 13.0977884,12.2222519 14.1778135,12.2222519 C14.1778135,12.2222519 14.1778135,12.2222519 14.1778136,12.2222519 L29.822281,12.2222519 L29.8222809,12.2222519 C30.902306,12.2222519 31.7778383,13.0977842 31.7778383,14.1778092 C31.7778383,14.1778093 31.7778383,14.1778093 31.7778383,14.1778093 L31.7778383,22.0978185 L31.7778383,22.0978226 Z M17.1111644,16.1333664 L17.1111645,16.1333664 C16.5711541,16.1334796 16.1335899,16.5713388 16.1335899,17.1113492 C16.1335899,17.6512006 16.5713131,18.0888121 17.1111645,18.0889238 L26.8889727,18.0889238 L26.8889727,18.0889238 C27.4289831,18.0888106 27.8665473,17.6509514 27.8665473,17.110941 C27.8665473,16.5710896 27.4288241,16.1334781 26.8889727,16.1333664 L17.1111645,16.1333664 L17.1111644,16.1333664 Z M17.1111644,20.0444811 L17.1111645,20.0444811 C16.5711541,20.0445943 16.1334782,20.4824535 16.1335899,21.0224639 C16.133703,21.5623153 16.5713131,21.9999268 17.1111645,22.0000385 L19.0667218,22.0000385 L19.0667218,22.0000385 C19.6067322,21.9999253 20.0444081,21.5620661 20.0442964,21.0220557 C20.0441832,20.4822043 19.6065732,20.0445929 19.0667218,20.0444811 L17.1111645,20.0444811 L17.1111644,20.0444811 Z" id="形状" fill="#FD8D00"></path>
            <g id="警告" transform="translate(22.516675, 22.343977)">
                <path d="M0.0232758318,4.78223902 L0.0232758318,4.78223839 C0.0232758318,7.32905312 2.08787187,9.39364916 4.6346866,9.39364916 C7.18150133,9.39364916 9.24609736,7.32905312 9.24609736,4.78223839 C9.24609736,4.78223834 9.24609736,4.7822383 9.24609736,4.78223825 C9.24609736,2.23540538 7.18150133,0.17080027 4.63465938,0.17080027 C2.08782651,0.17080027 0.0232758318,2.23539631 0.0232758318,4.78218382 L0.0232758318,4.78223902 Z" id="路径" fill="#FD8D00"></path>
                <path d="M4.63571539,7.6398729 C4.35738431,7.6398729 4.13057106,7.41411449 4.13057106,7.1347283 C4.13057106,6.85639722 4.35632921,6.63063998 4.63571539,6.63063998 C4.91510158,6.63063998 5.14086001,6.85639813 5.14086001,7.1347283 L5.14086001,7.13473374 C5.14114841,7.4134259 4.91545813,7.63958414 4.63676597,7.6398729 C4.63641389,7.6398729 4.63606181,7.6398729 4.63570973,7.6398729 L4.63571539,7.6398729 Z M4.63571539,5.99036953 C4.45118167,5.99036953 4.30069438,5.69039744 4.30069438,5.32132999 L3.96562075,2.30893511 C3.96562075,1.93875994 4.26559284,1.63979033 4.63471291,1.63979033 C5.00478285,1.63979033 5.30375245,1.93981504 5.30375245,2.30888249 L4.96873144,5.32127737 C4.97079002,5.69039653 4.82025003,5.99036953 4.6357163,5.99036953 L4.63571539,5.99036953 Z" id="形状" fill="#FFFFFF"></path>
            </g>
        </g>
    </g>
</svg>