<?xml version="1.0" encoding="utf-8"?>
<!-- Generator: Adobe Illustrator 24.0.1, SVG Export Plug-In . SVG Version: 6.00 Build 0)  -->
<svg
  version="1.1"
  id="图层_1"
  xmlns="http://www.w3.org/2000/svg"
  xmlns:xlink="http://www.w3.org/1999/xlink"
  x="0px"
  y="0px"
  viewBox="0 0 20 20"
  style="enable-background:new 0 0 20 20;"
  xml:space="preserve"
>
  <style type="text/css">
    .st0 {
      fill: none;
    }
    .st1 {
      fill: #333333;
    }
  </style>
  <title>申请与审核</title>
  <rect id="矩形" y="0" class="st0" width="20" height="20" />
  <path
    id="形状结合"
    class="st1"
    d="M16,0c1.1,0,1.9,0.8,2,1.9L18,2v9c0,0.6-0.4,1-1,1c-0.5,0-0.9-0.4-1-0.9l0-0.1V2H3v15.9h3.6
c0.6,0,1,0.4,1,1c0,0.5-0.4,0.9-0.9,1l-0.1,0H3c-1.1,0-1.9-0.8-2-1.9l0-0.1V2c0-1.1,0.8-1.9,1.9-2L3,0H16z M19.6,12.3
c0.4,0.4,0.4,0.9,0.1,1.3l-0.1,0.1l-6,5.9c-0.4,0.4-0.9,0.4-1.3,0.1l-0.1-0.1l-3.3-3.5c-0.4-0.4-0.4-1,0-1.4c0.4-0.4,0.9-0.4,1.3,0
l0.1,0.1l2.6,2.8l5.3-5.2C18.6,11.9,19.2,11.9,19.6,12.3z M9,10c0.6,0,1,0.4,1,1s-0.4,1-1,1H5c-0.6,0-1-0.4-1-1s0.4-1,1-1H9z M11,7
c0.6,0,1,0.4,1,1s-0.4,1-1,1H5C4.4,9,4,8.6,4,8s0.4-1,1-1H11z M13,4c0.6,0,1,0.4,1,1s-0.4,1-1,1H5C4.4,6,4,5.6,4,5s0.4-1,1-1H13z"
  />
</svg>
