<?xml version="1.0" encoding="utf-8"?>
<!-- Generator: Adobe Illustrator 24.0.1, SVG Export Plug-In . SVG Version: 6.00 Build 0)  -->
<svg
  version="1.1"
  id="图层_1"
  xmlns="http://www.w3.org/2000/svg"
  xmlns:xlink="http://www.w3.org/1999/xlink"
  x="0px"
  y="0px"
  viewBox="0 0 20 20"
  style="enable-background:new 0 0 20 20;"
  xml:space="preserve"
>
  <style type="text/css">
    .st0 {
      fill: #333333;
    }
  </style>
  <title>公司查询</title>
  <path
    class="st0"
    d="M12,0.8c0,0.1,0,0.2,0,0.2v7.6l7.3,2.2c0.4,0.1,0.7,0.5,0.7,1V19c0,0.6-0.4,1-1,1h-9v0l-9,0c-0.6,0-1-0.5-1-1
V3.6c0-0.5,0.3-0.9,0.8-1l10-2.5C11.3-0.1,11.8,0.2,12,0.8z M12,10.7V18h6v-5.5L12,10.7z M10,2.3l-8,2V18h8V2.3z M8.7,14
C8.9,14,9,14.1,9,14.3v1.4C9,15.9,8.9,16,8.7,16H3.3C3.1,16,3,15.9,3,15.7v-1.4C3,14.1,3.1,14,3.3,14H8.7z M16.7,14
c0.2,0,0.3,0.1,0.3,0.3v1.4c0,0.2-0.1,0.3-0.3,0.3h-3.4c-0.2,0-0.3-0.1-0.3-0.3v-1.4c0-0.2,0.1-0.3,0.3-0.3H16.7z M8.7,10
C8.9,10,9,10.1,9,10.3v1.4C9,11.9,8.9,12,8.7,12H3.3C3.1,12,3,11.9,3,11.7v-1.4C3,10.1,3.1,10,3.3,10H8.7z M8.7,6C8.9,6,9,6.1,9,6.3
v1.4C9,7.9,8.9,8,8.7,8H3.3C3.1,8,3,7.9,3,7.7V6.3C3,6.1,3.1,6,3.3,6H8.7z"
  />
</svg>
