<?xml version="1.0" encoding="utf-8"?>
<!-- Generator: Adobe Illustrator 24.0.1, SVG Export Plug-In . SVG Version: 6.00 Build 0)  -->
<svg
  version="1.1"
  id="图层_1"
  xmlns="http://www.w3.org/2000/svg"
  xmlns:xlink="http://www.w3.org/1999/xlink"
  x="0px"
  y="0px"
  viewBox="0 0 20 20"
  style="enable-background:new 0 0 20 20;"
  xml:space="preserve"
>
  <style type="text/css">
    .st0 {
      fill: #333333;
    }
  </style>
  <title>组织结构查询</title>
  <path
    class="st0"
    d="M12.5,0c0.6,0,1,0.4,1,1v5c0,0.6-0.4,1-1,1H11v2h5.2c0.7,0,1.2,0.5,1.3,1.2l0,0.1V13H19c0.6,0,1,0.4,1,1v5
c0,0.6-0.4,1-1,1h-5c-0.6,0-1-0.4-1-1v-5c0-0.6,0.4-1,1-1h1.5v-2h-11v2H6c0.6,0,1,0.4,1,1v5c0,0.6-0.4,1-1,1H1c-0.6,0-1-0.4-1-1v-5
c0-0.6,0.4-1,1-1h1.5v-2.7C2.5,9.6,3,9.1,3.7,9l0.1,0H9V7H7.5c-0.6,0-1-0.4-1-1V1c0-0.6,0.4-1,1-1H12.5z M5,15H2v3h3V15z M18,15h-3
v3h3V15z M11.5,2h-3v3h3V2z"
  />
</svg>
