<?xml version="1.0" encoding="utf-8"?>
<!-- Generator: Adobe Illustrator 24.0.1, SVG Export Plug-In . SVG Version: 6.00 Build 0)  -->
<svg
  version="1.1"
  id="图层_1"
  xmlns="http://www.w3.org/2000/svg"
  xmlns:xlink="http://www.w3.org/1999/xlink"
  x="0px"
  y="0px"
  viewBox="0 0 20 20"
  style="enable-background:new 0 0 20 20;"
  xml:space="preserve"
>
  <style type="text/css">
    .st0 {
      fill: none;
    }
    .st1 {
      fill: #333333;
    }
  </style>
  <title>角色查询</title>
  <rect id="矩形" x="-1" y="-1" class="st0" width="22" height="22" />
  <path
    d="M2,15 C2,12.5672138 3.86366367,10.543979 6.52120642,9.58975754 C5.58287943,8.68202655 5,7.40908267 5,6 C5,3.23857625 7.23857625,1 10,1 C12.7614237,1 15,3.23857625 15,6 C15,7.40908267 14.4171206,8.68202655 13.4793218,9.59087152 C15.9698294,10.4841893 17.7633571,12.3178854 17.9783166,14.5477247 C17.9835347,14.6018535 17.9907625,14.752612 18,15 L18,18 C18,18.5522847 17.5522847,19 17,19 L3,19 C2.44771525,19 2,18.5522847 2,18 L2,15 Z M10,11 C6.71442272,11 4.13525639,12.7820863 4.00515159,14.8372134 L4,15 L4,17 L16,17 L16,15 C15.9893137,14.7799367 15.9735834,14.6158979 15.9528091,14.5078835 C15.584975,12.5953594 13.1086841,11 10,11 Z M10,3 C8.34314575,3 7,4.34314575 7,6 C7,7.65685425 8.34314575,9 10,9 C11.6568542,9 13,7.65685425 13,6 C13,4.34314575 11.6568542,3 10,3 Z"
    id="形状结合"
    fill="#333333"
    fill-rule="nonzero"
  ></path>
</svg>
