<?xml version="1.0" encoding="utf-8"?>
<!-- Generator: Adobe Illustrator 24.0.1, SVG Export Plug-In . SVG Version: 6.00 Build 0)  -->
<svg
  version="1.1"
  id="图层_1"
  xmlns="http://www.w3.org/2000/svg"
  xmlns:xlink="http://www.w3.org/1999/xlink"
  x="0px"
  y="0px"
  viewBox="0 0 20 20"
  style="enable-background:new 0 0 20 20;"
  xml:space="preserve"
>
  <style type="text/css">
    .st0 {
      fill: none;
    }
    .st1 {
      fill: #333333;
    }
  </style>
  <title>用户查询</title>
  <rect id="矩形" x="-1" y="-1" class="st0" width="22" height="22" />
  <path
    id="形状结合"
    class="st1"
    d="M0,15c0-2.4,1.9-4.5,4.5-5.4C3.6,8.7,3,7.4,3,6c0-2.8,2.2-5,5-5s5,2.2,5,5
c0,1.4-0.6,2.7-1.5,3.6c2.5,0.9,4.3,2.7,4.5,5c0,0,0,0.1,0,0.1c0,0.2-0.1,0.3-0.3,0.3c0,0,0,0,0,0h-1.4c-0.2,0-0.3-0.1-0.3-0.3
c0-0.1,0-0.2,0-0.2c-0.4-1.9-2.8-3.5-6-3.5c-3.3,0-5.9,1.8-6,3.8L2,15l0,0v2h18v1c0,0.6-0.4,1-1,1H1c-0.6,0-1-0.4-1-1V15z M14.3,2.7
c0.2,0,0.4,0,0.5,0.1c1.8,0.4,3.2,2,3.2,3.9c0,1.2-0.5,2.2-1.3,3c1.5,0.8,2.6,2.2,3.1,3.9c0.1,0.5,0.2,0.9,0.2,1.4l0,0.3V17h-1.7
v-1.8c0-0.4-0.1-0.8-0.2-1.2c-0.5-1.8-2.1-3.1-3.9-3.2c-0.1,0-0.2-0.1-0.2-0.2V9c0-0.2,0.1-0.3,0.3-0.3c0.1,0,0.2,0,0.2,0
c0.9-0.2,1.5-1,1.5-1.9c0-1.1-0.8-1.9-1.9-2c-0.1,0-0.1-0.1-0.1-0.2V3C14,2.8,14.1,2.7,14.3,2.7L14.3,2.7z M8,3C6.3,3,5,4.3,5,6
s1.3,3,3,3s3-1.3,3-3S9.7,3,8,3z"
  />
</svg>
