<?xml version="1.0" encoding="utf-8"?>
<!-- Generator: Adobe Illustrator 24.0.1, SVG Export Plug-In . SVG Version: 6.00 Build 0)  -->
<svg
  version="1.1"
  id="图层_1"
  xmlns="http://www.w3.org/2000/svg"
  xmlns:xlink="http://www.w3.org/1999/xlink"
  x="0px"
  y="0px"
  viewBox="0 0 20 20"
  style="enable-background:new 0 0 20 20;"
  xml:space="preserve"
>
  <style type="text/css">
    .st0 {
      fill: #333333;
    }
  </style>
  <title>变更模板管理</title>
  <g id="back" transform="translate(0.000000, -3.000000)"></g>
  <path
    class="st0"
    d="M9,11c0.6,0,1,0.4,1,1v7c0,0.6-0.4,1-1,1H1c-0.6,0-1-0.4-1-1v-7c0-0.6,0.4-1,1-1H9z M15.2,13
C15.2,13,15.2,13,15.2,13c-0.1-0.1-0.1-0.1-0.1-0.2l0,0l2.1-2.6c0,0,0,0,0,0c0.1-0.1,0.3-0.1,0.4,0l0,0l2.1,2.6c0,0,0,0,0,0.1
c0,0.1,0,0.1-0.1,0.1l0,0h-1.3c0,3.8-3,6.9-6.8,7c-0.1,0-0.2-0.1-0.2-0.2l0-1.4c0-0.1,0.1-0.2,0.2-0.2l0.1,0l0,0
c2.7-0.1,4.8-2.3,4.9-4.9l0-0.2H15.2z M8,13H2v5h6V13z M8.3,0c0.1,0,0.2,0.1,0.2,0.2c0,0,0,0,0,0v1.4c0,0.1-0.1,0.2-0.2,0.2l-0.1,0
l0,0C5.6,2,3.5,4.1,3.4,6.8l0,0.2h1.4c0.1,0,0.1,0,0.1,0.1c0,0,0,0,0,0.1L2.7,9.7c-0.1,0.1-0.3,0.1-0.4,0c0,0,0,0,0,0L0.1,7.2
c0,0,0-0.1,0-0.1c0,0,0,0,0.1,0h1.3C1.5,3.2,4.5,0.1,8.3,0z M19,0c0.6,0,1,0.4,1,1v7c0,0.6-0.4,1-1,1h-8c-0.6,0-1-0.4-1-1V1
c0-0.6,0.4-1,1-1H19z M18,2h-6v5h6V2z"
  />
</svg>
