<?xml version="1.0" encoding="utf-8"?>
<!-- Generator: Adobe Illustrator 24.0.1, SVG Export Plug-In . SVG Version: 6.00 Build 0)  -->
<svg
  version="1.1"
  id="图层_1"
  xmlns="http://www.w3.org/2000/svg"
  xmlns:xlink="http://www.w3.org/1999/xlink"
  x="0px"
  y="0px"
  viewBox="0 0 20 20"
  style="enable-background:new 0 0 20 20;"
  xml:space="preserve"
>
  <style type="text/css">
    .st0 {
      fill-rule: evenodd;
      clip-rule: evenodd;
      fill: #333333;
    }
  </style>
  <title>变更计划</title>
  <g id="back" transform="translate(0.000000, -3.000000)"></g>
  <path
    class="st0"
    d="M16,0c0.6,0,1,0.4,1,1v7.7C17,8.9,16.9,9,16.7,9h-1.4C15.1,9,15,8.9,15,8.7V2H2v16h7.7c0.2,0,0.3,0.1,0.3,0.3
v1.4c0,0.2-0.1,0.3-0.3,0.3H1c-0.6,0-1-0.4-1-1V1c0-0.6,0.4-1,1-1H16z M16,15.3c0,0.1,0,0.1-0.1,0.1c0,0,0,0-0.1,0l-2.6-2.1
c-0.1-0.1-0.1-0.3,0-0.4c0,0,0,0,0,0l2.6-2.1c0,0,0.1,0,0.1,0c0,0,0,0,0,0.1V12c2.2,0,4,1.8,4,4s-1.8,4-4,4c-2,0-3.6-1.4-3.9-3.3
c0-0.1,0-0.2,0-0.4c0-0.2,0.1-0.3,0.3-0.3l1.4,0c0.2,0,0.3,0.1,0.3,0.3c0,0,0,0.1,0,0.1c0.2,0.9,1,1.6,2,1.6c1.1,0,2-0.9,2-2
c0-1.1-0.8-1.9-1.9-2L16,14V15.3z M9.7,13c0.2,0,0.3,0.1,0.3,0.3v1.4c0,0.2-0.1,0.3-0.3,0.3H5.3C5.1,15,5,14.9,5,14.7v-1.4
C5,13.1,5.1,13,5.3,13H9.7z M11.7,9C11.9,9,12,9.1,12,9.3v1.4c0,0.2-0.1,0.3-0.3,0.3H5.3C5.1,11,5,10.9,5,10.7V9.3
C5,9.1,5.1,9,5.3,9H11.7z M11.7,5C11.9,5,12,5.1,12,5.3v1.4C12,6.9,11.9,7,11.7,7H5.3C5.1,7,5,6.9,5,6.7V5.3C5,5.1,5.1,5,5.3,5H11.7
z"
  />
</svg>
