<?xml version="1.0" encoding="utf-8"?>
<!-- Generator: Adobe Illustrator 24.0.1, SVG Export Plug-In . SVG Version: 6.00 Build 0)  -->
<svg
  version="1.1"
  id="图层_1"
  xmlns="http://www.w3.org/2000/svg"
  xmlns:xlink="http://www.w3.org/1999/xlink"
  x="0px"
  y="0px"
  viewBox="0 0 20 20"
  style="enable-background:new 0 0 20 20;"
  xml:space="preserve"
>
  <style type="text/css">
    .st0 {
      fill: #333333;
    }
  </style>
  <title>参数维护</title>
  <g id="back" transform="translate(0.000000, -3.000000)"></g>
  <path
    class="st0"
    d="M12.4043208,1 C10.7199747,1 9.03664273,1.64191549 7.75082045,2.92676056 C5.95391425,4.72473239 5.41545082,7.30152113 6.12833178,9.56901408 L1.29737175,14.4001127 C0.900876083,14.7956056 0.900876083,15.4385352 1.29737175,15.8340282 L4.16613454,18.7028732 C4.36286129,18.9006197 4.62347353,19 4.88307172,19 C5.14266991,19 5.4022681,18.9006197 5.60000891,18.7028732 L10.4309689,13.8707606 C11.0759082,14.0745915 11.7472129,14.176 12.4175035,14.176 C14.1028636,14.176 15.7872097,13.5340845 17.0730319,12.2492394 C19.525018,9.79616901 19.63555,5.89295775 17.4127405,3.30298592 L14.5632448,6.15357746 L13.8463076,5.43661972 L16.6958033,2.58602817 C15.463726,1.52833803 13.9335164,1 12.4043208,1 M12.4043208,3.02816901 C12.7065093,3.02816901 13.0056556,3.05757746 13.2987177,3.11639437 L12.4114192,4.00270423 L10.9775448,5.43661972 L12.4114192,6.87053521 L13.1293704,7.58850704 L14.5632448,9.02242254 L15.9971191,7.58850704 L16.8803614,6.70523944 C17.1622688,8.15335211 16.7414358,9.71098592 15.6381435,10.8153239 C14.7792386,11.6742535 13.6353841,12.147831 12.4175035,12.147831 C11.9490099,12.147831 11.4845725,12.0768451 11.0383881,11.9369014 L9.86614006,11.5677746 L8.99709457,12.4368451 L4.88307172,16.5509859 L3.4481833,15.1170704 L7.5632202,11.0029296 L8.4322657,10.1338592 L8.06314952,8.96157746 C7.55003748,7.32890141 7.97999698,5.56642254 9.18469482,4.36067606 C10.0446138,3.50174648 11.1884683,3.02816901 12.4043208,3.02816901"
    id="tools-工具"
    fill="#333333"
  ></path>
</svg>
