<?xml version="1.0" encoding="utf-8"?>
<!-- Generator: Adobe Illustrator 24.0.1, SVG Export Plug-In . SVG Version: 6.00 Build 0)  -->
<svg version="1.1" id="图层_1" xmlns="http://www.w3.org/2000/svg" xmlns:xlink="http://www.w3.org/1999/xlink" x="0px" y="0px"
	 viewBox="0 0 20 20" style="enable-background:new 0 0 20 20;" xml:space="preserve">
<style type="text/css">
	.st0{fill-rule:evenodd;clip-rule:evenodd;fill:#333333;}
</style>
<title>生产问题列表</title>
<path class="st0" d="M10,13.3v1.4c0,0.2-0.1,0.3-0.3,0.3H5.3C5.1,15,5,14.9,5,14.7v-1.4C5,13.1,5.1,13,5.3,13h4.4
	C9.9,13,10,13.1,10,13.3z M12,9.3v1.4c0,0.2-0.1,0.3-0.3,0.3H5.3C5.1,11,5,10.9,5,10.7V9.3C5,9.1,5.1,9,5.3,9h6.4
	C11.9,9,12,9.1,12,9.3z M12,5.3v1.4C12,6.9,11.9,7,11.7,7H5.3C5.1,7,5,6.9,5,6.7V5.3C5,5.1,5.1,5,5.3,5h6.4C11.9,5,12,5.1,12,5.3z
	 M17,1v6.7C17,7.9,16.9,8,16.7,8h-1.4C15.1,8,15,7.9,15,7.7V2l0,0H2v16h9.7c0.2,0,0.3,0.1,0.3,0.3v1.4c0,0.2-0.1,0.3-0.3,0.3H1
	c-0.6,0-1-0.4-1-1V1c0-0.6,0.4-1,1-1h15C16.6,0,17,0.4,17,1z M16.3,18h1.4c0.2,0,0.3,0.1,0.3,0.3v1.4c0,0.2-0.1,0.3-0.3,0.3h-1.4
	c-0.2,0-0.3-0.1-0.3-0.3v-1.4C16,18.1,16.1,18,16.3,18z M17,9c1.7,0,3,1.4,3,3.1c0,1.3-0.7,2.3-1.9,2.9L18,15.1V17h-2v-2.6
	c0-0.4,0.3-0.8,0.7-1c0.9-0.3,1.3-0.7,1.3-1.4c0-0.6-0.5-1.1-1-1.1c-0.5,0-0.9,0.4-1,1l0,0.1h-2C14,10.4,15.3,9,17,9z"/>
</svg>
