<?xml version="1.0" encoding="utf-8"?>
<!-- Generator: Adobe Illustrator 24.0.1, SVG Export Plug-In . SVG Version: 6.00 Build 0)  -->
<svg
  version="1.1"
  id="图层_1"
  xmlns="http://www.w3.org/2000/svg"
  xmlns:xlink="http://www.w3.org/1999/xlink"
  x="0px"
  y="0px"
  viewBox="0 0 20 20"
  style="enable-background:new 0 0 20 20;"
  xml:space="preserve"
>
  <style type="text/css">
    .st0 {
      fill: none;
    }
    .st1 {
      fill-rule: evenodd;
      clip-rule: evenodd;
      fill: #434c67;
    }
  </style>
  <title>投产窗口列表</title>
  <rect id="矩形" y="0" class="st0" width="20" height="20" />
  <path
    id="business-o-商机-线"
    class="st1"
    d="M15,1c0.6,0,1,0.4,1,1v2h3c0.6,0,1,0.4,1,1v13c0,0.6-0.4,1-1,1H1c-0.6,0-1-0.4-1-1
V5c0-0.6,0.4-1,1-1h3V2c0-0.6,0.4-1,1-1H15z M2,11v6h16v-6H2z M14,3H6v1h8V3z M2,9h16V6H2V9z"
  />
</svg>
