<?xml version="1.0" encoding="utf-8"?>
<!-- Generator: Adobe Illustrator 24.0.1, SVG Export Plug-In . SVG Version: 6.00 Build 0)  -->
<svg
  version="1.1"
  id="图层_1"
  xmlns="http://www.w3.org/2000/svg"
  xmlns:xlink="http://www.w3.org/1999/xlink"
  x="0px"
  y="0px"
  viewBox="0 0 20 20"
  style="enable-background:new 0 0 20 20;"
  xml:space="preserve"
>
  <style type="text/css">
    .st0 {
      fill: #333333;
    }
  </style>
  <title>数据库变更审核</title>
  <path
    class="st0"
    d="M16,0c0.6,0,1,0.4,1,1v2.7C17,3.9,16.9,4,16.7,4h-1.4C15.1,4,15,3.9,15,3.7V2H2v16h7.7c0.2,0,0.3,0.1,0.3,0.3
v1.4c0,0.2-0.1,0.3-0.3,0.3H1c-0.6,0-1-0.4-1-1V1c0-0.6,0.4-1,1-1H16z M19.7,18c0.2,0,0.3,0.1,0.3,0.3v1.4c0,0.2-0.1,0.3-0.3,0.3
h-7.4c-0.2,0-0.3-0.1-0.3-0.3v-1.4c0-0.2,0.1-0.3,0.3-0.3H19.7z M16,6c2.2,0,4,1.8,4,4c0,1.9-1.3,3.4-3,3.9l0,1.1h2.7
c0.2,0,0.3,0.1,0.3,0.3v1.4c0,0.2-0.1,0.3-0.3,0.3h-7.4c-0.2,0-0.3-0.1-0.3-0.3v-1.4c0-0.2,0.1-0.3,0.3-0.3H15l0-1.1
c-1.7-0.4-3-2-3-3.9C12,7.8,13.8,6,16,6z M5.7,8C5.9,8,6,8.1,6,8.3v6.4C6,14.9,5.9,15,5.7,15H4.3C4.1,15,4,14.9,4,14.7V8.3
C4,8.1,4.1,8,4.3,8H5.7z M9.7,5C9.9,5,10,5.1,10,5.3v9.4c0,0.2-0.1,0.3-0.3,0.3H8.3C8.1,15,8,14.9,8,14.7V5.3C8,5.1,8.1,5,8.3,5H9.7
z M16,8c-1.1,0-2,0.9-2,2s0.9,2,2,2s2-0.9,2-2S17.1,8,16,8z"
  />
</svg>
