<?xml version="1.0" encoding="utf-8"?>
<!-- Generator: Adobe Illustrator 24.0.1, SVG Export Plug-In . SVG Version: 6.00 Build 0)  -->
<svg
  version="1.1"
  id="图层_1"
  xmlns="http://www.w3.org/2000/svg"
  xmlns:xlink="http://www.w3.org/1999/xlink"
  x="0px"
  y="0px"
  viewBox="0 0 18 20"
  style="enable-background:new 0 0 18 20;"
  xml:space="preserve"
>
  <style type="text/css">
    .st0 {
      fill: #333333;
    }
  </style>
  <title>我的应用</title>
  <path
    id="应用模块"
    class="st0"
    d="M9.5,0.1l7.9,4.5C17.8,4.8,18,5.1,18,5.5v9c0,0.4-0.2,0.7-0.5,0.9l-7.9,4.5
c-0.3,0.2-0.7,0.2-1.1,0l-7.9-4.5C0.2,15.2,0,14.9,0,14.5l0-9c0-0.4,0.2-0.7,0.5-0.9l7.9-4.5C8.8,0,9.2,0,9.5,0.1z M9,2.2L2,6.1
l0,7.8l7,3.9l7-3.9V6.1L9,2.2z M13.7,6.3C13.7,6.3,13.7,6.3,13.7,6.3l0.7,1.4c0.1,0.1,0,0.3-0.1,0.4L10,10.2l0,4.6
c0,0.2-0.1,0.3-0.3,0.3H8.3c-0.2,0-0.3-0.1-0.3-0.3v-4.6L3.8,8C3.6,8,3.5,7.8,3.6,7.7l0.6-1.4c0.1-0.2,0.2-0.2,0.4-0.2c0,0,0,0,0,0
L9,8.3l4.3-2.2C13.4,6.1,13.6,6.1,13.7,6.3z"
  />
</svg>
