<?xml version="1.0" encoding="UTF-8"?>
<svg width="18px" height="16px" viewBox="0 0 18 16" version="1.1" xmlns="http://www.w3.org/2000/svg" xmlns:xlink="http://www.w3.org/1999/xlink">
    <title>我的缺陷</title>
    <g id="页面-1" stroke="none" stroke-width="1" fill="none" fill-rule="evenodd">
        <g id="1.4_Icon_基础" transform="translate(-1024.000000, -1228.000000)">
            <g id="我的缺陷" transform="translate(1023.000000, 1226.000000)">
                <rect id="矩形" x="0" y="0" width="20" height="20"></rect>
                <path d="M8.98978185,12.9914211 C9.22771725,12.9935331 9.49457978,12.9935331 10,12.9914211 C10.4944596,12.9893548 10.8269788,12.9914211 10.9897819,12.9914211 L10.9897819,8.01521551 C10.4572065,8.01521551 9.39074416,8.01521551 8.98978185,8.01521551 L8.98978185,12.9914211 Z M9.99860636,2.00221108 C10.5311499,2.00221108 11.0193147,2.28828085 11.2811486,2.74954062 L11.2811486,2.74954062 L18.7966687,15.7845644 C19.0651593,16.241389 19.0673783,16.8068757 18.8055444,17.2659179 C18.5392726,17.7249601 18.0488888,18.0065947 17.5185643,18.0022111 L17.5185643,18.0022111 L2.48530524,18.0022111 C1.95498067,18.0043771 1.46459687,17.7249601 1.19832513,17.2659179 C0.932312823,16.8074866 0.934008728,16.2413955 1.20276299,15.7845644 L1.20276299,15.7845644 L8.71606411,2.74954062 C8.977898,2.28828085 9.4682818,2.00221108 9.99860636,2.00221108 Z M9.98793888,4 C9.95131868,4 9.9187674,4.01810782 9.9004573,4.05029949 L9.9004573,4.05029949 L3.0097565,15.8425122 C2.98534304,15.8747039 2.98330858,15.9169555 3.00365314,15.9511591 C3.02399769,15.9853628 3.06265235,16.0034706 3.101307,15.9994467 L3.101307,15.9994467 L16.884743,15.9994467 C16.9213632,16.0014586 16.9579834,15.9813388 16.9762935,15.9491472 C16.9946036,15.9189675 16.9946036,15.8807399 16.9742591,15.8525721 L16.9742591,15.8525721 L10.0754205,4.05029949 C10.0571104,4.0201198 10.0245591,4 9.98793888,4 Z M9.48911071,13.5413205 C9.80052011,13.3618161 10.1817282,13.3618161 10.490453,13.5413205 C10.7991778,13.7208248 10.9897819,14.0503627 10.9897819,14.4066922 C10.9897819,14.7630218 10.7991778,15.0925596 10.490453,15.272064 C10.1790436,15.4515683 9.79783554,15.4515683 9.48911071,15.272064 C9.18038588,15.0925596 8.98978185,14.7630218 8.98978185,14.4066922 C8.98978185,14.0503627 9.18038588,13.7208248 9.48911071,13.5413205 Z" id="形状" fill="#000000" fill-rule="nonzero"></path>
            </g>
        </g>
    </g>
</svg>