<?xml version="1.0" encoding="UTF-8"?>
<svg width="20px" height="20px" viewBox="0 0 20 20" version="1.1" xmlns="http://www.w3.org/2000/svg" xmlns:xlink="http://www.w3.org/1999/xlink">
    <title>我的审批</title>
    <g id="组件库" stroke="none" stroke-width="1" fill="none" fill-rule="evenodd">
        <g id="1.4_Icon_场景图标" transform="translate(-766.000000, -1878.000000)">
            <g id="我的审批" transform="translate(766.000000, 1878.000000)">
                <rect id="矩形" x="0" y="0" width="20" height="20"></rect>
                <path d="M16,0 C16.5522847,-1.01453063e-16 17,0.44771525 17,1 L17,6.56579003 C17,6.73147545 16.8656854,6.86579003 16.7,6.86579003 L15.3,6.86579003 C15.1343146,6.86579003 15,6.73147545 15,6.56579003 L15,2 L2,2 L2,18 L7.86516174,18 C8.03084717,18 8.16516174,18.1343146 8.16516174,18.3 L8.16516174,19.7 C8.16516174,19.8656854 8.03084717,20 7.86516174,20 L1,20 C0.44771525,20 6.76353751e-17,19.5522847 0,19 L0,1 C-6.76353751e-17,0.44771525 0.44771525,1.01453063e-16 1,0 L16,0 Z M15,8 C16.6568542,8 18,9.34314575 18,11 C18,12.3058822 17.1656226,13.4168852 16.0009007,13.8289758 L16,15 L18,15 C19.1045695,15 20,15.8954305 20,17 L20,20 L10,20 L10,17 C10,15.8954305 10.8954305,15 12,15 L14,15 L14.0000889,13.8293257 C12.8348501,13.4175144 12,12.3062521 12,11 C12,9.34314575 13.3431458,8 15,8 Z M18,17 L12,17 L12,18 L18,18 L18,17 Z M9.7,13 C9.86568542,13 10,13.1343146 10,13.3 L10,14.7 C10,14.8656854 9.86568542,15 9.7,15 L5.3,15 C5.13431458,15 5,14.8656854 5,14.7 L5,13.3 C5,13.1343146 5.13431458,13 5.3,13 L9.7,13 Z M15,10 C14.4477153,10 14,10.4477153 14,11 C14,11.5522847 14.4477153,12 15,12 C15.5522847,12 16,11.5522847 16,11 C16,10.4477153 15.5522847,10 15,10 Z M9.7,9 C9.86568542,9 10,9.13431458 10,9.3 L10,10.7 C10,10.8656854 9.86568542,11 9.7,11 L5.3,11 C5.13431458,11 5,10.8656854 5,10.7 L5,9.3 C5,9.13431458 5.13431458,9 5.3,9 L9.7,9 Z M11.7,5 C11.8656854,5 12,5.13431458 12,5.3 L12,6.7 C12,6.86568542 11.8656854,7 11.7,7 L5.3,7 C5.13431458,7 5,6.86568542 5,6.7 L5,5.3 C5,5.13431458 5.13431458,5 5.3,5 L11.7,5 Z" id="形状结合" fill="#333333"></path>
            </g>
        </g>
    </g>
</svg>