<?xml version="1.0" encoding="utf-8"?>
<!-- Generator: Adobe Illustrator 24.0.1, SVG Export Plug-In . SVG Version: 6.00 Build 0)  -->
<svg
  version="1.1"
  id="图层_1"
  xmlns="http://www.w3.org/2000/svg"
  xmlns:xlink="http://www.w3.org/1999/xlink"
  x="0px"
  y="0px"
  viewBox="0 0 20 20"
  style="enable-background:new 0 0 20 20;"
  xml:space="preserve"
>
  <style type="text/css">
    .st0 {
      fill-rule: evenodd;
      clip-rule: evenodd;
      fill: #333333;
    }
  </style>
  <title>我的基础架构</title>
  <path
    class="st0"
    d="M5,14c0.6,0,1,0.4,1,1v4c0,0.6-0.4,1-1,1H1c-0.6,0-1-0.4-1-1v-4c0-0.6,0.4-1,1-1H5z M12,14c0.6,0,1,0.4,1,1v4
c0,0.6-0.4,1-1,1H8c-0.6,0-1-0.4-1-1v-4c0-0.6,0.4-1,1-1H12z M19,14c0.6,0,1,0.4,1,1v4c0,0.6-0.4,1-1,1h-4c-0.6,0-1-0.4-1-1v-4
c0-0.6,0.4-1,1-1H19z M4,16H2v2h2V16z M11,16H9v2h2V16z M18,16h-2v2h2V16z M3.7,9C3.9,9,4,9.1,4,9.3v3.4C4,12.9,3.9,13,3.7,13H2.3
C2.1,13,2,12.9,2,12.7V9.3C2,9.1,2.1,9,2.3,9H3.7z M10.7,9C10.9,9,11,9.1,11,9.3v3.4c0,0.2-0.1,0.3-0.3,0.3H9.3
C9.1,13,9,12.9,9,12.7V9.3C9,9.1,9.1,9,9.3,9H10.7z M17.7,9C17.9,9,18,9.1,18,9.3v3.4c0,0.2-0.1,0.3-0.3,0.3h-1.4
c-0.2,0-0.3-0.1-0.3-0.3V9.3C16,9.1,16.1,9,16.3,9H17.7z M18,0c0.6,0,1,0.4,1,1v6c0,0.6-0.4,1-1,1H2C1.4,8,1,7.6,1,7V1
c0-0.6,0.4-1,1-1H18z M17,2H3v4h14V2z"
  />
</svg>
