<?xml version="1.0" encoding="utf-8"?>
<!-- Generator: Adobe Illustrator 24.0.1, SVG Export Plug-In . SVG Version: 6.00 Build 0)  -->
<svg
  version="1.1"
  id="图层_1"
  xmlns="http://www.w3.org/2000/svg"
  xmlns:xlink="http://www.w3.org/1999/xlink"
  x="0px"
  y="0px"
  viewBox="0 0 20 20"
  style="enable-background:new 0 0 20 20;"
  xml:space="preserve"
>
  <style type="text/css">
    .st0 {
      fill: #333333;
    }
  </style>
  <title>我的信息</title>
  <path
    class="st0"
    d="M10,0c4,0,7.6,2.3,9.2,6c1.6,3.6,0.9,7.9-1.8,10.8c-2.6,2.8-6.6,3.9-10.3,2.8l-0.3-0.1L3,20l0.6-2.3
c-3.2-2.7-4.4-7.1-3-11.1S5.8,0,10,0z M10,2c-4.4,0-8,3.6-8,8s3.6,8,8,8s8-3.6,8-8S14.4,2,10,2z M6,8.5c0.8,0,1.5,0.7,1.5,1.5
S6.8,11.5,6,11.5S4.5,10.8,4.5,10S5.2,8.5,6,8.5z M10,8.5c0.8,0,1.5,0.7,1.5,1.5s-0.7,1.5-1.5,1.5S8.5,10.8,8.5,10S9.2,8.5,10,8.5z
  M14,8.5c0.8,0,1.5,0.7,1.5,1.5s-0.7,1.5-1.5,1.5s-1.5-0.7-1.5-1.5S13.2,8.5,14,8.5z"
  />
</svg>
