<?xml version="1.0" encoding="utf-8"?>
<!-- Generator: Adobe Illustrator 24.0.1, SVG Export Plug-In . SVG Version: 6.00 Build 0)  -->
<svg
  version="1.1"
  id="图层_1"
  xmlns="http://www.w3.org/2000/svg"
  xmlns:xlink="http://www.w3.org/1999/xlink"
  x="0px"
  y="0px"
  viewBox="0 0 18 18"
  style="enable-background:new 0 0 18 18;"
  xml:space="preserve"
>
  <style type="text/css">
    .st0 {
      fill: none;
    }
    .st1 {
      fill: #333333;
    }
  </style>
  <title>我的生产问题</title>
  <rect id="矩形" x="-1" y="-1" class="st0" width="20" height="20" />
  <path
    id="形状结合"
    class="st1"
    d="M15.8,0C17,0,18,1,18,2.2l0,0v13.5c0,0.6-0.2,1.2-0.7,1.6s-1,0.7-1.6,0.7l0,0H2.2
c-0.6,0-1.2-0.2-1.6-0.7S0,16.3,0,15.7l0,0V2.2C0,1,1,0,2.2,0l0,0H15.8z M16,2H2l0,0v14l0,0h14l0,0V2L16,2z M10,12v2H8v-2H10z M9,4
c0.8-0.1,1.6,0.2,2.2,0.8C11.8,5.4,12.1,6.2,12,7c0,1.7-2,2.1-2,3l0,0v1H8v-1c0-1.6,2-2.1,2-3c0-0.3-0.1-0.5-0.3-0.7
C9.5,6.1,9.3,6,9,6C8.1,6,8,7,8,7l0,0H6c0-0.8,0.3-1.6,0.8-2.1S8.2,4,9,4z"
  />
</svg>