<?xml version="1.0" encoding="utf-8"?>
<!-- Generator: Adobe Illustrator 24.0.1, SVG Export Plug-In . SVG Version: 6.00 Build 0)  -->
<svg
  version="1.1"
  id="图层_1"
  xmlns="http://www.w3.org/2000/svg"
  xmlns:xlink="http://www.w3.org/1999/xlink"
  x="0px"
  y="0px"
  viewBox="0 0 18 20"
  style="enable-background:new 0 0 18 20;"
  xml:space="preserve"
>
  <style type="text/css">
    .st0 {
      fill: #333333;
    }
  </style>
  <title>我的应用</title>
  <path
    d="M17,0 C17.5522847,0 18,0.44771525 18,1 L18,19 C18,19.5522847 17.5522847,20 17,20 L3,20 C2.44771525,20 2,19.5522847 2,19 L2,1 C2,0.44771525 2.44771525,0 3,0 L17,0 Z M16,2 L4,2 L4,18 L16,18 L16,2 Z M12,13 L12,15 L6,15 L6,13 L12,13 Z M14,9 L14,11 L6,11 L6,9 L14,9 Z M14,5 L14,7 L6,7 L6,5 L14,5 Z"
    id="order-o-订单-线"
    fill="#434C67"
  ></path>
</svg>
