<?xml version="1.0" encoding="utf-8"?>
<!-- Generator: Adobe Illustrator 24.0.1, SVG Export Plug-In . SVG Version: 6.00 Build 0)  -->
<svg
  version="1.1"
  id="图层_1"
  xmlns="http://www.w3.org/2000/svg"
  xmlns:xlink="http://www.w3.org/1999/xlink"
  x="0px"
  y="0px"
  viewBox="0 0 18 18"
  style="enable-background:new 0 0 18 18;"
  xml:space="preserve"
>
  <style type="text/css">
    .st0 {
      fill: none;
    }
  </style>
  <title>我的代办</title>
  <rect id="矩形" x="-1" y="-1" class="st0" width="20" height="20" />
  <path
    id="形状结合"
    d="M16,0c1.1,0,2,0.9,2,2l0,0v14c0,1.1-0.9,2-2,2l0,0H2c-1.1,0-2-0.9-2-2l0,0V2c0-1.1,0.9-2,2-2l0,0H16z
  M16,6H2l0,10h14L16,6z M12.8,7l1.3,1.2l-5.6,5.7L5,10.2L6.3,9l2.2,2.5L12.8,7z M16,2H2l0,2h14L16,2z"
  />
</svg>
