<?xml version="1.0" encoding="UTF-8"?>
<svg width="20px" height="20px" viewBox="0 0 20 20" version="1.1" xmlns="http://www.w3.org/2000/svg" xmlns:xlink="http://www.w3.org/1999/xlink">
    <title>接口权限登记</title>
    <g id="组件库" stroke="none" stroke-width="1" fill="none" fill-rule="evenodd">
        <g id="1.4_Icon_场景图标" transform="translate(-756.000000, -1471.000000)" fill="#333333" fill-rule="nonzero">
            <path d="M763.154498,1480.34785 C763.522869,1480.34785 763.82203,1480.05947 763.82203,1479.70438 C763.82203,1479.34928 763.522869,1479.0609 763.154498,1479.0609 L761.540364,1479.0609 C761.171994,1479.0609 760.872832,1478.77253 760.872832,1478.41743 L760.872832,1473.27826 C760.872832,1472.92317 761.171994,1472.63479 761.540364,1472.63479 L770.874655,1472.63479 C771.243025,1472.63479 771.542187,1472.92317 771.542187,1473.27826 L771.542187,1478.41958 C771.542187,1478.77468 771.243025,1479.06306 770.874655,1479.06306 L768.985918,1479.06306 C768.617547,1479.06306 768.318385,1479.35143 768.318385,1479.70653 C768.318385,1480.06162 768.617547,1480.35 768.985918,1480.35 L770.874655,1480.35 C771.979767,1480.35 772.875019,1479.48702 772.875019,1478.42174 L772.875019,1473.27826 C772.875019,1472.21298 771.979767,1471.35 770.874655,1471.35 L761.540364,1471.35 C760.435252,1471.35 759.54,1472.21298 759.54,1473.27826 L759.54,1478.41958 C759.54,1479.48486 760.437485,1480.34785 761.540364,1480.34785 L763.154498,1480.34785 Z" id="路径" stroke="#333333" stroke-width="0.7"></path>
            <path d="M769.41644,1474 C769.744558,1474 770.016633,1474.22454 770.06339,1474.51671 L770.070488,1474.60624 L770.070488,1477.02916 C770.070488,1477.33329 769.828241,1477.58548 769.513025,1477.62882 L769.41644,1477.6354 L766.802436,1477.6354 L766.802436,1481.29512 C769.535115,1481.47729 771.973953,1482.77615 773.53,1484.75045 L771.83412,1484.7498 C770.609945,1483.55263 768.95771,1482.75267 767.125414,1482.53915 L766.800249,1482.5076 L766.800249,1487.49537 C767.189615,1487.70623 767.454297,1488.09349 767.454297,1488.53955 C767.454297,1489.20864 766.870247,1489.75 766.148388,1489.75 C765.42653,1489.75 764.84248,1489.20864 764.84248,1488.53955 C764.84248,1488.13627 765.056872,1487.78226 765.383599,1487.56325 L765.496528,1487.49537 L765.496528,1482.51165 C762.259101,1482.76307 759.526974,1484.83928 758.623557,1487.73056 C758.831365,1487.94345 758.962612,1488.22528 758.962612,1488.53753 C758.962612,1489.10727 758.533872,1489.60199 757.932322,1489.72161 C757.225776,1489.86152 756.532354,1489.44587 756.379232,1488.793 C756.228298,1488.1381 756.676726,1487.49537 757.381085,1487.35344 C758.431847,1484.0503 761.530246,1481.67497 765.205227,1481.32088 L765.496528,1481.29715 L765.496528,1477.6354 L762.882524,1477.6354 C762.554406,1477.6354 762.282331,1477.41086 762.235574,1477.11868 L762.228476,1477.02916 L762.228476,1474.60624 C762.228476,1474.3021 762.470723,1474.04992 762.785939,1474.00658 L762.882524,1474 L769.41644,1474 Z M768.75,1475 L763.75,1475 L763.75,1476.6 L768.75,1476.6 L768.75,1475 Z" id="形状结合" stroke="#333333" stroke-width="0.7"></path>
            <path d="M775,1485 C775.552285,1485 776,1485.44772 776,1486 C776,1486.55228 775.552285,1487 775,1487 L771,1487 C770.447715,1487 770,1486.55228 770,1486 C770,1485.44772 770.447715,1485 771,1485 L775,1485 Z" id="路径"></path>
            <path d="M775,1488 C775.552285,1488 776,1488.44772 776,1489 C776,1489.55228 775.552285,1490 775,1490 L771,1490 C770.447715,1490 770,1489.55228 770,1489 C770,1488.44772 770.447715,1488 771,1488 L775,1488 Z" id="路径"></path>
        </g>
    </g>
</svg>