<?xml version="1.0" encoding="utf-8"?>
<!-- Generator: Adobe Illustrator 24.0.1, SVG Export Plug-In . SVG Version: 6.00 Build 0)  -->
<svg
  version="1.1"
  id="图层_1"
  xmlns="http://www.w3.org/2000/svg"
  xmlns:xlink="http://www.w3.org/1999/xlink"
  x="0px"
  y="0px"
  viewBox="0 0 20 20"
  style="enable-background:new 0 0 20 20;"
  xml:space="preserve"
>
  <style type="text/css">
    .st0 {
      fill: none;
    }
    .st1 {
      fill: #333333;
    }
  </style>
  <title>公司管理</title>
  <rect id="矩形" y="0" class="st0" width="20" height="20" />
  <path
    id="形状结合"
    class="st1"
    d="M19,17c0.6,0,1,0.4,1,1c0,0.6-0.4,1-1,1h-9c-0.6,0-1-0.4-1-1c0-0.6,0.4-1,1-1H19z M12,0.8
l0,0.1l0,7.8l7.1,2.1c0.4,0.1,0.7,0.4,0.7,0.8l0,0.1v2.6c0,0.1,0,0.1,0,0.2C20,14.7,20,14.8,20,15c0,0.6-0.4,1-1,1h-9
c-0.6,0-1-0.4-1-1s0.4-1,1-1l0.1,0l0-11.7L2,4.4V17h5.7c0.5,0,0.9,0.4,1,0.9l0,0.1c0,0.5-0.4,0.9-0.9,1l-0.1,0H1
c-0.5,0-0.9-0.4-1-0.9L0,18V3.6c0-0.4,0.3-0.8,0.6-0.9l0.1,0l10-2.7C11.4-0.2,12,0.2,12,0.8z M12.1,10.8V14h5.8l0-1.5L12.1,10.8z"
  />
  <path
    id="形状"
    class="st1"
    d="M8.7,10C8.9,10,9,10.1,9,10.3v1.4C9,11.9,8.9,12,8.7,12H3.3C3.1,12,3,11.9,3,11.7v-1.4
C3,10.1,3.1,10,3.3,10H8.7z M8.7,6C8.9,6,9,6.1,9,6.3v1.4C9,7.9,8.9,8,8.7,8H3.3C3.1,8,3,7.9,3,7.7V6.3C3,6.1,3.1,6,3.3,6H8.7z"
  />
</svg>
