<?xml version="1.0" encoding="utf-8"?>
<!-- Generator: Adobe Illustrator 24.0.1, SVG Export Plug-In . SVG Version: 6.00 Build 0)  -->
<svg
  version="1.1"
  id="图层_1"
  xmlns="http://www.w3.org/2000/svg"
  xmlns:xlink="http://www.w3.org/1999/xlink"
  x="0px"
  y="0px"
  viewBox="0 0 20 20"
  style="enable-background:new 0 0 20 20;"
  xml:space="preserve"
>
  <style type="text/css">
    .st0 {
      fill: none;
    }
    .st1 {
      fill: #333333;
    }
  </style>
  <title>菜单管理</title>
  <rect id="矩形" y="0" class="st0" width="20" height="20" />
  <path
    id="形状结合"
    class="st1"
    d="M19,17c0.6,0,1,0.4,1,1s-0.4,1-1,1h-7c-0.6,0-1-0.4-1-1s0.4-1,1-1H19z M13,0c0.6,0,1,0.4,1,1
l0,1.4l2.7,0c0.5,0,0.9,0.4,1,0.9l0,0.1V14H19c0.6,0,1,0.4,1,1s-0.4,1-1,1h-7c-0.6,0-1-0.4-1-1s0.4-1,1-1h3.7l0-9.6H14L14,6
c0,0.6-0.4,1-1,1s-1-0.4-1-1l0-1.6H8L8,6c0,0.6-0.4,1-1,1S6,6.6,6,6l0-1.6H4.3V17h3.9c0.5,0,0.9,0.4,1,0.9l0,0.1
c0,0.5-0.4,0.9-0.9,1l-0.1,0H3.3c-0.5,0-0.9-0.4-1-0.9l0-0.1V3.4c0-0.5,0.4-0.9,0.9-1l0.1,0l2.7,0L6,1c0-0.6,0.4-1,1-1s1,0.4,1,1
l0,1.4h4L12,1C12,0.4,12.4,0,13,0z"
  />
</svg>
