<?xml version="1.0" encoding="utf-8"?>
<!-- Generator: Adobe Illustrator 24.0.1, SVG Export Plug-In . SVG Version: 6.00 Build 0)  -->
<svg
  version="1.1"
  id="图层_1"
  xmlns="http://www.w3.org/2000/svg"
  xmlns:xlink="http://www.w3.org/1999/xlink"
  x="0px"
  y="0px"
  viewBox="0 0 20 20"
  style="enable-background:new 0 0 20 20;"
  xml:space="preserve"
>
  <style type="text/css">
    .st0 {
      fill: none;
    }
    .st1 {
      fill: #333333;
    }
  </style>
  <title>组织机构管理</title>
  <rect id="矩形" y="0" class="st0" width="20" height="20" />
  <path
    id="形状结合"
    class="st1"
    d="M12,0c0.6,0,1,0.4,1,1v5c0,0.6-0.4,1-1,1h-1v2h5.9c0.5,0,0.9,0.4,1,0.9l0,0.1v4H19
c0.6,0,1,0.4,1,1s-0.4,1-1,1h-4c-0.6,0-1-0.4-1-1s0.4-1,1-1h0.9l0-3H11v2h1c0.6,0,1,0.4,1,1v4c0,0.6-0.4,1-1,1H8c-0.6,0-1-0.4-1-1
v-4c0-0.6,0.4-1,1-1h1v-2H4v2h1c0.6,0,1,0.4,1,1v4c0,0.6-0.4,1-1,1H1c-0.6,0-1-0.4-1-1v-4c0-0.6,0.4-1,1-1h1l0-3
c0-0.5,0.4-0.9,0.9-1L3,9h6V7H8C7.4,7,7,6.6,7,6V1c0-0.6,0.4-1,1-1H12z M19,17c0.6,0,1,0.4,1,1s-0.4,1-1,1h-4c-0.6,0-1-0.4-1-1
s0.4-1,1-1H19z M4,15H2v2h2V15z M11,15H9v2h2V15z M11,2H9v3h2V2z"
  />
</svg>
