<?xml version="1.0" encoding="utf-8"?>
<!-- Generator: Adobe Illustrator 24.0.1, SVG Export Plug-In . SVG Version: 6.00 Build 0)  -->
<svg
  version="1.1"
  id="图层_1"
  xmlns="http://www.w3.org/2000/svg"
  xmlns:xlink="http://www.w3.org/1999/xlink"
  x="0px"
  y="0px"
  viewBox="0 0 20 20"
  style="enable-background:new 0 0 20 20;"
  xml:space="preserve"
>
  <style type="text/css">
    .st0 {
      fill: none;
    }
    .st1 {
      fill: #333333;
    }
  </style>
  <title>角色管理</title>
  <rect id="矩形" y="0" class="st0" width="20" height="20" />
  <path
    id="形状结合"
    class="st1"
    d="M10,1c2.8,0,5,2.2,5,5c0,1.4-0.6,2.7-1.5,3.6c2.3,0.8,4,2.4,4.4,4.4l1.1,0c0.6,0,1,0.4,1,1
s-0.4,1-1,1h-7c-0.6,0-1-0.4-1-1s0.4-1,1-1l3.8,0c-0.7-1.7-3-3-5.8-3c-3.3,0-5.9,1.8-6,3.8L4,15v2h5c0.6,0,1,0.4,1,1s-0.4,1-1,1H3
c-0.6,0-1-0.4-1-1v-3c0-2.4,1.9-4.5,4.5-5.4C5.6,8.7,5,7.4,5,6C5,3.2,7.2,1,10,1z M19,17c0.6,0,1,0.4,1,1s-0.4,1-1,1h-7
c-0.6,0-1-0.4-1-1s0.4-1,1-1H19z M10,3C8.3,3,7,4.3,7,6s1.3,3,3,3s3-1.3,3-3S11.7,3,10,3z"
  />
</svg>
