<?xml version="1.0" encoding="utf-8"?>
<!-- Generator: Adobe Illustrator 24.0.1, SVG Export Plug-In . SVG Version: 6.00 Build 0)  -->
<svg
  version="1.1"
  id="图层_1"
  xmlns="http://www.w3.org/2000/svg"
  xmlns:xlink="http://www.w3.org/1999/xlink"
  x="0px"
  y="0px"
  viewBox="0 0 20 20"
  style="enable-background:new 0 0 20 20;"
  xml:space="preserve"
>
  <style type="text/css">
    .st0 {
      fill: none;
    }
    .st1 {
      fill: #333333;
    }
  </style>
  <title>用户管理</title>
  <rect id="矩形" y="0" class="st0" width="20" height="20" />
  <path
    id="形状结合"
    class="st1"
    d="M8,1c2.8,0,5,2.2,5,5c0,1.4-0.6,2.7-1.5,3.6c2.3,0.8,4,2.4,4.4,4.4l2.2,0l-0.1-0.2
c-0.6-1.7-2.1-2.9-3.9-3c-0.1,0-0.2-0.1-0.2-0.2V9.3V9c0-0.2,0.1-0.3,0.3-0.3c0.1,0,0.2,0,0.2,0c0.9-0.2,1.5-1,1.5-1.9
c0-1.1-0.8-1.9-1.9-2c-0.1,0-0.1-0.1-0.1-0.2V3c0-0.2,0.1-0.3,0.3-0.3l0,0c0.2,0,0.4,0,0.5,0.1c1.8,0.4,3.2,2,3.2,3.9
c0,1.2-0.5,2.2-1.3,3c1.5,0.8,2.6,2.2,3.1,3.9c0.1,0.3,0.1,0.7,0.2,1.3c0,0.1,0,0.1,0,0.2c0,0.6-0.4,1-1,1h-9c-0.6,0-1-0.4-1-1
s0.4-1,1-1l3.8,0c-0.7-1.7-3-3-5.8-3c-3.3,0-5.9,1.8-6,3.8L2,15v2h5c0.6,0,1,0.4,1,1s-0.4,1-1,1H1c-0.6,0-1-0.4-1-1l0-3
c0-2.4,1.9-4.5,4.5-5.4C3.6,8.7,3,7.4,3,6C3,3.2,5.2,1,8,1z M19,17c0.6,0,1,0.4,1,1s-0.4,1-1,1h-9c-0.6,0-1-0.4-1-1s0.4-1,1-1H19z
  M8,3C6.3,3,5,4.3,5,6s1.3,3,3,3s3-1.3,3-3S9.7,3,8,3z"
  />
</svg>
