<?xml version="1.0" encoding="UTF-8"?>
<svg width="67px" height="68px" viewBox="0 0 67 68" version="1.1" xmlns="http://www.w3.org/2000/svg" xmlns:xlink="http://www.w3.org/1999/xlink">
    <title>完成</title>
    <g id="页面-1" stroke="none" stroke-width="1" fill="none" fill-rule="evenodd">
        <g id="10" transform="translate(-700.000000, -303.000000)" fill-rule="nonzero">
            <g id="编组-5" transform="translate(313.000000, 303.000000)">
                <g id="完成" transform="translate(387.000000, 0.000000)">
                    <path d="M13,30.5 L13,30.5 C13,45.1355267 24.8644733,57 39.5,57 C54.1355267,57 66,45.1355267 66,30.5 L66,30.5 C66,15.8644733 54.1355267,4 39.5,4 C24.8644733,4 13,15.8644733 13,30.5 L13,30.5 Z" id="路径" fill="#4080FF"></path>
                    <path d="M36.846057,39 C36.393042,39 35.9410284,38.8259936 35.5960169,38.479994 L28.5177548,31.3690274 L28.5177548,31.3690274 C27.8274151,30.6728021 27.8274151,29.5502531 28.5177548,28.8540278 L28.5177546,28.8540279 C29.2046308,28.1631191 30.3215652,28.1598376 31.012498,28.8466896 C31.0149513,28.8491284 31.0173974,28.8515744 31.0198362,28.8540276 L36.8460299,34.7080234 L47.9804012,23.5220189 L47.9804013,23.5220188 C48.6641441,22.83111 49.7785381,22.8252814 50.4694641,23.5090009 C50.4738263,23.5133175 50.4781659,23.517657 50.4824827,23.522019 C51.1725058,24.2160207 51.1725058,25.3410157 50.4824827,26.0350174 L38.098051,38.4800008 C37.7520395,38.8260003 37.2980218,39 36.8460095,39 L36.846057,39 Z" id="路径" fill="#FFFFFF"></path>
                    <path d="M13,65 L13,65 C13,66.6568572 25.0883313,68 40,68 C54.9116687,68 67,66.6568505 67,65 L67,65 C67,63.3431428 54.9116687,62 40,62 C25.0883313,62 13,63.3431495 13,65 L13,65 Z" id="路径" fill="#ECF3FF"></path>
                    <path d="M12,4.5 L12,4.5 C12,6.43299838 13.5670017,8 15.5,8 C17.4329983,8 19,6.43299838 19,4.5 C19,4.5 19,4.5 19,4.5 L19,4.5 C19,2.56700162 17.4329983,1 15.5,1 C13.5670017,1 12,2.56700162 12,4.5 C12,4.5 12,4.5 12,4.5 L12,4.5 Z" id="路径" fill="#4080FF"></path>
                    <path d="M0,2.5 L0,2.5 C0,3.8807176 1.11928914,5 2.5,5 C3.8807176,5 5,3.88071086 5,2.5 L5,2.5 C5,1.1192824 3.88071086,0 2.5,0 C1.11928914,0 0,1.11928914 0,2.5 L0,2.5 Z" id="路径" fill="#4080FF" opacity="0.57"></path>
                    <path d="M2,20 L2,20 C2,21.6568572 3.34314952,23 5,23 C6.65685722,23 8,21.6568505 8,20 L8,20 C8,18.3431428 6.65685048,17 5,17 C3.34314278,17 2,18.3431495 2,20 L2,20 Z" id="路径" fill="#4080FF" opacity="0.65"></path>
                </g>
            </g>
        </g>
    </g>
</svg>