<?xml version="1.0" encoding="UTF-8"?>
<svg width="16px" height="16px" viewBox="0 0 16 16" version="1.1" xmlns="http://www.w3.org/2000/svg" xmlns:xlink="http://www.w3.org/1999/xlink">
    <title>数据</title>
    <g id="页面-1" stroke="none" stroke-width="1" fill="none" fill-rule="evenodd">
        <g id="集群生产信息" transform="translate(-258.000000, -150.000000)">
            <g id="编组-3" transform="translate(258.000000, 150.000000)">
                <path d="M1,0 L15,0 C15.5522847,-1.01453063e-16 16,0.44771525 16,1 L16,5.75035303 L16,5.75035303 L16,15 C16,15.5522847 15.5522847,16 15,16 L1,16 C0.44771525,16 6.76353751e-17,15.5522847 0,15 L0,1 C-6.76353751e-17,0.44771525 0.44771525,1.01453063e-16 1,0 Z" id="矩形" fill="#0663BE" fill-rule="nonzero"></path>
                <path d="M6.5,7.5 L6.5,12.5 L3.5,12.5 L3.5,7.5 L6.5,7.5 Z" id="矩形" stroke="#FFFFFF"></path>
                <path d="M9.5,5.5 L9.5,12.5 L6.5,12.5 L6.5,5.5 L9.5,5.5 Z" id="矩形备份" stroke="#FFFFFF"></path>
                <path d="M12.5,3.5 L12.5,12.5 L9.5,12.5 L9.5,3.5 L12.5,3.5 Z" id="矩形备份-2" stroke="#FFFFFF"></path>
            </g>
        </g>
    </g>
</svg>