<?xml version="1.0" encoding="UTF-8"?>
<svg width="20px" height="20px" viewBox="0 0 20 20" version="1.1" xmlns="http://www.w3.org/2000/svg" xmlns:xlink="http://www.w3.org/1999/xlink">
    <title>骨架管理</title>
    <g id="组件库" stroke="none" stroke-width="1" fill="none" fill-rule="evenodd">
        <g id="1.4_Icon_场景图标" transform="translate(-870.000000, -1608.000000)" fill="#333333" fill-rule="nonzero">
            <g id="zuzhijiegou" transform="translate(870.000000, 1608.000000)">
                <path d="M16.1830357,12.4853516 C14.6075638,12.489807 13.2050833,13.4906907 12.6799301,14.9853516 L7.26378106,14.9853516 C7.05530295,14.406953 6.70490443,13.8909698 6.24514752,13.4853516 L9.45011646,7.48535156 C10.98655,7.70387237 12.4967656,6.94155538 13.241331,5.57164648 C13.9858964,4.20173758 13.8089825,2.51094315 12.79721,1.32711049 C11.7854375,0.143277834 10.1505588,-0.285830318 8.69304384,0.249886104 C7.23552885,0.785602526 6.26041885,2.17402416 6.24514752,3.73535156 C6.25353199,4.66689401 6.61318208,5.56046909 7.2513587,6.23535156 L3.97185559,12.4853516 L3.76067547,12.4853516 C1.86414345,12.4799935 0.266093155,13.9087158 0.0481849155,15.80447 C-0.169723324,17.7002242 1.06201952,19.4582968 2.90969288,19.8887145 C4.75736624,20.3191322 6.63159375,19.2845989 7.26378106,17.4853516 L12.6799301,17.4853516 C13.3121174,19.2845989 15.1863449,20.3191322 17.0340183,19.8887145 C18.8816917,19.4582968 20.1134345,17.7002242 19.8955263,15.80447 C19.677618,13.9087158 18.0795677,12.4799935 16.1830357,12.4853516 Z M9.97185559,2.48535156 C10.6579236,2.48535156 11.2140916,3.04499563 11.2140916,3.73535156 C11.2140916,4.4257075 10.6579236,4.98535156 9.97185559,4.98535156 C9.28578758,4.98535156 8.72961957,4.4257075 8.72961957,3.73535156 C8.72961957,3.04499563 9.28578758,2.48535156 9.97185559,2.48535156 Z M3.76067547,17.4853516 C3.07460745,17.4853516 2.51843944,16.9257075 2.51843944,16.2353516 C2.51843944,15.5449956 3.07460745,14.9853516 3.76067547,14.9853516 C4.44674348,14.9853516 5.00291149,15.5449956 5.00291149,16.2353516 C5.00291149,16.9257075 4.44674348,17.4853516 3.76067547,17.4853516 L3.76067547,17.4853516 Z M16.1830357,17.4853516 C15.4969677,17.4853516 14.9407997,16.9257075 14.9407997,16.2353516 C14.9407997,15.5449956 15.4969677,14.9853516 16.1830357,14.9853516 C16.8691037,14.9853516 17.4252717,15.5449956 17.4252717,16.2353516 C17.4252717,16.9257075 16.8691037,17.4853516 16.1830357,17.4853516 Z" id="形状"></path>
            </g>
        </g>
    </g>
</svg>