<?xml version="1.0" encoding="UTF-8"?>
<svg width="20px" height="20px" viewBox="0 0 20 20" version="1.1" xmlns="http://www.w3.org/2000/svg" xmlns:xlink="http://www.w3.org/1999/xlink">
    <title>我的基础架构</title>
    <g id="组件库" stroke="none" stroke-width="1" fill="none" fill-rule="evenodd">
        <g id="1.4_Icon_场景图标" transform="translate(-714.000000, -1832.000000)" fill="#333333">
            <g id="我的基础架构" transform="translate(714.000000, 1832.000000)">
                <path d="M5,14 C5.55228475,14 6,14.4477153 6,15 L6,19 C6,19.5522847 5.55228475,20 5,20 L1,20 C0.44771525,20 0,19.5522847 0,19 L0,15 C0,14.4477153 0.44771525,14 1,14 L5,14 Z M12,14 C12.5522847,14 13,14.4477153 13,15 L13,19 C13,19.5522847 12.5522847,20 12,20 L8,20 C7.44771525,20 7,19.5522847 7,19 L7,15 C7,14.4477153 7.44771525,14 8,14 L12,14 Z M19,14 C19.5522847,14 20,14.4477153 20,15 L20,19 C20,19.5522847 19.5522847,20 19,20 L15,20 C14.4477153,20 14,19.5522847 14,19 L14,15 C14,14.4477153 14.4477153,14 15,14 L19,14 Z M4,16 L2,16 L2,18 L4,18 L4,16 Z M11,16 L9,16 L9,18 L11,18 L11,16 Z M18,16 L16,16 L16,18 L18,18 L18,16 Z M3.7,9 C3.86568542,9 4,9.13431458 4,9.3 L4,12.7 C4,12.8656854 3.86568542,13 3.7,13 L2.3,13 C2.13431458,13 2,12.8656854 2,12.7 L2,9.3 C2,9.13431458 2.13431458,9 2.3,9 L3.7,9 Z M10.7,9 C10.8656854,9 11,9.13431458 11,9.3 L11,12.7 C11,12.8656854 10.8656854,13 10.7,13 L9.3,13 C9.13431458,13 9,12.8656854 9,12.7 L9,9.3 C9,9.13431458 9.13431458,9 9.3,9 L10.7,9 Z M17.7,9 C17.8656854,9 18,9.13431458 18,9.3 L18,12.7 C18,12.8656854 17.8656854,13 17.7,13 L16.3,13 C16.1343146,13 16,12.8656854 16,12.7 L16,9.3 C16,9.13431458 16.1343146,9 16.3,9 L17.7,9 Z M18,0 C18.5522847,0 19,0.44771525 19,1 L19,7 C19,7.55228475 18.5522847,8 18,8 L2,8 C1.44771525,8 1,7.55228475 1,7 L1,1 C1,0.44771525 1.44771525,0 2,0 L18,0 Z M17,2 L3,2 L3,6 L17,6 L17,2 Z"></path>
            </g>
        </g>
    </g>
</svg>