<?xml version="1.0" encoding="UTF-8"?>
<svg width="20px" height="20px" viewBox="0 0 20 20" version="1.1" xmlns="http://www.w3.org/2000/svg" xmlns:xlink="http://www.w3.org/1999/xlink">
    <title>组件管理</title>
    <g id="组件库" stroke="none" stroke-width="1" fill="none" fill-rule="evenodd">
        <g id="1.4_Icon_场景图标" transform="translate(-766.000000, -1608.000000)" fill="#333333" fill-rule="nonzero">
            <g id="组件管理" transform="translate(766.000000, 1608.000000)">
                <path d="M19.2917847,20 L4.90084985,20 C4.50424929,20 4.19263455,19.693166 4.19263455,19.3026499 L4.19263455,15.0627615 C4.02266289,15.1743375 3.82436261,15.2580195 3.62606233,15.3138075 L3.59773371,15.3138075 C3.34277619,15.3974895 3.05949008,15.4253835 2.80453258,15.4253835 C1.24645893,15.4253835 0,14.1701534 0,12.6638773 C0,11.1297071 1.27478754,9.90237098 2.80453258,9.902371 C3.0878187,9.902371 3.37110483,9.958159 3.65439092,10.041841 C3.68271954,10.041841 3.71104814,10.069735 3.73937678,10.069735 C3.88101984,10.125523 4.02266289,10.181311 4.13597734,10.237099 L4.19263455,10.264993 L4.19263455,5.1324965 C4.19263455,4.74198047 4.50424929,4.43514644 4.90084985,4.43514644 L9.5184136,4.43514644 L9.43342775,4.26778243 C9.29178468,4.0446304 9.17847024,3.82147838 9.12181302,3.57043236 L9.12181302,3.54253835 C9.03682719,3.29149232 9.00849857,3.01255229 9.00849859,2.76150628 C9.00849859,1.22733612 10.2832861,0 11.8130312,0 C13.3711048,0 14.6175637,1.25523013 14.6175637,2.76150628 C14.6175637,3.0404463 14.5609065,3.31938635 14.4759207,3.59832635 C14.4759207,3.62622036 14.4475921,3.65411435 14.4475921,3.68200837 C14.3909349,3.82147839 14.3342776,3.9609484 14.2776204,4.07252441 L14.1359773,4.40725245 L19.2917847,4.40725245 C19.6883853,4.40725245 20,4.71408648 20,5.10460252 L20,11.3528591 C20,11.5760112 19.8866856,11.7991632 19.6883853,11.9386332 C19.490085,12.0781032 19.2351275,12.0781032 19.0084986,11.9944212 L17.7903683,11.4644351 C17.7620397,11.4644351 17.7620397,11.4365411 17.733711,11.4365411 C17.6770538,11.4086471 17.592068,11.3528591 17.5070821,11.3249651 L17.4787536,11.3249651 C17.3371105,11.2691771 17.1954674,11.2691771 17.0538244,11.2691771 C16.2889518,11.2691771 15.6657224,11.8828452 15.6657224,12.6359833 C15.6657224,13.3891214 16.2889518,14.0027894 17.0538244,14.0027894 C17.1954674,14.0027894 17.3371105,13.9748954 17.4504249,13.9470014 C17.592068,13.9191074 17.7053825,13.8354254 17.8186969,13.7796374 C17.8470255,13.7517434 17.8753541,13.7517434 17.9036827,13.7238494 L18.98017,13.2217573 C19.2067989,13.1101813 19.4617564,13.1380753 19.6600567,13.2496513 C19.858357,13.3612273 20,13.6122734 20,13.8354254 L20,19.3026499 C20,19.693166 19.6883853,20 19.2917847,20 L19.2917847,20 Z M5.98085808,18.3 L18.3,18.3 L18.3,14.8544715 L18.2731023,14.8544715 C18.0579208,14.9869919 17.8427393,15.0930081 17.6006601,15.1725203 L17.5737624,15.1725203 C17.3316832,15.2520325 17.0627063,15.2785366 16.8206271,15.2785366 C15.3412541,15.2785366 14.1577558,14.0858536 14.1577558,12.6546341 C14.1577558,11.1969106 15.3681518,10.0307317 16.8206271,10.0307317 C17.089604,10.0307317 17.3585809,10.0837398 17.6275578,10.163252 C17.6544555,10.163252 17.6813531,10.1897561 17.7082508,10.1897561 C17.8427393,10.2427642 17.9772277,10.2957724 18.0848185,10.3487805 L18.2731023,10.4282927 L18.2731023,6.18764227 L13.0280528,6.18764227 C12.8128713,6.18764227 12.5976898,6.081626 12.4632013,5.89609755 C12.3287129,5.7105691 12.3287129,5.4720325 12.4094059,5.26 L12.9742574,3.98780487 C12.9742574,3.9613008 13.0011551,3.9613008 13.0011551,3.93479675 C13.0280528,3.88178863 13.0818482,3.80227642 13.1087459,3.72276423 L13.1087459,3.69626015 C13.1625412,3.56373982 13.1625412,3.43121951 13.1625412,3.29869918 C13.1625412,2.58308941 12.5707921,2 11.8445545,2 C11.1183168,2 10.5265677,2.58308943 10.5265677,3.29869918 C10.5265677,3.43121951 10.5534653,3.56373982 10.580363,3.66975608 C10.6072607,3.80227642 10.6879538,3.90829268 10.7417492,4.01430894 C10.7686469,4.04081301 10.7686469,4.06731706 10.7955445,4.09382113 L11.3334984,5.23349593 C11.4410891,5.44552845 11.4141914,5.68406503 11.3066007,5.8695935 C11.1990099,6.05512197 10.9569307,6.18764228 10.7417492,6.18764227 L5.98085808,6.18764227 L5.98085808,11.382439 C5.98085808,11.5944716 5.87326732,11.8065041 5.68498349,11.9390244 C5.49669966,12.0715447 5.25462045,12.0715447 5.03943894,11.9920325 L4.01732672,11.5414634 C3.99042903,11.5414634 3.99042903,11.5149593 3.96353135,11.5149593 C3.90973598,11.4884553 3.8290429,11.4354472 3.74834983,11.4089431 L3.72145214,11.4089431 C3.58696368,11.355935 3.45247524,11.355935 3.31798681,11.355935 C2.59174918,11.355935 2,11.9390244 2,12.6546341 C2,13.3702439 2.59174918,13.9533333 3.31798681,13.9533333 C3.45247526,13.9533333 3.5869637,13.9268293 3.69455446,13.9003252 C3.82904292,13.8738211 3.93663368,13.7943089 4.04422442,13.7413008 C4.07112211,13.7147967 4.09801979,13.7147967 4.12491748,13.6882927 L5.01254125,13.2642276 C5.22772277,13.1582114 5.46980197,13.1847154 5.65808581,13.2907317 C5.84636964,13.423252 5.9808581,13.6352845 5.98085808,13.8473171 L5.98085808,18.3 Z" id="形状"></path>
            </g>
        </g>
    </g>
</svg>