<?xml version="1.0" encoding="utf-8"?>
<!-- Generator: Adobe Illustrator 24.0.1, SVG Export Plug-In . SVG Version: 6.00 Build 0)  -->
<svg
  version="1.1"
  id="图层_1"
  xmlns="http://www.w3.org/2000/svg"
  xmlns:xlink="http://www.w3.org/1999/xlink"
  x="0px"
  y="0px"
  viewBox="0 0 20 20"
  style="enable-background:new 0 0 20 20;"
  xml:space="preserve"
>
  <style type="text/css">
    .st0 {
      fill: none;
    }
    .st1 {
      fill: #333333;
    }
  </style>
  <title>基础架构管理</title>
  <rect id="矩形" y="0" class="st0" width="20" height="20" />
  <path
    id="tools-工具"
    class="st1"
    d="M12.4,1C10.7,1,9,1.6,7.8,2.9C6,4.7,5.4,7.3,6.1,9.6l-4.8,4.8c-0.4,0.4-0.4,1,0,1.4l2.9,2.9
C4.4,18.9,4.6,19,4.9,19c0.3,0,0.5-0.1,0.7-0.3l4.8-4.8c0.6,0.2,1.3,0.3,2,0.3c1.7,0,3.4-0.6,4.7-1.9c2.5-2.5,2.6-6.4,0.3-8.9
l-2.8,2.9l-0.7-0.7l2.8-2.9C15.5,1.5,13.9,1,12.4,1 M12.4,3c0.3,0,0.6,0,0.9,0.1L12.4,4L11,5.4l1.4,1.4l0.7,0.7L14.6,9L16,7.6
l0.9-0.9c0.3,1.4-0.1,3-1.2,4.1c-0.9,0.9-2,1.3-3.2,1.3c-0.5,0-0.9-0.1-1.4-0.2l-1.2-0.4L9,12.4l-4.1,4.1l-1.4-1.4L7.6,11l0.9-0.9
L8.1,9C7.6,7.3,8,5.6,9.2,4.4C10,3.5,11.2,3,12.4,3"
  />
</svg>
