<?xml version="1.0" encoding="utf-8"?>
<!-- Generator: Adobe Illustrator 24.0.1, SVG Export Plug-In . SVG Version: 6.00 Build 0)  -->
<svg
  version="1.1"
  id="图层_1"
  xmlns="http://www.w3.org/2000/svg"
  xmlns:xlink="http://www.w3.org/1999/xlink"
  x="0px"
  y="0px"
  viewBox="0 0 20 20"
  style="enable-background:new 0 0 20 20;"
  xml:space="preserve"
>
  <style type="text/css">
    .st0 {
      fill: none;
    }
    .st1 {
      fill-rule: evenodd;
      clip-rule: evenodd;
      fill: #434c67;
    }
  </style>
  <title>数据库管理</title>
  <rect id="矩形" y="0" class="st0" width="20" height="20" />
  <path
    id="chart-o-数据-线"
    class="st1"
    d="M5,10.5c0.6,0,1,0.4,1,1v6c0,0.6-0.4,1-1,1H1c-0.6,0-1-0.4-1-1v-6c0-0.6,0.4-1,1-1H5z
  M12,6.5c0.6,0,1,0.4,1,1v10c0,0.6-0.4,1-1,1H8c-0.6,0-1-0.4-1-1v-10c0-0.6,0.4-1,1-1H12z M19,1.5c0.6,0,1,0.4,1,1v15
c0,0.6-0.4,1-1,1h-4c-0.6,0-1-0.4-1-1v-15c0-0.6,0.4-1,1-1H19z M4,12.5H2v4h2V12.5z M11,8.5H9v8h2V8.5z M18,3.5h-2v13h2V3.5z"
  />
</svg>
