<?xml version="1.0" encoding="utf-8"?>
<!-- Generator: Adobe Illustrator 24.0.1, SVG Export Plug-In . SVG Version: 6.00 Build 0)  -->
<svg
  version="1.1"
  id="图层_1"
  xmlns="http://www.w3.org/2000/svg"
  xmlns:xlink="http://www.w3.org/1999/xlink"
  x="0px"
  y="0px"
  viewBox="0 0 20 20"
  style="enable-background:new 0 0 20 20;"
  xml:space="preserve"
>
  <style type="text/css">
    .st0 {
      fill: #333333;
    }
  </style>
  <title>环境配置</title>
  <path
    id="形状结合"
    class="st0"
    d="M10,0c5.5,0,10,4.5,10,10s-4.5,10-10,10S0,15.5,0,10S4.5,0,10,0z M12.3,14l-4.5,0
c0.4,1.5,1.1,2.8,2.1,3.8L10,18l0,0C11.1,17,11.8,15.6,12.3,14z M5.7,14l-2.7,0c0.9,1.6,2.3,2.8,4.1,3.5C6.5,16.4,6,15.3,5.7,14z
  M16.9,14l-2.6,0c-0.3,1.2-0.8,2.4-1.4,3.4C14.6,16.8,16,15.5,16.9,14z M5.5,8L2.3,8C2.1,8.6,2,9.3,2,10c0,0.7,0.1,1.4,0.3,2l3.1,0
c-0.1-0.5-0.1-1-0.1-1.5C5.3,9.6,5.4,8.8,5.5,8z M12.6,8l-5,0c-0.2,0.8-0.2,1.6-0.2,2.5c0,0.5,0,1,0.1,1.5l5.3,0
c0.1-0.5,0.1-1,0.1-1.5C12.8,9.6,12.7,8.8,12.6,8z M17.7,8l-3.2,0c0.1,0.8,0.2,1.6,0.2,2.5c0,0.5,0,1-0.1,1.5l3,0
c0.2-0.6,0.3-1.3,0.3-2C18,9.3,17.9,8.6,17.7,8z M8,2.2l-0.2,0C5.8,2.9,4.1,4.2,3.1,6L6,6C6.5,4.6,7.2,3.3,8,2.2z M10.1,3L10.1,3
C9.2,3.9,8.6,4.9,8.1,6L12,6C11.5,4.8,10.8,3.8,10.1,3z M12.1,2.3l0.1,0.2c0.8,1,1.4,2.2,1.8,3.6l2.8,0C15.9,4.2,14.2,2.8,12.1,2.3z
"
  />
</svg>
