<?xml version="1.0" encoding="UTF-8"?>
<svg width="20px" height="20px" viewBox="0 0 20 20" version="1.1" xmlns="http://www.w3.org/2000/svg" xmlns:xlink="http://www.w3.org/1999/xlink">
    <title>镜像管理</title>
    <defs>
        <filter id="filter-1">
            <feColorMatrix in="SourceGraphic" type="matrix" values="0 0 0 0 0.200000 0 0 0 0 0.200000 0 0 0 0 0.200000 0 0 0 1.000000 0"></feColorMatrix>
        </filter>
    </defs>
    <g id="组件库" stroke="none" stroke-width="1" fill="none" fill-rule="evenodd">
        <g id="1.4_Icon_场景图标" transform="translate(-818.000000, -1608.000000)">
            <g id="镜像管理" transform="translate(818.000241, 1608.000000)" filter="url(#filter-1)">
                <g>
                    <path d="M5.60691551,2.41426542 L1.99194637,2.41426542 C0.893614969,2.41426542 -3.37507799e-14,3.35430195 -3.37507799e-14,4.50968953 L-3.37507799e-14,15.9182224 C-3.37507799e-14,17.07361 0.893614969,18.0136465 1.99194637,18.0136465 L5.60691551,18.0136465 C6.70524691,18.0136465 7.59910301,17.07361 7.59910301,15.9182224 L7.59910301,4.50968953 C7.59886188,3.35430195 6.70524691,2.41426542 5.60691551,2.41426542 L5.60691551,2.41426542 Z M5.59954494,15.7825247 C5.59954494,15.9079087 5.51140613,16.01 5.40315797,16.01 L2.19614585,16.01 C2.08789769,16.01 1.99975887,15.9081565 1.99975887,15.7825247 L1.99975887,4.63747527 C1.99975887,4.5120913 2.08789769,4.41 2.19614585,4.41 L5.4033719,4.41 C5.51162006,4.41 5.59975887,4.51184351 5.59975887,4.63747527 L5.59975887,15.7825247 L5.59954494,15.7825247 Z M14.3917052,2.41 C13.2933738,2.41 12.3997589,3.35003653 12.3997589,4.50542411 L12.3997589,15.913957 C12.3997589,17.0693446 13.2933738,18.0093811 14.3917052,18.0093811 L18.0066744,18.0093811 C19.1050058,18.0093811 19.9988619,17.0693446 19.9988619,15.913957 L19.9988619,4.50542411 C19.9986208,3.35003653 19.1050058,2.41 18.0066744,2.41 L14.3917052,2.41 Z M17.9995449,15.7825247 C17.9995449,15.9079087 17.9114061,16.01 17.803158,16.01 L14.5961458,16.01 C14.4878977,16.01 14.3997589,15.9081565 14.3997589,15.7825247 L14.3997589,4.63747527 C14.3997589,4.5120913 14.4878977,4.41 14.5961458,4.41 L17.8033719,4.41 C17.9116201,4.41 17.9997589,4.51184351 17.9997589,4.63747527 L17.9997589,15.7825247 L17.9995449,15.7825247 Z M9.99975887,7.17862216 C9.44747129,7.17862216 8.99975887,7.59562703 8.99975887,8.1100345 L8.99975887,12.1456473 C8.99975887,12.6600548 9.44747129,13.0770597 9.99975887,13.0770597 C10.5520465,13.0770597 10.9997589,12.6600548 10.9997589,12.1456473 L10.9997589,8.1100345 C10.9994865,7.59562703 10.5517741,7.17862216 9.99975887,7.17862216 Z M9.99975887,1.13242749e-13 C9.44747129,1.13242749e-13 8.99975887,0.41700487 8.99975887,0.931412338 L8.99975887,4.96702516 C8.99975887,5.48143263 9.44747129,5.8984375 9.99975887,5.8984375 C10.5520465,5.8984375 10.9997589,5.48143263 10.9997589,4.96702516 L10.9997589,0.931412338 C10.9994865,0.41700487 10.5517741,1.13242749e-13 9.99975887,1.13242749e-13 Z M9.99975887,14.0470272 C9.44747129,14.0470272 8.99975887,14.4640321 8.99975887,14.9784395 L8.99975887,19.0140524 C8.99975887,19.5284598 9.44747129,19.9454647 9.99975887,19.9454647 C10.5520465,19.9454647 10.9997589,19.5284598 10.9997589,19.0140524 L10.9997589,14.9784395 C10.9994865,14.4640321 10.5517741,14.0470272 9.99975887,14.0470272 Z" id="形状" fill="#040000" fill-rule="nonzero"></path>
                </g>
            </g>
        </g>
    </g>
</svg>