<?xml version="1.0" encoding="utf-8"?>
<!-- Generator: Adobe Illustrator 24.0.1, SVG Export Plug-In . SVG Version: 6.00 Build 0)  -->
<svg
  version="1.1"
  id="图层_1"
  xmlns="http://www.w3.org/2000/svg"
  xmlns:xlink="http://www.w3.org/1999/xlink"
  x="0px"
  y="0px"
  viewBox="0 0 20 20"
  style="enable-background:new 0 0 20 20;"
  xml:space="preserve"
>
  <style type="text/css">
    .st0 {
      fill: none;
    }
    .st1 {
      fill: #333333;
    }
  </style>
  <title>接口及路由</title>
  <rect id="矩形备份-63" y="0" class="st0" width="20" height="20" />
  <path
    id="形状结合"
    class="st1"
    d="M14,0c0.6,0,1,0.4,1,1v5h1c0.6,0,1,0.4,1,1v12c0,0.6-0.4,1-1,1H4c-0.6,0-1-0.4-1-1V7
c0-0.6,0.4-1,1-1h1V1c0-0.6,0.4-1,1-1H14z M15,8H5v10h10V8z M13,2H7v4h6V2z M11.7,3C11.9,3,12,3.1,12,3.3v1.4C12,4.9,11.9,5,11.7,5
H8.3C8.1,5,8,4.9,8,4.7V3.3C8,3.1,8.1,3,8.3,3H11.7z"
  />
</svg>
