<?xml version="1.0" encoding="UTF-8"?>
<svg width="66px" height="66px" viewBox="0 0 66 66" version="1.1" xmlns="http://www.w3.org/2000/svg" xmlns:xlink="http://www.w3.org/1999/xlink">
    <title>切片</title>
    <defs>
        <path d="M45.5,0 L45.5,0 C51.2989873,0 56,4.7010127 56,10.5 L56,45.5 L56,45.5 C56,51.2989873 51.2989873,56 45.5,56 C45.5,56 45.5,56 45.5,56 L10.5,56 L10.5,56 C4.70101266,56 0,51.2989873 0,45.5 C0,45.5 0,45.5 0,45.5 L0,10.5 L0,10.5 C0,4.70101428 4.70100582,0 10.5,0 L45.5,0 L45.5,0 Z" id="path-1"></path>
        <filter x="-9.8%" y="-6.2%" width="119.6%" height="119.6%" filterUnits="objectBoundingBox" id="filter-3">
            <feOffset dx="0" dy="2" in="SourceAlpha" result="shadowOffsetOuter1"></feOffset>
            <feGaussianBlur stdDeviation="1.5" in="shadowOffsetOuter1" result="shadowBlurOuter1"></feGaussianBlur>
            <feColorMatrix values="0 0 0 0 0.0235294118   0 0 0 0 0.388235294   0 0 0 0 0.745098039  0 0 0 0.1 0" type="matrix" in="shadowBlurOuter1"></feColorMatrix>
        </filter>
    </defs>
    <g id="页面-1" stroke="none" stroke-width="1" fill="none" fill-rule="evenodd">
        <g id="esb" transform="translate(5.000000, 5.000000)">
            <mask id="mask-2" fill="white">
                <use xlink:href="#path-1"></use>
            </mask>
            <g id="蒙版">
                <use fill="black" fill-opacity="1" filter="url(#filter-3)" xlink:href="#path-1"></use>
                <use fill="#FFFFFF" fill-rule="evenodd" xlink:href="#path-1"></use>
            </g>
            <text id="ESB" mask="url(#mask-2)" font-family="Helvetica-Bold, Helvetica" font-size="20" font-weight="bold" fill="#005A8A">
                <tspan x="7" y="33">ESB</tspan>
            </text>
        </g>
    </g>
</svg>