<?xml version="1.0" encoding="UTF-8"?>
<svg width="66px" height="66px" viewBox="0 0 66 66" version="1.1" xmlns="http://www.w3.org/2000/svg" xmlns:xlink="http://www.w3.org/1999/xlink">
    <title>切片</title>
    <defs>
        <path d="M45.5,0 L45.5,0 C51.2989873,0 56,4.7010127 56,10.5 L56,45.5 L56,45.5 C56,51.2989873 51.2989873,56 45.5,56 C45.5,56 45.5,56 45.5,56 L10.5,56 L10.5,56 C4.70101266,56 0,51.2989873 0,45.5 C0,45.5 0,45.5 0,45.5 L0,10.5 L0,10.5 C0,4.70101428 4.70100582,0 10.5,0 L45.5,0 L45.5,0 Z" id="path-1"></path>
        <filter x="-9.8%" y="-6.2%" width="119.6%" height="119.6%" filterUnits="objectBoundingBox" id="filter-2">
            <feOffset dx="0" dy="2" in="SourceAlpha" result="shadowOffsetOuter1"></feOffset>
            <feGaussianBlur stdDeviation="1.5" in="shadowOffsetOuter1" result="shadowBlurOuter1"></feGaussianBlur>
            <feColorMatrix values="0 0 0 0 0.0235294118   0 0 0 0 0.388235294   0 0 0 0 0.745098039  0 0 0 0.1 0" type="matrix" in="shadowBlurOuter1"></feColorMatrix>
        </filter>
    </defs>
    <g id="页面-1" stroke="none" stroke-width="1" fill="none" fill-rule="evenodd">
        <g id="fdev" transform="translate(5.000000, 5.000000)">
            <g id="路径">
                <use fill="black" fill-opacity="1" filter="url(#filter-2)" xlink:href="#path-1"></use>
                <use fill="#0663BE" fill-rule="evenodd" xlink:href="#path-1"></use>
            </g>
            <path d="M48.3484728,24.1803679 C48.7886306,23.873939 49.3141234,23.9579565 49.9249513,24.4324207 C51.6836857,26.023445 52.6775462,27.7585091 52.9065329,29.6376129 C53.2500128,32.4562686 52.6526609,35.5252632 51.0175465,36.8477337 C49.3824322,38.1702042 48.7167368,38.0713995 48.3484728,37.9050447 C47.9802089,37.7386898 47.6068422,37.0866797 48.9059092,36.4553379 C50.2049763,35.8239962 51.1970114,33.2203918 51.1970114,30.9866592 C51.1970114,28.7529266 49.5576829,26.182171 48.9059092,25.6436855 C48.2541355,25.1051999 47.6882361,24.6400114 48.3484728,24.1803679 Z M24.6515272,24.1803679 C25.3117639,24.6400114 24.7458645,25.1051999 24.0940908,25.6436855 C23.4423171,26.182171 21.8029886,28.7529266 21.8029886,30.9866592 C21.8029886,33.2203918 22.7950237,35.8239962 24.0940908,36.4553379 C25.3931578,37.0866797 25.0197911,37.7386898 24.6515272,37.9050447 C24.2832632,38.0713995 23.6175678,38.1702042 21.9824535,36.8477337 C20.3473391,35.5252632 19.7499872,32.4562686 20.0934671,29.6376129 C20.3224538,27.7585091 21.3163143,26.023445 23.0750487,24.4324207 C23.6858766,23.9579565 24.2113694,23.873939 24.6515272,24.1803679 Z M14.4870634,18.1764699 C15.2157895,18.5332487 15.2157895,19.752195 14.1772557,20.1508948 C13.1387219,20.5495945 12.0568037,20.5002144 11.4218739,21.2797058 C10.7869441,22.0591971 10.3232076,24.1548588 10.3232076,24.3841719 C10.3232076,24.5042882 10.8699676,24.5028309 11.4743089,24.4977485 L11.8067199,24.4953256 C12.249708,24.4935063 12.6761088,24.5011125 12.8977483,24.5635157 C13.4795519,24.7273242 13.8640972,26.1366127 12.8977483,26.7972336 C12.6692795,26.9544483 11.6546201,26.996274 9.85376999,26.9227107 C9.55687915,28.1674196 9.25221123,29.471003 8.93976623,30.8334608 C8.62732124,32.1959187 8.33474817,33.5115807 8.06204704,34.7804471 C7.63659336,36.7906171 6.97087577,37.8598906 6.06489429,37.9882677 C4.70592206,38.1808334 5.40627729,35.9557316 5.73824781,34.7804471 C5.95956149,33.996924 6.23767674,32.6812619 6.57259358,30.8334608 L7.42386652,26.9227107 C6.01652094,27.0218529 5.29100296,26.9800273 5.24731257,26.7972336 C5.00192101,26.5997171 4.54169957,24.5635157 6.23714467,24.3841719 C7.03005173,24.3002983 7.69837905,24.3335789 7.86739185,24.15695 C8.02800314,23.9891012 8.07107274,23.4657576 8.31735321,22.5818743 C8.82279698,20.7678722 9.22454121,19.8468612 10.3232076,18.9107721 C11.4218739,17.974683 13.7583374,17.8196911 14.4870634,18.1764699 Z M38.6860912,28.121174 C39.2250215,29.1200731 39.1370212,29.9370117 38.4220905,30.5719895 L38.2894184,30.6821556 L34.8113918,32.7981393 C35.2436847,33.3799096 35.9311527,33.6707947 36.8737957,33.6707947 C38.2877602,33.6707947 38.6860912,32.393386 39.4278491,32.393386 C40.169607,32.393386 40.3888549,33.6707947 38.8549489,34.5268109 C37.3210429,35.382827 35.0334032,35.0035125 34.0632775,33.9806244 C33.0931517,32.9577364 32.3793986,30.9628978 33.8024831,28.7487925 C35.2255676,26.5346871 37.8301431,26.5346871 38.6860912,28.121174 Z M30.9849788,23.56304 C30.9939252,23.7142505 30.9981353,23.8364347 30.9994897,23.9990412 L30.9994252,24.3193883 C30.9970863,24.7518587 30.988286,25.4662107 30.9856985,26.930484 L30.9850639,27.4791871 C30.985008,27.5760814 30.9849788,27.6757611 30.9849788,27.7783215 L30.9849788,31.9813946 C31.0001276,33.3315491 30.9910291,34.1111462 30.9576832,34.3201858 C30.9466885,34.3891094 30.837374,34.6001971 30.8202685,34.6280649 C30.6192836,34.955504 30.0013412,35.1277031 29.7573079,34.5754493 L29.7963259,34.543887 C29.3249226,34.9624306 28.525535,35.0929226 27.3981629,34.9353632 C25.7071049,34.6990239 25,32.3865944 25,30.8864169 C25,29.3862395 25.7165392,27.5061253 27.257362,26.9847618 C28.2595031,26.6456704 29.0894737,26.8852009 29.7472737,27.7033535 L29.750412,27.3533387 L29.8054592,25.000192 C29.8054592,23.8492485 29.9159628,23.2164171 30.13697,23.1016978 C30.6313579,22.8450734 30.9576832,23.1016978 30.9849788,23.56304 Z M41.0948766,27.0725914 C41.4642351,27.4981425 42.1007197,29.2726322 43.0043305,32.3960605 C43.9546689,29.623455 44.4952536,28.0430588 44.6260846,27.6548719 C44.8223311,27.0725914 45.6145339,26.7623659 45.9641061,27.4570864 C46.1839844,27.9689846 45.3936682,30.325949 43.5931576,34.5279797 C43.1416574,35.1573401 42.7107307,35.1573401 42.3003777,34.5279797 C41.8900247,33.8986194 41.1232321,31.6859923 40,27.8900985 C40,27.1272383 40.3649589,26.8547359 41.0948766,27.0725914 Z M26.2159367,31.0693772 C26.4112069,33.8110093 28.4477251,33.4942551 28.6985949,33.4093226 C28.9009772,33.3408057 29.4912317,32.7696758 29.711837,32.4394216 C29.7106386,31.720474 29.7160076,30.8080127 29.7258446,29.7090063 L29.7963259,29.8831851 C29.46433,29.0107919 29.003925,28.5463883 28.415111,28.4899746 C27.53189,28.4053539 26.3244953,28.9598745 26.2159367,31.0693772 Z M36.3256834,28.6559566 C35.4081021,28.7830213 34.7405382,29.6506546 34.3229918,31.2588564 C36.746548,29.8427344 37.9583261,29.1346735 37.9583261,29.1346735 C37.9583261,29.1346735 37.7020553,28.4653595 36.3256834,28.6559566 Z M18.0545489,18.0229259 C18.7977136,17.8489576 19.1870791,18.7016302 18.9111857,19.3445673 C18.6352924,19.9875045 18.7194631,19.7953835 18.3588686,20.5113523 C17.9982741,21.2273212 17.7949358,23.0673521 16.8080686,22.9980975 C15.8212014,22.9288428 15.9094067,21.9286519 16.1821152,21.4828936 C16.4548237,21.0371353 16.7615985,20.3953299 16.94472,19.7953835 C17.1278415,19.195437 17.3113842,18.1968943 18.0545489,18.0229259 Z" id="logo" fill="#FFFFFF"></path>
        </g>
    </g>
</svg>