<?xml version="1.0" encoding="UTF-8"?>
<svg width="66px" height="66px" viewBox="0 0 66 66" version="1.1" xmlns="http://www.w3.org/2000/svg" xmlns:xlink="http://www.w3.org/1999/xlink">
    <title>切片</title>
    <defs>
        <path d="M45.5,0 L45.5,0 C51.2989873,0 56,4.7010127 56,10.5 L56,45.5 L56,45.5 C56,51.2989873 51.2989873,56 45.5,56 C45.5,56 45.5,56 45.5,56 L10.5,56 L10.5,56 C4.70101266,56 0,51.2989873 0,45.5 C0,45.5 0,45.5 0,45.5 L0,10.5 L0,10.5 C0,4.70101428 4.70100582,0 10.5,0 L45.5,0 L45.5,0 Z" id="path-1"></path>
        <filter x="-9.8%" y="-6.2%" width="119.6%" height="119.6%" filterUnits="objectBoundingBox" id="filter-3">
            <feOffset dx="0" dy="2" in="SourceAlpha" result="shadowOffsetOuter1"></feOffset>
            <feGaussianBlur stdDeviation="1.5" in="shadowOffsetOuter1" result="shadowBlurOuter1"></feGaussianBlur>
            <feColorMatrix values="0 0 0 0 0.0235294118   0 0 0 0 0.388235294   0 0 0 0 0.745098039  0 0 0 0.1 0" type="matrix" in="shadowBlurOuter1"></feColorMatrix>
        </filter>
    </defs>
    <g id="页面-1" stroke="none" stroke-width="1" fill="none" fill-rule="evenodd">
        <g id="浦天开物备份-7" transform="translate(5.000000, 5.000000)">
            <mask id="mask-2" fill="white">
                <use xlink:href="#path-1"></use>
            </mask>
            <g id="蒙版">
                <use fill="black" fill-opacity="1" filter="url(#filter-3)" xlink:href="#path-1"></use>
                <use fill="#FFFFFF" fill-rule="evenodd" xlink:href="#path-1"></use>
            </g>
            <path d="M43.9499979,4.00000173 L43.9499979,43.1170504 L7.91667348,43.0674393 C7.91667348,45.2712166 9.72878416,47.0833273 11.9299503,47.0833273 L47.0833304,47.0833273 L47.0833304,7.91666927 L51.0000039,7.91666927 L51.0000039,51.0000017 L11.8829503,51.0000017 C9.79183916,51.0013798 7.78597609,50.1713031 6.3073369,48.6926639 C4.8286977,47.2140247 3.9986211,45.2081616 4.00000389,43.1170504 L4.00000389,11.8855573 C3.99792755,9.79399383 4.82769796,7.78745939 6.30641242,6.3082551 C7.78512688,4.82905081 9.79138635,3.9986159 11.8829503,4.00000173 L43.9499979,4.00000173 Z" id="形状" fill="#0663BE" fill-rule="nonzero" mask="url(#mask-2)"></path>
            <path d="M36.2787783,23.1159508 C36.6309045,22.9189608 37.0512987,22.9729721 37.539961,23.2779847 C38.9469486,24.3007861 39.742037,25.4161844 39.9252263,26.6241797 C40.2000103,28.4361727 39.7221287,30.4090978 38.4140372,31.2592574 C37.1059458,32.109417 36.5733894,32.0458997 36.2787783,31.9389573 C35.9841671,31.8320149 35.6854738,31.4128655 36.7247274,31.007003 C37.763981,30.6011404 38.5576092,28.9273948 38.5576092,27.4914238 C38.5576092,26.0554528 37.2461464,24.4028242 36.7247274,24.056655 C36.2033084,23.7104857 35.7505889,23.4114359 36.2787783,23.1159508 Z M21.7212217,23.1159508 C22.2494111,23.4114359 21.7966916,23.7104857 21.2752726,24.056655 C20.7538536,24.4028242 19.4423908,26.0554528 19.4423908,27.4914238 C19.4423908,28.9273948 20.236019,30.6011404 21.2752726,31.007003 C22.3145262,31.4128655 22.0158329,31.8320149 21.7212217,31.9389573 C21.4266106,32.0458997 20.8940542,32.109417 19.5859628,31.2592574 C18.2778713,30.4090978 17.7999897,28.4361727 18.0747737,26.6241797 C18.257963,25.4161844 19.0530514,24.3007861 20.460039,23.2779847 C20.9487013,22.9729721 21.3690955,22.9189608 21.7212217,23.1159508 Z M14.6922381,19.1147054 C15.1294737,19.3466117 15.1294737,20.1389268 14.5063534,20.3980816 C13.8832331,20.6572365 13.2340822,20.6251394 12.8531243,21.1318087 C12.4721665,21.6384781 12.1939245,23.0006582 12.1939245,23.1497117 C12.1939245,23.2987652 13.3895668,23.1598097 13.738649,23.2662852 C14.0877311,23.3727608 14.3184583,24.2887983 13.738649,24.7182018 C13.6015677,24.8203914 12.9927721,24.8475781 11.912262,24.7997619 C11.7341275,25.6088227 11.5513267,26.4561519 11.3638597,27.3417495 C11.1763927,28.2273471 11.0008489,29.0825275 10.8372282,29.9072906 C10.581956,31.2139011 10.1825255,31.9089289 9.63893657,31.992374 C8.82355324,32.1175417 9.24376637,30.6712256 9.44294868,29.9072906 C9.57573689,29.3980006 9.74260605,28.5428202 9.94355615,27.3417495 L10.4543199,24.7997619 C9.60991256,24.8642044 9.17460177,24.8370177 9.14838754,24.7182018 C9.00115261,24.5898161 8.72501974,23.2662852 9.7422868,23.1497117 C10.218031,23.0951939 10.6190274,23.1168263 10.7204351,23.0020175 C10.8168019,22.8929158 10.8426436,22.5527424 10.9904119,21.9782183 C11.2936782,20.7991169 11.5347247,20.2004598 12.1939245,19.5920019 C12.8531243,18.9835439 14.2550024,18.8827992 14.6922381,19.1147054 Z M31.0614937,26.7007338 C31.4419151,27.3177009 31.3850036,27.8236027 30.8907593,28.2184394 L30.778156,28.3013473 L28.2938513,29.6238371 C28.6026319,29.9874435 29.0936805,30.1692467 29.7669969,30.1692467 C30.7769716,30.1692467 31.0614937,29.3708663 31.5913208,29.3708663 C32.1211479,29.3708663 32.2777535,30.1692467 31.1821064,30.7042568 C30.0864592,31.2392669 28.4524309,31.0021953 27.7594839,30.3628903 C27.0665369,29.7235853 26.5567133,28.4768111 27.5732022,27.0929953 C28.5896911,25.7091795 30.4501022,25.7091795 31.0614937,26.7007338 Z M25.9899858,23.37536 C25.9956188,23.4705666 25.9984353,23.5485127 25.9994915,23.6482017 L25.9994453,23.9093147 C25.9977373,24.1890928 25.9925601,24.6399483 25.9906787,25.5117072 L25.990069,25.9448538 C25.9900146,26.0223292 25.9899858,26.1025226 25.9899858,26.1855477 L25.9899858,28.9875964 C25.9923164,29.1953125 25.9937862,29.3827721 25.9943951,29.5499752 L25.994465,29.8573728 C25.9930279,30.2312248 25.9854691,30.4610307 25.9717888,30.5467905 C25.964459,30.5927396 25.8915827,30.7334648 25.880179,30.7520433 C25.7462252,30.9702771 25.3344499,31.0850734 25.1716704,30.7172642 L25.1975506,30.6959246 C24.8832817,30.9749537 24.3503566,31.0619484 23.5987753,30.9569088 C22.4714032,30.7993493 22,29.2577296 22,28.2576113 C22,27.257493 22.4776928,26.0040835 23.504908,25.6565079 C24.172712,25.4305451 24.7258352,25.5899953 25.1642778,26.1348586 L25.1669414,25.9022258 L25.2036394,24.3334613 C25.2036394,23.5661657 25.2773085,23.1442781 25.4246467,23.0677985 C25.7542386,22.8967156 25.9717888,23.0677985 25.9899858,23.37536 Z M32.7299178,26.0453696 C32.9761567,26.311339 33.4004798,27.4203951 34.002887,29.3725378 C34.3363391,28.4604965 34.594121,27.7548627 34.7762328,27.2556363 L34.8764195,26.9808693 C34.9827102,26.6892049 35.0519225,26.4986801 35.0840564,26.4092949 C35.2148874,26.0453696 35.7430226,25.8514787 35.9760707,26.285679 C36.1226562,26.6056153 35.5957788,28.0787181 34.3954384,30.7049873 C34.0944383,31.0983376 33.8071538,31.0983376 33.5335851,30.7049873 C33.2600164,30.3116371 32.7488214,28.9287452 32,26.5563116 C32,26.0795239 32.2433059,25.9092099 32.7299178,26.0453696 Z M22.8106245,28.3795848 C22.9408046,30.2073395 24.2984834,29.9961701 24.4657299,29.9395484 C24.6004509,29.8939383 24.9929852,29.5142484 25.1405673,29.2939305 C25.1404347,28.8130523 25.1439971,28.2072644 25.1505146,27.478091 L25.188,27.566 L25.1285832,27.4224712 C24.9139766,26.947994 24.6300291,26.6938313 24.2767407,26.659983 C23.6879266,26.6035693 22.8829969,26.9732497 22.8106245,28.3795848 Z M29.3754881,27.0349729 C28.7200729,27.1143883 28.2432416,27.6566591 27.9449941,28.6617852 C29.5974188,27.8169398 30.4611863,27.375316 30.5362965,27.3369139 L30.5416615,27.3341709 L30.5330561,27.3183575 C30.4875171,27.2431811 30.2429494,26.9298642 29.3754881,27.0349729 Z M17.0545489,19.0183407 C17.7977136,18.8791661 18.1870791,19.5613042 17.9111857,20.0756539 C17.6352924,20.5900036 17.7194631,20.4363068 17.3588686,21.0090819 C16.9982741,21.581857 16.7949358,23.0538817 15.8080686,22.998478 C14.8212014,22.9430742 14.9094067,22.1429215 15.1821152,21.7863149 C15.4548237,21.4297082 15.7615985,20.916264 15.94472,20.4363068 C16.1278415,19.9563496 16.3113842,19.1575154 17.0545489,19.0183407 Z" id="logo" fill="#FFFFFF" mask="url(#mask-2)"></path>
        </g>
    </g>
</svg>