<?xml version="1.0" encoding="UTF-8"?>
<svg width="28px" height="28px" viewBox="0 0 28 28" version="1.1" xmlns="http://www.w3.org/2000/svg" xmlns:xlink="http://www.w3.org/1999/xlink">
    <title>时长3</title>
    <g id="页面-1" stroke="none" stroke-width="1" fill="none" fill-rule="evenodd">
        <g id="添加组件" transform="translate(-815.000000, -472.000000)">
            <g id="编组-3" transform="translate(613.000000, 64.000000)">
                <g id="时长3" transform="translate(202.000000, 408.000000)">
                    <rect id="矩形" x="0" y="0" width="28" height="28"></rect>
                    <g id="仪表盘" transform="translate(1.000000, 4.000000)" fill-rule="nonzero">
                        <path d="M24.8033995,7.891 C23.4940937,4.79499521 21.0302553,2.33078663 17.9344471,1.02101587 C16.3447239,0.348327561 14.6356175,0.00330591464 12.9094313,0.006579763 C11.1828807,0.00424254614 9.47354143,0.349661435 7.88338365,1.02225397 C6.35012499,1.6709931 4.95658246,2.60973727 3.77930429,3.78692063 C2.59850761,4.96165699 1.65920572,6.35627389 1.01443127,7.89203175 C0.342042171,9.48112377 -0.00297280374,11.1894953 -7.15041839e-07,12.9149841 L1.45993921,12.9149841 C1.45993921,6.60234921 6.5957646,1.46652381 12.9096376,1.46652381 C19.2233043,1.46652381 24.3591297,6.60234921 24.3591297,12.9149841 L25.8188547,12.9149841 C25.8210717,11.1891345 25.4757255,9.48050931 24.8033995,7.891 L24.8033995,7.891 Z M3.16830429,18.299254 L22.5905106,18.299254 L22.5905106,19.7591746 L3.16830429,19.7591746 L3.16830429,18.299254 Z" id="形状" fill="#0663BE"></path>
                        <path d="M12.3285583,16.2508254 L15.1289233,16.2702222 L15.1095265,13.4710952 L7.83385984,8.97969841 L12.3285583,16.2520635 L12.3285583,16.2508254 L12.3285583,16.2508254 Z M13.6582725,14.8008095 L13.1473519,14.7977143 L12.3297963,13.4713016 L13.6551773,14.2888571 L13.6582725,14.8008095 Z" id="形状" fill="#0663BE"></path>
                        <path d="M2.74219317,14.2413968 L4.77432016,14.2413968 L4.77432016,15.7023492 L2.74219317,15.7023492 L2.74219317,14.2413968 Z M4.53990746,7.66834921 L5.57268524,6.63557143 L7.00887571,8.07279365 L5.97589159,9.10557143 L4.53990746,7.66938095 L4.53990746,7.66834921 Z M18.7800662,8.07279365 L20.2162567,6.63660317 L21.2490344,7.66938095 L19.8118122,9.10557143 L18.7790344,8.07279365 L18.7800662,8.07279365 Z M12.17359,2.78653968 L13.6335106,2.78653968 L13.6335106,4.8112381 L12.17359,4.8112381 L12.17359,2.78653968 Z M21.0294789,14.2424286 L23.0605741,14.2424286 L23.0605741,15.7023492 L21.0294789,15.7023492 L21.0294789,14.2424286 Z" id="形状" fill="#F0B813"></path>
                    </g>
                </g>
            </g>
        </g>
    </g>
</svg>