<?xml version="1.0" encoding="UTF-8"?>
<svg width="28px" height="28px" viewBox="0 0 28 28" version="1.1" xmlns="http://www.w3.org/2000/svg" xmlns:xlink="http://www.w3.org/1999/xlink">
    <title>时长6</title>
    <g id="页面-1" stroke="none" stroke-width="1" fill="none" fill-rule="evenodd">
        <g id="时长6">
            <rect id="矩形" x="0" y="0" width="28" height="28"></rect>
            <g id="line" transform="translate(3.000000, 3.000000)" fill="#0663BE" fill-rule="nonzero">
                <polygon id="路径" points="19.6310368 13.9369191 15.4323529 16.0650417 10.6584877 14.8571985 6.05719853 18.8833333 2.03103676 17.9055466 1.45588235 20.0911765 6.63235294 21.4140613 11.2336691 17.3878995 15.6624093 18.4807279 20.6663309 16.0075074"></polygon>
                <path d="M0.0179828431,18.998375 C0.0179828431,19.9513369 0.790511118,20.7238652 1.74347304,20.7238652 C2.69643496,20.7238652 3.46896324,19.9513369 3.46896324,18.998375 C3.46896324,18.0454131 2.69643496,17.2728848 1.74347304,17.2728848 C0.790511118,17.2728848 0.0179828431,18.0454131 0.0179828431,18.998375 Z M4.61927206,20.1486838 C4.61927206,21.1016457 5.39180033,21.874174 6.34476225,21.874174 C7.29772418,21.874174 8.07025245,21.1016457 8.07025245,20.1486838 C8.07025245,19.1957219 7.29772418,18.4231936 6.34476225,18.4231936 C5.39180033,18.4231936 4.61927206,19.1957219 4.61927206,20.1486838 Z M9.22058824,16.122549 C9.22058824,17.0755109 9.99311651,17.8480392 10.9460784,17.8480392 C11.8990404,17.8480392 12.6715686,17.0755109 12.6715686,16.122549 C12.6715686,15.1695871 11.8990404,14.3970588 10.9460784,14.3970588 C9.99311651,14.3970588 9.22058824,15.1695871 9.22058824,16.122549 Z M13.8219044,17.2728848 C13.8219044,18.2258467 14.5944327,18.998375 15.5473946,18.998375 C16.5003565,18.998375 17.2728848,18.2258467 17.2728848,17.2728848 C17.2728848,16.3199229 16.5003565,15.5473946 15.5473946,15.5473946 C14.5944327,15.5473946 13.8219044,16.3199229 13.8219044,17.2728848 Z M18.4231936,14.9722132 C18.4231936,15.9251752 19.1957219,16.6977034 20.1486838,16.6977034 C21.1016457,16.6977034 21.874174,15.9251752 21.874174,14.9722132 C21.874174,14.0192513 21.1016457,13.246723 20.1486838,13.246723 C19.1957219,13.246723 18.4231936,14.0192513 18.4231936,14.9722132 Z" id="形状"></path>
                <path d="M19.170924,1.11078431 C17.9630809,2.95131618 16.122549,5.71210049 15.2022966,7.09249265 C14.5121005,6.68986029 13.4192721,5.94215686 11.5212328,4.79182108 L10.7735294,4.33170833 L5.99966422,8.53039216 L1.97352941,7.55260539 L1.398375,9.79574265 L6.57484559,11.1186275 L11.0035858,7.26504167 C12.4990196,8.18529412 14.3395515,9.3356299 14.7421569,9.62319363 L15.0297475,9.91078431 L15.5473946,9.85327696 C16.1800564,9.79574265 16.1800564,9.79574265 21.0114289,2.43366912 L19.170924,1.11078431 Z" id="路径"></path>
                <path d="M0.0179828431,8.64543382 C0.0179828431,9.59839574 0.790511118,10.370924 1.74347304,10.370924 C2.69643496,10.370924 3.46896324,9.59839574 3.46896324,8.64543382 C3.46896324,7.6924719 2.69643496,6.91994363 1.74347304,6.91994363 C0.790511118,6.91994363 0.0179828431,7.6924719 0.0179828431,8.64543382 Z M4.61927206,9.79574265 C4.61927206,10.7487046 5.39180033,11.5212328 6.34476225,11.5212328 C7.29772418,11.5212328 8.07025245,10.7487046 8.07025245,9.79574265 C8.07025245,8.84278073 7.29772418,8.07025245 6.34476225,8.07025245 C5.39180033,8.07025245 4.61927206,8.84278073 4.61927206,9.79574265 Z M9.22058824,5.76960784 C9.22058824,6.72256976 9.99311651,7.49509804 10.9460784,7.49509804 C11.8990404,7.49509804 12.6715686,6.72256976 12.6715686,5.76960784 C12.6715686,4.81664592 11.8990404,4.04411765 10.9460784,4.04411765 C9.99311651,4.04411765 9.22058824,4.81664592 9.22058824,5.76960784 Z M13.8219044,8.64543382 C13.8219044,9.59839574 14.5944327,10.370924 15.5473946,10.370924 C16.5003565,10.370924 17.2728848,9.59839574 17.2728848,8.64543382 C17.2728848,7.6924719 16.5003565,6.91994363 15.5473946,6.91994363 C14.5944327,6.91994363 13.8219044,7.6924719 13.8219044,8.64543382 Z M18.4231936,1.74347304 C18.4231936,2.69643496 19.1957219,3.46896324 20.1486838,3.46896324 C21.1016457,3.46896324 21.874174,2.69643496 21.874174,1.74347304 C21.874174,0.790511118 21.1016457,0.0179828431 20.1486838,0.0179828431 C19.1957219,0.0179828431 18.4231936,0.790511118 18.4231936,1.74347304 Z" id="形状"></path>
            </g>
        </g>
    </g>
</svg>