<?xml version="1.0" encoding="UTF-8"?>
<svg width="28px" height="28px" viewBox="0 0 28 28" version="1.1" xmlns="http://www.w3.org/2000/svg" xmlns:xlink="http://www.w3.org/1999/xlink">
    <title>时长</title>
    <g id="页面-1" stroke="none" stroke-width="1" fill="none" fill-rule="evenodd">
        <g id="添加组件" transform="translate(-815.000000, -145.000000)">
            <g id="编组-3" transform="translate(613.000000, 64.000000)">
                <g id="时长" transform="translate(202.000000, 81.000000)">
                    <rect id="矩形" x="0" y="0" width="28" height="28"></rect>
                    <g id="numCard" transform="translate(1.000000, 6.000000)" fill-rule="nonzero">
                        <path d="M4.7369469,0.244469027 L4.7369469,12.269469 L2.76681416,12.269469 L2.76681416,2.61725664 C2.0420354,3.27588496 1.13318584,3.7619469 0.0201327434,4.0840708 L0.0201327434,2.12831858 C0.557964602,1.99314159 1.13318584,1.75730088 1.73716814,1.42079646 C2.34402655,1.04977876 2.84734513,0.661504425 3.25287611,0.24159292 L4.7369469,0.24159292 L4.7369469,0.244469027 Z M14.3719027,1.01814159 C15.1139381,1.69115044 15.4820796,2.55110619 15.4820796,3.62964602 C15.4820796,4.67367257 15.0794248,5.6170354 14.3028761,6.47699115 C13.8311947,6.98030973 12.9884956,7.62168142 11.809292,8.41261062 C10.5783186,9.22079646 9.83915929,9.92831858 9.56880531,10.535177 L15.4964602,10.535177 L15.4964602,12.269469 L7.11261062,12.269469 C7.11261062,11.0384956 7.50088496,9.97721239 8.3090708,9.06836283 C8.74623894,8.56216814 9.67234513,7.82300885 11.0701327,6.86238938 C11.8438053,6.32455752 12.3845133,5.86725664 12.7210177,5.51637168 C13.244469,4.92676991 13.5119469,4.28539823 13.5119469,3.61238938 C13.5119469,2.95376106 13.325,2.46769912 12.9884956,2.14557522 C12.6347345,1.82632743 12.1141593,1.67389381 11.4210177,1.67389381 C10.6789823,1.67389381 10.1238938,1.92699115 9.75287611,2.43030973 C9.38185841,2.90199115 9.18053097,3.62676991 9.1460177,4.57013274 L7.17588496,4.57013274 C7.19314159,3.22411504 7.58141593,2.14557522 8.3550885,1.32013274 C9.1460177,0.44579646 10.1900442,0.00862831858 11.4871681,0.00862831858 C12.6548673,0.00862831858 13.6126106,0.345132743 14.3719027,1.01814159 L14.3719027,1.01814159 Z M24.4785398,0.882964602 C25.2033186,1.47256637 25.5743363,2.28075221 25.5743363,3.32477876 C25.5743363,4.63915929 24.9013274,5.51349558 23.5696903,5.95353982 C24.2772124,6.17212389 24.8323009,6.49137168 25.2033186,6.92853982 C25.6059735,7.3829646 25.810177,7.97256637 25.810177,8.6800885 C25.810177,9.79026549 25.4219027,10.7019912 24.6482301,11.4095133 C23.8400442,12.134292 22.7787611,12.5053097 21.4643805,12.5053097 C20.2190265,12.5053097 19.2066372,12.1860619 18.4502212,11.5446903 C17.6075221,10.8371681 17.1358407,9.79314159 17.035177,8.44712389 L19.039823,8.44712389 C19.0743363,9.22079646 19.310177,9.82765487 19.7818584,10.2504425 C20.2017699,10.6387168 20.7568584,10.8400442 21.45,10.8400442 C22.209292,10.8400442 22.8132743,10.6214602 23.2533186,10.1986726 C23.6415929,9.81039823 23.8429204,9.33871681 23.8429204,8.76637168 C23.8429204,8.07610619 23.6243363,7.5699115 23.2188053,7.25066372 C22.8161504,6.91415929 22.2265487,6.76172566 21.45,6.76172566 L20.6073009,6.76172566 L20.6073009,5.28053097 L21.45,5.28053097 C22.1575221,5.28053097 22.695354,5.12809735 23.0663717,4.82610619 C23.4201327,4.52411504 23.6042035,4.06969027 23.6042035,3.4800885 C23.6042035,2.89048673 23.4345133,2.45331858 23.1152655,2.14845133 C22.7615044,1.84646018 22.2409292,1.69402655 21.5477876,1.69402655 C20.8402655,1.69402655 20.3024336,1.86084071 19.9141593,2.21747788 C19.5115044,2.57123894 19.2756637,3.1090708 19.2066372,3.83384956 L17.2681416,3.83384956 C17.3688053,2.62013274 17.8059735,1.67676991 18.6141593,1.00376106 C19.3734513,0.330752212 20.3484513,0.0114830686 21.5276549,0.0114830686 C22.7442478,0.00862831858 23.7365044,0.296238938 24.4785398,0.882964602 Z" id="形状" fill="#0663BE"></path>
                        <path d="M1.13318584,17.2767699 C1.13318584,17.9230887 1.47799277,18.5203118 2.03772123,18.8434712 C2.59744969,19.1666306 3.28706359,19.1666306 3.84679205,18.8434712 C4.4065205,18.5203118 4.75132743,17.9230887 4.75132743,17.2767699 C4.75132743,16.6304512 4.4065205,16.033228 3.84679204,15.7100686 C3.28706359,15.3869092 2.59744969,15.3869092 2.03772123,15.7100686 C1.47799277,16.033228 1.13318584,16.6304512 1.13318584,17.2767699 L1.13318584,17.2767699 Z" id="路径" fill="#F0B813"></path>
                        <polygon id="路径" fill="#F0B813" points="6.56327434 15.9221239 25.5628319 15.9221239 25.5628319 18.6371681 6.56327434 18.6371681"></polygon>
                    </g>
                </g>
            </g>
        </g>
    </g>
</svg>