<?xml version="1.0" encoding="UTF-8"?>
<svg width="28px" height="28px" viewBox="0 0 28 28" version="1.1" xmlns="http://www.w3.org/2000/svg" xmlns:xlink="http://www.w3.org/1999/xlink">
    <title>时长4</title>
    <g id="页面-1" stroke="none" stroke-width="1" fill="none" fill-rule="evenodd">
        <g id="添加组件" transform="translate(-815.000000, -581.000000)">
            <g id="编组-3" transform="translate(613.000000, 64.000000)">
                <g id="时长4" transform="translate(202.000000, 517.000000)">
                    <rect id="矩形" x="0" y="0" width="28" height="28"></rect>
                    <g id="pie" transform="translate(1.000000, 1.000000)" fill-rule="nonzero">
                        <path d="M25.819764,12.1620944 L25.819764,12.8983776 C25.819764,13.8800885 25.6970501,14.8617994 25.4516224,15.8435103 C25.2061947,16.8252212 24.8380531,17.8069322 24.4699115,18.6659292 L15.2663717,13.5119469 L25.819764,12.1620944 L25.819764,12.1620944 Z" id="路径" fill="#F0B813"></path>
                        <path d="M13.6710914,0.0134218385 C15.1436578,0.136135712 16.4935103,0.381563431 17.8433628,0.872418869 C19.1932154,1.36327431 20.2976401,2.09955752 21.4020649,2.95855458 C23.6109144,4.79926255 25.0834808,7.25353982 25.6970502,10.0759587 L14.039233,11.6712389 L13.6710914,0.0134218385 L13.6710914,0.0134218385 Z" id="路径" fill="#55D1D1"></path>
                        <path d="M12.0758112,13.6346608 L23.4882006,20.5066372 C21.8929204,22.7154867 19.6840708,24.4334808 16.9843658,25.2924779 C15.6345133,25.7833333 14.2846607,25.9060472 12.9348082,25.9060472 C10.2351032,25.9060472 7.53539823,25.0470501 5.32654867,23.4517699 C3.11769912,21.8564897 1.52241887,19.6476401 0.663421838,17.070649 C0.172566372,15.7207965 0.0498525265,14.3709439 0.0498524978,13.0210914 C-0.0728613761,11.3030973 0.172566372,9.83053097 0.786135684,8.23525073 C1.399705,6.76268436 2.25870206,5.41283186 3.24041299,4.30840708 C4.34483777,3.2039823 5.57197642,2.2222714 6.92182892,1.48598821 C8.39439529,0.749705024 9.86696166,0.258849558 11.4622419,0.136135684 L11.8303835,9.46238938 L12.0758112,13.6346608 Z" id="路径" fill="#0663BE"></path>
                    </g>
                </g>
            </g>
        </g>
    </g>
</svg>