<?xml version="1.0" encoding="UTF-8"?>
<svg width="28px" height="28px" viewBox="0 0 28 28" version="1.1" xmlns="http://www.w3.org/2000/svg" xmlns:xlink="http://www.w3.org/1999/xlink">
    <title>时长2</title>
    <g id="页面-1" stroke="none" stroke-width="1" fill="none" fill-rule="evenodd">
        <g id="添加组件" transform="translate(-815.000000, -363.000000)">
            <g id="编组-3" transform="translate(613.000000, 64.000000)">
                <g id="时长2" transform="translate(202.000000, 299.000000)">
                    <rect id="矩形" x="0" y="0" width="28" height="28"></rect>
                    <g id="radar" transform="translate(1.000000, 1.000000)" fill-rule="nonzero">
                        <path d="M13,0 L0,9.464 L4.979,24.778 L21.008,24.778 L26,9.464 L13,0 Z M24.18,10.582 L22.607,11.193 L17.55,18.707 L20.371,22.477 L20.358,22.529 L20.072,23.413 L19.279,23.413 L16.315,19.37 L7.358,22.542 L6.708,23.413 L5.993,23.413 L5.707,22.555 L6.643,21.268 L4.264,12.025 L1.976,11.375 L1.495,9.945 L1.651,9.841 L4.628,10.634 L12.35,4.134 L12.35,2.184 L5.278,7.241 L13.091,1.651 L13.715,2.106 L13.715,3.64 L21.372,10.218 L23.647,9.386 L24.388,9.932 L24.18,10.582 Z" id="形状" fill="#0663BE"></path>
                        <path d="M13.728,5.421 L13.728,12.714 L19.929,10.686 L13.728,5.421 Z M12.35,5.85 L6.214,11.05 L12.35,12.779 L12.35,5.85 Z" id="形状" fill="#F0B813"></path>
                        <path d="M16.679,17.55 L20.579,11.843 L14.079,13.936 L16.679,17.55 Z M8.814,20.579 L15.522,18.2 L13.078,14.807 L8.814,20.579 Z M5.772,12.35 L7.722,19.786 L11.921,14.079 L5.772,12.35 Z" id="形状" fill="#55D1D1"></path>
                    </g>
                </g>
            </g>
        </g>
    </g>
</svg>