<?xml version="1.0" encoding="UTF-8"?>
<svg width="28px" height="28px" viewBox="0 0 28 28" version="1.1" xmlns="http://www.w3.org/2000/svg" xmlns:xlink="http://www.w3.org/1999/xlink">
    <title>时长7</title>
    <g id="页面-1" stroke="none" stroke-width="1" fill="none" fill-rule="evenodd">
        <g id="时长7">
            <rect id="矩形" x="0" y="0" width="28" height="28"></rect>
            <g id="bar" transform="translate(4.000000, 4.000000)" fill-rule="nonzero">
                <path d="M5.01731291,8.99998081 L0.99842672,8.99998081 C0.16892672,8.99998081 0,9.1705 0,10 L0,18.6999865 C0,19.5294865 0.16892672,19.5 0.99842672,19.5 L5.01731291,19.5 C5.84681291,19.5 6,19.5294865 6,18.6999865 L6,10 C6,9.1705 5.84681291,8.99998081 5.01731291,8.99998081 Z" id="路径" fill="#55D1D1"></path>
                <polygon id="路径" fill="#FFFFFF" points="4.5 18 1.5 18 1.5 10.5 4.5 10.5"></polygon>
                <path d="M20.0109804,6 L15.9666183,6 C15.1371183,6 15,6.20768175 15,7.03718175 L15,18.5147337 C15,19.3442337 15.1371183,19.5000364 15.9666183,19.5000364 L20.0109804,19.5000364 C20.8404804,19.5000364 21,19.3442337 21,18.5147337 L21,7.03718175 C21,6.20768175 20.8404804,6 20.0109804,6 Z" id="路径" fill="#0663BE"></path>
                <polygon id="路径" fill="#FFFFFF" points="19.5 18 16.5 18 16.5 7.5 19.5 7.5"></polygon>
                <path d="M12.6378173,0 L8.47047997,0 C7.64097997,0 7.49999973,0.17194889 7.49999973,1.00144889 L7.49999973,18.4413554 C7.49999973,19.2708554 7.75123893,19.5 8.58073893,19.5 C9.13373893,19.5 10.4528052,19.5 12.5379378,19.5 C13.3674378,19.5 13.5000184,19.2708554 13.5000184,18.4413554 L13.5000184,1.00144889 C13.5000184,0.17194889 13.4673173,0 12.6378173,0 Z" id="路径" fill="#F0B813"></path>
                <polygon id="路径" fill="#FFFFFF" points="12 18 9 18 9 1.5 12 1.5"></polygon>
            </g>
        </g>
    </g>
</svg>