<?xml version="1.0" encoding="UTF-8"?>
<svg width="28px" height="28px" viewBox="0 0 28 28" version="1.1" xmlns="http://www.w3.org/2000/svg" xmlns:xlink="http://www.w3.org/1999/xlink">
    <title>时长8</title>
    <g id="页面-1" stroke="none" stroke-width="1" fill="none" fill-rule="evenodd">
        <g id="时长8">
            <rect id="矩形" x="0" y="0" width="28" height="28"></rect>
            <path d="M9.0133004,8.6893603 L4.67996056,8.6893603 C4.34664025,8.6893603 4.0133004,9.02270015 4.0133004,9.46715327 L4.0133004,22.3560205 C4.0133004,22.6893798 4.34664025,23.0227001 4.67996056,23.0227001 L9.0133004,23.0227001 C9.45775353,23.0227001 9.67996056,22.6893603 9.67996056,22.35604 L9.67996056,9.46715327 C9.67996056,9.02270015 9.45775353,8.6893603 9.0133004,8.6893603 Z" id="路径" fill="#55D1D1" fill-rule="nonzero"></path>
            <path d="M16.1244137,5.91158687 L11.9021676,5.91158687 C11.457734,5.91158687 11.2355074,6.24492671 11.2355074,6.57824702 L11.2355074,22.2449267 C11.2355074,22.6893603 11.5688277,22.9115869 11.9021676,22.9115869 L16.2355074,22.9115869 C16.679941,22.9115869 16.9021676,22.578247 16.9021676,22.2449267 L16.9021676,6.57824702 C16.9021676,6.24492671 16.5688277,5.91158687 16.1243942,5.91158687 L16.1244137,5.91158687 Z" id="路径" fill="#F0B813" fill-rule="nonzero"></path>
            <path d="M23.3466402,3.02270015 L19.0133004,3.02270015 C18.5688473,3.02270015 18.3466402,3.35603999 18.3466402,3.6893603 L18.3466402,22.2449267 C18.3466402,22.6893603 18.6799606,22.9115869 19.0133004,22.9115869 L23.3466402,22.9115869 C23.7910738,22.9115869 24.0133004,22.578247 24.0133004,22.2449267 L24.0133004,3.6893603 C24.0133004,3.35603999 23.6799606,3.02270015 23.3466402,3.02270015 Z" id="路径" fill="#0663BE" fill-rule="nonzero"></path>
            <g id="堆叠柱状图" transform="translate(4.000000, 13.000000)" fill="#FFFFFF" fill-rule="nonzero">
                <polygon id="路径" points="4.67996056 8.57824702 0.679960559 8.57824702 0.679960559 2.91158687 4.67996056 2.91158687 4.67996056 8.57824702"></polygon>
                <polygon id="路径" points="11.7996197 8.57824702 7.90216759 8.57824702 7.90216759 1.46715327 11.9021676 1.46715327 11.9021676 8.57824702"></polygon>
                <polygon id="路径" points="19.0133004 8.57824702 15.0133004 8.57824702 15.0133004 0.0227001468 19.0133004 0.0227001468"></polygon>
            </g>
        </g>
    </g>
</svg>