<?xml version="1.0" encoding="UTF-8"?>
<svg width="28px" height="28px" viewBox="0 0 28 28" version="1.1" xmlns="http://www.w3.org/2000/svg" xmlns:xlink="http://www.w3.org/1999/xlink">
    <title>时长1</title>
    <g id="页面-1" stroke="none" stroke-width="1" fill="none" fill-rule="evenodd">
        <g id="添加组件" transform="translate(-815.000000, -254.000000)">
            <g id="编组-3" transform="translate(613.000000, 64.000000)">
                <g id="时长1" transform="translate(202.000000, 190.000000)">
                    <rect id="矩形" x="0" y="0" width="28" height="28"></rect>
                    <g id="table" transform="translate(1.000000, 3.000000)" fill="#0663BE" fill-rule="nonzero">
                        <path d="M24.7565217,2.5052588 L24.7565217,19.4966625 C24.7565217,20.1856894 24.5222526,20.764472 24.0537143,21.2605714 C23.585176,21.7566708 23.0201739,21.99094 22.3724886,21.99094 L2.39070807,21.99094 C1.74302277,21.99094 1.1780207,21.7428903 0.709482402,21.2605714 C0.240944099,20.7782526 0.00667494824,20.1856894 0.00667494824,19.4966625 L0.00667494824,2.5052588 C0.00667494824,1.81623188 0.240944099,1.23744928 0.709482402,0.741349896 C1.1780207,0.245250518 1.74302277,0.0109813665 2.39070807,0.0109813665 L22.3862692,0.0109813665 C23.0339545,0.0109813665 23.5989565,0.259031056 24.0674948,0.741349896 C24.5222526,1.22366874 24.7565217,1.81623188 24.7565217,2.5052588 Z M7.61353209,7.5075942 L7.61353209,4.50343685 C7.61353209,4.35185093 7.57219048,4.24160663 7.47572671,4.14514286 C7.37926294,4.04867909 7.26901863,4.00733747 7.13121325,4.00733747 L2.37692754,4.00733747 C2.23912215,4.00733747 2.12887785,4.04867909 2.03241408,4.14514286 C1.93595031,4.24160663 1.8946087,4.36563147 1.8946087,4.50343685 L1.8946087,7.5075942 C1.8946087,7.65918012 1.93595031,7.76942443 2.03241408,7.8658882 C2.12887785,7.96235197 2.23912215,8.00369358 2.37692754,8.00369358 L7.14499379,8.00369358 C7.28279917,8.00369358 7.39304348,7.96235197 7.48950725,7.8658882 C7.57219048,7.76942443 7.61353209,7.64539959 7.61353209,7.5075942 Z M7.61353209,13.5021284 L7.61353209,10.497971 C7.61353209,10.3463851 7.57219048,10.2361408 7.47572671,10.139677 C7.37926294,10.0432133 7.26901863,10.0018716 7.13121325,10.0018716 L2.37692754,10.0018716 C2.23912215,10.0018716 2.12887785,10.0432133 2.03241408,10.139677 C1.93595031,10.2361408 1.8946087,10.3601656 1.8946087,10.497971 L1.8946087,13.5021284 C1.8946087,13.6537143 1.93595031,13.7639586 2.03241408,13.8604224 C2.12887785,13.9568861 2.23912215,13.9982277 2.37692754,13.9982277 L7.14499379,13.9982277 C7.28279917,13.9982277 7.39304348,13.9568861 7.48950725,13.8604224 C7.57219048,13.7777391 7.61353209,13.6537143 7.61353209,13.5021284 Z M7.61353209,19.5104431 L7.61353209,16.5062857 C7.61353209,16.3546998 7.57219048,16.2444555 7.47572671,16.1479917 C7.37926294,16.051528 7.26901863,16.0101863 7.13121325,16.0101863 L2.37692754,16.0101863 C2.23912215,16.0101863 2.12887785,16.051528 2.03241408,16.1479917 C1.93595031,16.2444555 1.8946087,16.3684803 1.8946087,16.5062857 L1.8946087,19.5104431 C1.8946087,19.662029 1.93595031,19.7722733 2.03241408,19.8687371 C2.12887785,19.9652008 2.23912215,20.0065424 2.37692754,20.0065424 L7.14499379,20.0065424 C7.28279917,20.0065424 7.39304348,19.9652008 7.48950725,19.8687371 C7.57219048,19.7722733 7.61353209,19.6482484 7.61353209,19.5104431 Z M15.2341698,7.5075942 L15.2341698,4.50343685 C15.2341698,4.35185093 15.1928282,4.24160663 15.0963644,4.14514286 C14.9999006,4.04867909 14.8896563,4.00733747 14.7518509,4.00733747 L9.99756522,4.00733747 C9.85975983,4.00733747 9.74951553,4.04867909 9.65305176,4.14514286 C9.55658799,4.24160663 9.51524638,4.36563147 9.51524638,4.50343685 L9.51524638,7.5075942 C9.51524638,7.65918012 9.55658799,7.76942443 9.65305176,7.8658882 C9.74951553,7.96235197 9.85975983,8.00369358 9.99756522,8.00369358 L14.7656315,8.00369358 C14.9034369,8.00369358 15.0136812,7.96235197 15.1101449,7.8658882 C15.1928282,7.76942443 15.2341698,7.64539959 15.2341698,7.5075942 L15.2341698,7.5075942 Z M15.2341698,13.5021284 L15.2341698,10.497971 C15.2341698,10.3463851 15.1928282,10.2361408 15.0963644,10.139677 C14.9999006,10.0432133 14.8896563,10.0018716 14.7518509,10.0018716 L9.99756522,10.0018716 C9.85975983,10.0018716 9.74951553,10.0432133 9.65305176,10.139677 C9.55658799,10.2361408 9.51524638,10.3601656 9.51524638,10.497971 L9.51524638,13.5021284 C9.51524638,13.6537143 9.55658799,13.7639586 9.65305176,13.8604224 C9.74951553,13.9568861 9.85975983,13.9982277 9.99756522,13.9982277 L14.7656315,13.9982277 C14.9034369,13.9982277 15.0136812,13.9568861 15.1101449,13.8604224 C15.1928282,13.7777391 15.2341698,13.6537143 15.2341698,13.5021284 L15.2341698,13.5021284 Z M15.2341698,19.5104431 L15.2341698,16.5062857 C15.2341698,16.3546998 15.1928282,16.2444555 15.0963644,16.1479917 C14.9999006,16.051528 14.8896563,16.0101863 14.7518509,16.0101863 L9.99756522,16.0101863 C9.85975983,16.0101863 9.74951553,16.051528 9.65305176,16.1479917 C9.55658799,16.2444555 9.51524638,16.3684803 9.51524638,16.5062857 L9.51524638,19.5104431 C9.51524638,19.662029 9.55658799,19.7722733 9.65305176,19.8687371 C9.74951553,19.9652008 9.85975983,20.0065424 9.99756522,20.0065424 L14.7656315,20.0065424 C14.9034369,20.0065424 15.0136812,19.9652008 15.1101449,19.8687371 C15.1928282,19.7722733 15.2341698,19.6482484 15.2341698,19.5104431 L15.2341698,19.5104431 Z M22.8548075,7.5075942 L22.8548075,4.50343685 C22.8548075,4.35185093 22.8134658,4.24160663 22.7170021,4.14514286 C22.6205383,4.04867909 22.510294,4.00733747 22.3724886,4.00733747 L17.6044224,4.00733747 C17.466617,4.00733747 17.3563727,4.04867909 17.2599089,4.14514286 C17.1634451,4.24160663 17.1221035,4.36563147 17.1221035,4.50343685 L17.1221035,7.5075942 C17.1221035,7.65918012 17.1634451,7.76942443 17.2599089,7.8658882 C17.3563727,7.96235197 17.466617,8.00369358 17.6044224,8.00369358 L22.3724886,8.00369358 C22.510294,8.00369358 22.6205383,7.96235197 22.7170021,7.8658882 C22.8134658,7.76942443 22.8548075,7.64539959 22.8548075,7.5075942 L22.8548075,7.5075942 Z M22.8548075,13.5021284 L22.8548075,10.497971 C22.8548075,10.3463851 22.8134658,10.2361408 22.7170021,10.139677 C22.6205383,10.0432133 22.510294,10.0018716 22.3724886,10.0018716 L17.6044224,10.0018716 C17.466617,10.0018716 17.3563727,10.0432133 17.2599089,10.139677 C17.1634451,10.2361408 17.1221035,10.3601656 17.1221035,10.497971 L17.1221035,13.5021284 C17.1221035,13.6537143 17.1634451,13.7639586 17.2599089,13.8604224 C17.3563727,13.9568861 17.466617,13.9982277 17.6044224,13.9982277 L22.3724886,13.9982277 C22.510294,13.9982277 22.6205383,13.9568861 22.7170021,13.8604224 C22.8134658,13.7639586 22.8548075,13.6537143 22.8548075,13.5021284 L22.8548075,13.5021284 Z M22.8548075,19.5104431 L22.8548075,16.5062857 C22.8548075,16.3546998 22.8134658,16.2444555 22.7170021,16.1479917 C22.6205383,16.051528 22.510294,16.0101863 22.3724886,16.0101863 L17.6044224,16.0101863 C17.466617,16.0101863 17.3563727,16.051528 17.2599089,16.1479917 C17.1634451,16.2444555 17.1221035,16.3684803 17.1221035,16.5062857 L17.1221035,19.5104431 C17.1221035,19.662029 17.1634451,19.7722733 17.2599089,19.8687371 C17.3563727,19.9652008 17.466617,20.0065424 17.6044224,20.0065424 L22.3724886,20.0065424 C22.510294,20.0065424 22.6205383,19.9652008 22.7170021,19.8687371 C22.8134658,19.7722733 22.8548075,19.6482484 22.8548075,19.5104431 L22.8548075,19.5104431 Z" id="形状"></path>
                    </g>
                </g>
            </g>
        </g>
    </g>
</svg>