<?xml version="1.0" encoding="utf-8"?>
<!-- Generator: Adobe Illustrator 24.0.1, SVG Export Plug-In . SVG Version: 6.00 Build 0)  -->
<svg
  version="1.1"
  id="图层_1"
  xmlns="http://www.w3.org/2000/svg"
  xmlns:xlink="http://www.w3.org/1999/xlink"
  x="0px"
  y="0px"
  viewBox="0 0 20 20"
  style="enable-background:new 0 0 20 20;"
  xml:space="preserve"
>
  <style type="text/css">
    .st0 {
      fill: #333333;
    }
  </style>
  <title>仪表盘</title>
  <path
    id="形状结合"
    class="st0"
    d="M9,0l1.1,0.1c5.2,0.3,9.4,4.5,9.7,9.7l0.1,1.1H13c-0.5,1.4-1.8,2.2-3.3,2S7.2,11.6,7,10.2
C6.8,8.7,7.7,7.4,9,6.9V0z M9.6,8.9C9.2,9.1,9,9.5,9,9.8c0,0.6,0.5,1,1,1s1-0.5,1-1c0-0.4-0.2-0.7-0.5-0.9C10.3,8.7,9.9,8.7,9.6,8.9
z M11.1,2.3v4.6c0.9,0.3,1.6,1,1.9,1.9h4.7C17,5.5,14.4,2.9,11.1,2.3z"
  />
  <path
    id="路径"
    class="st0"
    d="M6.5,0.4c0.3-0.1,0.7-0.1,1,0.2s0.4,0.6,0.4,1S7.6,2.2,7.2,2.3C3.8,3.6,1.7,7,2.1,10.7
s3.2,6.5,6.8,7.1c3.6,0.6,7.1-1.4,8.6-4.7c0.2-0.5,0.8-0.7,1.4-0.5c0.5,0.2,0.8,0.8,0.5,1.3c-1.6,3.7-5.2,6.1-9.3,6.1
C4.5,19.9,0,15.4,0,9.8C0,5.6,2.6,1.9,6.5,0.4L6.5,0.4z"
  />
</svg>
