<?xml version="1.0" encoding="utf-8"?>
<!-- Generator: Adobe Illustrator 24.0.1, SVG Export Plug-In . SVG Version: 6.00 Build 0)  -->
<svg
  version="1.1"
  id="图层_1"
  xmlns="http://www.w3.org/2000/svg"
  xmlns:xlink="http://www.w3.org/1999/xlink"
  x="0px"
  y="0px"
  viewBox="0 0 20 20"
  style="enable-background:new 0 0 20 20;"
  xml:space="preserve"
>
  <style type="text/css">
    .st0 {
      fill: none;
    }
    .st1 {
      fill: #333333;
    }
  </style>
  <title>统计报表</title>
  <rect id="矩形" y="0" class="st0" width="20" height="20" />
  <path
    id="形状结合"
    class="st1"
    d="M19,0c0.6,0,1,0.4,1,1v18c0,0.6-0.4,1-1,1H1c-0.6,0-1-0.4-1-1V1c0-0.6,0.4-1,1-1H19z M18,16
H2v2h16V16z M18,2H2v12h16V2z"
  />
  <path
    id="路径-3"
    class="st1"
    d="M14.3,4.3c0.4-0.4,1-0.4,1.4,0c0.4,0.4,0.4,0.9,0.1,1.3l-0.1,0.1l-4.4,4.4
c-0.4,0.4-0.9,0.4-1.3,0.1L10,10.1L7.8,7.9l-2.2,2.2c-0.4,0.4-0.9,0.4-1.3,0.1l-0.1-0.1C3.8,9.7,3.8,9.1,4.1,8.7l0.1-0.1l2.9-2.9
C7.5,5.4,8,5.4,8.4,5.7l0.1,0.1l2.2,2.2L14.3,4.3z"
  />
</svg>
