<?xml version="1.0" encoding="UTF-8"?>
<svg width="32px" height="32px" viewBox="0 0 32 32" version="1.1" xmlns="http://www.w3.org/2000/svg" xmlns:xlink="http://www.w3.org/1999/xlink">
    <title>撤销</title>
    <g id="页面-1" stroke="none" stroke-width="1" fill="none" fill-rule="evenodd">
        <g id="各状态步骤条" transform="translate(-270.000000, -413.000000)">
            <g id="撤销" transform="translate(270.000000, 413.000000)">
                <g id="编组-15" fill="#DDDDDD">
                    <rect id="矩形" x="0" y="0" width="32" height="32" rx="8"></rect>
                </g>
                <rect id="矩形" stroke="#FFFFFF" fill="#DDDDDD" x="7.83333333" y="7.16666667" width="16.3333333" height="17.6666667" rx="2"></rect>
                <g id="chexiao-2" transform="translate(11.333333, 11.333333)" fill="#FFFFFF" fill-rule="nonzero">
                    <path d="M3.97244374,6.66375533 C2.6033578,5.51203367 1.31823011,4.42984798 0.00219753664,3.32139316 C1.30947373,2.22066453 2.59614667,1.14002409 3.94565952,0.00530011961 L3.94565952,1.54178747 C4.68016538,1.63398701 5.37449489,1.67467843 6.04667591,1.81426544 C7.44357624,2.10425618 8.55769696,2.78364834 9.04341857,4.22793613 C9.74495923,6.312985 8.91310302,8.62312436 7.0438732,9.77278571 C7.01811913,9.78875323 6.98618409,9.79750961 6.92025369,9.82429383 C7.17006809,9.51885065 7.41215628,9.25821954 7.61561337,8.96977404 C8.01789182,8.40215452 8.25225379,7.77066491 8.27955309,7.06809411 C8.30376191,6.43454418 8.02252755,5.97354647 7.49302404,5.65162069 C6.8733813,5.27458122 6.17905179,5.14066009 5.47493573,5.08194084 C4.98715379,5.04124942 4.49370596,5.07421462 3.97244374,5.07421462 L3.97244374,6.66375533 L3.97244374,6.66375533 Z" id="路径"></path>
                </g>
            </g>
        </g>
    </g>
</svg>