<?xml version="1.0" encoding="UTF-8"?>
<svg width="102px" height="8px" viewBox="0 0 102 8" version="1.1" xmlns="http://www.w3.org/2000/svg" xmlns:xlink="http://www.w3.org/1999/xlink">
    <title>形状结合</title>
    <g id="页面-1" stroke="none" stroke-width="1" fill="none" fill-rule="evenodd">
        <g id="各状态步骤条" transform="translate(-157.000000, -153.000000)" fill="#0663BE" fill-rule="nonzero">
            <g id="待实施" transform="translate(114.000000, 141.000000)">
                <path d="M43.7781038,12.0811314 L43.8466967,12.1339928 L47.688738,15.677781 C47.8603503,15.8360712 47.8794183,16.0814398 47.7459421,16.2590808 L47.688738,16.322219 L43.8466967,19.8660072 C43.6533182,20.0443739 43.3394286,20.0447063 43.1456046,19.8667497 C42.9733166,19.708566 42.9538881,19.4627572 43.0875135,19.2848133 L43.1447979,19.2215692 L46.6359993,16.0000652 L43.1447979,12.7784308 C42.9729059,12.6198827 42.9540922,12.3740334 43.0881623,12.196373 L43.1456046,12.1332503 C43.3178926,11.9750666 43.5850473,11.9577533 43.7781038,12.0811314 Z M50.7185656,12.0811314 L50.7871584,12.1339928 L54.6291997,15.677781 C54.800812,15.8360712 54.81988,16.0814398 54.6864038,16.2590808 L54.6291997,16.322219 L50.7871584,19.8660072 C50.59378,20.0443739 50.2798904,20.0447063 50.0860664,19.8667497 C49.9137784,19.708566 49.8943498,19.4627572 50.0279753,19.2848133 L50.0852596,19.2215692 L53.576461,16.0000652 L50.0852596,12.7784308 C49.9133676,12.6198827 49.8945539,12.3740334 50.028624,12.196373 L50.0860664,12.1332503 C50.2583544,11.9750666 50.525509,11.9577533 50.7185656,12.0811314 Z M57.6590273,12.0811314 L57.7276201,12.1339928 L61.5696614,15.677781 C61.7412737,15.8360712 61.7603417,16.0814398 61.6268655,16.2590808 L61.5696614,16.322219 L57.7276201,19.8660072 C57.5342417,20.0443739 57.2203521,20.0447063 57.0265281,19.8667497 C56.8542401,19.708566 56.8348116,19.4627572 56.968437,19.2848133 L57.0257213,19.2215692 L60.5169228,16.0000652 L57.0257213,12.7784308 C56.8538294,12.6198827 56.8350157,12.3740334 56.9690858,12.196373 L57.0265281,12.1332503 C57.1988161,11.9750666 57.4659707,11.9577533 57.6590273,12.0811314 Z M64.599489,12.0811314 L64.6680819,12.1339928 L68.5101232,15.677781 C68.6817354,15.8360712 68.7008035,16.0814398 68.5673273,16.2590808 L68.5101232,16.322219 L64.6680819,19.8660072 C64.4747034,20.0443739 64.1608138,20.0447063 63.9669898,19.8667497 C63.7947018,19.708566 63.7752733,19.4627572 63.9088987,19.2848133 L63.966183,19.2215692 L67.4573845,16.0000652 L63.966183,12.7784308 C63.7942911,12.6198827 63.7754774,12.3740334 63.9095475,12.196373 L63.9669898,12.1332503 C64.1392778,11.9750666 64.4064325,11.9577533 64.599489,12.0811314 Z M71.5399507,12.0811314 L71.6085436,12.1339928 L75.4505849,15.677781 C75.6221972,15.8360712 75.6412652,16.0814398 75.507789,16.2590808 L75.4505849,16.322219 L71.6085436,19.8660072 C71.4151651,20.0443739 71.1012755,20.0447063 70.9074515,19.8667497 C70.7351635,19.708566 70.715735,19.4627572 70.8493604,19.2848133 L70.9066448,19.2215692 L74.3978462,16.0000652 L70.9066448,12.7784308 C70.7347528,12.6198827 70.7159391,12.3740334 70.8500092,12.196373 L70.9074515,12.1332503 C71.0797395,11.9750666 71.3468942,11.9577533 71.5399507,12.0811314 Z M78.4804125,12.0811314 L78.5490053,12.1339928 L82.3910466,15.677781 C82.5626589,15.8360712 82.5817269,16.0814398 82.4482507,16.2590808 L82.3910466,16.322219 L78.5490053,19.8660072 C78.3556269,20.0443739 78.0417373,20.0447063 77.8479133,19.8667497 C77.6756253,19.708566 77.6561967,19.4627572 77.7898222,19.2848133 L77.8471065,19.2215692 L81.3383079,16.0000652 L77.8471065,12.7784308 C77.6752145,12.6198827 77.6564008,12.3740334 77.7904709,12.196373 L77.8479133,12.1332503 C78.0202013,11.9750666 78.2873559,11.9577533 78.4804125,12.0811314 Z M85.4208742,12.0811314 L85.489467,12.1339928 L89.3315083,15.677781 C89.5031206,15.8360712 89.5221886,16.0814398 89.3887124,16.2590808 L89.3315083,16.322219 L85.489467,19.8660072 C85.2960886,20.0443739 84.982199,20.0447063 84.788375,19.8667497 C84.616087,19.708566 84.5966585,19.4627572 84.7302839,19.2848133 L84.7875682,19.2215692 L88.2787697,16.0000652 L84.7875682,12.7784308 C84.6156763,12.6198827 84.5968626,12.3740334 84.7309327,12.196373 L84.788375,12.1332503 C84.960663,11.9750666 85.2278176,11.9577533 85.4208742,12.0811314 Z M92.3613359,12.0811314 L92.4299288,12.1339928 L96.2719701,15.677781 C96.4435823,15.8360712 96.4626504,16.0814398 96.3291742,16.2590808 L96.2719701,16.322219 L92.4299288,19.8660072 C92.2365503,20.0443739 91.9226607,20.0447063 91.7288367,19.8667497 C91.5565487,19.708566 91.5371202,19.4627572 91.6707456,19.2848133 L91.7280299,19.2215692 L95.2192314,16.0000652 L91.7280299,12.7784308 C91.556138,12.6198827 91.5373243,12.3740334 91.6713944,12.196373 L91.7288367,12.1332503 C91.9011247,11.9750666 92.1682794,11.9577533 92.3613359,12.0811314 Z M99.3017976,12.0811314 L99.3703905,12.1339928 L103.212432,15.677781 C103.384044,15.8360712 103.403112,16.0814398 103.269636,16.2590808 L103.212432,16.322219 L99.3703905,19.8660072 C99.177012,20.0443739 98.8631224,20.0447063 98.6692984,19.8667497 C98.4970104,19.708566 98.4775819,19.4627572 98.6112073,19.2848133 L98.6684917,19.2215692 L102.159693,16.0000652 L98.6684917,12.7784308 C98.4965997,12.6198827 98.477786,12.3740334 98.6118561,12.196373 L98.6692984,12.1332503 C98.8415864,11.9750666 99.1087411,11.9577533 99.3017976,12.0811314 Z M106.242259,12.0811314 L106.310852,12.1339928 L110.152894,15.677781 C110.324506,15.8360712 110.343574,16.0814398 110.210098,16.2590808 L110.152894,16.322219 L106.310852,19.8660072 C106.117474,20.0443739 105.803584,20.0447063 105.60976,19.8667497 C105.437472,19.708566 105.418044,19.4627572 105.551669,19.2848133 L105.608953,19.2215692 L109.100155,16.0000652 L105.608953,12.7784308 C105.437061,12.6198827 105.418248,12.3740334 105.552318,12.196373 L105.60976,12.1332503 C105.782048,11.9750666 106.049203,11.9577533 106.242259,12.0811314 Z M113.182721,12.0811314 L113.251314,12.1339928 L117.093355,15.677781 C117.264968,15.8360712 117.284036,16.0814398 117.150559,16.2590808 L117.093355,16.322219 L113.251314,19.8660072 C113.057935,20.0443739 112.744046,20.0447063 112.550222,19.8667497 C112.377934,19.708566 112.358505,19.4627572 112.492131,19.2848133 L112.549415,19.2215692 L116.040617,16.0000652 L112.549415,12.7784308 C112.377523,12.6198827 112.358709,12.3740334 112.49278,12.196373 L112.550222,12.1332503 C112.72251,11.9750666 112.989665,11.9577533 113.182721,12.0811314 Z M120.123183,12.0811314 L120.191776,12.1339928 L124.033817,15.677781 C124.205429,15.8360712 124.224497,16.0814398 124.091021,16.2590808 L124.033817,16.322219 L120.191776,19.8660072 C119.998397,20.0443739 119.684508,20.0447063 119.490684,19.8667497 C119.318396,19.708566 119.298967,19.4627572 119.432593,19.2848133 L119.489877,19.2215692 L122.981078,16.0000652 L119.489877,12.7784308 C119.317985,12.6198827 119.299171,12.3740334 119.433241,12.196373 L119.490684,12.1332503 C119.662972,11.9750666 119.930126,11.9577533 120.123183,12.0811314 Z M127.063645,12.0811314 L127.132237,12.1339928 L130.974279,15.677781 C131.145891,15.8360712 131.164959,16.0814398 131.031483,16.2590808 L130.974279,16.322219 L127.132237,19.8660072 C126.938859,20.0443739 126.624969,20.0447063 126.431145,19.8667497 C126.258857,19.708566 126.239429,19.4627572 126.373054,19.2848133 L126.430339,19.2215692 L129.92154,16.0000652 L126.430339,12.7784308 C126.258447,12.6198827 126.239633,12.3740334 126.373703,12.196373 L126.431145,12.1332503 C126.603433,11.9750666 126.870588,11.9577533 127.063645,12.0811314 Z M134.004106,12.0811314 L134.072699,12.1339928 L137.91474,15.677781 C138.086353,15.8360712 138.105421,16.0814398 137.971945,16.2590808 L137.91474,16.322219 L134.072699,19.8660072 C133.879321,20.0443739 133.565431,20.0447063 133.371607,19.8667497 C133.199319,19.708566 133.179891,19.4627572 133.313516,19.2848133 L133.3708,19.2215692 L136.862002,16.0000652 L133.3708,12.7784308 C133.198908,12.6198827 133.180095,12.3740334 133.314165,12.196373 L133.371607,12.1332503 C133.543895,11.9750666 133.81105,11.9577533 134.004106,12.0811314 Z M140.944568,12.0811314 L141.013161,12.1339928 L144.855202,15.677781 C145.026814,15.8360712 145.045882,16.0814398 144.912406,16.2590808 L144.855202,16.322219 L141.013161,19.8660072 C140.819782,20.0443739 140.505893,20.0447063 140.312069,19.8667497 C140.139781,19.708566 140.120352,19.4627572 140.253978,19.2848133 L140.311262,19.2215692 L143.802463,16.0000652 L140.311262,12.7784308 C140.13937,12.6198827 140.120556,12.3740334 140.254626,12.196373 L140.312069,12.1332503 C140.484357,11.9750666 140.751511,11.9577533 140.944568,12.0811314 Z" id="形状结合"></path>
            </g>
        </g>
    </g>
</svg>