<?xml version="1.0" encoding="UTF-8"?>
<svg width="60px" height="60px" viewBox="0 0 60 60" version="1.1" xmlns="http://www.w3.org/2000/svg" xmlns:xlink="http://www.w3.org/1999/xlink">
    <title>玉衡测试相关</title>
    <defs>
        <linearGradient x1="0%" y1="0%" x2="97.6267337%" y2="96.7256902%" id="linearGradient-1">
            <stop stop-color="#219CF0" offset="0%"></stop>
            <stop stop-color="#A2D9FF" offset="100%"></stop>
        </linearGradient>
    </defs>
    <g id="组件库" stroke="none" stroke-width="1" fill="none" fill-rule="evenodd">
        <g id="1.4_Icon_场景图标" transform="translate(-713.000000, -1025.000000)">
            <g id="玉衡测试相关" transform="translate(713.000000, 1025.000000)">
                <path d="M56,0 C58.209139,0 60,1.790861 60,4 L60,56 C60,58.209139 58.209139,60 56,60 L4,60 C1.790861,60 0,58.209139 0,56 L0,4 C0,1.790861 1.790861,0 4,0 L56,0 Z" id="路径" fill="url(#linearGradient-1)"></path>
                <g id="编组-3" transform="translate(7.000000, 7.000000)">
                    <rect id="矩形" x="0" y="0" width="46" height="46"></rect>
                    <path d="M40.8689301,7.33443316 C42.139185,7.33443316 43.1689301,8.36417823 43.1689301,9.63443316 C43.1689301,10.9046881 42.139185,11.9344332 40.8689301,11.9344332 L1.76893009,11.9344332 C0.498675169,11.9344332 -0.531069906,10.9046881 -0.531069906,9.63443316 C-0.531069906,8.36417823 0.498675169,7.33443316 1.76893009,7.33443316 L40.8689301,7.33443316 Z" id="矩形" fill="#FFFFFF" fill-rule="nonzero" transform="translate(21.318930, 9.634433) rotate(-20.000000) translate(-21.318930, -9.634433) "></path>
                    <path d="M38.9156975,17.8678173 C40.1859524,17.8678173 41.2156975,18.8975624 41.2156975,20.1678173 C41.2156975,21.4380723 40.1859524,22.4678173 38.9156975,22.4678173 L11.3156975,22.4678173 C10.0454426,22.4678173 9.01569752,21.4380723 9.01569752,20.1678173 C9.01569752,18.8975624 10.0454426,17.8678173 11.3156975,17.8678173 L38.9156975,17.8678173 Z" id="矩形备份" fill="#FFFFFF" fill-rule="nonzero" transform="translate(25.115698, 20.167817) rotate(-20.000000) translate(-25.115698, -20.167817) "></path>
                    <path d="M35.1687027,25.1313066 C36.2611798,24.7241138 37.4710492,25.2956338 37.8710217,26.4078322 C38.2424247,27.4405878 37.7849014,28.5763916 36.8429478,29.0594015 L36.6171313,29.1589332 L26.2130201,33.03531 L26.2130201,43.8554634 C26.2130201,44.9552586 25.3998225,45.8616927 24.3521736,45.9855721 L24.10651,46 C23.0262162,46 22.1358548,45.1721227 22.014172,44.1055617 L22,43.8554634 L22,31.5382004 C22,30.7281353 22.4471813,29.9956476 23.141848,29.6316667 L23.3822958,29.5243871 L35.1687027,25.1313066 Z" id="路径-3" fill="#FFFFFF" fill-rule="nonzero"></path>
                </g>
            </g>
        </g>
    </g>
</svg>