<?xml version="1.0" encoding="utf-8"?>
<!-- Generator: Adobe Illustrator 24.0.1, SVG Export Plug-In . SVG Version: 6.00 Build 0)  -->
<svg version="1.1" id="图层_1" xmlns="http://www.w3.org/2000/svg" xmlns:xlink="http://www.w3.org/1999/xlink" x="0px" y="0px"
	 viewBox="0 0 60 60" style="enable-background:new 0 0 60 60;" xml:space="preserve">
<style type="text/css">
	.st0{fill-rule:evenodd;clip-rule:evenodd;fill:url(#矩形_1_);}
	.st1{fill-rule:evenodd;clip-rule:evenodd;fill:url(#形状结合_2_);}
	.st2{fill-rule:evenodd;clip-rule:evenodd;fill:#FFFFFF;}
</style>
<title>代码统计</title>
<linearGradient id="矩形_1_" gradientUnits="userSpaceOnUse" x1="-110.6458" y1="274.9298" x2="-109.6458" y2="274.9298" gradientTransform="matrix(48 0 0 -7 5317 1981.0088)">
	<stop  offset="0" style="stop-color:#219CF0"/>
	<stop  offset="1" style="stop-color:#A2D9FF"/>
</linearGradient>
<path id="矩形" class="st0" d="M8,53h44c1.1,0,2,0.9,2,2v3c0,1.1-0.9,2-2,2H8c-1.1,0-2-0.9-2-2v-3C6,53.9,6.9,53,8,53z"/>
<linearGradient id="形状结合_2_" gradientUnits="userSpaceOnUse" x1="-111.1101" y1="315.754" x2="-110.1339" y2="315.0552" gradientTransform="matrix(60 0 0 51 6667 -16059.0645)">
	<stop  offset="0" style="stop-color:#219CF0"/>
	<stop  offset="1" style="stop-color:#A2D9FF"/>
</linearGradient>
<path id="形状结合" class="st1" d="M60,4c0-2.2-1.8-4-4-4H4C1.8,0,0,1.8,0,4v47h60V4z"/>
<path id="形状结合_1_" class="st2" d="M44,16l8,9l-8,9h-5l8-9l-8-9H44z"/>
<path id="形状结合备份-5" class="st2" d="M16,16l-8,9l8,9h5l-8-9l8-9H16z"/>
<polygon id="路径-3" class="st2" points="33.4,13 22,36.9 25.6,36.9 37.2,13 "/>
</svg>
