<?xml version="1.0" encoding="utf-8"?>
<!-- Generator: Adobe Illustrator 24.0.1, SVG Export Plug-In . SVG Version: 6.00 Build 0)  -->
<svg version="1.1" id="图层_1" xmlns="http://www.w3.org/2000/svg" xmlns:xlink="http://www.w3.org/1999/xlink" x="0px" y="0px"
	 viewBox="0 0 60 60" style="enable-background:new 0 0 60 60;" xml:space="preserve">
<style type="text/css">
	.st0{fill-rule:evenodd;clip-rule:evenodd;fill:url(#形状结合_1_);}
	.st1{fill:#FFFFFF;}
</style>
<title>编组</title>
<linearGradient id="形状结合_1_" gradientUnits="userSpaceOnUse" x1="-110.9917" y1="306.8987" x2="-110.2395" y2="305.9784" gradientTransform="matrix(60 0 0 -60 6667 18411.0762)">
	<stop  offset="0" style="stop-color:#219CF0"/>
	<stop  offset="1" style="stop-color:#A2D9FF"/>
</linearGradient>
<path id="形状结合" class="st0" d="M55,0c2.8,0,5,2.2,5,5v34c0,2.8-2.2,5-5,5H32v11h15.5c1.4,0,2.5,1.1,2.5,2.5S48.9,60,47.5,60
	h-35c-1.4,0-2.5-1.1-2.5-2.5s1.1-2.5,2.5-2.5H28V44H5c-2.8,0-5-2.2-5-5V5c0-2.8,2.2-5,5-5H55z"/>
<polygon id="路径" class="st1" points="30,7 40,17 32,17 32,25 28,25 28,17 20,17 "/>
<polygon id="路径_1_" class="st1" points="44,36 16,36 16,32.6 19.5,24 26.5,24 26.5,27.4 33.5,27.4 33.5,24 40.5,24 44,32.6 "/>
</svg>
