<?xml version="1.0" encoding="UTF-8"?>
<svg width="60px" height="60px" viewBox="0 0 60 60" version="1.1" xmlns="http://www.w3.org/2000/svg" xmlns:xlink="http://www.w3.org/1999/xlink">
    <title>各团队不同阶段任务数量统计</title>
    <defs>
        <linearGradient x1="0%" y1="0%" x2="97.6267337%" y2="96.7256902%" id="linearGradient-1">
            <stop stop-color="#219CF0" offset="0%"></stop>
            <stop stop-color="#A2D9FF" offset="100%"></stop>
        </linearGradient>
        <linearGradient x1="100%" y1="50%" x2="0%" y2="50%" id="linearGradient-2">
            <stop stop-color="#A2D9FF" offset="0%"></stop>
            <stop stop-color="#219CF0" offset="100%"></stop>
        </linearGradient>
    </defs>
    <g id="度量统计页面" stroke="none" stroke-width="1" fill="none" fill-rule="evenodd">
        <g id="统计报表" transform="translate(-578.000000, -449.000000)">
            <g id="各团队不同阶段任务数量统计" transform="translate(578.000000, 449.000000)">
                <rect id="矩形" fill="url(#linearGradient-1)" x="0" y="0" width="60" height="60" rx="4"></rect>
                <g id="编组-3" transform="translate(4.000000, 8.000000)">
                    <path d="M22,0 C28.627417,0 34,5.372583 34,12 C34,14.2683011 33.3706446,16.3896084 32.277027,18.1988287 C32.7837433,18.1060975 33.3017138,18.0456207 33.8283287,18.0177378 L33.9151204,17.93411 L33.9151204,17.93411 L34.016318,18.0091859 C34.1767889,18.0030804 34.3380347,18 34.5,18 C35.9631424,18 37.3675708,18.2513848 38.6724504,18.7133197 C40.6115046,18.0252996 42,16.1748001 42,14 C42,11.2385763 39.7614237,9 37,9 L36.8939338,9.0018683 C36.6936422,7.59980822 36.2163751,6.28706308 35.5193301,5.12083048 C36.0002755,5.0415455 36.495286,5 37,5 C41.9705627,5 46,9.02943725 46,14 C46,16.83565 44.6885899,19.3650037 42.6391758,21.0146551 C44.6182919,22.712244 46.0594095,25.0199726 46.6727038,27.6459877 C49.919183,31.4134776 51.9104264,36.2933369 51.9970526,41.6361898 L52,42 L48,42 C48,39.3129976 47.4112385,36.7635078 46.3556843,34.4734994 C45.7812187,36.1866673 44.8464677,37.7341304 43.6411608,39.025864 C43.8560623,40.1991003 43.9770966,41.4053595 43.9970526,42.6361898 L44,43 L40,43 C40,42.5795182 39.9855822,42.1624038 39.9572141,41.7491243 C38.3073686,42.5506612 36.4561587,43 34.5,43 C27.5964406,43 22,37.4035594 22,30.5 C22,28.5438413 22.4493388,26.6926314 23.2504317,25.0439548 C22.8375962,25.0144178 22.4204818,25 22,25 C12.1693315,25 4.17931848,32.8807833 4.0029763,42.6693348 L4,43 L0,43 C0,33.1553491 6.46626861,24.8209762 15.3832556,22.0124315 C12.1393342,19.8644861 10,16.1820772 10,12 C10,5.372583 15.372583,0 22,0 Z M22,4 C17.581722,4 14,7.581722 14,12 C14,16.418278 17.581722,20 22,20 C26.418278,20 30,16.418278 30,12 C30,7.581722 26.418278,4 22,4 Z" id="形状" fill="#FFFFFF" fill-rule="nonzero"></path>
                    <path d="M31.5,24 C32.8807119,24 34,25.1192881 34,26.5 C34,26.9485222 33.8818854,27.3694572 33.6750639,27.7333973 L36.925348,32.0663615 C37.1098556,32.0229607 37.3022464,32 37.5,32 C37.7421275,32 37.9762155,32.034421 38.1976377,32.0986367 L40.2642403,29.619869 C40.0951699,29.282987 40,28.9026076 40,28.5 C40,27.1192881 41.1192881,26 42.5,26 C43.8807119,26 45,27.1192881 45,28.5 C45,29.8807119 43.8807119,31 42.5,31 C42.2575068,31 42.0230773,30.9654749 41.801359,30.9010721 L39.7357597,33.380131 C39.9048301,33.717013 40,34.0973924 40,34.5 C40,35.8807119 38.8807119,37 37.5,37 C36.1192881,37 35,35.8807119 35,34.5 C35,34.0514778 35.1181146,33.6305428 35.3249361,33.2666027 L32.074652,28.9336385 C31.8901444,28.9770393 31.6977536,29 31.5,29 C31.2575068,29 31.0230773,28.9654749 30.801359,28.9010721 L28.7357597,31.380131 C28.9048301,31.717013 29,32.0973924 29,32.5 C29,33.8807119 27.8807119,35 26.5,35 C25.1192881,35 24,33.8807119 24,32.5 C24,31.1192881 25.1192881,30 26.5,30 C26.7424932,30 26.9769227,30.0345251 27.198641,30.0989279 L29.2642403,27.619869 C29.0951699,27.282987 29,26.9026076 29,26.5 C29,25.1192881 30.1192881,24 31.5,24 Z" id="路径" fill="url(#linearGradient-2)"></path>
                </g>
            </g>
        </g>
    </g>
</svg>