<?xml version="1.0" encoding="UTF-8"?>
<svg width="60px" height="60px" viewBox="0 0 60 60" version="1.1" xmlns="http://www.w3.org/2000/svg" xmlns:xlink="http://www.w3.org/1999/xlink">
    <title>挡板相关</title>
    <defs>
        <linearGradient x1="0%" y1="50%" x2="100%" y2="50%" id="linearGradient-1">
            <stop stop-color="#219CF0" offset="0%"></stop>
            <stop stop-color="#A2D9FF" offset="100%"></stop>
        </linearGradient>
        <linearGradient x1="0%" y1="13.875%" x2="97.6267337%" y2="83.7593112%" id="linearGradient-2">
            <stop stop-color="#219CF0" offset="0%"></stop>
            <stop stop-color="#A2D9FF" offset="100%"></stop>
        </linearGradient>
    </defs>
    <g id="页面-1" stroke="none" stroke-width="1" fill="none" fill-rule="evenodd">
        <g id="画板" transform="translate(-555.000000, -205.000000)">
            <g id="挡板相关" transform="translate(555.000000, 205.000000)">
                <rect id="矩形" fill="url(#linearGradient-1)" x="6" y="53" width="48" height="7" rx="2"></rect>
                <path d="M60,47 C60,49.209139 58.209139,51 56,51 L4,51 C1.790861,51 2.705415e-16,49.209139 0,47 L0,0 L60,0 L60,47 Z" id="形状结合" fill="url(#linearGradient-2)" transform="translate(30.000000, 25.500000) scale(1, -1) translate(-30.000000, -25.500000) "></path>
                <path d="M28,6 C33.9425047,6 39.2478261,8.7281061 42.7318574,13.0002115 L31.75,13 C30.7835017,13 30,13.8954305 30,15 C30,16.051971 30.7106591,16.9142467 31.6132385,16.9939827 L31.75,17 L38,17 L38,34 L31.75,34 C30.7835017,34 30,34.8954305 30,36 C30,37.051971 30.7106591,37.9142467 31.6132385,37.9939827 L31.75,38 L41.8558778,38.000651 C38.4834126,41.5935472 33.7294169,43.8743038 28.4418477,43.9949634 L28,44 C17.5065898,44 9,35.4934102 9,25 C9,14.6194221 17.3246359,6.18316713 27.6622002,6.0029425 L28,6 Z M28,10 C19.7157288,10 13,16.7157288 13,25 C13,33.0745429 19.3799961,39.6589578 27.3739143,39.9871707 L27.449,39.989 L27.4049159,39.9376956 C26.5644585,38.9223646 26.055525,37.6194468 26.0042811,36.2319906 L26,36 C26,32.8690838 28.3367863,30.1273137 31.5261235,30.004305 L31.75,30 L34,30 L34,21 L31.75,21 L31.5741773,20.9961339 L31.4374158,20.9901167 L31.2612396,20.9784647 C28.1815034,20.7063933 26,18.0251489 26,15 C26,13.0340759 26.9213181,11.2215793 28.3965302,10.1144807 L28.539,10.01 L28.3909098,10.0050103 L28,10 Z M49.25,34 C50.2164983,34 51,34.8954305 51,36 C51,37.1045695 50.2164983,38 49.25,38 L41.8558778,38.000651 C42.980389,36.8026394 43.9512996,35.4587422 44.7371738,34.0003949 L49.25,34 Z M45.238929,17.0004771 C46.3690788,19.43183 47,22.1422352 47,25 C47,28.2564227 46.180774,31.321505 44.7371738,34.0003949 L42,34 L42,17 L45.238929,17.0004771 Z M49.25,13 C50.2164983,13 51,13.8954305 51,15 C51,16.1045695 50.2164983,17 49.25,17 L45.238929,17.0004771 C44.5693489,15.5599726 43.724529,14.2174214 42.7318574,13.0002115 L49.25,13 Z" id="形状结合" fill="#FFFFFF" fill-rule="nonzero"></path>
                <rect id="矩形" fill="#FFFFFF" transform="translate(24.000000, 25.000000) scale(-1, 1) translate(-24.000000, -25.000000) " x="18" y="24" width="12" height="2" rx="1"></rect>
                <rect id="矩形" fill="#FFFFFF" transform="translate(22.000000, 21.000000) scale(-1, 1) translate(-22.000000, -21.000000) " x="18" y="20" width="8" height="2" rx="1"></rect>
                <rect id="矩形" fill="#FFFFFF" transform="translate(20.500000, 17.000000) scale(-1, 1) translate(-20.500000, -17.000000) " x="18" y="16" width="5" height="2" rx="1"></rect>
                <rect id="矩形" fill="#FFFFFF" transform="translate(22.000000, 29.000000) scale(-1, 1) translate(-22.000000, -29.000000) " x="18" y="28" width="8" height="2" rx="1"></rect>
                <rect id="矩形" fill="#FFFFFF" transform="translate(20.500000, 33.000000) scale(-1, 1) translate(-20.500000, -33.000000) " x="18" y="32" width="5" height="2" rx="1"></rect>
            </g>
        </g>
    </g>
</svg>