<?xml version="1.0" encoding="utf-8"?>
<!-- Generator: Adobe Illustrator 24.0.1, SVG Export Plug-In . SVG Version: 6.00 Build 0)  -->
<svg version="1.1" id="图层_1" xmlns="http://www.w3.org/2000/svg" xmlns:xlink="http://www.w3.org/1999/xlink" x="0px" y="0px"
	 viewBox="0 0 60 60" style="enable-background:new 0 0 60 60;" xml:space="preserve">
<style type="text/css">
	.st0{fill-rule:evenodd;clip-rule:evenodd;fill:url(#矩形_2_);}
	.st1{fill-rule:evenodd;clip-rule:evenodd;fill:url(#形状结合_2_);}
	.st2{fill-rule:evenodd;clip-rule:evenodd;fill:#FFFFFF;}
</style>
<title>资源闲置</title>
<linearGradient id="矩形_2_" gradientUnits="userSpaceOnUse" x1="-111.1167" y1="274.9298" x2="-110.1167" y2="274.9298" gradientTransform="matrix(60 0 0 -7 6667 1928.0088)">
	<stop  offset="0" style="stop-color:#219CF0"/>
	<stop  offset="1" style="stop-color:#A2D9FF"/>
</linearGradient>
<path id="矩形" class="st0" d="M2,0h56c1.1,0,2,0.9,2,2v3c0,1.1-0.9,2-2,2H2C0.9,7,0,6.1,0,5V2C0,0.9,0.9,0,2,0z"/>
<linearGradient id="形状结合_2_" gradientUnits="userSpaceOnUse" x1="-111.1101" y1="305.9893" x2="-110.1339" y2="305.2905" gradientTransform="matrix(60 0 0 -51 6667 15621.0645)">
	<stop  offset="0" style="stop-color:#219CF0"/>
	<stop  offset="1" style="stop-color:#A2D9FF"/>
</linearGradient>
<path id="形状结合" class="st1" d="M60,56c0,2.2-1.8,4-4,4H4c-2.2,0-4-1.8-4-4V9h60V56z"/>
<path id="形状结合_1_" class="st2" d="M21,39V9h18v30l-9-5L21,39z"/>
<path id="矩形_1_" class="st2" d="M5,13h6c0.6,0,1,0.4,1,1v2c0,0.6-0.4,1-1,1H5c-0.6,0-1-0.4-1-1v-2C4,13.4,4.4,13,5,13z"/>
</svg>
