<?xml version="1.0" encoding="UTF-8"?>
<svg width="60px" height="60px" viewBox="0 0 60 60" version="1.1" xmlns="http://www.w3.org/2000/svg" xmlns:xlink="http://www.w3.org/1999/xlink">
    <title>研发单元统计</title>
    <defs>
        <linearGradient x1="0%" y1="0%" x2="97.6267337%" y2="96.7256902%" id="linearGradient-1">
            <stop stop-color="#219CF0" offset="0%"></stop>
            <stop stop-color="#A2D9FF" offset="100%"></stop>
        </linearGradient>
        <linearGradient x1="100%" y1="50%" x2="0%" y2="50%" id="linearGradient-2">
            <stop stop-color="#A2D9FF" offset="0%"></stop>
            <stop stop-color="#219CF0" offset="100%"></stop>
        </linearGradient>
    </defs>
    <g id="度量统计页面" stroke="none" stroke-width="1" fill="none" fill-rule="evenodd">
        <g id="统计报表" transform="translate(-878.000000, -449.000000)">
            <g id="研发单元统计" transform="translate(878.000000, 449.000000)">
                <path d="M56,0 C58.209139,0 60,1.790861 60,4 L60,56 C60,58.209139 58.209139,60 56,60 L4,60 C1.790861,60 0,58.209139 0,56 L0,4 C0,1.790861 1.790861,0 4,0 L56,0 Z M43.5,29 C40.3983594,29 37.5605656,30.1296625 35.3756135,32 L10,32 C8.9456382,32 8.08183488,32.8158778 8.00548574,33.8507377 L8,34 L8,48 C8,49.0543618 8.81587779,49.9181651 9.85073766,49.9945143 L10,50 L34.3357131,50.0010125 C36.6185084,52.4607734 39.8795014,54 43.5,54 C50.4035594,54 56,48.4035594 56,41.5 C56,38.3004442 54.7978874,35.3816568 52.8206726,33.1706483 C52.6205869,32.7326405 52.2673595,32.3794131 51.8294308,32.1795614 C49.6183432,30.2021126 46.6995558,29 43.5,29 Z M31,41.5 C31,43.0866362 31.2956109,44.6042287 31.8347611,46.000706 L12,46 L12,36 L32.2715737,36.0006573 C31.4572488,37.6601935 31,39.5266987 31,41.5 Z M17,39 C15.8954305,39 15,39.8954305 15,41 C15,42.1045695 15.8954305,43 17,43 C18.1045695,43 19,42.1045695 19,41 C19,39.8954305 18.1045695,39 17,39 Z M51,10 L10,10 C8.9456382,10 8.08183488,10.8158778 8.00548574,11.8507377 L8,12 L8,26 C8,27.0543618 8.81587779,27.9181651 9.85073766,27.9945143 L10,28 L51,28 C52.0543618,28 52.9181651,27.1841222 52.9945143,26.1492623 L53,26 L53,12 C53,10.9456382 52.1841222,10.0818349 51.1492623,10.0054857 L51,10 Z M49,14 L49,24 L12,24 L12,14 L49,14 Z M17,17 C15.8954305,17 15,17.8954305 15,19 C15,20.1045695 15.8954305,21 17,21 C18.1045695,21 19,20.1045695 19,19 C19,17.8954305 18.1045695,17 17,17 Z" id="形状" fill="url(#linearGradient-1)"></path>
                <path d="M40.5,35 C41.8807119,35 43,36.1192881 43,37.5 C43,37.9485222 42.8818854,38.3694572 42.6750639,38.7333973 L45.925348,43.0663615 C46.1098556,43.0229607 46.3022464,43 46.5,43 C46.7421275,43 46.9762155,43.034421 47.1976377,43.0986367 L49.2642403,40.619869 C49.0951699,40.282987 49,39.9026076 49,39.5 C49,38.1192881 50.1192881,37 51.5,37 C52.8807119,37 54,38.1192881 54,39.5 C54,40.8807119 52.8807119,42 51.5,42 C51.2575068,42 51.0230773,41.9654749 50.801359,41.9010721 L48.7357597,44.380131 C48.9048301,44.717013 49,45.0973924 49,45.5 C49,46.8807119 47.8807119,48 46.5,48 C45.1192881,48 44,46.8807119 44,45.5 C44,45.0514778 44.1181146,44.6305428 44.3249361,44.2666027 L41.074652,39.9336385 C40.8901444,39.9770393 40.6977536,40 40.5,40 C40.2575068,40 40.0230773,39.9654749 39.801359,39.9010721 L37.7357597,42.380131 C37.9048301,42.717013 38,43.0973924 38,43.5 C38,44.8807119 36.8807119,46 35.5,46 C34.1192881,46 33,44.8807119 33,43.5 C33,42.1192881 34.1192881,41 35.5,41 C35.7424932,41 35.9769227,41.0345251 36.198641,41.0989279 L38.2642403,38.619869 C38.0951699,38.282987 38,37.9026076 38,37.5 C38,36.1192881 39.1192881,35 40.5,35 Z" id="路径" fill="url(#linearGradient-2)"></path>
            </g>
        </g>
    </g>
</svg>