<?xml version="1.0" encoding="utf-8"?>
<!-- Generator: Adobe Illustrator 24.0.1, SVG Export Plug-In . SVG Version: 6.00 Build 0)  -->
<svg version="1.1" id="图层_1" xmlns="http://www.w3.org/2000/svg" xmlns:xlink="http://www.w3.org/1999/xlink" x="0px" y="0px"
	 viewBox="0 0 60 60" style="enable-background:new 0 0 60 60;" xml:space="preserve">
<style type="text/css">
	.st0{fill-rule:evenodd;clip-rule:evenodd;fill:url(#项目组规模_1_);}
	.st1{fill-rule:evenodd;clip-rule:evenodd;fill:#FFFFFF;}
	.st2{fill:#6DC0F9;}
</style>
<title>规模</title>
<linearGradient id="项目组规模_1_" gradientUnits="userSpaceOnUse" x1="-110.1167" y1="306.8513" x2="-111.1167" y2="305.8513" gradientTransform="matrix(60 0 0 -60 6667 18411.0762)">
	<stop  offset="0" style="stop-color:#A2D9FF"/>
	<stop  offset="1" style="stop-color:#219CF0"/>
</linearGradient>
<path id="项目组规模" class="st0" d="M28,32v24c0,2.2-1.8,4-4,4H0V36c0-2.2,1.8-4,4-4H28z M32,32h24c2.2,0,4,1.8,4,4v24H36
	c-2.2,0-4-1.8-4-4V32z M60,0v24c0,2.2-1.8,4-4,4H32V4c0-2.2,1.8-4,4-4H60z M24,0c2.2,0,4,1.8,4,4v24H4c-2.2,0-4-1.8-4-4V0H24z"/>
<circle id="椭圆形" class="st1" cx="30" cy="30" r="11"/>
<path id="路径" class="st2" d="M30.1,22.5l6.3,2.9c0.1,0,0.1,0.1,0.1,0.2c0,0,0,0-0.1,0l-6.3,2.9c-0.1,0-0.1,0-0.2,0l-6.3-2.9
	c-0.1,0-0.1-0.1-0.1-0.2c0,0,0,0,0.1,0l6.3-2.9C30,22.5,30,22.5,30.1,22.5z"/>
<path id="路径_1_" class="st2" d="M36,27.8l0.3-0.2c0,0,0.1,0,0.1,0c0,0,0,0,0,0l0,2.3c0,0.1,0,0.1-0.1,0.2l-6.2,3.3
	c-0.1,0-0.2,0-0.3,0l-6.3-3.3c-0.1,0-0.1-0.1-0.1-0.2v-2.3c0-0.1,0-0.1,0.1-0.1c0,0,0,0,0,0l0.3,0.2l0,0l6,3.2L36,27.8z"/>
<path id="路径_2_" class="st2" d="M36,31.8l0.3-0.2c0,0,0.1,0,0.1,0c0,0,0,0,0,0l0,2.3c0,0.1,0,0.1-0.1,0.2l-6.2,3.3
	c-0.1,0-0.2,0-0.3,0l-6.3-3.3c-0.1,0-0.1-0.1-0.1-0.2v-2.3c0-0.1,0-0.1,0.1-0.1c0,0,0,0,0,0l0.3,0.2l0,0l6,3.2L36,31.8z"/>
</svg>
