<?xml version="1.0" encoding="UTF-8"?>
<svg width="60px" height="60px" viewBox="0 0 60 60" version="1.1" xmlns="http://www.w3.org/2000/svg" xmlns:xlink="http://www.w3.org/1999/xlink">
    <title>生产问题报表统计</title>
    <defs>
        <linearGradient x1="0%" y1="7.98611111%" x2="97.6267337%" y2="89.2625591%" id="linearGradient-1">
            <stop stop-color="#219CF0" offset="0%"></stop>
            <stop stop-color="#A2D9FF" offset="100%"></stop>
        </linearGradient>
        <linearGradient x1="0%" y1="47.9080579%" x2="97.6267337%" y2="51.9549488%" id="linearGradient-2">
            <stop stop-color="#219CF0" offset="0%"></stop>
            <stop stop-color="#A2D9FF" offset="100%"></stop>
        </linearGradient>
    </defs>
    <g id="度量统计页面" stroke="none" stroke-width="1" fill="none" fill-rule="evenodd">
        <g id="统计报表" transform="translate(-728.000000, -449.000000)">
            <g id="生产问题报表统计" transform="translate(728.000000, 449.000000)">
                <path d="M56,5 C58.209139,5 60,6.790861 60,9 L60,56 C60,58.209139 58.209139,60 56,60 L4,60 C1.790861,60 0,58.209139 0,56 L0,9 C0,6.790861 1.790861,5 4,5 L6,5 L6,9 C6,10.0543618 6.81587779,10.9181651 7.85073766,10.9945143 L8,11 L52,11 C53.0543618,11 53.9181651,10.1841222 53.9945143,9.14926234 L54,9 L54,5 L56,5 Z M45.5,50 C44.3954305,50 43.5,50.8954305 43.5,52 C43.5,53.1045695 44.3954305,54 45.5,54 C46.6045695,54 47.5,53.1045695 47.5,52 C47.5,50.8954305 46.6045695,50 45.5,50 Z M45.5,31 C41.9856724,31 39.12674,33.7985201 39.0040994,37.2919514 L39,37.5258533 L43,37.5258533 L43.0053295,37.359495 C43.0901589,36.0398471 44.1769866,35 45.5,35 C46.8781389,35 48,36.1283063 48,37.5258533 C48,38.2668951 47.5788839,39.1518859 46.789393,40.1301081 C46.6281694,40.3298729 46.4586155,40.5256303 46.2682198,40.7338511 L46.0704135,40.9468365 L45.4339106,41.6157943 C44.1606188,43.0053137 43.5560606,45.022007 43.5037315,47.6242693 L43.5,48 L47.5,48 L47.5031157,47.6933505 C47.5362277,46.0906628 47.8312956,45.0116993 48.29424,44.4228631 L48.3829864,44.3181918 L48.7591855,43.9232993 L49.2284535,43.4240817 C49.4676167,43.1622803 49.6869827,42.9088316 49.9021089,42.6422784 C51.2119498,41.0193142 52,39.3631982 52,37.5258533 C52,33.9242807 49.0924238,31 45.5,31 Z M31,41 L9,41 C8.48716416,41 8.06449284,41.3860402 8.00672773,41.8833789 L8,42 L8,44 C8,44.5128358 8.38604019,44.9355072 8.88337887,44.9932723 L9,45 L31,45 C31.5128358,45 31.9355072,44.6139598 31.9932723,44.1166211 L32,44 L32,42 C32,41.4477153 31.5522847,41 31,41 Z M31,31 L9,31 C8.48716416,31 8.06449284,31.3860402 8.00672773,31.8833789 L8,32 L8,34 C8,34.5128358 8.38604019,34.9355072 8.88337887,34.9932723 L9,35 L31,35 C31.5128358,35 31.9355072,34.6139598 31.9932723,34.1166211 L32,34 L32,32 C32,31.4477153 31.5522847,31 31,31 Z M51,21 L9,21 C8.48716416,21 8.06449284,21.3860402 8.00672773,21.8833789 L8,22 L8,24 C8,24.5128358 8.38604019,24.9355072 8.88337887,24.9932723 L9,25 L51,25 C51.5128358,25 51.9355072,24.6139598 51.9932723,24.1166211 L52,24 L52,22 C52,21.4477153 51.5522847,21 51,21 Z" id="形状" fill="url(#linearGradient-1)"></path>
                <rect id="矩形备份-14" fill="url(#linearGradient-2)" x="8" y="0" width="44" height="9" rx="2"></rect>
            </g>
        </g>
    </g>
</svg>