<?xml version="1.0" encoding="UTF-8"?>
<svg width="60px" height="60px" viewBox="0 0 60 60" version="1.1" xmlns="http://www.w3.org/2000/svg" xmlns:xlink="http://www.w3.org/1999/xlink">
    <title>需求统计</title>
    <defs>
        <linearGradient x1="0%" y1="0%" x2="97.6267337%" y2="96.7256902%" id="linearGradient-1">
            <stop stop-color="#219CF0" offset="0%"></stop>
            <stop stop-color="#A2D9FF" offset="100%"></stop>
        </linearGradient>
        <linearGradient x1="100%" y1="50%" x2="0%" y2="50%" id="linearGradient-2">
            <stop stop-color="#A2D9FF" offset="0%"></stop>
            <stop stop-color="#219CF0" offset="100%"></stop>
        </linearGradient>
    </defs>
    <g id="度量统计页面" stroke="none" stroke-width="1" fill="none" fill-rule="evenodd">
        <g id="统计报表" transform="translate(-1176.000000, -209.000000)">
            <rect id="矩形" fill="#F4F6FD" x="0" y="0" width="1440" height="900"></rect>
            <path d="M235,119 L1417,119 C1421.41828,119 1425,122.581722 1425,127 L1425,331 C1425,335.418278 1421.41828,339 1417,339 L526.091506,339 L526.091506,339 L235,339 C230.581722,339 227,335.418278 227,331 L227,127 C227,122.581722 230.581722,119 235,119 Z" id="矩形备份-3" fill="#FFFFFF"></path>
            <g id="需求统计" transform="translate(1176.000000, 209.000000)">
                <rect id="矩形" fill="url(#linearGradient-1)" x="0" y="0" width="60" height="60" rx="4"></rect>
                <path d="M37,8 C38.1045695,8 39,8.8954305 39,10 L46,10 C47.1045695,10 48,10.8954305 48,12 L48.0003503,31.2720682 C52.1461266,33.3068405 55,37.5701413 55,42.5 C55,49.4035594 49.4035594,55 42.5,55 C39.3988364,55 36.5614385,53.8706849 34.3766216,52.0008702 L14,52 C12.8954305,52 12,51.1045695 12,50 L12,12 C12,10.8954305 12.8954305,10 14,10 L21,10 C21,8.8954305 21.8954305,8 23,8 L37,8 Z M21,14 L16,14 L16,48 L31.2720682,48.0003503 C30.4574339,46.340562 30,44.4737007 30,42.5 C30,35.5964406 35.5964406,30 42.5,30 C43.0079783,30 43.5088795,30.0303009 44.0009946,30.089194 L44,14 L39,14 L39,15 C39,16.1045695 38.1045695,17 37,17 L23,17 C21.8954305,17 21,16.1045695 21,15 L21,14 Z M29,32 C29.5522847,32 30,32.4477153 30,33 L30,35 C30,35.5522847 29.5522847,36 29,36 L22,36 C21.4477153,36 21,35.5522847 21,35 L21,33 C21,32.4477153 21.4477153,32 22,32 L29,32 Z M38,23 C38.5522847,23 39,23.4477153 39,24 L39,26 C39,26.5522847 38.5522847,27 38,27 L22,27 C21.4477153,27 21,26.5522847 21,26 L21,24 C21,23.4477153 21.4477153,23 22,23 L38,23 Z" id="形状结合" fill="#FFFFFF" fill-rule="nonzero"></path>
                <path d="M39.5,36 C40.8807119,36 42,37.1192881 42,38.5 C42,38.9485222 41.8818854,39.3694572 41.6750639,39.7333973 L44.925348,44.0663615 C45.1098556,44.0229607 45.3022464,44 45.5,44 C45.7421275,44 45.9762155,44.034421 46.1976377,44.0986367 L48.2642403,41.619869 C48.0951699,41.282987 48,40.9026076 48,40.5 C48,39.1192881 49.1192881,38 50.5,38 C51.8807119,38 53,39.1192881 53,40.5 C53,41.8807119 51.8807119,43 50.5,43 C50.2575068,43 50.0230773,42.9654749 49.801359,42.9010721 L47.7357597,45.380131 C47.9048301,45.717013 48,46.0973924 48,46.5 C48,47.8807119 46.8807119,49 45.5,49 C44.1192881,49 43,47.8807119 43,46.5 C43,46.0514778 43.1181146,45.6305428 43.3249361,45.2666027 L40.074652,40.9336385 C39.8901444,40.9770393 39.6977536,41 39.5,41 C39.2575068,41 39.0230773,40.9654749 38.801359,40.9010721 L36.7357597,43.380131 C36.9048301,43.717013 37,44.0973924 37,44.5 C37,45.8807119 35.8807119,47 34.5,47 C33.1192881,47 32,45.8807119 32,44.5 C32,43.1192881 33.1192881,42 34.5,42 C34.7424932,42 34.9769227,42.0345251 35.198641,42.0989279 L37.2642403,39.619869 C37.0951699,39.282987 37,38.9026076 37,38.5 C37,37.1192881 38.1192881,36 39.5,36 Z" id="形状结合" fill="url(#linearGradient-2)"></path>
            </g>
        </g>
    </g>
</svg>