<?xml version="1.0" encoding="utf-8"?>
<!-- Generator: Adobe Illustrator 24.0.1, SVG Export Plug-In . SVG Version: 6.00 Build 0)  -->
<svg version="1.1" id="图层_1" xmlns="http://www.w3.org/2000/svg" xmlns:xlink="http://www.w3.org/1999/xlink" x="0px" y="0px"
	 viewBox="0 0 60 60" style="enable-background:new 0 0 60 60;" xml:space="preserve">
<style type="text/css">
	.st0{fill-rule:evenodd;clip-rule:evenodd;fill:url(#矩形_2_);}
	.st1{fill:#FFFFFF;}
	.st2{fill-rule:evenodd;clip-rule:evenodd;fill:#FFFFFF;}
</style>
<title>任务推进情况备份</title>
<linearGradient id="矩形_2_" gradientUnits="userSpaceOnUse" x1="-111.1167" y1="306.3513" x2="-110.1167" y2="306.3513" gradientTransform="matrix(60 0 0 -60 6667 18411.0762)">
	<stop  offset="0" style="stop-color:#219CF0"/>
	<stop  offset="1" style="stop-color:#A2D9FF"/>
</linearGradient>
<path id="矩形" class="st0" d="M2,0h56c1.1,0,2,0.9,2,2v56c0,1.1-0.9,2-2,2H2c-1.1,0-2-0.9-2-2V2C0,0.9,0.9,0,2,0z"/>
<path id="椭圆形" class="st1" d="M15,33c3.9,0,7,3.1,7,7s-3.1,7-7,7s-7-3.1-7-7S11.1,33,15,33z M15,37c-1.7,0-3,1.3-3,3
	s1.3,3,3,3s3-1.3,3-3S16.7,37,15,37z"/>
<path id="矩形_1_" class="st2" d="M29,38h23c0.6,0,1,0.4,1,1v2c0,0.6-0.4,1-1,1H29c-0.6,0-1-0.4-1-1v-2C28,38.4,28.4,38,29,38z"/>
<path id="矩形备份-12" class="st2" d="M29,18h23c0.6,0,1,0.4,1,1v2c0,0.6-0.4,1-1,1H29c-0.6,0-1-0.4-1-1v-2
	C28,18.4,28.4,18,29,18z"/>
<polygon id="路径-6" class="st1" points="20.4,11.7 23.6,14.3 14.3,25.7 6.8,20.4 9.2,17.2 13.6,20.3 "/>
</svg>
