<?xml version="1.0" encoding="utf-8"?>
<!-- Generator: Adobe Illustrator 24.0.1, SVG Export Plug-In . SVG Version: 6.00 Build 0)  -->
<svg version="1.1" id="图层_1" xmlns="http://www.w3.org/2000/svg" xmlns:xlink="http://www.w3.org/1999/xlink" x="0px" y="0px"
	 viewBox="0 0 60 60" style="enable-background:new 0 0 60 60;" xml:space="preserve">
<style type="text/css">
	.st0{fill-rule:evenodd;clip-rule:evenodd;fill:url(#矩形_6_);}
	.st1{fill-rule:evenodd;clip-rule:evenodd;fill:#FFFFFF;}
	.st2{fill-rule:evenodd;clip-rule:evenodd;fill:url(#矩形_7_);}
	.st3{fill-rule:evenodd;clip-rule:evenodd;fill:url(#矩形_8_);}
</style>
<title>吞吐量</title>
<linearGradient id="矩形_6_" gradientUnits="userSpaceOnUse" x1="-111.1167" y1="284.9017" x2="-110.1167" y2="284.9017" gradientTransform="matrix(60 0 0 -10 6667 2861.0178)">
	<stop  offset="0" style="stop-color:#219CF0"/>
	<stop  offset="1" style="stop-color:#A2D9FF"/>
</linearGradient>
<path id="矩形" class="st0" d="M5,7h50c2.8,0,5,2.2,5,5l0,0c0,2.8-2.2,5-5,5H5c-2.8,0-5-2.2-5-5l0,0C0,9.2,2.2,7,5,7z"/>
<path id="矩形_1_" class="st1" d="M35,9h20c1.7,0,3,1.3,3,3l0,0c0,1.7-1.3,3-3,3H35c-1.7,0-3-1.3-3-3l0,0C32,10.3,33.3,9,35,9z"/>
<linearGradient id="矩形_7_" gradientUnits="userSpaceOnUse" x1="-111.1167" y1="284.9017" x2="-110.1167" y2="284.9017" gradientTransform="matrix(60 0 0 -10 6667 2879.0178)">
	<stop  offset="0" style="stop-color:#219CF0"/>
	<stop  offset="1" style="stop-color:#A2D9FF"/>
</linearGradient>
<path id="矩形_2_" class="st2" d="M5,25h50c2.8,0,5,2.2,5,5l0,0c0,2.8-2.2,5-5,5H5c-2.8,0-5-2.2-5-5l0,0C0,27.2,2.2,25,5,25z"/>
<linearGradient id="矩形_8_" gradientUnits="userSpaceOnUse" x1="-111.1167" y1="284.9017" x2="-110.1167" y2="284.9017" gradientTransform="matrix(60 0 0 -10 6667 2897.0178)">
	<stop  offset="0" style="stop-color:#219CF0"/>
	<stop  offset="1" style="stop-color:#A2D9FF"/>
</linearGradient>
<path id="矩形_3_" class="st3" d="M5,43h50c2.8,0,5,2.2,5,5l0,0c0,2.8-2.2,5-5,5H5c-2.8,0-5-2.2-5-5l0,0C0,45.2,2.2,43,5,43z"/>
<path id="矩形_4_" class="st1" d="M24,27h31c1.7,0,3,1.3,3,3l0,0c0,1.7-1.3,3-3,3H24c-1.7,0-3-1.3-3-3l0,0C21,28.3,22.3,27,24,27z
	"/>
<path id="矩形_5_" class="st1" d="M43,45h12c1.7,0,3,1.3,3,3l0,0c0,1.7-1.3,3-3,3H43c-1.7,0-3-1.3-3-3l0,0C40,46.3,41.3,45,43,45z
	"/>
<circle id="椭圆形" class="st1" cx="5.5" cy="12" r="2.5"/>
<circle id="椭圆形_1_" class="st1" cx="5.5" cy="30" r="2.5"/>
<circle id="椭圆形_2_" class="st1" cx="5.5" cy="48" r="2.5"/>
</svg>
