<?xml version="1.0" encoding="utf-8"?>
<!-- Generator: Adobe Illustrator 24.0.1, SVG Export Plug-In . SVG Version: 6.00 Build 0)  -->
<svg version="1.1" id="图层_1" xmlns="http://www.w3.org/2000/svg" xmlns:xlink="http://www.w3.org/1999/xlink" x="0px" y="0px"
	 viewBox="0 0 60 60" style="enable-background:new 0 0 60 60;" xml:space="preserve">
<style type="text/css">
	.st0{fill-rule:evenodd;clip-rule:evenodd;fill:url(#矩形_1_);}
	.st1{fill-rule:evenodd;clip-rule:evenodd;fill:#FFFFFF;}
</style>
<title>不同阶段任务量统计</title>
<linearGradient id="矩形_1_" gradientUnits="userSpaceOnUse" x1="-111.119" y1="306.8489" x2="-110.1427" y2="305.8817" gradientTransform="matrix(60 0 0 -60 6667 18411.0762)">
	<stop  offset="0" style="stop-color:#219CF0"/>
	<stop  offset="1" style="stop-color:#A2D9FF"/>
</linearGradient>
<path id="矩形" class="st0" d="M4,0h52c2.2,0,4,1.8,4,4v52c0,2.2-1.8,4-4,4H4c-2.2,0-4-1.8-4-4V4C0,1.8,1.8,0,4,0z"/>
<path id="形状结合" class="st1" d="M16,10c2.1,0,3.8,1.2,4.6,3L53,13c0.6,0,1,0.4,1,1v2c0,0.6-0.4,1-1,1l-32.4,0
	c-0.8,1.8-2.5,3-4.6,3s-3.8-1.2-4.6-3L7,17c-0.6,0-1-0.4-1-1v-2c0-0.6,0.4-1,1-1l4.4,0C12.2,11.2,13.9,10,16,10z"/>
<path id="形状结合_1_" class="st1" d="M29,25c2.1,0,3.8,1.2,4.6,3L53,28c0.6,0,1,0.4,1,1v2c0,0.6-0.4,1-1,1l-19.4,0
	c-0.8,1.8-2.5,3-4.6,3s-3.8-1.2-4.6-3L7,32c-0.6,0-1-0.4-1-1v-2c0-0.6,0.4-1,1-1l17.4,0C25.2,26.2,26.9,25,29,25z"/>
<path id="形状结合_2_" class="st1" d="M44,40c2.1,0,3.8,1.2,4.6,3l4.4,0c0.6,0,1,0.4,1,1v2c0,0.6-0.4,1-1,1l-4.4,0
	c-0.8,1.8-2.5,3-4.6,3s-3.8-1.2-4.6-3L7,47c-0.6,0-1-0.4-1-1v-2c0-0.6,0.4-1,1-1l32.4,0C40.2,41.2,41.9,40,44,40z"/>
</svg>
