<?xml version="1.0" encoding="UTF-8"?>
<svg width="32px" height="32px" viewBox="0 0 32 32" version="1.1" xmlns="http://www.w3.org/2000/svg" xmlns:xlink="http://www.w3.org/1999/xlink">
    <title>icon_details</title>
    <g id="页面-1" stroke="none" stroke-width="1" fill="none" fill-rule="evenodd">
        <g id="数字" transform="translate(-16.000000, -80.000000)">
            <g id="icon_details" transform="translate(16.000000, 80.000000)">
                <rect id="矩形" x="0" y="0" width="32" height="32"></rect>
                <path d="M22.135375,8 L9.844375,8 C8.82545312,8 8,8.82656596 8,9.84531616 L8,22.1531192 C8,23.173434 8.8254375,24 9.84435937,24 L22.1353594,24 C23.1542813,24 23.9797187,23.173434 23.9797187,22.1531192 L23.9797187,9.84533181 C23.9781719,8.82656596 23.1527344,8 22.135375,8 Z" id="形状" fill="#0663BE" fill-rule="nonzero"></path>
                <g id="icon-yibiaopan" transform="translate(10.000000, 10.000000)" fill="#FFFFFF" fill-rule="nonzero">
                    <path d="M6.65914948,4.14510309 C7.18779739,4.33252013 7.60369121,4.74841395 7.79110825,5.27706186 L10.5876031,5.27706186 C10.2034734,3.28963339 8.64736087,1.73670612 6.65914948,1.35664948 L6.65914948,4.14572165 L6.65914948,4.14510309 Z M6.65914948,5.89561856 C6.65914948,5.67462953 6.54125325,5.47042724 6.34987114,5.35993272 C6.15848903,5.2494382 5.92269654,5.2494382 5.73131443,5.35993272 C5.53993231,5.47042724 5.42203608,5.67462953 5.42203608,5.89561856 C5.42203608,6.23723799 5.69897335,6.51417526 6.04059278,6.51417526 C6.38221222,6.51417526 6.65914948,6.23723799 6.65914948,5.89561856 Z M5.42203608,4.14510309 L5.42203608,0.00695876289 L6.0746134,0.0422164948 C9.2131701,0.214175258 11.7282216,2.72489691 11.9032732,5.86097938 L11.9391495,6.51417526 L7.79110825,6.51417526 C7.50281464,7.32917189 6.69009227,7.83727339 5.83115415,7.73950837 C4.97221602,7.64174335 4.29446799,6.96399532 4.19670297,6.10505719 C4.09893795,5.24611907 4.60703945,4.4333967 5.42203608,4.14510309 Z M3.88059278,0.226546392 C4.08677554,0.146990343 4.31973892,0.183474715 4.49172786,0.322256199 C4.6637168,0.461037682 4.74860209,0.681032068 4.71440827,0.899369601 C4.68021445,1.11770713 4.53213637,1.30121715 4.32595361,1.3807732 C2.28643752,2.16705517 1.03086265,4.22682259 1.26642294,6.39992557 C1.50198323,8.57302855 3.16975814,10.3159103 5.33038489,10.6469047 C7.49101163,10.9778991 9.60405413,9.81421462 10.4793557,7.81128866 C10.6188988,7.5026325 10.9807434,7.3636253 11.2910462,7.49946745 C11.601349,7.63530961 11.7446733,7.9954661 11.6125515,8.30737113 C10.6477476,10.5130522 8.46846755,11.9381435 6.06100515,11.9376805 C2.71523196,11.9370619 0.00347932303,9.22469072 0.00347932303,5.87953608 C0.00313292511,3.37480024 1.54393579,1.12800092 3.88059278,0.225927835 L3.88059278,0.226546392 Z" id="形状"></path>
                    <path d="M10.5876031,5.27706186 C10.2034734,3.28963339 8.64736087,1.73670612 6.65914948,1.35664948 L6.65914948,4.14572165 C7.18766423,4.33300634 7.6035347,4.74864956 7.79110825,5.27706186 L10.5876031,5.27706186 L10.5876031,5.27706186 Z" id="路径"></path>
                </g>
            </g>
        </g>
    </g>
</svg>