<?xml version="1.0" encoding="UTF-8"?>
<svg width="32px" height="32px" viewBox="0 0 32 32" version="1.1" xmlns="http://www.w3.org/2000/svg" xmlns:xlink="http://www.w3.org/1999/xlink">
    <title>icon_32_add3</title>
    <g id="icon" stroke="none" stroke-width="1" fill="none" fill-rule="evenodd">
        <g transform="translate(-486.000000, -845.000000)" id="icon_32_add3">
            <g transform="translate(486.000000, 845.000000)" id="添加">
                <rect id="矩形" x="0" y="0" width="32" height="32"></rect>
                <path d="M15.9369811,26.5462771 C15.666526,26.5508965 15.4057411,26.4455629 15.2144706,26.2542925 C15.0232002,26.063022 14.9178666,25.8022371 14.9226415,25.531782 L14.9226415,6.36264151 C14.9226415,5.80243722 15.3767768,5.34830193 15.9369811,5.34830193 C16.4971854,5.34830193 16.9513208,5.80243722 16.9513208,6.36264151 L16.9513208,25.5358071 C16.9476417,26.093827 16.4950112,26.5446613 15.9369811,26.5462771 L15.9369811,26.5462771 Z" id="路径" fill="#1565C0" fill-rule="nonzero"></path>
                <path d="M25.5396646,16.9461216 L6.36784067,16.9461216 C5.80763637,16.9461216 5.35350105,16.4919863 5.35350105,15.931782 C5.35350105,15.3715777 5.80763637,14.9174423 6.36784067,14.9174423 L25.5396646,14.9174423 C25.8101197,14.9126674 26.0709046,15.018001 26.2621751,15.2092715 C26.4534455,15.4005419 26.5587791,15.6613268 26.5541597,15.931782 C26.5525296,16.4913744 26.099257,16.944647 25.5396646,16.9461216 L25.5396646,16.9461216 Z" id="路径" fill="#1565C0" fill-rule="nonzero"></path>
            </g>
        </g>
    </g>
</svg>