<?xml version="1.0" encoding="UTF-8"?>
<svg width="48px" height="48px" viewBox="0 0 48 48" version="1.1" xmlns="http://www.w3.org/2000/svg" xmlns:xlink="http://www.w3.org/1999/xlink">
    <title>变更日期</title>
    <defs>
        <linearGradient x1="0%" y1="100%" x2="100%" y2="100%" id="linearGradient-1">
            <stop stop-color="#ABECFC" offset="0%"></stop>
            <stop stop-color="#7CD4FD" offset="100%"></stop>
        </linearGradient>
    </defs>
    <g id="流水线详情（优化）" stroke="none" stroke-width="1" fill="none" fill-rule="evenodd">
        <g id="流水线-流水线详情2" transform="translate(-244.000000, -261.000000)">
            <g id="编组-11" transform="translate(244.000000, 261.000000)">
                <circle id="椭圆形" fill="url(#linearGradient-1)" cx="24" cy="24" r="24"></circle>
                <g id="bind" transform="translate(11.000000, 13.000000)" fill="#FFFFFF" fill-rule="nonzero">
                    <path d="M6.30059328,12.5261431 L1.79600887,12.5261431 L1.79600887,1.76627018 L16.1964403,1.76627018 L16.1964403,12.5261431 L13.4886738,12.5261431 C13.1577717,12.5162656 12.8476893,12.687159 12.679321,12.9721956 C12.5109527,13.2572322 12.5109527,13.6112882 12.679321,13.8963248 C12.8476893,14.1813615 13.1577717,14.3522548 13.4886738,14.3423773 L16.1964403,14.3423773 C16.6719135,14.3432363 17.1282537,14.1551788 17.4650708,13.8195754 C17.801888,13.483972 17.9915917,13.0283137 17.9924492,12.5528405 L17.9924492,1.7929676 C17.9915917,1.31749445 17.801888,0.861836154 17.4650708,0.526232739 C17.1282537,0.190629324 16.6719135,0.0025717951 16.1964403,0.00342789536 L1.79600887,0.00342789536 C1.32053572,0.0025717951 0.864195543,0.190629324 0.527378375,0.526232739 C0.190561208,0.861836154 0.000857475602,1.31749445 0,1.7929676 L0,12.5528405 C0.000857475602,13.0283137 0.190561208,13.483972 0.527378375,13.8195754 C0.864195543,14.1551788 1.32053572,14.3432363 1.79600887,14.3423773 L6.30059328,14.3423773 C6.54249426,14.3449857 6.77530558,14.2503211 6.94674522,14.0796421 C7.11818487,13.908963 7.21388374,13.6765749 7.21235093,13.4346647 C7.20620735,12.9342102 6.80106648,12.5305073 6.30059328,12.5261431 Z M25.2031821,7.13083539 L20.6985977,7.13083539 C20.3676956,7.1209579 20.0576132,7.29185125 19.8892449,7.57688789 C19.7208766,7.86192452 19.7208766,8.21598046 19.8892449,8.5010171 C20.0576132,8.78605373 20.3676956,8.95694708 20.6985977,8.9470696 L25.2031821,8.9470696 L25.2031821,19.7069425 L10.8027506,19.7069425 L10.8027506,8.9470696 L13.5105172,8.9470696 C13.8414193,8.95694708 14.1515016,8.78605373 14.31987,8.5010171 C14.4882383,8.21598046 14.4882383,7.86192452 14.31987,7.57688789 C14.1515016,7.29185125 13.8414193,7.1209579 13.5105172,7.13083539 L10.8027506,7.13083539 C10.3272775,7.12997636 9.87093732,7.31803389 9.53412015,7.6536373 C9.19730298,7.98924072 9.00759925,8.44489901 9.00674177,8.92037217 L9.00674177,19.6802451 C9.00759925,20.1557183 9.19730298,20.6113766 9.53412015,20.94698 C9.87093732,21.2825834 10.3272775,21.4706409 10.8027506,21.4697865 L25.2031821,21.4697865 C25.6787953,21.4708558 26.1353434,21.2828932 26.4723356,20.9472665 C26.8093279,20.6116398 26.9991427,20.1558587 27,19.6802451 L27,8.92037217 C26.9991427,8.44475855 26.8093279,7.98897744 26.4723356,7.65335075 C26.1353434,7.31772407 25.6787953,7.12976148 25.2031821,7.13083539 L25.2031821,7.13083539 Z" id="形状"></path>
                </g>
            </g>
        </g>
    </g>
</svg>