<?xml version="1.0" encoding="UTF-8"?>
<svg width="28px" height="28px" viewBox="0 0 28 28" version="1.1" xmlns="http://www.w3.org/2000/svg" xmlns:xlink="http://www.w3.org/1999/xlink">
    <title>部署包</title>
    <g id="工具箱" stroke="none" stroke-width="1" fill="none" fill-rule="evenodd">
        <g id="工具箱-流水线模板备份-2" transform="translate(-375.000000, -289.000000)">
            <g id="编组-5" transform="translate(208.000000, 240.000000)">
                <g id="编组-4" transform="translate(143.000000, 33.000000)">
                    <g id="部署包" transform="translate(24.000000, 16.000000)">
                        <rect id="矩形" x="0" y="0" width="28" height="28"></rect>
                        <path d="M23.3399996,4.55519656 C23.2546303,4.22848258 22.9596896,4.00041722 22.6220065,4.000004 L15.1749069,4.000004 L15.1749069,10.4202056 L24.8511363,10.4202056 C24.8489488,10.3569217 24.84056,10.2940049 24.8260902,10.2323585 L23.3399996,4.55519656 Z M13.0042249,4 L5.55294374,4 C5.21575686,4.00186335 4.9215962,4.22932479 4.83494868,4.55519261 L3.35304184,10.2323498 C3.33652533,10.293603 3.32810493,10.3567562 3.32799559,10.420197 L13.0042249,10.420197 L13.0042249,4 Z M3.32792643,12.5282708 L3.32792643,23.5068919 C3.33022384,23.9156329 3.66222274,24.2457575 4.07096968,24.2457575 L24.1079487,24.2457575 C24.5166936,24.2457575 24.8486925,23.9156309 24.8511105,23.5068919 L24.8511105,12.5324425 L3.32792643,12.5282708 Z M17.7546541,19.7165647 C17.1975832,20.2016959 16.3565635,20.1592767 15.8511352,19.6205539 L15.4796155,19.2031155 L15.4796155,21.1149839 C15.4796155,21.8734764 14.8647355,22.4883564 14.106243,22.4883564 C13.3477505,22.4883564 12.7328704,21.8734764 12.7328704,21.1149839 L12.7328704,19.2156387 L12.3613508,19.633077 C11.8524684,20.1933291 10.9862304,20.2362683 10.4244362,19.7290878 C10.1513498,19.4860675 9.9886462,19.1425796 9.97360225,18.7773274 C9.9480857,18.4116347 10.0698278,18.0509161 10.3117263,17.7754749 L13.0710024,14.7281711 C13.5810691,14.1667941 14.449644,14.1251993 15.011021,14.6352645 C15.0434544,14.6647333 15.0744587,14.6957376 15.1039275,14.728171 L17.8673754,17.7754747 C18.3770744,18.334068 18.337437,19.2000884 17.7788447,19.7097874 C17.7763596,19.7120549 17.7738662,19.7143133 17.7713644,19.7165625 L17.7546541,19.7165647 Z" id="形状" fill="#FFFFFF" fill-rule="nonzero"></path>
                    </g>
                </g>
            </g>
        </g>
    </g>
</svg>