<?xml version="1.0" encoding="UTF-8"?>
<svg width="24px" height="24px" viewBox="0 0 24 24" version="1.1" xmlns="http://www.w3.org/2000/svg" xmlns:xlink="http://www.w3.org/1999/xlink">
    <title>删除2</title>
    <g id="工具箱" stroke="none" stroke-width="1" fill="none" fill-rule="evenodd">
        <g id="工具箱-流水线模板备份-2" transform="translate(-1351.000000, -297.000000)">
            <g id="编组-5" transform="translate(208.000000, 240.000000)">
                <g id="编组-4" transform="translate(143.000000, 33.000000)">
                    <g id="删除2" transform="translate(1000.000000, 24.000000)">
                        <g id="删除-垃圾桶" transform="translate(4.000000, 4.000000)">
                            <rect id="矩形" x="0" y="0" width="16" height="16"></rect>
                        </g>
                        <rect id="矩形" x="0" y="0" width="24" height="24"></rect>
                        <path d="M15.977131,19.966828 L7.99376301,19.966828 C7.5512377,19.9714116 7.12547381,19.7976837 6.8125437,19.4847536 C6.49961359,19.1718235 6.32588574,18.7460596 6.33046934,18.3035343 L6.33046934,10.4864865 C6.33722129,10.2137245 6.55675983,9.99418595 6.82952184,9.987526 L17.1413721,9.987526 C17.4141342,9.99418595 17.6336727,10.2137245 17.6404246,10.4864865 L17.6404246,18.3035343 C17.6450082,18.7460596 17.4712804,19.1718235 17.1583503,19.4847536 C16.8454202,19.7976837 16.4196563,19.9714116 15.977131,19.966828 Z M13.3160083,12.3160083 C13.22627,12.3107214 13.1385549,12.344066 13.0749903,12.4076306 C13.0114257,12.4711952 12.978081,12.5589103 12.983368,12.6486486 L12.983368,17.3056133 C12.9782978,17.3952935 13.0117123,17.4828799 13.075227,17.5463946 C13.1387418,17.6099093 13.2263282,17.6433239 13.3160083,17.6382536 L13.981289,17.6382536 C14.0710273,17.6435406 14.1587425,17.610196 14.2223071,17.5466314 C14.2858717,17.4830668 14.3192163,17.3953516 14.3139293,17.3056133 L14.3139293,12.6486486 C14.3192163,12.5589103 14.2858716,12.4711952 14.222307,12.4076306 C14.1587425,12.344066 14.0710273,12.3107214 13.981289,12.3160083 L13.3160083,12.3160083 Z M9.989605,12.3160083 C9.89986669,12.3107214 9.81215154,12.344066 9.74858694,12.4076306 C9.68502234,12.4711952 9.65167769,12.5589103 9.65696466,12.6486486 L9.65696466,17.3056133 C9.65167769,17.3953516 9.68502233,17.4830668 9.74858693,17.5466314 C9.81215153,17.610196 9.89986669,17.6435406 9.989605,17.6382536 L10.6548857,17.6382536 C10.7445658,17.6433239 10.8321522,17.6099093 10.8956669,17.5463946 C10.9591816,17.4828799 10.9925962,17.3952935 10.987526,17.3056133 L10.987526,12.6486486 C10.992813,12.5589103 10.9594683,12.4711952 10.8959037,12.4076306 C10.8323391,12.344066 10.744624,12.3107214 10.6548857,12.3160083 L9.989605,12.3160083 Z M18.4719335,8.65696466 L5.49896051,8.65696466 C5.22634164,8.64997102 5.00699365,8.43062304 5,8.15800417 L5,7.16008316 C5.00699365,6.88746429 5.22634164,6.66811631 5.49896051,6.66112267 L9.65696466,6.66112267 L9.65696466,5.33056133 C9.65696466,4.5957126 10.2526773,4 10.987526,4 L12.983368,4 C13.3362548,4 13.6746883,4.14018374 13.9242169,4.38971239 C14.1737456,4.63924105 14.3139293,4.97767453 14.3139293,5.33056133 L14.3139293,6.66112267 L18.4719335,6.66112267 C18.7445523,6.66811631 18.9639003,6.88746429 18.970894,7.16008316 L18.970894,8.15800417 C18.9639003,8.43062304 18.7445523,8.64997102 18.4719335,8.65696466 L18.4719335,8.65696466 Z M11.3201663,5.33056133 C11.2304862,5.3254911 11.1428998,5.35890568 11.0793851,5.42242039 C11.0158703,5.48593511 10.9824558,5.57352152 10.987526,5.66320167 L10.987526,6.66112267 L12.983368,6.66112267 L12.983368,5.66320167 C12.988655,5.57346336 12.9553103,5.4857482 12.8917457,5.4221836 C12.8281811,5.35861901 12.740466,5.32527436 12.6507277,5.33056133 L11.3201663,5.33056133 Z" id="形状" fill="#FFFFFF" fill-rule="nonzero"></path>
                    </g>
                </g>
            </g>
        </g>
    </g>
</svg>