<?xml version="1.0" encoding="UTF-8"?>
<svg width="340px" height="180px" viewBox="0 0 340 180" version="1.1" xmlns="http://www.w3.org/2000/svg" xmlns:xlink="http://www.w3.org/1999/xlink">
    <title>部署</title>
    <defs>
        <rect id="path-1" x="0" y="0" width="320" height="160" rx="6"></rect>
        <filter x="-5.0%" y="-8.8%" width="110.0%" height="120.0%" filterUnits="objectBoundingBox" id="filter-3">
            <feOffset dx="0" dy="2" in="SourceAlpha" result="shadowOffsetOuter1"></feOffset>
            <feGaussianBlur stdDeviation="5" in="shadowOffsetOuter1" result="shadowBlurOuter1"></feGaussianBlur>
            <feColorMatrix values="0 0 0 0 0.0823529412   0 0 0 0 0.396078431   0 0 0 0 0.752941176  0 0 0 0.2 0" type="matrix" in="shadowBlurOuter1"></feColorMatrix>
        </filter>
        <linearGradient x1="50%" y1="0%" x2="50%" y2="100%" id="linearGradient-4">
            <stop stop-color="#219CF0" offset="0%"></stop>
            <stop stop-color="#A2D9FF" offset="100%"></stop>
        </linearGradient>
        <linearGradient x1="50%" y1="0%" x2="50%" y2="100%" id="linearGradient-5">
            <stop stop-color="#1E88E5" stop-opacity="0.364647072" offset="0%"></stop>
            <stop stop-color="#90CAF9" stop-opacity="0.0463559878" offset="100%"></stop>
        </linearGradient>
    </defs>
    <g id="工具箱" stroke="none" stroke-width="1" fill="none" fill-rule="evenodd">
        <g id="工具箱-工作镜像备份-2" transform="translate(-702.000000, -264.000000)">
            <g id="部署" transform="translate(712.000000, 272.000000)">
                <mask id="mask-2" fill="white">
                    <use xlink:href="#path-1"></use>
                </mask>
                <g id="蒙版">
                    <use fill="black" fill-opacity="1" filter="url(#filter-3)" xlink:href="#path-1"></use>
                    <use fill="#FFFFFF" fill-rule="evenodd" xlink:href="#path-1"></use>
                </g>
                <g mask="url(#mask-2)" fill="url(#linearGradient-4)" fill-rule="nonzero" id="形状" opacity="0.796340216">
                    <g transform="translate(48.000000, 50.000000)">
                        <path d="M4.62360574,21.3612074 L34.0170621,21.3612074 L34.017062,21.3612074 C36.5698768,21.3622426 38.6387926,23.4319981 38.6387926,25.9848129 L38.6387926,55.3745193 L38.6387926,55.3745197 C38.6387926,57.9273345 36.5698768,59.9970882 34.017062,59.9981252 L4.6236057,59.9981252 L4.62360549,59.9981252 C2.07005835,59.9981252 0,57.9280669 0,55.3745197 C0,55.3745197 0,55.3745197 0,55.3745197 L0,25.9866882 L0,25.9866889 C0,23.4331418 2.07005835,21.3630834 4.62360549,21.3630834 L4.62360574,21.3612074 Z M42.8761602,34.2401799 L42.8761602,21.7268209 C42.8761602,19.1806505 40.8118497,17.118215 38.2656793,17.118215 L25.7598201,17.118215 L25.7598201,4.60860596 C25.7598201,2.06431048 27.8222557,2.84217094e-14 30.370301,2.84217094e-14 L55.3895191,2.84217094e-14 C57.9356895,2.84217094e-14 60,2.06243554 60,4.60860596 L60,29.6315739 C60,32.1758694 57.9375645,34.2401799 55.3895191,34.2401799 L42.8761602,34.2401799 Z M59.5181401,45.2479608 C59.9100028,45.7241959 59.5743883,46.4535481 58.9519078,46.4854221 L56.863223,46.4854221 C56.8369739,48.7316019 55.8226306,57.1200898 43.2380239,59.0531544 C43.0392801,59.0812785 42.9605326,58.8281614 43.1274023,58.7194148 C49.6990719,54.9282833 49.6990719,50.1884314 49.7534452,46.4535481 L47.7528828,46.4535481 C47.1322772,46.4535481 46.7685385,45.7241959 47.1585263,45.2479608 L52.2377426,38.8487858 L52.2377426,38.8487859 C52.7119539,38.2481952 53.5832533,38.1457414 54.1838439,38.6199551 C54.2687969,38.6870323 54.345598,38.7638328 54.4126746,38.8487859 L59.51814,45.2535857 L59.51814,45.2479609 L59.5181401,45.2479608 Z M4.5542329,13.4958282 C4.1961191,13.0645917 4.50173455,12.4008624 5.06421697,12.3727383 L6.95790778,12.3727383 C6.98040708,10.3290522 7.89912836,2.7036655 19.2931473,0.943095524 C19.4731416,0.920596228 19.5481393,1.14933908 19.3943941,1.25058591 C13.445205,4.69485327 13.445205,9.00346861 13.3945816,12.4008624 L15.2076499,12.4008624 C15.7645075,12.4008624 16.100122,13.0645917 15.7420082,13.4958282 L11.1446519,19.3137714 L11.1446519,19.3137714 C10.7179692,19.8568921 9.93178748,19.9512808 9.38866968,19.5246003 C9.31023737,19.4629827 9.23945833,19.3922037 9.17784073,19.3137714 L4.55423523,13.4958282 L4.5542329,13.4958282 Z M11.4446426,43.9767454 L11.4446425,43.9767454 C10.6783715,43.9746796 10.0555101,44.5941863 10.0534368,45.3604514 C10.0534368,45.3617031 10.0534368,45.3629547 10.0534368,45.3642064 L10.0534368,49.5022021 C10.0534368,50.2671782 10.6759173,50.88966 11.4446433,50.88966 L27.1979009,50.88966 L27.1979009,50.88966 C27.9641718,50.8906942 28.5861954,50.270348 28.5872337,49.504077 C28.5872337,49.5034516 28.5872337,49.5028262 28.5872337,49.5022008 L28.5872337,45.3642051 L28.5872337,45.3642039 C28.5872337,44.5979329 27.9660481,43.9767454 27.1997771,43.9767454 C27.1991517,43.9767454 27.1985263,43.9767454 27.1979009,43.9767454 L11.4446432,43.9767454 L11.4446426,43.9767454 Z"></path>
                    </g>
                </g>
                <path d="M-88,283.285456 C-81.2762688,219.233808 -59.0074638,172.94489 -21.193585,144.418702 C35.5272331,101.62942 107.661257,156.490965 149.150861,138.285456 C190.640465,120.079947 241.626934,125.185349 268,144.418702 C285.582044,157.240937 301.248711,203.529855 315,283.285456 L-88,283.285456 Z" id="路径-2" fill="url(#linearGradient-5)" opacity="0.0590820312" mask="url(#mask-2)"></path>
                <path d="M-112,283.285456 C-105.276269,219.233808 -83.0074638,172.94489 -45.193585,144.418702 C11.5272331,101.62942 83.6612573,156.490965 125.150861,138.285456 C166.640465,120.079947 217.626934,125.185349 244,144.418702 C261.582044,157.240937 277.248711,203.529855 291,283.285456 L-112,283.285456 Z" id="路径-2备份-3" fill="url(#linearGradient-5)" opacity="0.146647135" mask="url(#mask-2)"></path>
            </g>
        </g>
    </g>
</svg>