<?xml version="1.0" encoding="UTF-8"?>
<svg width="24px" height="24px" viewBox="0 0 24 24" version="1.1" xmlns="http://www.w3.org/2000/svg" xmlns:xlink="http://www.w3.org/1999/xlink">
    <title>编辑2</title>
    <g id="工具箱" stroke="none" stroke-width="1" fill="none" fill-rule="evenodd">
        <g id="工具箱-流水线模板备份-2" transform="translate(-1287.000000, -297.000000)">
            <g id="编组-5" transform="translate(208.000000, 240.000000)">
                <g id="编组-4" transform="translate(143.000000, 33.000000)">
                    <g id="icon-编辑备份-8" transform="translate(936.000000, 24.000000)">
                        <rect id="矩形" x="0" y="0" width="24" height="24"></rect>
                        <path d="M6.32596685,13.4993421 L14.6707182,5.44460526 L17.3668508,8.04671053 L9.02209945,16.0888158 L6.32596685,13.4993421 Z M5.8839779,13.9203947 L8.60220994,16.5098684 L8.43425414,16.6740789 L5.57458564,17.4698684 C5.38565003,17.5204272 5.18279805,17.4692092 5.0449516,17.3361414 C4.90710515,17.2030736 4.8560318,17.009169 4.91160221,16.8298684 L5.73812155,14.0677632 L5.8839779,13.9203947 Z M17.7867403,7.6425 L15.0773481,5.03618421 L15.961326,4.19407895 C16.0786476,4.08170766 16.2369942,4.01684392 16.4033149,4.01302632 C16.5692449,4.01852626 16.7269693,4.08313514 16.8453039,4.19407895 L18.6132597,5.91618421 C18.8659511,6.16176959 18.8659511,6.55480936 18.6132597,6.80039474 L17.7867403,7.6425 Z" id="形状" fill="#FFFFFF" fill-rule="nonzero"></path>
                        <path d="M4.85856354,18.3709211 L19.1082873,18.3709211 C19.6769797,18.3709211 19.961326,18.6417982 19.961326,19.1835526 L19.961326,19.1793421 C19.961326,19.7210965 19.6769797,19.9919737 19.1082873,19.9919737 L4.85856354,19.9919737 C4.28987109,19.9919737 4.00552486,19.7210965 4.00552486,19.1793421 L4.00552486,19.1835526 C4.00552486,18.6417982 4.28987109,18.3709211 4.85856354,18.3709211 Z" id="路径" fill="#FFFFFF" fill-rule="nonzero"></path>
                    </g>
                </g>
            </g>
        </g>
    </g>
</svg>