<?xml version="1.0" encoding="UTF-8"?>
<svg width="44px" height="44px" viewBox="0 0 44 44" version="1.1" xmlns="http://www.w3.org/2000/svg" xmlns:xlink="http://www.w3.org/1999/xlink">
    <title>不通过</title>
    <g id="页面-1" stroke="none" stroke-width="1" fill="none" fill-rule="evenodd">
        <g id="画板" transform="translate(-56.000000, -121.000000)" fill-rule="nonzero">
            <g id="不通过" transform="translate(56.000000, 121.000000)">
                <path d="M0,22.0000256 L0,22.0000289 C0,34.1503165 9.84973802,44.0000545 22.0000256,44.0000545 C34.1503132,44.0000545 44.0000512,34.1503165 44.0000512,22.0000289 L44.0000512,22.0000289 C44.0000512,9.84974135 34.1503132,3.32190933e-06 22.0000256,3.32190933e-06 C9.84973802,3.32190933e-06 0,9.84974135 0,22.0000289 L0,22.0000256 Z" id="路径" fill="#FFF3F0"></path>
                <path d="M27.1333792,31.7778339 L27.133379,31.7778339 C24.5683221,31.7778339 22.4889244,29.6984447 22.4889244,27.1333792 C22.4889244,24.5683223 24.5683135,22.4889246 27.133379,22.4889246 L27.1333788,22.4889246 C29.6984357,22.4889246 31.7778334,24.5683137 31.7778334,27.1333792 C31.7778334,29.6984361 29.6984443,31.7778339 27.1333788,31.7778339 L27.1333792,31.7778339 Z M27.1333792,28.44703 L28.3336009,29.6487212 C29.2101816,30.5238324 30.5238238,29.2101859 29.6487126,28.3336095 L28.4470214,27.1333878 L29.6487126,25.9331661 C30.5238238,25.0565854 29.2101773,23.7429433 28.3336009,24.6180544 L27.1333792,25.8197457 L25.9331575,24.6180544 C25.0565768,23.7429433 23.7429347,25.0565897 24.6180458,25.9331661 L25.8197371,27.1333878 L24.6180458,28.3336095 C23.7429347,29.2101902 25.0565811,30.5238324 25.9331575,29.6487212 L27.1333792,28.44703 L27.1333792,28.44703 Z" id="形状" fill="#FF3F46"></path>
                <path d="M31.7778383,22.0978226 C29.1045858,19.4245746 24.7710835,19.4245746 22.0978226,22.0978226 C19.4245746,24.7710706 19.4245746,29.1045729 22.0978226,31.7778339 L14.1778134,31.7778339 L14.1778135,31.7778339 C13.0977884,31.7778339 12.2222561,30.9023016 12.2222561,29.8222765 C12.2222561,29.8222765 12.2222561,29.8222764 12.2222561,29.8222764 L12.2222561,14.177809 L12.2222561,14.1778092 C12.2222561,13.0977842 13.0977884,12.2222519 14.1778135,12.2222519 C14.1778135,12.2222519 14.1778135,12.2222519 14.1778136,12.2222519 L29.822281,12.2222519 L29.8222809,12.2222519 C30.902306,12.2222519 31.7778383,13.0977842 31.7778383,14.1778092 C31.7778383,14.1778093 31.7778383,14.1778093 31.7778383,14.1778093 L31.7778383,22.0978185 L31.7778383,22.0978226 Z M17.1111644,16.1333664 L17.1111645,16.1333664 C16.5711541,16.1334796 16.1335899,16.5713388 16.1335899,17.1113492 C16.1335899,17.6512006 16.5713131,18.0888121 17.1111645,18.0889238 L26.8889727,18.0889238 L26.8889727,18.0889238 C27.4289831,18.0888106 27.8665473,17.6509514 27.8665473,17.110941 C27.8665473,16.5710896 27.4288241,16.1334781 26.8889727,16.1333664 L17.1111645,16.1333664 L17.1111644,16.1333664 Z M17.1111644,20.0444811 L17.1111645,20.0444811 C16.5711541,20.0445943 16.1334782,20.4824535 16.1335899,21.0224639 C16.133703,21.5623153 16.5713131,21.9999268 17.1111645,22.0000385 L19.0667218,22.0000385 L19.0667218,22.0000385 C19.6067322,21.9999253 20.0444081,21.5620661 20.0442964,21.0220557 C20.0441832,20.4822043 19.6065732,20.0445929 19.0667218,20.0444811 L17.1111645,20.0444811 L17.1111644,20.0444811 Z" id="形状" fill="#FF3F46"></path>
            </g>
        </g>
    </g>
</svg>