<?xml version="1.0" encoding="UTF-8"?>
<svg width="32px" height="32px" viewBox="0 0 32 32" version="1.1" xmlns="http://www.w3.org/2000/svg" xmlns:xlink="http://www.w3.org/1999/xlink">
    <title>流水线列表</title>
    <g id="持续集成-流水线" stroke="none" stroke-width="1" fill="none" fill-rule="evenodd">
        <g id="流水线列表页面00" transform="translate(-208.000000, -142.000000)">
            <g id="编组-5" transform="translate(208.000000, 134.000000)">
                <g id="流水线列表" transform="translate(0.000000, 8.000000)">
                    <rect id="矩形" x="0" y="0" width="32" height="32"></rect>
                    <path d="M22.135375,8 L9.844375,8 C8.82545313,8 8,8.8254375 8,9.84279687 L8,22.1337969 C8,23.1527187 8.8254375,23.9781562 9.84435938,23.9781562 L22.1353594,23.9781562 C23.1542813,23.9781562 23.9797188,23.1527187 23.9797188,22.1337969 L23.9797188,9.8428125 C23.9781719,8.8254375 23.1527344,8 22.135375,8 Z M12.5223324,11.5545839 C12.7276664,11.5545839 12.9018329,11.6242506 13.044833,11.7635841 C13.1878332,11.902918 13.2593333,12.0752508 13.2593333,12.2805847 L13.2593333,12.8415854 C13.2593333,13.0469193 13.1878332,13.2210858 13.044833,13.364086 C12.9018329,13.5070861 12.7276664,13.5785862 12.5223324,13.5785862 L11.9393317,13.5785862 C11.7413315,13.5785862 11.5708313,13.5070861 11.4278311,13.364086 C11.284831,13.2210858 11.2133309,13.0469193 11.2133309,12.8415854 L11.2133309,12.2805847 C11.2133309,12.0752508 11.284831,11.902918 11.4278311,11.7635841 C11.5708313,11.6242503 11.7413315,11.5545839 11.9393317,11.5545839 L12.5223324,11.5545839 Z M20.0683412,11.5545839 C20.2663414,11.5545839 20.4368416,11.6242506 20.5798418,11.7635841 C20.722842,11.902918 20.794342,12.0752508 20.794342,12.2805847 L20.794342,12.8415854 C20.794342,13.0469193 20.722842,13.2210858 20.5798418,13.364086 C20.4368416,13.5070861 20.2663414,13.5785862 20.0683412,13.5785862 L15.3713357,13.5785862 C15.1660018,13.5785862 14.9918353,13.5070861 14.8488351,13.364086 C14.705835,13.2210858 14.6343349,13.0469193 14.6343349,12.8415854 L14.6343349,12.2805847 C14.6343349,12.0752508 14.705835,11.902918 14.8488351,11.7635841 C14.9918353,11.6242503 15.1660018,11.5545839 15.3713357,11.5545839 L20.0683412,11.5545839 Z M13.044833,15.1900881 C13.1878332,15.3330883 13.2593333,15.5072548 13.2593333,15.7125887 L13.2593333,16.2735894 C13.2593333,16.4715896 13.1878332,16.6420898 13.044833,16.78509 C12.9018329,16.9280901 12.7276664,16.9995902 12.5223324,16.9995902 L11.9393317,16.9995902 C11.7413315,16.9995902 11.5708313,16.9280901 11.4278311,16.78509 C11.284831,16.6420898 11.2133309,16.4715896 11.2133309,16.2735894 L11.2133309,15.7125887 C11.2133309,15.5072548 11.284831,15.3330883 11.4278311,15.1900881 C11.5708313,15.0470879 11.7413315,14.9755879 11.9393317,14.9755879 L12.5223324,14.9755879 C12.7276664,14.9755879 12.9018329,15.0470879 13.044833,15.1900881 Z M20.0683412,14.9755879 C20.2663414,14.9755879 20.4368416,15.0470879 20.5798418,15.1900881 C20.722842,15.3330883 20.794342,15.5072548 20.794342,15.7125887 L20.794342,16.2735894 C20.794342,16.4715896 20.722842,16.6420898 20.5798418,16.78509 C20.4368416,16.9280901 20.2663414,16.9995902 20.0683412,16.9995902 L15.3713357,16.9995902 C15.1660018,16.9995902 14.9918353,16.9280901 14.8488351,16.78509 C14.705835,16.6420898 14.6343349,16.4715896 14.6343349,16.2735894 L14.6343349,15.7125887 C14.6343349,15.5072548 14.705835,15.3330883 14.8488351,15.1900881 C14.9918353,15.0470879 15.1660018,14.9755879 15.3713357,14.9755879 L20.0683412,14.9755879 Z M12.5223324,18.4075918 C12.7276664,18.4075918 12.9018329,18.4790919 13.044833,18.6220921 C13.1878332,18.7650923 13.2593333,18.9355925 13.2593333,19.1335927 L13.2593333,19.6945933 C13.2593333,19.8999273 13.1878332,20.0740938 13.044833,20.217094 C12.9018329,20.3600941 12.7276664,20.4315942 12.5223324,20.4315942 L11.9393317,20.4315942 C11.7413315,20.4315942 11.5708313,20.3600941 11.4278311,20.217094 C11.284831,20.0740938 11.2133309,19.8999273 11.2133309,19.6945933 L11.2133309,19.1335927 C11.2133309,18.9355925 11.284831,18.7650923 11.4278311,18.6220921 C11.5708313,18.4790919 11.7413315,18.4075918 11.9393317,18.4075918 L12.5223324,18.4075918 Z M20.0683412,18.4075918 C20.2663414,18.4075918 20.4368416,18.4790919 20.5798418,18.6220921 C20.722842,18.7650923 20.794342,18.9355925 20.794342,19.1335927 L20.794342,19.6945933 C20.794342,19.8999273 20.722842,20.0740938 20.5798418,20.217094 C20.4368416,20.3600941 20.2663414,20.4315942 20.0683412,20.4315942 L15.3713357,20.4315942 C15.1660018,20.4315942 14.9918353,20.3600941 14.8488351,20.217094 C14.705835,20.0740938 14.6343349,19.8999273 14.6343349,19.6945933 L14.6343349,19.1335927 C14.6343349,18.9355925 14.705835,18.7650923 14.8488351,18.6220921 C14.9918353,18.4790919 15.1660018,18.4075918 15.3713357,18.4075918 L20.0683412,18.4075918 Z" id="形状" fill="#0663BE" fill-rule="nonzero"></path>
                </g>
            </g>
        </g>
    </g>
</svg>