<?xml version="1.0" encoding="UTF-8"?>
<svg width="32px" height="32px" viewBox="0 0 32 32" version="1.1" xmlns="http://www.w3.org/2000/svg" xmlns:xlink="http://www.w3.org/1999/xlink">
    <title>运行日志</title>
    <g id="流水线详情（优化）" stroke="none" stroke-width="1" fill="none" fill-rule="evenodd">
        <g id="流水线详情-周" transform="translate(-688.000000, -628.000000)">
            <g id="运行日志" transform="translate(688.000000, 628.000000)">
                <rect id="矩形" x="0" y="0" width="32" height="32"></rect>
                <path d="M22.135375,8 L9.844375,8 C8.82545313,8 8,8.8254375 8,9.84279687 L8,22.1337969 C8,23.1527187 8.8254375,23.9781562 9.84435938,23.9781562 L22.1353594,23.9781562 C23.1542813,23.9781562 23.9797188,23.1527187 23.9797188,22.1337969 L23.9797188,9.8428125 C23.9781719,8.8254375 23.1527344,8 22.135375,8 Z M19.110666,11 C19.7981755,11 20.3606762,11.5625007 20.3606762,12.2500015 L20.3606762,19.7500102 C20.3606762,20.437511 19.7981755,21.0000116 19.110666,21.0000116 L12.8606674,21.0000116 C12.1731666,21.0000116 11.610666,20.437511 11.610666,19.7500102 L11.610666,12.2500015 C11.610666,11.5625007 12.1731666,11 12.8606674,11 L19.110666,11 Z M16.5481717,17.2500073 L13.5481682,17.2500073 C13.1731678,17.2500073 12.8606674,17.5625076 12.8606674,17.9375081 C12.8606674,18.3125085 13.1731678,18.6250089 13.5481682,18.6250089 L16.5481717,18.6250089 C16.9231722,18.6250089 17.2356725,18.3125085 17.2356725,17.9375081 C17.2356725,17.5625076 16.9231722,17.2500073 16.5481717,17.2500073 Z M18.4231739,14.1250036 L13.5481682,14.1250036 C13.1731678,14.1250036 12.8606674,14.437504 12.8606674,14.8125044 C12.8606674,15.1875049 13.1731678,15.5000052 13.5481682,15.5000052 L18.4231739,15.5000052 C18.7981743,15.5000052 19.1106747,15.1875049 19.1106747,14.8125044 C19.1106747,14.437504 18.7981743,14.1250036 18.4231739,14.1250036 Z" id="形状" fill="#0663BE" fill-rule="nonzero"></path>
            </g>
        </g>
    </g>
</svg>