<?xml version="1.0" encoding="UTF-8"?>
<svg width="28px" height="28px" viewBox="0 0 28 28" version="1.1" xmlns="http://www.w3.org/2000/svg" xmlns:xlink="http://www.w3.org/1999/xlink">
    <title>工具箱</title>
    <g id="持续集成-流水线" stroke="none" stroke-width="1" fill="none" fill-rule="evenodd">
        <g id="流水线-流水线详情" transform="translate(-16.000000, -200.000000)">
            <g id="编组-3" transform="translate(0.000000, 184.000000)">
                <g id="工具箱" transform="translate(16.000000, 16.000000)">
                    <rect id="32x32框" x="0" y="0" width="28" height="28"></rect>
                    <g id="组件-1-–-17" transform="translate(6.000000, 6.000000)">
                        <path d="M1.45440169,0 L1.45440163,0 C0.651158507,0 -6.35739807e-08,0.65115857 -6.35739807e-08,1.45440169 C-6.35739807e-08,1.45440169 -6.35739807e-08,1.45440169 -6.35739807e-08,1.45440169 L-6.35739807e-08,14.5456201 L-6.35739807e-08,14.5456202 C-6.35739807e-08,15.3488633 0.651158507,16.0000219 1.45440163,16.0000219 L14.54562,16.0000219 L14.5456199,16.0000219 C15.3488631,16.0000219 16.0000216,15.3488633 16.0000216,14.5456202 L16.0000216,1.45440185 L16.0000216,1.45440185 C16.0000216,0.651158726 15.3488631,0 14.5456199,0 L1.45440169,0 Z M1.12651563,8.6603544 L14.8765156,8.6603544 L14.8765156,14.9702341 L1.12651563,14.9702341 L1.12651563,8.6603544 Z M1.12515255,1.12878132 L14.8765156,1.12878132 L14.8765156,7.57895192 L1.12431549,7.57895192 L1.12515255,1.12878132 Z" id="形状" fill="#78909C" fill-rule="nonzero"></path>
                        <path d="M3.86928212,3.62845898 L3.86928211,3.62845898 C3.46276109,3.62753467 3.13233317,3.95608993 3.13094767,4.36260939 L3.13094767,4.362605 C3.13186884,4.76944909 3.46242869,5.09851638 3.86927278,5.09759724 C3.86927405,5.09759724 3.86927533,5.09759724 3.8692766,5.09759724 L3.86927663,5.09759724 C4.27546991,5.09759724 4.60501249,4.76880139 4.60593669,4.36260965 L4.60593669,4.36261599 C4.60455654,3.956752 4.27514996,3.62845898 3.86928286,3.62845898 L3.86928212,3.62845898 Z" id="路径" fill="#78909C"></path>
                        <path d="M3.86928212,10.879635 L3.86928211,10.879635 C3.46276109,10.8787107 3.13233317,11.2072659 3.13094767,11.6137854 L3.13094767,11.613781 C3.13186884,12.0206251 3.46242869,12.3496924 3.86927278,12.3487732 C3.86927405,12.3487732 3.86927533,12.3487732 3.8692766,12.3487732 L3.86927663,12.3487732 C4.27546991,12.3487732 4.60501249,12.0199774 4.60593669,11.6137857 L4.60593669,11.613792 C4.60455654,11.207928 4.27514996,10.879635 3.86928286,10.879635 L3.86928212,10.879635 Z" id="路径备份-4" fill="#78909C"></path>
                        <rect id="矩形" fill="#B0BEC5" x="5.71833953" y="3.72375027" width="7.32982272" height="1.27855568" rx="0.639277842"></rect>
                        <rect id="矩形备份-20" fill="#B0BEC5" x="5.71833953" y="10.9749263" width="7.32982272" height="1.27855568" rx="0.639277842"></rect>
                    </g>
                </g>
            </g>
        </g>
    </g>
</svg>