<?xml version="1.0" encoding="UTF-8"?>
<svg width="48px" height="48px" viewBox="0 0 48 48" version="1.1" xmlns="http://www.w3.org/2000/svg" xmlns:xlink="http://www.w3.org/1999/xlink">
    <title>触发规则</title>
    <defs>
        <linearGradient x1="0%" y1="100%" x2="100%" y2="100%" id="linearGradient-1">
            <stop stop-color="#FED9A2" offset="0%"></stop>
            <stop stop-color="#FFB86F" offset="100%"></stop>
        </linearGradient>
    </defs>
    <g id="流水线详情（优化）" stroke="none" stroke-width="1" fill="none" fill-rule="evenodd">
        <g id="流水线-流水线详情2" transform="translate(-240.000000, -392.000000)">
            <g id="编组-14" transform="translate(236.000000, 392.000000)">
                <g id="触发规则" transform="translate(4.000000, 0.000000)">
                    <g id="编组-11" fill="url(#linearGradient-1)">
                        <circle id="椭圆形" cx="24" cy="24" r="24"></circle>
                    </g>
                    <g id="编组-6" transform="translate(13.000000, 11.000000)" fill="#FFFFFF" fill-rule="nonzero">
                        <g id="chufaqi" transform="translate(8.347826, 11.478261)">
                            <path d="M12.1581332,11.1059333 L12.1143642,11.1514531 C11.8947225,11.3703671 11.5433352,11.3825892 11.309014,11.1794653 C11.1983946,11.0848107 11.1299589,10.9500501 11.1187927,10.80489 C11.1076266,10.6597299 11.1546467,10.5160881 11.2494881,10.4056288 L11.389549,10.2445588 C13.1521052,7.89648161 12.8387074,4.59288197 10.6660626,2.61811983 C8.49341791,0.64335769 5.17498722,0.645912589 3.00538586,2.62401788 C0.835784495,4.60212316 0.527474008,7.90620146 2.29364371,10.2515618 L2.3920365,10.3846197 C2.58161901,10.6312317 2.54283834,10.9835023 2.30414828,11.1829668 L2.29924615,11.1864683 C2.18927811,11.281515 2.0457258,11.3283794 1.90085914,11.3165267 C1.75599248,11.304674 1.62196706,11.2350986 1.52891118,11.123441 C-0.725000736,8.33847266 -0.443021818,4.28504783 2.17478998,1.8389839 C4.79260177,-0.607080027 8.85581726,-0.613772635 11.4816728,1.82365434 C14.1075283,4.26108131 14.4028586,8.31355524 12.1581332,11.1059333 L12.1581332,11.1059333 Z M9.76414221,5.09031749 C10.3779791,6.12995179 10.3954314,7.41689081 9.81001215,8.47278832 L9.78129967,8.52881269 C9.64788221,8.79570685 9.33317212,8.91709936 9.05508387,8.8089345 C8.78290933,8.70206477 8.64853609,8.39510491 8.75465324,8.12263606 L8.98190206,7.54138332 C9.29633109,6.59926637 8.96353937,5.56205013 8.15967526,4.97873849 C7.35581115,4.39542685 6.26652713,4.40073569 5.46838683,4.99185499 C4.67024653,5.5829743 4.34758052,6.62338504 4.67117756,7.56239245 L4.8844203,8.10512846 C4.93689478,8.23864848 4.93403773,8.38756868 4.87648057,8.51897773 C4.8189234,8.65038678 4.71140501,8.75346531 4.57768692,8.80543298 L4.56963342,8.8089345 C4.28284879,8.91710827 3.96205533,8.77743043 3.84586869,8.49379747 C3.25266299,7.43727919 3.26448864,6.14536302 3.87693517,5.09988077 C4.4893817,4.05439851 5.61050153,3.41231008 6.8221629,3.41308745 C8.02989971,3.41279955 9.14793323,4.05057263 9.76239145,5.09031749 L9.76414221,5.09031749 Z M6.45940517,9.1660898 C6.55672533,9.05274058 6.69867786,8.98752317 6.84807418,8.98752317 C6.9974705,8.98752317 7.13942303,9.05274058 7.23674319,9.1660898 L11.778218,14.0016925 C11.8824233,14.1381043 11.8977362,14.3226791 11.8174351,14.4743981 C11.7320617,14.6280741 11.5709351,14.7242691 11.3951514,14.7265077 L2.298896,14.7265077 C2.12036208,14.7255795 1.95644991,14.6276615 1.87100994,14.4708966 C1.78244199,14.3270339 1.78244199,14.1455552 1.87100994,14.0016925 L6.45940517,9.1660898 Z M10.437485,13.8196134 L6.85367661,10.1465161 L3.25831319,13.8196134 L10.4364346,13.8196134 L10.437485,13.8196134 Z" id="形状"></path>
                        </g>
                        <g id="bianmaguize" transform="translate(0.000000, 0.000000)">
                            <path d="M1.59782297,1.59782297 L19.1738756,1.59782297 L19.1738756,10.3730667 L20.7716986,10.3730667 L20.7716986,1.2790573 C20.7708182,0.573018426 20.1986801,0.000880335007 19.4926413,0 L1.27825837,0 C0.572531519,0.00132021085 0.000879260538,0.573329759 0,1.2790573 L0,24.2869091 C0.00132021085,24.9926359 0.573329759,25.5642882 1.2790573,25.5651675 L7.84531075,25.5651675 L7.84531075,23.9673445 L1.59782297,23.9673445 L1.59782297,1.59782297 Z" id="路径"></path>
                            <path d="M4.79346891,4.24701345 L15.9782297,4.24701345 L15.9782297,5.84483642 L4.79346891,5.84483642 L4.79346891,4.24701345 Z M4.79346891,8.57551587 L15.9782297,8.57551587 L15.9782297,10.1733388 L4.79346891,10.1733388 L4.79346891,8.57551587 Z" id="形状"></path>
                        </g>
                    </g>
                </g>
            </g>
        </g>
    </g>
</svg>