<?xml version="1.0" encoding="UTF-8"?>
<svg width="32px" height="32px" viewBox="0 0 32 32" version="1.1" xmlns="http://www.w3.org/2000/svg" xmlns:xlink="http://www.w3.org/1999/xlink">
    <title>版本记录</title>
    <g id="流水线详情（优化）" stroke="none" stroke-width="1" fill="none" fill-rule="evenodd">
        <g id="流水线详情-周" transform="translate(-200.000000, -628.000000)">
            <g id="版本记录" transform="translate(200.000000, 628.000000)">
                <rect id="矩形" x="0" y="0" width="32" height="32"></rect>
                <path d="M22.135375,8 C23.1527344,8 23.9781719,8.8254375 23.9797188,9.8428125 L23.9797188,9.8428125 L23.9797188,22.1337969 C23.9797188,23.1527187 23.1542813,23.9781562 22.1353594,23.9781562 L22.1353594,23.9781562 L9.84435938,23.9781562 C8.8254375,23.9781562 8,23.1527187 8,22.1337969 L8,22.1337969 L8,9.84279687 C8,8.8254375 8.82545313,8 9.844375,8 L9.844375,8 Z M17.0708413,10.9998221 L12.8606674,11 C12.1731666,11 11.610666,11.5625007 11.610666,12.2500015 L11.610666,12.2500015 L11.610666,19.7500102 C11.610666,20.437511 12.1731666,21.0000116 12.8606674,21.0000116 L12.8606674,21.0000116 L19.110666,21.0000116 C19.7981755,21.0000116 20.3606762,20.437511 20.3606762,19.7500102 L20.3606762,19.7500102 L20.3606762,14.061101 C20.3606762,13.7776537 20.2403878,13.507522 20.0297244,13.317882 L20.0297244,13.317882 L17.7399318,11.2566031 C17.556286,11.0912846 17.3179364,10.9998117 17.0708413,10.9998221 L17.0708413,10.9998221 Z M16.5481717,17.2500073 C16.9231722,17.2500073 17.2356725,17.5625076 17.2356725,17.9375081 C17.2356725,18.3125085 16.9231722,18.6250089 16.5481717,18.6250089 L16.5481717,18.6250089 L13.5481682,18.6250089 C13.1731678,18.6250089 12.8606674,18.3125085 12.8606674,17.9375081 C12.8606674,17.5625076 13.1731678,17.2500073 13.5481682,17.2500073 L13.5481682,17.2500073 Z M18.4231739,14.1250036 C18.7981743,14.1250036 19.1106747,14.437504 19.1106747,14.8125044 C19.1106747,15.1875049 18.7981743,15.5000052 18.4231739,15.5000052 L18.4231739,15.5000052 L13.5481682,15.5000052 C13.1731678,15.5000052 12.8606674,15.1875049 12.8606674,14.8125044 C12.8606674,14.437504 13.1731678,14.1250036 13.5481682,14.1250036 L13.5481682,14.1250036 Z" id="形状结合" fill="#0663BE" fill-rule="nonzero"></path>
            </g>
        </g>
    </g>
</svg>