<?xml version="1.0" standalone="no"?><!DOCTYPE svg PUBLIC "-//W3C//DTD SVG 1.1//EN" "http://www.w3.org/Graphics/SVG/1.1/DTD/svg11.dtd"><svg t="1619343176338" class="icon" viewBox="0 0 1024 1024" version="1.1" xmlns="http://www.w3.org/2000/svg" p-id="1346" xmlns:xlink="http://www.w3.org/1999/xlink" width="200" height="200"><defs><style type="text/css"></style></defs><path d="M51.2 512c0-254.49984 206.30016-460.8 460.8-460.8s460.8 206.30016 460.8 460.8-206.30016 460.8-460.8 460.8-460.8-206.30016-460.8-460.8z m46.08 0c0 229.04832 185.68192 414.72 414.72 414.72 229.04832 0 414.72-185.67168 414.72-414.72 0-229.03808-185.67168-414.72-414.72-414.72-229.03808 0-414.72 185.68192-414.72 414.72z m349.70624 216.79104c0-36.2496 29.37344-65.63328 65.60768-65.63328 36.25984 0 65.62304 29.38368 65.62304 65.63328 0 36.24448-29.3632 65.60768-65.62304 65.60768-36.23424 0-65.60768-29.3632-65.60768-65.60768z m16.86528-198.78912l-16.86528-242.39104a63.42656 63.42656 0 0 1 64.0256-58.12736c33.50016-0.47616 61.78304 24.7808 65.11616 58.12736l-16.82944 242.43712c0 32.08704-16.47104 58.1376-48.5888 58.1376-32.12288 0-46.85824-26.10176-46.85824-58.18368z" fill="#ea9518" p-id="1347"></path></svg>