<?xml version="1.0" encoding="utf-8"?>
<!-- Generator: Adobe Illustrator 24.0.1, SVG Export Plug-In . SVG Version: 6.00 Build 0)  -->
<svg
  version="1.1"
  id="图层_1"
  xmlns="http://www.w3.org/2000/svg"
  xmlns:xlink="http://www.w3.org/1999/xlink"
  x="0px"
  y="0px"
  viewBox="0 0 20 20"
  style="enable-background:new 0 0 20 20;"
  xml:space="preserve"
>
  <style type="text/css">
    .st0 {
      fill: none;
    }
    .st1 {
      fill: #333333;
    }
  </style>
  <title>新实体管理</title>
  <rect id="矩形" y="0" class="st0" width="20" height="20" />
  <path
    id="形状结合"
    class="st1"
    d="M18,0c1.1,0,2,0.9,2,2v16c0,1.1-0.9,2-2,2H2c-1.1,0-2-0.9-2-2V2c0-1.1,0.9-2,2-2H18z M18,11
H2v7h16V11z M18,2H2v7h16V2z"
  />
  <path
    id="矩形_1_"
    class="st1"
    d="M5.5,4.5C5.8,4.5,6,4.7,6,5v1c0,0.3-0.2,0.5-0.5,0.5h-1C4.2,6.5,4,6.3,4,6V5
c0-0.3,0.2-0.5,0.5-0.5H5.5z"
  />
  <path
    id="矩形备份-2"
    class="st1"
    d="M5.5,13.5C5.8,13.5,6,13.7,6,14v1c0,0.3-0.2,0.5-0.5,0.5h-1C4.2,15.5,4,15.3,4,15v-1
c0-0.3,0.2-0.5,0.5-0.5H5.5z"
  />
  <path
    id="矩形备份"
    class="st1"
    d="M15.5,4.5C15.8,4.5,16,4.7,16,5v1c0,0.3-0.2,0.5-0.5,0.5h-8C7.2,6.5,7,6.3,7,6V5
c0-0.3,0.2-0.5,0.5-0.5H15.5z"
  />
  <path
    id="矩形备份-4"
    class="st1"
    d="M15.5,13.5c0.3,0,0.5,0.2,0.5,0.5v1c0,0.3-0.2,0.5-0.5,0.5h-8C7.2,15.5,7,15.3,7,15v-1
c0-0.3,0.2-0.5,0.5-0.5H15.5z"
  />
</svg>
