<?xml version="1.0" encoding="utf-8"?>
<!-- Generator: Adobe Illustrator 24.0.1, SVG Export Plug-In . SVG Version: 6.00 Build 0)  -->
<svg
  version="1.1"
  id="图层_1"
  xmlns="http://www.w3.org/2000/svg"
  xmlns:xlink="http://www.w3.org/1999/xlink"
  x="0px"
  y="0px"
  viewBox="0 0 20 20"
  style="enable-background:new 0 0 20 20;"
  xml:space="preserve"
>
  <style type="text/css">
    .st0 {
      fill: none;
    }
    .st1 {
      fill: #333333;
    }
  </style>
  <title>流水线</title>
  <rect id="矩形" y="0" class="st0" width="20" height="20" />
  <path
    id="形状结合"
    class="st1"
    d="M3.5,7C1.6,7,0,5.4,0,3.5S1.6,0,3.5,0c1.6,0,2.9,1.1,3.4,2.5l9.6,0c0.5,0,0.9,0.4,1,0.9
l0,0.1V10c0,0.5-0.4,0.9-0.9,1l-0.1,0h-12v4.5l8.6,0c0.4-1.4,1.8-2.5,3.4-2.5c1.9,0,3.5,1.6,3.5,3.5S18.4,20,16.5,20
c-1.6,0-2.9-1.1-3.4-2.5l-9.6,0c-0.5,0-0.9-0.4-1-0.9l0-0.1V10c0-0.5,0.4-0.9,0.9-1l0.1,0h12V4.5l-8.6,0C6.4,5.9,5.1,7,3.5,7z
  M16.5,15c-0.8,0-1.5,0.7-1.5,1.5c0,0.8,0.7,1.5,1.5,1.5c0.8,0,1.5-0.7,1.5-1.5C18,15.7,17.3,15,16.5,15z M3.5,2C2.7,2,2,2.7,2,3.5
S2.7,5,3.5,5S5,4.3,5,3.5S4.3,2,3.5,2z"
  />
</svg>
