<?xml version="1.0" encoding="utf-8"?>
<!-- Generator: Adobe Illustrator 24.0.1, SVG Export Plug-In . SVG Version: 6.00 Build 0)  -->
<svg
  version="1.1"
  id="图层_1"
  xmlns="http://www.w3.org/2000/svg"
  xmlns:xlink="http://www.w3.org/1999/xlink"
  x="0px"
  y="0px"
  viewBox="0 0 20 20"
  style="enable-background:new 0 0 20 20;"
  xml:space="preserve"
>
  <style type="text/css">
    .st0 {
      fill: none;
    }
    .st1 {
      fill-rule: evenodd;
      clip-rule: evenodd;
      fill: #333333;
    }
    .st2 {
      fill: #333333;
    }
  </style>
  <title>工具箱</title>
  <g>
    <rect id="矩形" x="2" y="2" class="st0" width="16" height="16" />
    <path
      id="tools-工具"
      class="st1"
      d="M11.9,2.8c-1.3,0-2.7,0.5-3.7,1.5C6.8,5.8,6.3,7.8,6.9,9.7L3,13.5c-0.3,0.3-0.3,0.8,0,1.1
  L5.3,17c0.2,0.2,0.4,0.2,0.6,0.2c0.2,0,0.4-0.1,0.6-0.2l3.9-3.9c0.5,0.2,1.1,0.2,1.6,0.2c1.3,0,2.7-0.5,3.7-1.5
  c2-2,2.1-5.1,0.3-7.2l-2.3,2.3l-0.6-0.6l2.3-2.3C14.4,3.2,13.1,2.8,11.9,2.8 M11.9,4.4c0.2,0,0.5,0,0.7,0.1l-0.7,0.7l-1.1,1.1
  l1.1,1.1l0.6,0.6l1.1,1.1l1.1-1.1l0.7-0.7c0.2,1.2-0.1,2.4-1,3.3c-0.7,0.7-1.6,1.1-2.6,1.1c-0.4,0-0.7-0.1-1.1-0.2l-0.9-0.3
  l-0.7,0.7l-3.3,3.3l-1.1-1.1l3.3-3.3l0.7-0.7L8.5,9.2C8,7.9,8.4,6.5,9.3,5.5C10,4.8,11,4.4,11.9,4.4"
    />
    <path
      id="矩形_1_"
      class="st2"
      d="M19,0c0.6,0,1,0.4,1,1v18c0,0.6-0.4,1-1,1H1c-0.6,0-1-0.4-1-1V1c0-0.6,0.4-1,1-1H19z M18,2H2
  v16h16V2z"
    />
  </g>
</svg>
